<?xml version="1.0" encoding="utf-8" standalone="yes"?>
<!DOCTYPE svg PUBLIC "-//W3C//DTD SVG 1.1//EN" "http://www.w3.org/Graphics/SVG/1.1/DTD/svg11.dtd">
<svg width="514" height="814" viewBox="0 0 514 814" style="fill:none;stroke:none;fill-rule:evenodd;clip-rule:evenodd;stroke-linecap:round;stroke-linejoin:round;stroke-miterlimit:1.5;" version="1.1" xmlns="http://www.w3.org/2000/svg" xmlns:xlink="http://www.w3.org/1999/xlink"><style id="fontImports">@import url("https://fonts.googleapis.com/css2?family=Roboto:wght@400;700&amp;display=block");</style><g id="items" style="isolation: isolate"><g id="blend" style="mix-blend-mode: normal"><g id="g-root-ro_qofrsz1q71a0y-fill" data-item-order="-15552" transform="translate(263, 39)"><g id="ro_qofrsz1q71a0y-fill" stroke="none" fill="#e8f9ff"><g><path d="M 22 10L 214 10C 214 10 226 10 226 22L 226 70C 226 70 226 82 214 82L 22 82C 22 82 10 82 10 70L 10 22C 10 22 10 10 22 10"></path></g></g></g><g id="g-root-ro_qvw8lf1qh3pj9-fill" data-item-order="-15552" transform="translate(263, 683)"><g id="ro_qvw8lf1qh3pj9-fill" stroke="none" fill="#e8f9ff"><g><path d="M 22 10L 214 10C 214 10 226 10 226 22L 226 70C 226 70 226 82 214 82L 22 82C 22 82 10 82 10 70L 10 22C 10 22 10 10 22 10"></path></g></g></g><g id="g-root-ro_1ulj4hv1qgzgue-fill" data-item-order="-15552" transform="translate(263, 591)"><g id="ro_1ulj4hv1qgzgue-fill" stroke="none" fill="#e8f9ff"><g><path d="M 22 10L 214 10C 214 10 226 10 226 22L 226 70C 226 70 226 82 214 82L 22 82C 22 82 10 82 10 70L 10 22C 10 22 10 10 22 10"></path></g></g></g><g id="g-root-ro_1czwm0z1q78c90-fill" data-item-order="-15552" transform="translate(263, 131)"><g id="ro_1czwm0z1q78c90-fill" stroke="none" fill="#e8f9ff"><g><path d="M 22 10L 214 10C 214 10 226 10 226 22L 226 70C 226 70 226 82 214 82L 22 82C 22 82 10 82 10 70L 10 22C 10 22 10 10 22 10"></path></g></g></g><g id="g-root-ro_mg2qgz1qgpn9l-fill" data-item-order="-15552" transform="translate(263, 499)"><g id="ro_mg2qgz1qgpn9l-fill" stroke="none" fill="#e8f9ff"><g><path d="M 22 10L 214 10C 214 10 226 10 226 22L 226 70C 226 70 226 82 214 82L 22 82C 22 82 10 82 10 70L 10 22C 10 22 10 10 22 10"></path></g></g></g><g id="g-root-ro_9248lf1qh7xfm-fill" data-item-order="-15552" transform="translate(263, 407)"><g id="ro_9248lf1qh7xfm-fill" stroke="none" fill="#e8f9ff"><g><path d="M 22 10L 214 10C 214 10 226 10 226 22L 226 70C 226 70 226 82 214 82L 22 82C 22 82 10 82 10 70L 10 22C 10 22 10 10 22 10"></path></g></g></g><g id="g-root-ro_mbpbpf1qgr1fm-fill" data-item-order="-15552" transform="translate(263, 223)"><g id="ro_mbpbpf1qgr1fm-fill" stroke="none" fill="#e8f9ff"><g><path d="M 22 10L 214 10C 214 10 226 10 226 22L 226 70C 226 70 226 82 214 82L 22 82C 22 82 10 82 10 70L 10 22C 10 22 10 10 22 10"></path></g></g></g><g id="g-root-ro_1lsdxfn1qgzhmw-fill" data-item-order="-15552" transform="translate(263, 315)"><g id="ro_1lsdxfn1qgzhmw-fill" stroke="none" fill="#e8f9ff"><g><path d="M 22 10L 214 10C 214 10 226 10 226 22L 226 70C 226 70 226 82 214 82L 22 82C 22 82 10 82 10 70L 10 22C 10 22 10 10 22 10"></path></g></g></g><g id="g-root-ro_1lw63cz1q6vn61-fill" data-item-order="-13824" transform="translate(15, 177)"><g id="ro_1lw63cz1q6vn61-fill" stroke="none" fill="#f5f5f5"><g><path d="M 22 10L 190 10C 190 10 202 10 202 22L 202 70C 202 70 202 82 190 82L 22 82C 22 82 10 82 10 70L 10 22C 10 22 10 10 22 10"></path></g></g></g><g id="g-root-ro_djt5z71qh3pxq-fill" data-item-order="-13824" transform="translate(15, 545)"><g id="ro_djt5z71qh3pxq-fill" stroke="none" fill="#f5f5f5"><g><path d="M 22 10L 190 10C 190 10 202 10 202 22L 202 70C 202 70 202 82 190 82L 22 82C 22 82 10 82 10 70L 10 22C 10 22 10 10 22 10"></path></g></g></g><g id="g-root-cu_4pf72b1qh3pja-fill" data-item-order="2" transform="translate(207, 75)"></g><g id="g-root-cu_9loxv1qh3pjd-fill" data-item-order="2" transform="translate(207, 581)"></g><g id="g-root-cu_4pf72b1qh3or2-fill" data-item-order="2" transform="translate(207, 581)"></g><g id="g-root-cu_9loxv1qh3pjf-fill" data-item-order="2" transform="translate(207, 535)"></g><g id="g-root-cu_4pf72b1qh3pj8-fill" data-item-order="2" transform="translate(207, 167)"></g><g id="g-root-cu_9loxv1qh3pjh-fill" data-item-order="2" transform="translate(207, 443)"></g><g id="g-root-cu_9loxv1qh3pjj-fill" data-item-order="2" transform="translate(207, 213)"></g><g id="g-root-cu_4pf72b1qh3pj6-fill" data-item-order="2" transform="translate(207, 213)"></g><g id="g-root-tx_communic_zn5u2r1qgqzuo-fill" data-item-order="2000000000" transform="translate(311, 235)"><g id="tx_communic_zn5u2r1qgqzuo-fill" stroke="none" fill="#1eabda"><g><text style="font: 20px Roboto, sans-serif; white-space: pre;" font-size="20px" font-family="Roboto, sans-serif"><tspan x="12" y="33.5" dominant-baseline="ideographic">Communication </tspan><tspan x="12" y="57.5" dominant-baseline="ideographic">Strategy</tspan></text></g></g></g><g id="g-root-1_1lsdxfn1qgzhmv-fill" data-item-order="2000000000" transform="translate(275, 336)"></g><g id="g-root-tx_backward_1q87fk31qgzgum-fill" data-item-order="2000000000" transform="translate(311, 327)"><g id="tx_backward_1q87fk31qgzgum-fill" stroke="none" fill="#1eabda"><g><text style="font: 20px Roboto, sans-serif; white-space: pre;" font-size="20px" font-family="Roboto, sans-serif"><tspan x="12" y="33.5" dominant-baseline="ideographic">Backward </tspan><tspan x="12" y="57.5" dominant-baseline="ideographic">Compatibility</tspan></text></g></g></g><g id="g-root-mega_mbpbpf1qgr1fl-fill" data-item-order="2000000000" transform="translate(275, 244)"></g><g id="g-root-sear_9248lf1qh7xfl-fill" data-item-order="2000000000" transform="translate(275, 428)"></g><g id="g-root-tx_issuetra_dhxqpv1qh7wnc-fill" data-item-order="2000000000" transform="translate(311, 419)"><g id="tx_issuetra_dhxqpv1qh7wnc-fill" stroke="none" fill="#1eabda"><g><text style="font: 20px Roboto, sans-serif; white-space: pre;" font-size="20px" font-family="Roboto, sans-serif"><tspan x="12" y="33.5" dominant-baseline="ideographic">Issue </tspan><tspan x="12" y="57.5" dominant-baseline="ideographic">Tracking</tspan></text></g></g></g><g id="g-root-tx_lifecycl_1qbzlhf1q6vmdr-fill" data-item-order="2000000000" transform="translate(63, 189)"><g id="tx_lifecycl_1qbzlhf1q6vmdr-fill" stroke="none" fill="#484848"><g><text style="font: 20px Roboto, sans-serif; white-space: pre;" font-size="20px" font-family="Roboto, sans-serif"><tspan x="12" y="33.5" dominant-baseline="ideographic">Lifecycle </tspan><tspan x="12" y="57.5" dominant-baseline="ideographic">Management</tspan></text></g></g></g><g id="g-root-edit_vbpqpv1qgpmgw-fill" data-item-order="2000000000" transform="translate(275, 520)"></g><g id="g-root-tx_document_qvw8lf1qgpmhb-fill" data-item-order="2000000000" transform="translate(311, 511)"><g id="tx_document_qvw8lf1qgpmhb-fill" stroke="none" fill="#1eabda"><g><text style="font: 20px Roboto, sans-serif; white-space: pre;" font-size="20px" font-family="Roboto, sans-serif"><tspan x="12" y="33.5" dominant-baseline="ideographic">Documentation </tspan><tspan x="12" y="57.5" dominant-baseline="ideographic">Updates</tspan></text></g></g></g><g id="g-root-cloc_1lw63cz1q6vn60-fill" data-item-order="2000000000" transform="translate(27, 198)"></g><g id="g-root-supp_djt5z71qh3pxp-fill" data-item-order="2000000000" transform="translate(27, 566)"></g><g id="g-root-tx_supporta_mfg6831qh3p50-fill" data-item-order="2000000000" transform="translate(63, 557)"><g id="tx_supporta_mfg6831qh3p50-fill" stroke="none" fill="#484848"><g><text style="font: 20px Roboto, sans-serif; white-space: pre;" font-size="20px" font-family="Roboto, sans-serif"><tspan x="12" y="33.5" dominant-baseline="ideographic">Support and </tspan><tspan x="12" y="57.5" dominant-baseline="ideographic">Operations</tspan></text></g></g></g><g id="g-root-tx_versiond_1hfq45f1q78bgq-fill" data-item-order="2000000000" transform="translate(311, 143)"><g id="tx_versiond_1hfq45f1q78bgq-fill" stroke="none" fill="#1eabda"><g><text style="font: 20px Roboto, sans-serif; white-space: pre;" font-size="20px" font-family="Roboto, sans-serif"><tspan x="12" y="33.5" dominant-baseline="ideographic">Version </tspan><tspan x="12" y="57.5" dominant-baseline="ideographic">Deprecation</tspan></text></g></g></g><g id="g-root-pers_8kn71qgzg99-fill" data-item-order="2000000000" transform="translate(275, 612)"></g><g id="g-root-tx_healthch_8kn71qgzg98-fill" data-item-order="2000000000" transform="translate(311, 603)"><g id="tx_healthch_8kn71qgzg98-fill" stroke="none" fill="#1eabda"><g><text style="font: 20px Roboto, sans-serif; white-space: pre;" font-size="20px" font-family="Roboto, sans-serif"><tspan x="12" y="33.5" dominant-baseline="ideographic">Health </tspan><tspan x="12" y="57.5" dominant-baseline="ideographic">Checks</tspan></text></g></g></g><g id="g-root-tx_security_18f3b7n1q71atk-fill" data-item-order="2000000000" transform="translate(311, 51)"><g id="tx_security_18f3b7n1q71atk-fill" stroke="none" fill="#1eabda"><g><text style="font: 20px Roboto, sans-serif; white-space: pre;" font-size="20px" font-family="Roboto, sans-serif"><tspan x="12" y="33.5" dominant-baseline="ideographic">Security </tspan><tspan x="12" y="57.5" dominant-baseline="ideographic">Patches</tspan></text></g></g></g><g id="g-root-uplo_qvw8lf1qh3pj8-fill" data-item-order="2000000000" transform="translate(275, 704)"></g><g id="g-root-tx_backuppl_vbpqpv1qh3oqz-fill" data-item-order="2000000000" transform="translate(311, 695)"><g id="tx_backuppl_vbpqpv1qh3oqz-fill" stroke="none" fill="#1eabda"><g><text style="font: 20px Roboto, sans-serif; white-space: pre;" font-size="20px" font-family="Roboto, sans-serif"><tspan x="12" y="33.5" dominant-baseline="ideographic">Backup </tspan><tspan x="12" y="57.5" dominant-baseline="ideographic">Planning</tspan></text></g></g></g><g id="g-root-shie_v499xf1q7198p-fill" data-item-order="2000000000" transform="translate(275, 60)"></g><g id="g-root-thre_1hfq45f1q78bgr-fill" data-item-order="2000000000" transform="translate(275, 152)"></g><g id="g-root-ro_qofrsz1q71a0y-stroke" data-item-order="-15552" transform="translate(263, 39)"><g id="ro_qofrsz1q71a0y-stroke" fill="none" stroke-linecap="round" stroke-linejoin="round" stroke-miterlimit="4" stroke="#1eabda" stroke-width="2"><g><path d="M 22 10L 214 10C 214 10 226 10 226 22L 226 70C 226 70 226 82 214 82L 22 82C 22 82 10 82 10 70L 10 22C 10 22 10 10 22 10"></path></g></g></g><g id="g-root-ro_qvw8lf1qh3pj9-stroke" data-item-order="-15552" transform="translate(263, 683)"><g id="ro_qvw8lf1qh3pj9-stroke" fill="none" stroke-linecap="round" stroke-linejoin="round" stroke-miterlimit="4" stroke="#1eabda" stroke-width="2"><g><path d="M 22 10L 214 10C 214 10 226 10 226 22L 226 70C 226 70 226 82 214 82L 22 82C 22 82 10 82 10 70L 10 22C 10 22 10 10 22 10"></path></g></g></g><g id="g-root-ro_1ulj4hv1qgzgue-stroke" data-item-order="-15552" transform="translate(263, 591)"><g id="ro_1ulj4hv1qgzgue-stroke" fill="none" stroke-linecap="round" stroke-linejoin="round" stroke-miterlimit="4" stroke="#1eabda" stroke-width="2"><g><path d="M 22 10L 214 10C 214 10 226 10 226 22L 226 70C 226 70 226 82 214 82L 22 82C 22 82 10 82 10 70L 10 22C 10 22 10 10 22 10"></path></g></g></g><g id="g-root-ro_1czwm0z1q78c90-stroke" data-item-order="-15552" transform="translate(263, 131)"><g id="ro_1czwm0z1q78c90-stroke" fill="none" stroke-linecap="round" stroke-linejoin="round" stroke-miterlimit="4" stroke="#1eabda" stroke-width="2"><g><path d="M 22 10L 214 10C 214 10 226 10 226 22L 226 70C 226 70 226 82 214 82L 22 82C 22 82 10 82 10 70L 10 22C 10 22 10 10 22 10"></path></g></g></g><g id="g-root-ro_mg2qgz1qgpn9l-stroke" data-item-order="-15552" transform="translate(263, 499)"><g id="ro_mg2qgz1qgpn9l-stroke" fill="none" stroke-linecap="round" stroke-linejoin="round" stroke-miterlimit="4" stroke="#1eabda" stroke-width="2"><g><path d="M 22 10L 214 10C 214 10 226 10 226 22L 226 70C 226 70 226 82 214 82L 22 82C 22 82 10 82 10 70L 10 22C 10 22 10 10 22 10"></path></g></g></g><g id="g-root-ro_9248lf1qh7xfm-stroke" data-item-order="-15552" transform="translate(263, 407)"><g id="ro_9248lf1qh7xfm-stroke" fill="none" stroke-linecap="round" stroke-linejoin="round" stroke-miterlimit="4" stroke="#1eabda" stroke-width="2"><g><path d="M 22 10L 214 10C 214 10 226 10 226 22L 226 70C 226 70 226 82 214 82L 22 82C 22 82 10 82 10 70L 10 22C 10 22 10 10 22 10"></path></g></g></g><g id="g-root-ro_mbpbpf1qgr1fm-stroke" data-item-order="-15552" transform="translate(263, 223)"><g id="ro_mbpbpf1qgr1fm-stroke" fill="none" stroke-linecap="round" stroke-linejoin="round" stroke-miterlimit="4" stroke="#1eabda" stroke-width="2"><g><path d="M 22 10L 214 10C 214 10 226 10 226 22L 226 70C 226 70 226 82 214 82L 22 82C 22 82 10 82 10 70L 10 22C 10 22 10 10 22 10"></path></g></g></g><g id="g-root-ro_1lsdxfn1qgzhmw-stroke" data-item-order="-15552" transform="translate(263, 315)"><g id="ro_1lsdxfn1qgzhmw-stroke" fill="none" stroke-linecap="round" stroke-linejoin="round" stroke-miterlimit="4" stroke="#1eabda" stroke-width="2"><g><path d="M 22 10L 214 10C 214 10 226 10 226 22L 226 70C 226 70 226 82 214 82L 22 82C 22 82 10 82 10 70L 10 22C 10 22 10 10 22 10"></path></g></g></g><g id="g-root-ro_1lw63cz1q6vn61-stroke" data-item-order="-13824" transform="translate(15, 177)"><g id="ro_1lw63cz1q6vn61-stroke" fill="none" stroke-linecap="round" stroke-linejoin="round" stroke-miterlimit="4" stroke="#484848" stroke-width="2"><g><path d="M 22 10L 190 10C 190 10 202 10 202 22L 202 70C 202 70 202 82 190 82L 22 82C 22 82 10 82 10 70L 10 22C 10 22 10 10 22 10"></path></g></g></g><g id="g-root-ro_djt5z71qh3pxq-stroke" data-item-order="-13824" transform="translate(15, 545)"><g id="ro_djt5z71qh3pxq-stroke" fill="none" stroke-linecap="round" stroke-linejoin="round" stroke-miterlimit="4" stroke="#484848" stroke-width="2"><g><path d="M 22 10L 190 10C 190 10 202 10 202 22L 202 70C 202 70 202 82 190 82L 22 82C 22 82 10 82 10 70L 10 22C 10 22 10 10 22 10"></path></g></g></g><g id="g-root-cu_4pf72b1qh3pja-stroke" data-item-order="2" transform="translate(207, 75)"><g id="cu_4pf72b1qh3pja-stroke" fill="none" stroke-linecap="round" stroke-linejoin="round" stroke-miterlimit="4" stroke="#484848" stroke-width="2"><g><path d="M 10 148L 24 148L 38 148L 38 79L 38 10L 52 10L 64 10"></path><path d="M 58 16.5L 64.5 10L 58 3.5" stroke-dasharray="none"></path></g></g></g><g id="g-root-cu_9loxv1qh3pjd-stroke" data-item-order="2" transform="translate(207, 581)"><g id="cu_9loxv1qh3pjd-stroke" fill="none" stroke-linecap="round" stroke-linejoin="round" stroke-miterlimit="4" stroke="#484848" stroke-width="2"><g><path d="M 10 10L 24 10L 38 10L 38 33L 38 56L 52 56L 64 56"></path><path d="M 58 62.5L 64.5 56L 58 49.5" stroke-dasharray="none"></path></g></g></g><g id="g-root-cu_4pf72b1qh3or2-stroke" data-item-order="2" transform="translate(207, 581)"><g id="cu_4pf72b1qh3or2-stroke" fill="none" stroke-linecap="round" stroke-linejoin="round" stroke-miterlimit="4" stroke="#484848" stroke-width="2"><g><path d="M 10 10L 24 10L 38 10L 38 79L 38 148L 52 148L 64 148"></path><path d="M 58 154.5L 64.5 148L 58 141.5" stroke-dasharray="none"></path></g></g></g><g id="g-root-cu_9loxv1qh3pjf-stroke" data-item-order="2" transform="translate(207, 535)"><g id="cu_9loxv1qh3pjf-stroke" fill="none" stroke-linecap="round" stroke-linejoin="round" stroke-miterlimit="4" stroke="#484848" stroke-width="2"><g><path d="M 10 56L 24 56L 38 56L 38 33L 38 10L 52 10L 64 10"></path><path d="M 58 16.5L 64.5 10L 58 3.5" stroke-dasharray="none"></path></g></g></g><g id="g-root-cu_4pf72b1qh3pj8-stroke" data-item-order="2" transform="translate(207, 167)"><g id="cu_4pf72b1qh3pj8-stroke" fill="none" stroke-linecap="round" stroke-linejoin="round" stroke-miterlimit="4" stroke="#484848" stroke-width="2"><g><path d="M 10 56L 24 56L 38 56L 38 33L 38 10L 52 10L 64 10"></path><path d="M 58 16.5L 64.5 10L 58 3.5" stroke-dasharray="none"></path></g></g></g><g id="g-root-cu_9loxv1qh3pjh-stroke" data-item-order="2" transform="translate(207, 443)"><g id="cu_9loxv1qh3pjh-stroke" fill="none" stroke-linecap="round" stroke-linejoin="round" stroke-miterlimit="4" stroke="#484848" stroke-width="2"><g><path d="M 10 148L 24 148L 38 148L 38 79L 38 10L 52 10L 64 10"></path><path d="M 58 16.5L 64.5 10L 58 3.5" stroke-dasharray="none"></path></g></g></g><g id="g-root-cu_9loxv1qh3pjj-stroke" data-item-order="2" transform="translate(207, 213)"><g id="cu_9loxv1qh3pjj-stroke" fill="none" stroke-linecap="round" stroke-linejoin="round" stroke-miterlimit="4" stroke="#484848" stroke-width="2"><g><path d="M 10 10L 24 10L 38 10L 38 79L 38 148L 52 148L 64 148"></path><path d="M 58 154.5L 64.5 148L 58 141.5" stroke-dasharray="none"></path></g></g></g><g id="g-root-cu_4pf72b1qh3pj6-stroke" data-item-order="2" transform="translate(207, 213)"><g id="cu_4pf72b1qh3pj6-stroke" fill="none" stroke-linecap="round" stroke-linejoin="round" stroke-miterlimit="4" stroke="#484848" stroke-width="2"><g><path d="M 10 10L 24 10L 38 10L 38 33L 38 56L 52 56L 64 56"></path><path d="M 58 62.5L 64.5 56L 58 49.5" stroke-dasharray="none"></path></g></g></g><g id="g-root-tx_communic_zn5u2r1qgqzuo-stroke" data-item-order="2000000000" transform="translate(311, 235)"></g><g id="g-root-1_1lsdxfn1qgzhmv-stroke" data-item-order="2000000000" transform="translate(275, 336)"><g id="1_1lsdxfn1qgzhmv-stroke" fill="none" stroke-linecap="round" stroke-linejoin="round" stroke-miterlimit="4" stroke="#1eabda" stroke-width="2"><g><path d="M 38.75 15.625C 39.095177 15.625 39.375 15.904821 39.375 16.25L 39.375 26.616251C 39.375298 26.782124 39.309643 26.941311 39.192501 27.05875L 32.05875 34.192501C 31.941311 34.309643 31.782124 34.375298 31.616249 34.375L 21.875 34.375L 21.875 37.5C 21.875088 37.766788 21.70582 38.004219 21.453581 38.091118C 21.201344 38.178017 20.921755 38.09523 20.7575 37.885002L 10.7575 25.385C 10.580622 25.158808 10.580622 24.841192 10.7575 24.615L 20.7575 12.115C 20.921755 11.904772 21.201344 11.821982 21.453581 11.908883C 21.70582 11.995783 21.875088 12.233212 21.875 12.5L 21.875 15C 21.875 15.345179 22.154823 15.625 22.5 15.625ZM 31.875 34.314999L 31.875 27.5C 31.875 27.154823 32.154823 26.875 32.5 26.875L 39.31625 26.875"></path></g></g></g><g id="g-root-tx_backward_1q87fk31qgzgum-stroke" data-item-order="2000000000" transform="translate(311, 327)"></g><g id="g-root-mega_mbpbpf1qgr1fl-stroke" data-item-order="2000000000" transform="translate(275, 244)"><g id="mega_mbpbpf1qgr1fl-stroke" fill="none" stroke-linecap="round" stroke-linejoin="round" stroke-miterlimit="4" stroke="#1eabda" stroke-width="2"><g><path d="M 10 10M 10.7425 34.415001L 12.84125 37.577499M 10 10M 22.348749 20.331251L 30.325001 32.3475M 29.90625 31.715L 12.42125 36.945L 11.1625 35.047501L 22.7675 20.963749L 29.90625 31.715ZM 21.52 34.2225C 22.170069 34.968304 22.351778 36.013588 21.991541 36.93502C 21.631302 37.856453 20.788818 38.501324 19.805288 38.608463C 18.82176 38.715603 17.860186 38.267258 17.309999 37.445L 16.213751 35.793751M 10 10M 14.485 25.575001L 13.64625 24.686249C 13.419251 24.445484 13.419251 24.069515 13.64625 23.828751L 15.89625 21.453751L 15.14625 18.27125C 15.070225 17.948914 15.258834 17.623234 15.57625 17.528749L 18.71125 16.594999L 19.645 13.46C 19.737686 13.146937 20.055725 12.957966 20.375 13.02625L 23.55625 13.7825L 25.93125 11.5325C 26.172014 11.305501 26.547985 11.305501 26.78875 11.5325L 29.16375 13.7825L 32.346252 13.0325C 32.668587 12.956474 32.994267 13.145083 33.088753 13.4625L 34.022499 16.5975L 37.157501 17.53125C 37.478508 17.625816 37.668068 17.956448 37.587502 18.28125L 36.842503 21.450001L 39.092499 23.825001C 39.3195 24.065765 39.3195 24.441736 39.092499 24.682501L 36.842503 27.057499L 37.598751 30.23875C 37.675529 30.561501 37.486759 30.888 37.168751 30.982498L 34.033749 31.916252L 33.099998 35.05125C 33.004974 35.368759 32.678631 35.556885 32.356251 35.48L 29.174999 34.73L 26.799999 36.98C 26.559235 37.206997 26.183264 37.206997 25.942499 36.98L 25.491249 36.553749"></path></g></g></g><g id="g-root-sear_9248lf1qh7xfl-stroke" data-item-order="2000000000" transform="translate(275, 428)"><g id="sear_9248lf1qh7xfl-stroke" fill="none" stroke-linecap="round" stroke-linejoin="round" stroke-miterlimit="4" stroke="#1eabda" stroke-width="2"><g><path d="M 11.071428 22.685715C 11.070206 29.100971 16.270456 34.302216 22.685715 34.302216C 29.100971 34.302216 34.30122 29.100971 34.299999 22.685715C 34.30122 16.270456 29.100971 11.069214 22.685715 11.069214C 16.270456 11.069214 11.070206 16.270456 11.071428 22.685715M 38.92857 38.92857L 30.892857 30.892857"></path></g></g></g><g id="g-root-tx_issuetra_dhxqpv1qh7wnc-stroke" data-item-order="2000000000" transform="translate(311, 419)"></g><g id="g-root-tx_lifecycl_1qbzlhf1q6vmdr-stroke" data-item-order="2000000000" transform="translate(63, 189)"></g><g id="g-root-edit_vbpqpv1qgpmgw-stroke" data-item-order="2000000000" transform="translate(275, 520)"><g id="edit_vbpqpv1qgpmgw-stroke" fill="none" stroke-linecap="round" stroke-linejoin="round" stroke-miterlimit="4" stroke="#1eabda" stroke-width="2"><g><path d="M 19.375 39.375L 14.375 39.375C 12.994288 39.375 11.875 38.255714 11.875 36.875L 11.875 13.125M 35.625 10.625L 14.375 10.625C 12.994288 10.625 11.875 11.744288 11.875 13.125C 11.875 14.505712 12.994288 15.625 14.375 15.625L 34.375 15.625C 35.065353 15.625 35.625 16.184645 35.625 16.875L 35.625 21.25M 14.377501 13.125L 34.377502 13.125M 28.375 37.875L 23.125 39.375L 24.625 34.125L 33.598751 25.151251C 34.634281 24.115715 36.313213 24.115715 37.348751 25.151249C 38.384281 26.186783 38.384281 27.865715 37.348751 28.901249ZM 32.473751 26.276249L 36.223751 30.026249M 24.625 34.125L 28.375 37.875"></path></g></g></g><g id="g-root-tx_document_qvw8lf1qgpmhb-stroke" data-item-order="2000000000" transform="translate(311, 511)"></g><g id="g-root-cloc_1lw63cz1q6vn60-stroke" data-item-order="2000000000" transform="translate(27, 198)"><g id="cloc_1lw63cz1q6vn60-stroke" fill="none" stroke-linecap="round" stroke-linejoin="round" stroke-miterlimit="4" stroke="#484848" stroke-width="2"><g><path d="M 10.625 15.625L 35.625 15.625M 14.0625 12.8125C 13.889911 12.8125 13.75 12.952411 13.75 13.125C 13.75 13.297589 13.889911 13.4375 14.0625 13.4375C 14.235089 13.4375 14.375 13.297589 14.375 13.125C 14.375 12.952411 14.235089 12.8125 14.0625 12.8125L 14.0625 12.8125M 17.1875 12.8125C 17.014912 12.8125 16.875 12.952411 16.875 13.125C 16.875 13.297589 17.014912 13.4375 17.1875 13.4375C 17.360088 13.4375 17.5 13.297589 17.5 13.125C 17.5 12.952411 17.360088 12.8125 17.1875 12.8125L 17.1875 12.8125M 20.3125 12.8125C 20.139912 12.8125 20 12.952411 20 13.125C 20 13.297589 20.139912 13.4375 20.3125 13.4375C 20.485088 13.4375 20.625 13.297589 20.625 13.125C 20.625 12.952411 20.485088 12.8125 20.3125 12.8125L 20.3125 12.8125M 19.375 29.375L 13.125 29.375C 11.744288 29.375 10.625 28.255713 10.625 26.875L 10.625 13.125C 10.625 11.744288 11.744288 10.625 13.125 10.625L 33.125 10.625C 34.505714 10.625 35.625 11.744288 35.625 13.125L 35.625 19.375M 23.125 31.875C 23.125002 36.017136 26.482864 39.375 30.625 39.375C 34.767136 39.375 38.125 36.017136 38.125 31.875C 38.125 27.732864 34.767136 24.375002 30.625 24.375002C 26.482864 24.375002 23.125002 27.732864 23.125002 31.875ZM 30.625 26.875L 30.625 31.875L 34.375 31.875M 25 22.5L 21.875 25.625M 39.375 25.625L 36.25 22.5"></path></g></g></g><g id="g-root-supp_djt5z71qh3pxp-stroke" data-item-order="2000000000" transform="translate(27, 566)"><g id="supp_djt5z71qh3pxp-stroke" fill="none" stroke-linecap="round" stroke-linejoin="round" stroke-miterlimit="4" stroke="#484848" stroke-width="2"><g><path d="M 30 36.875L 31.25 36.875C 33.6675 36.875 35.625 35.541252 35.625 33.125L 35.625 30.4125M 34.375 20.625C 36.811394 20.623276 38.894318 22.377882 39.306477 24.77916C 39.718636 27.180437 38.340019 29.529188 36.0425 30.34C 35.659985 30.475544 35.23547 30.416956 34.903965 30.182867C 34.572464 29.948776 34.375233 29.568323 34.375 29.1625ZM 15.625 20.625C 13.188608 20.623276 11.105683 22.377882 10.693523 24.77916C 10.281364 27.180437 11.659982 29.529188 13.9575 30.34C 14.340018 30.475544 14.764531 30.416956 15.096034 30.182867C 15.427538 29.948776 15.624767 29.568323 15.625 29.1625ZM 34.375 22.5L 34.375 20C 34.375 14.822331 30.17767 10.625001 25.000002 10.625001C 19.82233 10.625001 15.625001 14.822331 15.625001 20L 15.625 22.5M 24.375 35.625L 29.375 35.625C 29.720177 35.625 30 35.904823 30 36.25L 30 37.5C 30 37.845177 29.720177 38.125 29.375 38.125L 24.375 38.125C 23.684643 38.125 23.125 37.565353 23.125 36.875L 23.125 36.875C 23.125 36.184647 23.684643 35.625 24.375 35.625Z"></path></g></g></g><g id="g-root-tx_supporta_mfg6831qh3p50-stroke" data-item-order="2000000000" transform="translate(63, 557)"></g><g id="g-root-tx_versiond_1hfq45f1q78bgq-stroke" data-item-order="2000000000" transform="translate(311, 143)"></g><g id="g-root-pers_8kn71qgzg99-stroke" data-item-order="2000000000" transform="translate(275, 612)"><g id="pers_8kn71qgzg99-stroke" fill="none" stroke-linecap="round" stroke-linejoin="round" stroke-miterlimit="4" stroke="#1eabda" stroke-width="2"><g><path d="M 14.8 13.2375C 16.45446 14.966184 18.744686 15.941901 21.137501 15.9375C 22.339983 15.935541 23.529951 15.693297 24.637501 15.225M 14.0625 15.9375C 14.0625 18.871513 16.440987 21.25 19.375 21.25C 22.309013 21.25 24.6875 18.871513 24.6875 15.9375C 24.6875 13.003488 22.309013 10.625 19.375 10.625C 16.440987 10.625 14.0625 13.003488 14.0625 15.9375M 21.25 31.875L 10.625 31.875C 10.625756 28.675972 12.372236 25.732347 15.179555 24.198479C 17.986874 22.66461 21.40749 22.785025 24.1 24.512501M 25.625 28.125L 38.125 28.125C 38.125 28.125 39.375 28.125 39.375 29.375L 39.375 38.125C 39.375 38.125 39.375 39.375 38.125 39.375L 25.625 39.375C 25.625 39.375 24.375 39.375 24.375 38.125L 24.375 29.375C 24.375 29.375 24.375 28.125 25.625 28.125M 35 32.8125C 35 32.639912 34.860088 32.5 34.6875 32.5L 33.125 32.5L 33.125 30.9375C 33.125 30.764912 32.985088 30.625 32.8125 30.625L 30.9375 30.625C 30.764912 30.625 30.625 30.764912 30.625 30.9375L 30.625 32.5L 29.0625 32.5C 28.889912 32.5 28.75 32.639912 28.75 32.8125L 28.75 34.6875C 28.75 34.860088 28.889912 35 29.0625 35L 30.625 35L 30.625 36.5625C 30.625 36.735088 30.764912 36.875 30.9375 36.875L 32.8125 36.875C 32.985088 36.875 33.125 36.735088 33.125 36.5625L 33.125 35L 34.6875 35C 34.860088 35 35 34.860088 35 34.6875ZM 29.375 28.125L 29.375 26.875C 29.375 26.184643 29.934643 25.625 30.625 25.625L 33.125 25.625C 33.815353 25.625 34.375 26.184643 34.375 26.875L 34.375 28.125"></path></g></g></g><g id="g-root-tx_healthch_8kn71qgzg98-stroke" data-item-order="2000000000" transform="translate(311, 603)"></g><g id="g-root-tx_security_18f3b7n1q71atk-stroke" data-item-order="2000000000" transform="translate(311, 51)"></g><g id="g-root-uplo_qvw8lf1qh3pj8-stroke" data-item-order="2000000000" transform="translate(275, 704)"><g id="uplo_qvw8lf1qh3pj8-stroke" fill="none" stroke-linecap="round" stroke-linejoin="round" stroke-miterlimit="4" stroke="#1eabda" stroke-width="2"><g><path d="M 30.375 29.86375L 33.375 29.86375C 33.375 29.86375 38.75 29.1625 38.75 23.885C 38.751179 22.262434 38.091461 20.709373 36.922871 19.583708C 35.754284 18.458042 34.177635 17.856878 32.556248 17.918749C 30.92778 14.462387 27.162411 12.550785 23.411076 13.275928C 19.659737 14.001071 16.87804 17.178236 16.655001 20.9925C 15.33392 20.714672 13.957981 21.047035 12.909385 21.897261C 11.860787 22.747488 11.251219 24.025023 11.25 25.375C 11.25 29.93125 16.032501 29.859999 16.032501 29.859999L 19.61125 29.859999M 25 22.98875L 25 36.73875M 28.75 26.73875L 25 22.98875L 21.25 26.73875"></path></g></g></g><g id="g-root-tx_backuppl_vbpqpv1qh3oqz-stroke" data-item-order="2000000000" transform="translate(311, 695)"></g><g id="g-root-shie_v499xf1q7198p-stroke" data-item-order="2000000000" transform="translate(275, 60)"><g id="shie_v499xf1q7198p-stroke" fill="none" stroke-linecap="round" stroke-linejoin="round" stroke-miterlimit="4" stroke="#1eabda" stroke-width="2"><g><path d="M 38.125 10.6625C 38.815353 10.6625 39.375 11.222144 39.375 11.9125L 39.365002 21.375C 39.421951 29.996239 33.477371 37.497795 25.071251 39.412502C 16.64954 37.574181 10.637768 30.128735 10.615 21.508749L 10.63125 11.91875C 10.63125 11.228395 11.190894 10.66875 11.88125 10.66875ZM 30.645 28.137501C 30.646664 28.470102 30.515701 28.789652 30.281101 29.025427C 30.046499 29.2612 29.727608 29.393753 29.395 29.393751L 20.645 29.432499C 19.957077 29.432508 19.398439 28.876663 19.395 28.188749L 19.36125 20.846251C 19.36125 20.155893 19.920895 19.596251 20.61125 19.596251L 29.36125 19.557499C 30.049171 19.557491 30.607811 20.113337 30.61125 20.80125ZM 24.9575 14.4125L 24.9575 14.4125C 22.886423 14.422142 21.215313 16.108923 21.225 18.18L 21.224998 19.5875L 28.724998 19.553751L 28.724998 18.14625C 28.716047 16.074684 27.029064 14.402813 24.9575 14.4125ZM 23.44125 24.491251C 23.44125 25.354195 24.140804 26.053751 25.00375 26.053751C 25.866695 26.053751 26.56625 25.354195 26.56625 24.491251C 26.56625 23.628305 25.866695 22.928751 25.00375 22.928751C 24.140804 22.928751 23.44125 23.628305 23.44125 24.491251Z"></path></g></g></g><g id="g-root-thre_1hfq45f1q78bgr-stroke" data-item-order="2000000000" transform="translate(275, 152)"><g id="thre_1hfq45f1q78bgr-stroke" fill="none" stroke-linecap="round" stroke-linejoin="round" stroke-miterlimit="4" stroke="#1eabda" stroke-width="2"><g><path d="M 17.96875 34.375C 18.93375 37.106251 21.938749 39.0625 25 39.0625C 28.883251 39.0625 32.03125 35.914501 32.03125 32.03125L 32.03125 30.858749C 32.03056 26.975986 28.882765 23.828751 25 23.828751L 24.764999 23.828751C 28.130486 23.829441 30.85931 21.101736 30.860001 17.73625L 30.860001 16.79875C 30.860899 14.276197 29.247383 12.036139 26.854479 11.237844C 24.461575 10.439547 21.826319 11.262173 20.312502 13.28"></path></g></g></g></g></g></svg>