<?xml version="1.0" encoding="utf-8" standalone="yes"?>
<!DOCTYPE svg PUBLIC "-//W3C//DTD SVG 1.1//EN" "http://www.w3.org/Graphics/SVG/1.1/DTD/svg11.dtd">
<svg width="986" height="824" viewBox="0 0 986 824" style="fill:none;stroke:none;fill-rule:evenodd;clip-rule:evenodd;stroke-linecap:round;stroke-linejoin:round;stroke-miterlimit:1.5;" version="1.1" xmlns="http://www.w3.org/2000/svg" xmlns:xlink="http://www.w3.org/1999/xlink"><style id="fontImports">@import url("https://fonts.googleapis.com/css2?family=Roboto:wght@400;700&amp;display=block");</style><g id="items" style="isolation: isolate"><g id="blend" style="mix-blend-mode: normal"><g id="g-root-ro_1upb46q1sf27m3-fill" data-item-order="-21168" transform="translate(399, 264)"><g id="ro_1upb46q1sf27m3-fill" stroke="none" fill="#f5f5f5"><g><path d="M 34 10L 154 10C 154 10 178 10 178 34L 178 112C 178 112 178 136 154 136L 34 136C 34 136 10 136 10 112L 10 34C 10 34 10 10 34 10"></path></g></g></g><g id="g-root-ro_qntasy1seo5jc-fill" data-item-order="-18144" transform="translate(615, 339)"><g id="ro_qntasy1seo5jc-fill" stroke="none" fill="#fffbda"><g><path d="M 22 10L 334 10C 334 10 346 10 346 22L 346 52C 346 52 346 64 334 64L 22 64C 22 64 10 64 10 52L 10 22C 10 22 10 10 22 10"></path></g></g></g><g id="g-root-ro_hu1pte1sf6hvs-fill" data-item-order="-18144" transform="translate(15, 189)"><g id="ro_hu1pte1sf6hvs-fill" stroke="none" fill="#e3fff2"><g><path d="M 22 10L 334 10C 334 10 346 10 346 22L 346 52C 346 52 346 64 334 64L 22 64C 22 64 10 64 10 52L 10 22C 10 22 10 10 22 10"></path></g></g></g><g id="g-root-ro_1cza50y1sf7vnn-fill" data-item-order="-16200" transform="translate(51, 339)"><g id="ro_1cza50y1sf7vnn-fill" stroke="none" fill="#faf0ff"><g><path d="M 22 10L 298 10C 298 10 310 10 310 22L 310 52C 310 52 310 64 298 64L 22 64C 22 64 10 64 10 52L 10 22C 10 22 10 10 22 10"></path></g></g></g><g id="g-root-ro_hs4z5e1sop5hd-fill" data-item-order="-14256" transform="translate(167, 39)"><g id="ro_hs4z5e1sop5hd-fill" stroke="none" fill="#edf4ff"><g><path d="M 22 10L 262 10C 262 10 274 10 274 22L 274 52C 274 52 274 64 262 64L 22 64C 22 64 10 64 10 52L 10 22C 10 22 10 10 22 10"></path></g></g></g><g id="g-root-ro_qu21o21sezfgj-fill" data-item-order="-14256" transform="translate(535, 39)"><g id="ro_qu21o21sezfgj-fill" stroke="none" fill="#e8f9ff"><g><path d="M 22 10L 262 10C 262 10 274 10 274 22L 274 52C 274 52 274 64 262 64L 22 64C 22 64 10 64 10 52L 10 22C 10 22 10 10 22 10"></path></g></g></g><g id="g-root-ro_v3mprm1sf7v2l-fill" data-item-order="-12312" transform="translate(615, 189)"><g id="ro_v3mprm1sf7v2l-fill" stroke="none" fill="#faf0ff"><g><path d="M 22 10L 226 10C 226 10 238 10 238 22L 238 52C 238 52 238 64 226 64L 22 64C 22 64 10 64 10 52L 10 22C 10 22 10 10 22 10"></path></g></g></g><g id="g-root-ro_qrk5bm1sev6z1-fill" data-item-order="-11664" transform="translate(535, 489)"><g id="ro_qrk5bm1sev6z1-fill" stroke="none" fill="#f4ffdc"><g><path d="M 22 10L 214 10C 214 10 226 10 226 22L 226 52C 226 52 226 64 214 64L 22 64C 22 64 10 64 10 52L 10 22C 10 22 10 10 22 10"></path></g></g></g><g id="g-root-ro_94ngfm1sf0tfy-fill" data-item-order="-10368" transform="translate(387, 639)"><g id="ro_94ngfm1sf0tfy-fill" stroke="none" fill="#fff2e5"><g><path d="M 22 10L 190 10C 190 10 202 10 202 22L 202 52C 202 52 202 64 190 64L 22 64C 22 64 10 64 10 52L 10 22C 10 22 10 10 22 10"></path></g></g></g><g id="g-root-ro_hz073m1somccu-fill" data-item-order="-9072" transform="translate(263, 489)"><g id="ro_hz073m1somccu-fill" stroke="none" fill="#fffbda"><g><path d="M 22 10L 166 10C 166 10 178 10 178 22L 178 52C 178 52 178 64 166 64L 22 64C 22 64 10 64 10 52L 10 22C 10 22 10 10 22 10"></path></g></g></g><g id="g-root-cu_18gay2a1sop62r-fill" data-item-order="0" transform="translate(389, 93)"></g><g id="g-root-cu_18gay2a1sop62u-fill" data-item-order="0" transform="translate(389, 93)"></g><g id="g-root-tx_httphead_dbqbci1sf50xw-fill" data-item-order="0" transform="translate(583, 555)"><g id="tx_httphead_dbqbci1sf50xw-fill" stroke="none" fill="#484848"><g><text style="font: 20px Roboto, sans-serif; white-space: pre;" font-size="20px" font-family="Roboto, sans-serif"><tspan x="16.87" y="33.5" dominant-baseline="ideographic">HTTP Headers</tspan></text></g></g></g><g id="g-root-cu_18gay2a1sop62p-fill" data-item-order="0" transform="translate(559, 543)"></g><g id="g-root-cu_18gay2a1sop62w-fill" data-item-order="0" transform="translate(559, 93)"></g><g id="g-root-cu_140hfxu1sop6v7-fill" data-item-order="0" transform="translate(559, 93)"></g><g id="g-root-cu_1cvhz3m1sop8g6-fill" data-item-order="0" transform="translate(559, 543)"></g><g id="g-root-cu_1cvhz3m1sop8g4-fill" data-item-order="0" transform="translate(389, 543)"></g><g id="g-root-tx_gatewayp_8vwt821sf51q8-fill" data-item-order="0" transform="translate(583, 105)"><g id="tx_gatewayp_8vwt821sf51q8-fill" stroke="none" fill="#484848"><g><text style="font: 20px Roboto, sans-serif; white-space: pre;" font-size="20px" font-family="Roboto, sans-serif"><tspan x="12.18" y="33.5" dominant-baseline="ideographic">Gateway Policies</tspan></text></g></g></g><g id="g-root-tx_anomalyd_4g3b3m1sf51qn-fill" data-item-order="0" transform="translate(203, 141)"><g id="tx_anomalyd_4g3b3m1sf51qn-fill" stroke="none" fill="#484848"><g><text style="font: 20px Roboto, sans-serif; white-space: pre;" font-size="20px" font-family="Roboto, sans-serif"><tspan x="15.85" y="33.5" dominant-baseline="ideographic">Anomaly Detection</tspan></text></g></g></g><g id="g-root-cu_1cvhz3m1sop8g1-fill" data-item-order="0" transform="translate(389, 543)"></g><g id="g-root-tx_dataencr_i0wxrm1sf3oqy-fill" data-item-order="0" transform="translate(227, 555)"><g id="tx_dataencr_i0wxrm1sf3oqy-fill" stroke="none" fill="#484848"><g><text style="font: 20px Roboto, sans-serif; white-space: pre;" font-size="20px" font-family="Roboto, sans-serif"><tspan x="17.66" y="33.5" dominant-baseline="ideographic">Data Encryption</tspan></text></g></g></g><g id="g-root-tx_accessco_8vwt821sf51q9-fill" data-item-order="0" transform="translate(583, 141)"><g id="tx_accessco_8vwt821sf51q9-fill" stroke="none" fill="#484848"><g><text style="font: 20px Roboto, sans-serif; white-space: pre;" font-size="20px" font-family="Roboto, sans-serif"><tspan x="14.51" y="33.5" dominant-baseline="ideographic">Access Control</tspan></text></g></g></g><g id="g-root-tx_logmanag_dbqbci1sf50xy-fill" data-item-order="0" transform="translate(215, 105)"><g id="tx_logmanag_dbqbci1sf50xy-fill" stroke="none" fill="#484848"><g><text style="font: 20px Roboto, sans-serif; white-space: pre;" font-size="20px" font-family="Roboto, sans-serif"><tspan x="15.95" y="33.5" dominant-baseline="ideographic">Log Management</tspan></text></g></g></g><g id="g-root-tx_secureke_dbqbci1sf50xv-fill" data-item-order="0" transform="translate(263, 591)"><g id="tx_secureke_dbqbci1sf50xv-fill" stroke="none" fill="#484848"><g><text style="font: 20px Roboto, sans-serif; white-space: pre;" font-size="20px" font-family="Roboto, sans-serif"><tspan x="15.69" y="33.5" dominant-baseline="ideographic">Secure Keys</tspan></text></g></g></g><g id="g-root-tx_response_dbqbci1sf50xx-fill" data-item-order="0" transform="translate(583, 591)"><g id="tx_response_dbqbci1sf50xx-fill" stroke="none" fill="#484848"><g><text style="font: 20px Roboto, sans-serif; white-space: pre;" font-size="20px" font-family="Roboto, sans-serif"><tspan x="11.84" y="33.5" dominant-baseline="ideographic">Response Security</tspan></text></g></g></g><g id="g-root-cu_uynm1sop7v0-fill" data-item-order="0" transform="translate(431, 66)"></g><g id="g-root-tx_userpriv_9sz61sf52iz-fill" data-item-order="0" transform="translate(435, 741)"><g id="tx_userpriv_9sz61sf52iz-fill" stroke="none" fill="#484848"><g><text style="font: 20px Roboto, sans-serif; white-space: pre;" font-size="20px" font-family="Roboto, sans-serif"><tspan x="14.91" y="33.5" dominant-baseline="ideographic">User Privacy</tspan></text></g></g></g><g id="g-root-cu_4gogs21sop72a-fill" data-item-order="0" transform="translate(351, 216)"></g><g id="g-root-tx_inputsan_mgqfw21sf3nyn-fill" data-item-order="0" transform="translate(663, 441)"><g id="tx_inputsan_mgqfw21sf3nyn-fill" stroke="none" fill="#484848"><g><text style="font: 20px Roboto, sans-serif; white-space: pre;" font-size="20px" font-family="Roboto, sans-serif"><tspan x="16.58" y="33.5" dominant-baseline="ideographic">Input Sanitization</tspan></text></g></g></g><g id="g-root-cu_4gogs21sop72d-fill" data-item-order="0" transform="translate(567, 216)"></g><g id="g-root-tx_throttli_i0wxrm1sf3oqx-fill" data-item-order="0" transform="translate(135, 441)"><g id="tx_throttli_i0wxrm1sf3oqx-fill" stroke="none" fill="#484848"><g><text style="font: 20px Roboto, sans-serif; white-space: pre;" font-size="20px" font-family="Roboto, sans-serif"><tspan x="13.63" y="33.5" dominant-baseline="ideographic">Throttling Policies</tspan></text></g></g></g><g id="g-root-tx_datavali_mgqfw21sf3nym-fill" data-item-order="0" transform="translate(663, 405)"><g id="tx_datavali_mgqfw21sf3nym-fill" stroke="none" fill="#484848"><g><text style="font: 20px Roboto, sans-serif; white-space: pre;" font-size="20px" font-family="Roboto, sans-serif"><tspan x="14.39" y="33.5" dominant-baseline="ideographic">Data Validation</tspan></text></g></g></g><g id="g-root-tx_tokenbas_zs6y9e1sf3mdm-fill" data-item-order="0" transform="translate(39, 255)"><g id="tx_tokenbas_zs6y9e1sf3mdm-fill" stroke="none" fill="#484848"><g><text style="font: 20px Roboto, sans-serif; white-space: pre;" font-size="20px" font-family="Roboto, sans-serif"><tspan x="17.18" y="33.5" dominant-baseline="ideographic">Token-Based Authentication</tspan></text></g></g></g><g id="g-root-cu_1um5iia1sop8gd-fill" data-item-order="0" transform="translate(309, 243)"></g><g id="g-root-cu_1lr4zci1sop6v4-fill" data-item-order="0" transform="translate(309, 243)"></g><g id="g-root-cu_1hbbh821sop7nm-fill" data-item-order="0" transform="translate(639, 393)"></g><g id="g-root-cu_1cvhz3m1sop7nz-fill" data-item-order="0" transform="translate(639, 393)"></g><g id="g-root-cu_1lr4zci1sop6v6-fill" data-item-order="0" transform="translate(639, 243)"></g><g id="g-root-cu_1lr4zci1sop6v9-fill" data-item-order="0" transform="translate(639, 243)"></g><g id="g-root-cu_uynm1sop7ux-fill" data-item-order="0" transform="translate(511, 390)"></g><g id="g-root-cu_140hfxu1sop6v9-fill" data-item-order="0" transform="translate(411, 693)"></g><g id="g-root-cu_1um5iia1sop8ga-fill" data-item-order="0" transform="translate(483, 390)"></g><g id="g-root-cu_uynm1sop7uu-fill" data-item-order="0" transform="translate(431, 390)"></g><g id="g-root-cu_1hbbh821sop7nr-fill" data-item-order="0" transform="translate(309, 393)"></g><g id="g-root-tx_ssltls_vcdg4y1sf3n5w-fill" data-item-order="0" transform="translate(663, 255)"><g id="tx_ssltls_vcdg4y1sf3n5w-fill" stroke="none" fill="#484848"><g><text style="font: 20px Roboto, sans-serif; white-space: pre;" font-size="20px" font-family="Roboto, sans-serif"><tspan x="13.35" y="33.5" dominant-baseline="ideographic">SSL/TLS</tspan></text></g></g></g><g id="g-root-tx_oauth20_vcdg4y1sf3n5v-fill" data-item-order="0" transform="translate(207, 291)"><g id="tx_oauth20_vcdg4y1sf3n5v-fill" stroke="none" fill="#484848"><g><text style="font: 20px Roboto, sans-serif; white-space: pre;" font-size="20px" font-family="Roboto, sans-serif"><tspan x="14.13" y="33.5" dominant-baseline="ideographic">OAuth 2.0</tspan></text></g></g></g><g id="g-root-cu_1hbbh821sop7no-fill" data-item-order="0" transform="translate(309, 393)"></g><g id="g-root-tx_requestl_i0wxrm1sf3oqw-fill" data-item-order="0" transform="translate(159, 405)"><g id="tx_requestl_i0wxrm1sf3oqw-fill" stroke="none" fill="#484848"><g><text style="font: 20px Roboto, sans-serif; white-space: pre;" font-size="20px" font-family="Roboto, sans-serif"><tspan x="15.73" y="33.5" dominant-baseline="ideographic">Request Limits</tspan></text></g></g></g><g id="g-root-cu_140hfxu1sop6vc-fill" data-item-order="0" transform="translate(411, 693)"></g><g id="g-root-tx_errormes_9sz61sf52iy-fill" data-item-order="0" transform="translate(435, 705)"><g id="tx_errormes_9sz61sf52iy-fill" stroke="none" fill="#484848"><g><text style="font: 20px Roboto, sans-serif; white-space: pre;" font-size="20px" font-family="Roboto, sans-serif"><tspan x="12.24" y="33.5" dominant-baseline="ideographic">Error Messages</tspan></text></g></g></g><g id="g-root-cu_uynm1sop7ur-fill" data-item-order="0" transform="translate(351, 348)"></g><g id="g-root-tx_securepr_mgqfw21sf3nyl-fill" data-item-order="0" transform="translate(663, 291)"><g id="tx_securepr_mgqfw21sf3nyl-fill" stroke="none" fill="#484848"><g><text style="font: 20px Roboto, sans-serif; white-space: pre;" font-size="20px" font-family="Roboto, sans-serif"><tspan x="12.27" y="33.5" dominant-baseline="ideographic">Secure Protocols</tspan></text></g></g></g><g id="g-root-cu_1um5iia1sop8g7-fill" data-item-order="0" transform="translate(511, 66)"></g><g id="g-root-cu_4gogs21sop72g-fill" data-item-order="0" transform="translate(567, 348)"></g><g id="g-root-lock_1hf3n5e1sf7uve-fill" data-item-order="1000000000" transform="translate(309, 351)"></g><g id="g-root-tx_ratelimi_1qaqnea1sf7u2p-fill" data-item-order="1000000000" transform="translate(63, 354)"><g id="tx_ratelimi_1qaqnea1sf7u2p-fill" stroke="none" fill="#ba5de5"><g><text style="font: 20px Roboto, sans-serif; white-space: pre;" font-size="20px" font-family="Roboto, sans-serif"><tspan x="17.59" y="33.5" dominant-baseline="ideographic">Rate Limiting &amp; Throttling</tspan></text></g></g></g><g id="g-root-tx_apisecur_4j7lde1sf2a69-fill" data-item-order="1000000000" transform="translate(423, 342)"><g id="tx_apisecur_4j7lde1sf2a69-fill" stroke="none" fill="#484848"><g><text style="font: 20px Roboto, sans-serif; white-space: pre;" font-size="20px" font-family="Roboto, sans-serif"><tspan x="16.18" y="33.5" dominant-baseline="ideographic">API Security</tspan></text></g></g></g><g id="g-root-corr_v30bua1seo7wv-fill" data-item-order="1000000000" transform="translate(627, 351)"></g><g id="g-root-tx_inputval_13ync361seo746-fill" data-item-order="1000000000" transform="translate(663, 354)"><g id="tx_inputval_13ync361seo746-fill" stroke="none" fill="#e0cb15"><g><text style="font: 20px Roboto, sans-serif; white-space: pre;" font-size="20px" font-family="Roboto, sans-serif"><tspan x="14.98" y="33.5" dominant-baseline="ideographic">Input Validation &amp; Sanitization</tspan></text></g></g></g><g id="g-root-glob_1upb46q1sf27m2-fill" data-item-order="1000000000" transform="translate(459, 288)"></g><g id="g-root-tx_transpor_18f384y1sf7thn-fill" data-item-order="1000000000" transform="translate(663, 204)"><g id="tx_transpor_18f384y1sf7thn-fill" stroke="none" fill="#ba5de5"><g><text style="font: 20px Roboto, sans-serif; white-space: pre;" font-size="20px" font-family="Roboto, sans-serif"><tspan x="12.63" y="33.5" dominant-baseline="ideographic">Transport Security</tspan></text></g></g></g><g id="g-root-tx_encrypti_v9u8du1somdxo-fill" data-item-order="1000000000" transform="translate(275, 504)"><g id="tx_encrypti_v9u8du1somdxo-fill" stroke="none" fill="#e0cb15"><g><text style="font: 20px Roboto, sans-serif; white-space: pre;" font-size="20px" font-family="Roboto, sans-serif"><tspan x="16.84" y="33.5" dominant-baseline="ideographic">Encryption</tspan></text></g></g></g><g id="g-root-1_hz073m1somcct-fill" data-item-order="1000000000" transform="translate(389, 501)"></g><g id="g-root-1_hu1pte1sf6hvr-fill" data-item-order="1000000000" transform="translate(309, 201)"></g><g id="g-root-lock_qrk5bm1sev6z0-fill" data-item-order="1000000000" transform="translate(547, 501)"></g><g id="g-root-tx_security_zmkohe1sev9c3-fill" data-item-order="1000000000" transform="translate(583, 504)"><g id="tx_security_zmkohe1sev9c3-fill" stroke="none" fill="#92bd39"><g><text style="font: 20px Roboto, sans-serif; white-space: pre;" font-size="20px" font-family="Roboto, sans-serif"><tspan x="12.39" y="33.5" dominant-baseline="ideographic">Security Headers</tspan></text></g></g></g><g id="g-root-tx_authenti_m9v7xu1sf6h3i-fill" data-item-order="1000000000" transform="translate(27, 204)"><g id="tx_authenti_m9v7xu1sf6h3i-fill" stroke="none" fill="#3cc583"><g><text style="font: 20px Roboto, sans-serif; white-space: pre;" font-size="20px" font-family="Roboto, sans-serif"><tspan x="12.4" y="33.5" dominant-baseline="ideographic">Authentication &amp; Authorization</tspan></text></g></g></g><g id="g-root-tx_apigatew_v9vjsi1sezeo9-fill" data-item-order="1000000000" transform="translate(583, 54)"><g id="tx_apigatew_v9vjsi1sezeo9-fill" stroke="none" fill="#1eabda"><g><text style="font: 20px Roboto, sans-serif; white-space: pre;" font-size="20px" font-family="Roboto, sans-serif"><tspan x="17.28" y="33.5" dominant-baseline="ideographic">API Gateway Security</tspan></text></g></g></g><g id="g-root-lock_i0agoi1sf0sn9-fill" data-item-order="1000000000" transform="translate(399, 651)"></g><g id="g-root-tx_errorhan_i0agoi1sf0sn8-fill" data-item-order="1000000000" transform="translate(435, 654)"><g id="tx_errorhan_i0agoi1sf0sn8-fill" stroke="none" fill="#de8431"><g><text style="font: 20px Roboto, sans-serif; white-space: pre;" font-size="20px" font-family="Roboto, sans-serif"><tspan x="12.38" y="33.5" dominant-baseline="ideographic">Error Handling</tspan></text></g></g></g><g id="g-root-lock_v9vjsi1sezeoa-fill" data-item-order="1000000000" transform="translate(547, 51)"></g><g id="g-root-moni_hs4z5e1sop5hc-fill" data-item-order="1000000000" transform="translate(389, 51)"></g><g id="g-root-tx_loggingm_qn5ib61sop72n-fill" data-item-order="1000000000" transform="translate(179, 54)"><g id="tx_loggingm_qn5ib61sop72n-fill" stroke="none" fill="#4e88e7"><g><text style="font: 20px Roboto, sans-serif; white-space: pre;" font-size="20px" font-family="Roboto, sans-serif"><tspan x="16.79" y="33.5" dominant-baseline="ideographic">Logging &amp; Monitoring</tspan></text></g></g></g><g id="g-root-lock_13z9q0i1sf7u9w-fill" data-item-order="1000000000" transform="translate(627, 201)"></g><g id="g-root-ro_1upb46q1sf27m3-stroke" data-item-order="-21168" transform="translate(399, 264)"><g id="ro_1upb46q1sf27m3-stroke" fill="none" stroke-linecap="round" stroke-linejoin="round" stroke-miterlimit="4" stroke="#484848" stroke-width="2"><g><path d="M 34 10L 154 10C 154 10 178 10 178 34L 178 112C 178 112 178 136 154 136L 34 136C 34 136 10 136 10 112L 10 34C 10 34 10 10 34 10"></path></g></g></g><g id="g-root-ro_qntasy1seo5jc-stroke" data-item-order="-18144" transform="translate(615, 339)"><g id="ro_qntasy1seo5jc-stroke" fill="none" stroke-linecap="round" stroke-linejoin="round" stroke-miterlimit="4" stroke="#e0cb15" stroke-width="2"><g><path d="M 22 10L 334 10C 334 10 346 10 346 22L 346 52C 346 52 346 64 334 64L 22 64C 22 64 10 64 10 52L 10 22C 10 22 10 10 22 10"></path></g></g></g><g id="g-root-ro_hu1pte1sf6hvs-stroke" data-item-order="-18144" transform="translate(15, 189)"><g id="ro_hu1pte1sf6hvs-stroke" fill="none" stroke-linecap="round" stroke-linejoin="round" stroke-miterlimit="4" stroke="#3cc583" stroke-width="2"><g><path d="M 22 10L 334 10C 334 10 346 10 346 22L 346 52C 346 52 346 64 334 64L 22 64C 22 64 10 64 10 52L 10 22C 10 22 10 10 22 10"></path></g></g></g><g id="g-root-ro_1cza50y1sf7vnn-stroke" data-item-order="-16200" transform="translate(51, 339)"><g id="ro_1cza50y1sf7vnn-stroke" fill="none" stroke-linecap="round" stroke-linejoin="round" stroke-miterlimit="4" stroke="#ba5de5" stroke-width="2"><g><path d="M 22 10L 298 10C 298 10 310 10 310 22L 310 52C 310 52 310 64 298 64L 22 64C 22 64 10 64 10 52L 10 22C 10 22 10 10 22 10"></path></g></g></g><g id="g-root-ro_hs4z5e1sop5hd-stroke" data-item-order="-14256" transform="translate(167, 39)"><g id="ro_hs4z5e1sop5hd-stroke" fill="none" stroke-linecap="round" stroke-linejoin="round" stroke-miterlimit="4" stroke="#4e88e7" stroke-width="2"><g><path d="M 22 10L 262 10C 262 10 274 10 274 22L 274 52C 274 52 274 64 262 64L 22 64C 22 64 10 64 10 52L 10 22C 10 22 10 10 22 10"></path></g></g></g><g id="g-root-ro_qu21o21sezfgj-stroke" data-item-order="-14256" transform="translate(535, 39)"><g id="ro_qu21o21sezfgj-stroke" fill="none" stroke-linecap="round" stroke-linejoin="round" stroke-miterlimit="4" stroke="#1eabda" stroke-width="2"><g><path d="M 22 10L 262 10C 262 10 274 10 274 22L 274 52C 274 52 274 64 262 64L 22 64C 22 64 10 64 10 52L 10 22C 10 22 10 10 22 10"></path></g></g></g><g id="g-root-ro_v3mprm1sf7v2l-stroke" data-item-order="-12312" transform="translate(615, 189)"><g id="ro_v3mprm1sf7v2l-stroke" fill="none" stroke-linecap="round" stroke-linejoin="round" stroke-miterlimit="4" stroke="#ba5de5" stroke-width="2"><g><path d="M 22 10L 226 10C 226 10 238 10 238 22L 238 52C 238 52 238 64 226 64L 22 64C 22 64 10 64 10 52L 10 22C 10 22 10 10 22 10"></path></g></g></g><g id="g-root-ro_qrk5bm1sev6z1-stroke" data-item-order="-11664" transform="translate(535, 489)"><g id="ro_qrk5bm1sev6z1-stroke" fill="none" stroke-linecap="round" stroke-linejoin="round" stroke-miterlimit="4" stroke="#92bd39" stroke-width="2"><g><path d="M 22 10L 214 10C 214 10 226 10 226 22L 226 52C 226 52 226 64 214 64L 22 64C 22 64 10 64 10 52L 10 22C 10 22 10 10 22 10"></path></g></g></g><g id="g-root-ro_94ngfm1sf0tfy-stroke" data-item-order="-10368" transform="translate(387, 639)"><g id="ro_94ngfm1sf0tfy-stroke" fill="none" stroke-linecap="round" stroke-linejoin="round" stroke-miterlimit="4" stroke="#de8431" stroke-width="2"><g><path d="M 22 10L 190 10C 190 10 202 10 202 22L 202 52C 202 52 202 64 190 64L 22 64C 22 64 10 64 10 52L 10 22C 10 22 10 10 22 10"></path></g></g></g><g id="g-root-ro_hz073m1somccu-stroke" data-item-order="-9072" transform="translate(263, 489)"><g id="ro_hz073m1somccu-stroke" fill="none" stroke-linecap="round" stroke-linejoin="round" stroke-miterlimit="4" stroke="#e0cb15" stroke-width="2"><g><path d="M 22 10L 166 10C 166 10 178 10 178 22L 178 52C 178 52 178 64 166 64L 22 64C 22 64 10 64 10 52L 10 22C 10 22 10 10 22 10"></path></g></g></g><g id="g-root-cu_18gay2a1sop62r-stroke" data-item-order="0" transform="translate(389, 93)"><g id="cu_18gay2a1sop62r-stroke" fill="none" stroke-linecap="round" stroke-linejoin="round" stroke-miterlimit="4" stroke="#969696" stroke-width="2" stroke-dasharray="5.0, 7.0"><g><path d="M 28 10L 28 22L 28 34L 19 34L 10 34"></path></g></g></g><g id="g-root-cu_18gay2a1sop62u-stroke" data-item-order="0" transform="translate(389, 93)"><g id="cu_18gay2a1sop62u-stroke" fill="none" stroke-linecap="round" stroke-linejoin="round" stroke-miterlimit="4" stroke="#969696" stroke-width="2" stroke-dasharray="5.0, 7.0"><g><path d="M 28 10L 28 17.5L 28 58C 27.999999 64.627415 22.627416 69.999998 16 69.999998L 15.9 70L 10 70"></path></g></g></g><g id="g-root-tx_httphead_dbqbci1sf50xw-stroke" data-item-order="0" transform="translate(583, 555)"></g><g id="g-root-cu_18gay2a1sop62p-stroke" data-item-order="0" transform="translate(559, 543)"><g id="cu_18gay2a1sop62p-stroke" fill="none" stroke-linecap="round" stroke-linejoin="round" stroke-miterlimit="4" stroke="#969696" stroke-width="2" stroke-dasharray="5.0, 7.0"><g><path d="M 10 10L 10 17.5L 10 58C 10.000002 64.627417 15.372585 70 22.000002 69.999999L 22.1 70L 28 70"></path></g></g></g><g id="g-root-cu_18gay2a1sop62w-stroke" data-item-order="0" transform="translate(559, 93)"><g id="cu_18gay2a1sop62w-stroke" fill="none" stroke-linecap="round" stroke-linejoin="round" stroke-miterlimit="4" stroke="#969696" stroke-width="2" stroke-dasharray="5.0, 7.0"><g><path d="M 10 10L 10 22L 10 34L 19 34L 28 34"></path></g></g></g><g id="g-root-cu_140hfxu1sop6v7-stroke" data-item-order="0" transform="translate(559, 93)"><g id="cu_140hfxu1sop6v7-stroke" fill="none" stroke-linecap="round" stroke-linejoin="round" stroke-miterlimit="4" stroke="#969696" stroke-width="2" stroke-dasharray="5.0, 7.0"><g><path d="M 10 10L 10 17.5L 10 58C 10.000002 64.627417 15.372585 70 22.000002 69.999999L 22.1 70L 28 70"></path></g></g></g><g id="g-root-cu_1cvhz3m1sop8g6-stroke" data-item-order="0" transform="translate(559, 543)"><g id="cu_1cvhz3m1sop8g6-stroke" fill="none" stroke-linecap="round" stroke-linejoin="round" stroke-miterlimit="4" stroke="#969696" stroke-width="2" stroke-dasharray="5.0, 7.0"><g><path d="M 10 10L 10 22L 10 34L 19 34L 28 34"></path></g></g></g><g id="g-root-cu_1cvhz3m1sop8g4-stroke" data-item-order="0" transform="translate(389, 543)"><g id="cu_1cvhz3m1sop8g4-stroke" fill="none" stroke-linecap="round" stroke-linejoin="round" stroke-miterlimit="4" stroke="#969696" stroke-width="2" stroke-dasharray="5.0, 7.0"><g><path d="M 28 10L 28 17.5L 28 58C 27.999999 64.627415 22.627416 69.999998 16 69.999998L 15.9 70L 10 70"></path></g></g></g><g id="g-root-tx_gatewayp_8vwt821sf51q8-stroke" data-item-order="0" transform="translate(583, 105)"></g><g id="g-root-tx_anomalyd_4g3b3m1sf51qn-stroke" data-item-order="0" transform="translate(203, 141)"></g><g id="g-root-cu_1cvhz3m1sop8g1-stroke" data-item-order="0" transform="translate(389, 543)"><g id="cu_1cvhz3m1sop8g1-stroke" fill="none" stroke-linecap="round" stroke-linejoin="round" stroke-miterlimit="4" stroke="#969696" stroke-width="2" stroke-dasharray="5.0, 7.0"><g><path d="M 28 10L 28 22L 28 34L 19 34L 10 34"></path></g></g></g><g id="g-root-tx_dataencr_i0wxrm1sf3oqy-stroke" data-item-order="0" transform="translate(227, 555)"></g><g id="g-root-tx_accessco_8vwt821sf51q9-stroke" data-item-order="0" transform="translate(583, 141)"></g><g id="g-root-tx_logmanag_dbqbci1sf50xy-stroke" data-item-order="0" transform="translate(215, 105)"></g><g id="g-root-tx_secureke_dbqbci1sf50xv-stroke" data-item-order="0" transform="translate(263, 591)"></g><g id="g-root-tx_response_dbqbci1sf50xx-stroke" data-item-order="0" transform="translate(583, 591)"></g><g id="g-root-cu_uynm1sop7v0-stroke" data-item-order="0" transform="translate(431, 66)"><g id="cu_uynm1sop7v0-stroke" fill="none" stroke-linecap="round" stroke-linejoin="round" stroke-miterlimit="4" stroke="#969696" stroke-width="2" stroke-dasharray="5.0, 7.0"><g><path d="M 34 208L 34 183.3L 34 30.9C 33.999998 19.357248 24.64275 10 13.1 10L 13 10L 10 10"></path></g></g></g><g id="g-root-tx_userpriv_9sz61sf52iz-stroke" data-item-order="0" transform="translate(435, 741)"></g><g id="g-root-cu_4gogs21sop72a-stroke" data-item-order="0" transform="translate(351, 216)"><g id="cu_4gogs21sop72a-stroke" fill="none" stroke-linecap="round" stroke-linejoin="round" stroke-miterlimit="4" stroke="#969696" stroke-width="2" stroke-dasharray="5.0, 7.0"><g><path d="M 58 100L 55 100L 54.9 100C 43.357252 100 34.000003 90.642751 34.000003 79.1L 34 79L 34 30.9C 33.999998 19.357248 24.64275 10 13.1 10L 13 10L 10 10"></path></g></g></g><g id="g-root-tx_inputsan_mgqfw21sf3nyn-stroke" data-item-order="0" transform="translate(663, 441)"></g><g id="g-root-cu_4gogs21sop72d-stroke" data-item-order="0" transform="translate(567, 216)"><g id="cu_4gogs21sop72d-stroke" fill="none" stroke-linecap="round" stroke-linejoin="round" stroke-miterlimit="4" stroke="#969696" stroke-width="2" stroke-dasharray="5.0, 7.0"><g><path d="M 10 100L 13 100L 13.1 100C 24.642748 100.000004 33.999997 90.642755 33.999998 79.100003L 34 79L 34 30.9C 33.999999 19.357249 43.357248 10.000001 54.899999 10.000002L 55 10L 58 10"></path></g></g></g><g id="g-root-tx_throttli_i0wxrm1sf3oqx-stroke" data-item-order="0" transform="translate(135, 441)"></g><g id="g-root-tx_datavali_mgqfw21sf3nym-stroke" data-item-order="0" transform="translate(663, 405)"></g><g id="g-root-tx_tokenbas_zs6y9e1sf3mdm-stroke" data-item-order="0" transform="translate(39, 255)"></g><g id="g-root-cu_1um5iia1sop8gd-stroke" data-item-order="0" transform="translate(309, 243)"><g id="cu_1um5iia1sop8gd-stroke" fill="none" stroke-linecap="round" stroke-linejoin="round" stroke-miterlimit="4" stroke="#969696" stroke-width="2" stroke-dasharray="5.0, 7.0"><g><path d="M 28 10L 28 22L 28 34L 19 34L 10 34"></path></g></g></g><g id="g-root-cu_1lr4zci1sop6v4-stroke" data-item-order="0" transform="translate(309, 243)"><g id="cu_1lr4zci1sop6v4-stroke" fill="none" stroke-linecap="round" stroke-linejoin="round" stroke-miterlimit="4" stroke="#969696" stroke-width="2" stroke-dasharray="5.0, 7.0"><g><path d="M 28 10L 28 17.5L 28 58C 27.999999 64.627415 22.627416 69.999998 16 69.999998L 15.9 70L 10 70"></path></g></g></g><g id="g-root-cu_1hbbh821sop7nm-stroke" data-item-order="0" transform="translate(639, 393)"><g id="cu_1hbbh821sop7nm-stroke" fill="none" stroke-linecap="round" stroke-linejoin="round" stroke-miterlimit="4" stroke="#969696" stroke-width="2" stroke-dasharray="5.0, 7.0"><g><path d="M 10 10L 10 17.5L 10 58C 10.000002 64.627417 15.372585 70 22.000002 69.999999L 22.1 70L 28 70"></path></g></g></g><g id="g-root-cu_1cvhz3m1sop7nz-stroke" data-item-order="0" transform="translate(639, 393)"><g id="cu_1cvhz3m1sop7nz-stroke" fill="none" stroke-linecap="round" stroke-linejoin="round" stroke-miterlimit="4" stroke="#969696" stroke-width="2" stroke-dasharray="5.0, 7.0"><g><path d="M 10 10L 10 22L 10 34L 19 34L 28 34"></path></g></g></g><g id="g-root-cu_1lr4zci1sop6v6-stroke" data-item-order="0" transform="translate(639, 243)"><g id="cu_1lr4zci1sop6v6-stroke" fill="none" stroke-linecap="round" stroke-linejoin="round" stroke-miterlimit="4" stroke="#969696" stroke-width="2" stroke-dasharray="5.0, 7.0"><g><path d="M 10 10L 10 22L 10 34L 19 34L 28 34"></path></g></g></g><g id="g-root-cu_1lr4zci1sop6v9-stroke" data-item-order="0" transform="translate(639, 243)"><g id="cu_1lr4zci1sop6v9-stroke" fill="none" stroke-linecap="round" stroke-linejoin="round" stroke-miterlimit="4" stroke="#969696" stroke-width="2" stroke-dasharray="5.0, 7.0"><g><path d="M 10 10L 10 17.5L 10 58C 10.000002 64.627417 15.372585 70 22.000002 69.999999L 22.1 70L 28 70"></path></g></g></g><g id="g-root-cu_uynm1sop7ux-stroke" data-item-order="0" transform="translate(511, 390)"><g id="cu_uynm1sop7ux-stroke" fill="none" stroke-linecap="round" stroke-linejoin="round" stroke-miterlimit="4" stroke="#969696" stroke-width="2" stroke-dasharray="5.0, 7.0"><g><path d="M 10 10L 10 25.8L 10 115.1C 10.000001 126.642752 19.357249 136.000001 30.900001 136.000001L 31 136L 34 136"></path></g></g></g><g id="g-root-cu_140hfxu1sop6v9-stroke" data-item-order="0" transform="translate(411, 693)"><g id="cu_140hfxu1sop6v9-stroke" fill="none" stroke-linecap="round" stroke-linejoin="round" stroke-miterlimit="4" stroke="#969696" stroke-width="2" stroke-dasharray="5.0, 7.0"><g><path d="M 10 10L 10 22L 10 34L 19 34L 28 34"></path></g></g></g><g id="g-root-cu_1um5iia1sop8ga-stroke" data-item-order="0" transform="translate(483, 390)"><g id="cu_1um5iia1sop8ga-stroke" fill="none" stroke-linecap="round" stroke-linejoin="round" stroke-miterlimit="4" stroke="#969696" stroke-width="2" stroke-dasharray="5.0, 7.0"><g><path d="M 10 10L 10 134.5L 10 259"></path></g></g></g><g id="g-root-cu_uynm1sop7uu-stroke" data-item-order="0" transform="translate(431, 390)"><g id="cu_uynm1sop7uu-stroke" fill="none" stroke-linecap="round" stroke-linejoin="round" stroke-miterlimit="4" stroke="#969696" stroke-width="2" stroke-dasharray="5.0, 7.0"><g><path d="M 34 10L 34 25.8L 34 115.1C 33.999998 126.642755 24.642748 136.000004 13.099996 136.000003L 13 136L 10 136"></path></g></g></g><g id="g-root-cu_1hbbh821sop7nr-stroke" data-item-order="0" transform="translate(309, 393)"><g id="cu_1hbbh821sop7nr-stroke" fill="none" stroke-linecap="round" stroke-linejoin="round" stroke-miterlimit="4" stroke="#969696" stroke-width="2" stroke-dasharray="5.0, 7.0"><g><path d="M 28 10L 28 17.5L 28 58C 27.999999 64.627415 22.627416 69.999998 16 69.999998L 15.9 70L 10 70"></path></g></g></g><g id="g-root-tx_ssltls_vcdg4y1sf3n5w-stroke" data-item-order="0" transform="translate(663, 255)"></g><g id="g-root-tx_oauth20_vcdg4y1sf3n5v-stroke" data-item-order="0" transform="translate(207, 291)"></g><g id="g-root-cu_1hbbh821sop7no-stroke" data-item-order="0" transform="translate(309, 393)"><g id="cu_1hbbh821sop7no-stroke" fill="none" stroke-linecap="round" stroke-linejoin="round" stroke-miterlimit="4" stroke="#969696" stroke-width="2" stroke-dasharray="5.0, 7.0"><g><path d="M 28 10L 28 22L 28 34L 19 34L 10 34"></path></g></g></g><g id="g-root-tx_requestl_i0wxrm1sf3oqw-stroke" data-item-order="0" transform="translate(159, 405)"></g><g id="g-root-cu_140hfxu1sop6vc-stroke" data-item-order="0" transform="translate(411, 693)"><g id="cu_140hfxu1sop6vc-stroke" fill="none" stroke-linecap="round" stroke-linejoin="round" stroke-miterlimit="4" stroke="#969696" stroke-width="2" stroke-dasharray="5.0, 7.0"><g><path d="M 10 10L 10 17.5L 10 58C 10.000002 64.627417 15.372585 70 22.000002 69.999999L 22.1 70L 28 70"></path></g></g></g><g id="g-root-tx_errormes_9sz61sf52iy-stroke" data-item-order="0" transform="translate(435, 705)"></g><g id="g-root-cu_uynm1sop7ur-stroke" data-item-order="0" transform="translate(351, 348)"><g id="cu_uynm1sop7ur-stroke" fill="none" stroke-linecap="round" stroke-linejoin="round" stroke-miterlimit="4" stroke="#969696" stroke-width="2" stroke-dasharray="5.0, 7.0"><g><path d="M 58 10L 55 10L 54.9 10C 51.367721 9.979924 47.485254 10.763229 43.500001 12.299998C 41.115703 13.264006 37.743204 15.642505 34.000001 19C 30.256797 22.357494 26.884298 24.735994 24.5 25.7C 20.514747 27.236768 16.632281 28.020072 13.100001 28L 13 28L 10 28"></path></g></g></g><g id="g-root-tx_securepr_mgqfw21sf3nyl-stroke" data-item-order="0" transform="translate(663, 291)"></g><g id="g-root-cu_1um5iia1sop8g7-stroke" data-item-order="0" transform="translate(511, 66)"><g id="cu_1um5iia1sop8g7-stroke" fill="none" stroke-linecap="round" stroke-linejoin="round" stroke-miterlimit="4" stroke="#969696" stroke-width="2" stroke-dasharray="5.0, 7.0"><g><path d="M 10 208L 10 183.3L 10 30.9C 10 19.357248 19.357248 10 30.899998 10L 31 10L 34 10"></path></g></g></g><g id="g-root-cu_4gogs21sop72g-stroke" data-item-order="0" transform="translate(567, 348)"><g id="cu_4gogs21sop72g-stroke" fill="none" stroke-linecap="round" stroke-linejoin="round" stroke-miterlimit="4" stroke="#969696" stroke-width="2" stroke-dasharray="5.0, 7.0"><g><path d="M 10 10L 13 10L 13.1 10C 16.63228 9.979927 20.514747 10.763232 24.5 12.300001C 26.884298 13.264007 30.256797 15.642506 34.000001 19.000001C 37.743204 22.357495 41.115704 24.735995 43.500001 25.700001C 47.485253 27.236771 51.36772 28.020075 54.9 28.000003L 55 28L 58 28"></path></g></g></g><g id="g-root-lock_1hf3n5e1sf7uve-stroke" data-item-order="1000000000" transform="translate(309, 351)"><g id="lock_1hf3n5e1sf7uve-stroke" fill="none" stroke-linecap="round" stroke-linejoin="round" stroke-miterlimit="4" stroke="#ba5de5" stroke-width="2"><g><path d="M 25.953749 32.184998L 13.36125 32.184998C 11.918693 32.18362 10.749999 31.013809 10.75 29.571251L 10.75 13.23875C 10.749999 11.796191 11.918693 10.62638 13.36125 10.625L 32.96125 10.625C 34.404297 10.62569 35.573753 11.795704 35.573753 13.23875L 35.57375 21.158751M 10.7475 15.72875L 35.57375 15.72875M 10.7475 26.5725L 25.953749 26.5725M 10.7475 21.158751L 35.57375 21.158751M 20.887501 15.72875L 20.887501 32.184998M 28.157499 15.72875L 28.157499 24.50375M 28.545 31.940001C 28.545 30.913441 29.37719 30.081251 30.403749 30.081251L 37.393753 30.081251C 38.419334 30.082628 39.25 30.914417 39.25 31.940001L 39.25 37.516251C 39.25 38.541836 38.419334 39.373619 37.393749 39.375L 30.403749 39.375C 29.37719 39.375 28.545 38.542809 28.545 37.516251ZM 33.89875 24.5L 33.89875 24.5C 31.886976 24.541687 30.289545 26.2057 30.33 28.217499L 30.33 30.077499L 37.467503 30.077499L 37.467503 28.221249C 37.510056 26.207998 35.912018 24.541676 33.89875 24.5ZM 33.89875 33.42625C 33.349682 33.403801 32.842079 33.717323 32.616337 34.218346C 32.390594 34.719368 32.492027 35.307301 32.872601 35.703716C 33.253178 36.100132 33.836487 36.225449 34.346291 36.020313C 34.856102 35.815178 35.190052 35.320782 35.190002 34.771252C 35.204643 34.043343 34.626644 33.441284 33.89875 33.42625L 33.89875 33.42625"></path></g></g></g><g id="g-root-tx_ratelimi_1qaqnea1sf7u2p-stroke" data-item-order="1000000000" transform="translate(63, 354)"></g><g id="g-root-tx_apisecur_4j7lde1sf2a69-stroke" data-item-order="1000000000" transform="translate(423, 342)"></g><g id="g-root-corr_v30bua1seo7wv-stroke" data-item-order="1000000000" transform="translate(627, 351)"><g id="corr_v30bua1seo7wv-stroke" fill="none" stroke-linecap="round" stroke-linejoin="round" stroke-miterlimit="4" stroke="#e0cb15" stroke-width="2"><g><path d="M 38.92857 27.142857L 30.1 38.92857L 24.207142 34.514282M 30.357141 26.071428L 13.214286 26.071428C 12.030818 26.071428 11.071428 25.112038 11.071428 23.928572L 11.071428 13.214286C 11.071428 12.030818 12.030818 11.071428 13.214286 11.071428L 32.5 11.071428C 33.683468 11.071428 34.642857 12.030818 34.642857 13.214286L 34.642857 21.785713M 17.5 18.571428C 17.5 19.163162 17.979694 19.642857 18.571428 19.642857C 19.163162 19.642857 19.642857 19.163162 19.642857 18.571428C 19.642857 17.979694 19.163162 17.5 18.571428 17.5C 17.979694 17.5 17.5 17.979694 17.5 18.571428M 26.071428 18.571428C 26.071428 19.163162 26.551123 19.642857 27.142857 19.642857C 27.734591 19.642857 28.214285 19.163162 28.214285 18.571428C 28.214285 17.979694 27.734591 17.5 27.142857 17.5C 26.551123 17.5 26.071428 17.979694 26.071428 18.571428"></path></g></g></g><g id="g-root-tx_inputval_13ync361seo746-stroke" data-item-order="1000000000" transform="translate(663, 354)"></g><g id="g-root-glob_1upb46q1sf27m2-stroke" data-item-order="1000000000" transform="translate(459, 288)"><g id="glob_1upb46q1sf27m2-stroke" fill="none" stroke-linecap="round" stroke-linejoin="round" stroke-miterlimit="4" stroke="#484848" stroke-width="2"><g><path d="M 47.040001 32C 47.01796 39.186169 41.186203 45.000034 34 45C 26.767847 44.879482 20.984116 38.952942 21.040001 31.719999C 21.038551 24.806278 26.567726 19.161541 33.48 19.02L 34 19.02C 37.457767 18.987846 40.784122 20.343109 43.234871 22.782579C 45.685619 25.222052 47.05621 28.542122 47.040001 32ZM 33.48 19.02C 26.700001 26.360001 26.700001 35.940002 33.48 45.02M 34.599998 19.02C 41.400002 26.360001 41.400002 35.940002 34.599998 45.02M 21.040001 32L 47.040001 32M 13 17.540001L 13 32.82C 13.118423 43.160465 19.686085 52.324833 29.440001 55.760002L 31.68 56.580002C 33.176018 57.139786 34.823982 57.139786 36.32 56.580002L 38.559998 55.759998C 48.313915 52.324833 54.88158 43.160465 55 32.82L 55 17.540001C 54.994053 16.319199 54.263035 15.218737 53.139999 14.74C 47.079685 12.208112 40.567623 10.935639 34 11C 27.432373 10.935639 20.920311 12.208112 14.86 14.74C 13.736967 15.218737 13.005946 16.319199 13 17.540001Z"></path></g></g></g><g id="g-root-tx_transpor_18f384y1sf7thn-stroke" data-item-order="1000000000" transform="translate(663, 204)"></g><g id="g-root-tx_encrypti_v9u8du1somdxo-stroke" data-item-order="1000000000" transform="translate(275, 504)"></g><g id="g-root-1_hz073m1somcct-stroke" data-item-order="1000000000" transform="translate(389, 501)"><g id="1_hz073m1somcct-stroke" fill="none" stroke-linecap="round" stroke-linejoin="round" stroke-miterlimit="4" stroke="#e0cb15" stroke-width="2"><g><path d="M 34.356251 20.6175C 34.43935 17.790976 34.229904 14.963433 33.731251 12.18C 33.651321 11.726377 33.287594 11.376288 32.831249 11.31375C 25.972715 10.395 19.022285 10.395 12.16375 11.31375C 11.707223 11.375913 11.343308 11.726181 11.26375 12.18C 10.408747 16.956625 10.408747 21.847126 11.26375 26.623749C 11.343308 27.07757 11.707223 27.427837 12.16375 27.490002C 16.603289 28.083364 21.085752 28.292473 25.561251 28.115002M 20.095001 15.9625C 19.946878 15.877853 19.765013 15.877953 19.616985 15.962761C 19.468956 16.047569 19.37689 16.204409 19.375 16.375L 19.375 22.42375C 19.375887 22.594913 19.467386 22.752796 19.615458 22.838657C 19.763531 22.924519 19.946009 22.925507 20.095001 22.841251L 25.3825 19.82C 25.532724 19.734394 25.625479 19.57478 25.625479 19.401875C 25.625479 19.22897 25.532724 19.069355 25.3825 18.983749ZM 39.375 39.375C 39.375 35.923222 36.576778 33.125 33.125 33.125C 29.673222 33.125 26.875 35.923222 26.875 39.375ZM 33.125 31.25C 35.196068 31.25 36.875 29.571068 36.875 27.5C 36.875 25.428932 35.196068 23.750002 33.125 23.750002C 31.053932 23.750002 29.375002 25.428932 29.375 27.5C 29.375 29.571068 31.053932 31.25 33.125 31.25Z"></path></g></g></g><g id="g-root-1_hu1pte1sf6hvr-stroke" data-item-order="1000000000" transform="translate(309, 201)"><g id="1_hu1pte1sf6hvr-stroke" fill="none" stroke-linecap="round" stroke-linejoin="round" stroke-miterlimit="4" stroke="#3cc583" stroke-width="2"><g><path d="M 14.375 32.5C 14.375 34.225891 15.774111 35.625 17.5 35.625C 19.225889 35.625 20.625 34.225891 20.625 32.5C 20.625 30.774109 19.225889 29.375 17.5 29.375C 15.774111 29.375 14.375 30.774109 14.375 32.5ZM 37.5 21.25L 39.375 19.375L 36.25 16.25L 38.125 14.375C 38.815136 13.684607 38.815033 12.565496 38.124767 11.875231C 37.434502 11.184965 36.315392 11.184862 35.625 11.875L 20.94375 26.55625C 17.95076 24.818945 14.133467 25.571325 12.023551 28.314404C 9.913635 31.057484 10.165842 34.940033 12.612905 37.387096C 15.059966 39.83416 18.942516 40.086365 21.685596 37.976448C 24.428675 35.866535 25.181057 32.04924 23.44375 29.056252L 30.625 21.875L 33.125 24.375L 35 22.5L 32.5 20L 34.375 18.125Z"></path></g></g></g><g id="g-root-lock_qrk5bm1sev6z0-stroke" data-item-order="1000000000" transform="translate(547, 501)"><g id="lock_qrk5bm1sev6z0-stroke" fill="none" stroke-linecap="round" stroke-linejoin="round" stroke-miterlimit="4" stroke="#92bd39" stroke-width="2"><g><path d="M 20.05125 29.815001C 20.404053 30.166702 20.602394 30.644341 20.602501 31.1425L 20.602501 37.552498C 20.602501 38.588036 19.763035 39.427498 18.727501 39.427498L 12.4775 39.427498C 11.441966 39.427498 10.6025 38.588036 10.6025 37.552498L 10.6025 28.49C 10.6025 27.454468 11.441966 26.615002 12.4775 26.615002L 16.067501 26.615C 16.564119 26.615458 17.040411 26.812265 17.3925 27.1625ZM 35.022499 29.01L 35.022499 30.885M 35.022499 34.635002L 35.022499 35.572502C 35.022503 36.608036 34.183037 37.447502 33.147499 37.447502L 32.209999 37.447502M 28.459999 37.447502L 25.647499 37.447502M 15.0225 22.4475L 15.0225 20.26M 15.0225 16.51L 15.0225 15.5725C 15.0225 14.536966 15.861966 13.6975 16.897501 13.6975L 17.835001 13.6975M 21.584999 13.6975L 24.397499 13.6975M 30.022499 15.5725L 37.522499 15.5725C 37.522499 15.5725 39.397499 15.5725 39.397499 17.4475L 39.397499 23.0725C 39.397499 23.0725 39.397499 24.9475 37.522499 24.9475L 30.022499 24.9475C 30.022499 24.9475 28.147499 24.9475 28.147499 23.0725L 28.147499 17.4475C 28.147499 17.4475 28.147499 15.5725 30.022499 15.5725M 33.772499 10.5725L 33.772499 10.5725C 31.701433 10.5725 30.022499 12.251432 30.022499 14.3225L 30.022499 15.5725L 37.522499 15.5725L 37.522499 14.3225C 37.522503 12.251432 35.843567 10.5725 33.772499 10.5725ZM 33.772499 19.827499C 34.031384 19.827501 34.241249 20.037367 34.241249 20.296251C 34.241249 20.555134 34.031384 20.765001 33.772499 20.765001C 33.513618 20.765001 33.303749 20.555134 33.303749 20.296251C 33.303749 20.037367 33.513618 19.827501 33.772499 19.827501L 33.772499 19.827499"></path></g></g></g><g id="g-root-tx_security_zmkohe1sev9c3-stroke" data-item-order="1000000000" transform="translate(583, 504)"></g><g id="g-root-tx_authenti_m9v7xu1sf6h3i-stroke" data-item-order="1000000000" transform="translate(27, 204)"></g><g id="g-root-tx_apigatew_v9vjsi1sezeo9-stroke" data-item-order="1000000000" transform="translate(583, 54)"></g><g id="g-root-lock_i0agoi1sf0sn9-stroke" data-item-order="1000000000" transform="translate(399, 651)"><g id="lock_i0agoi1sf0sn9-stroke" fill="none" stroke-linecap="round" stroke-linejoin="round" stroke-miterlimit="4" stroke="#de8431" stroke-width="2"><g><path d="M 10.625 39.375L 10.625 26.875M 10.625 29.375L 19.375 29.375C 21.446068 29.375 23.125 31.053932 23.125 33.125L 30.625 33.125C 32.696068 33.125 34.375 34.803932 34.375 36.875L 10.625 36.875ZM 23.125 33.125L 19.375 33.125M 28.125 16.875L 38.125 16.875C 38.125 16.875 39.375 16.875 39.375 18.125L 39.375 26.875C 39.375 26.875 39.375 28.125 38.125 28.125L 28.125 28.125C 28.125 28.125 26.875 28.125 26.875 26.875L 26.875 18.125C 26.875 18.125 26.875 16.875 28.125 16.875M 29.375 16.875L 29.375 14.375C 29.375002 12.303932 31.053932 10.625 33.125 10.625C 35.196068 10.625 36.875 12.303932 36.875 14.375L 36.875 16.875M 31.25 22.5C 31.25 23.535534 32.089466 24.375 33.125 24.375C 34.160534 24.375 35 23.535534 35 22.5C 35 21.464466 34.160534 20.625 33.125 20.625C 32.089466 20.625 31.25 21.464466 31.25 22.5"></path></g></g></g><g id="g-root-tx_errorhan_i0agoi1sf0sn8-stroke" data-item-order="1000000000" transform="translate(435, 654)"></g><g id="g-root-lock_v9vjsi1sezeoa-stroke" data-item-order="1000000000" transform="translate(547, 51)"><g id="lock_v9vjsi1sezeoa-stroke" fill="none" stroke-linecap="round" stroke-linejoin="round" stroke-miterlimit="4" stroke="#1eabda" stroke-width="2"><g><path d="M 35.625 27.3825C 37.587322 26.474684 38.817474 24.482336 38.750004 22.321251C 38.726334 20.72193 38.053116 19.20104 36.885117 18.108257C 35.717125 17.015472 34.154858 16.44482 32.557499 16.5275C 31.133015 13.661143 28.20075 11.856002 25 11.875C 20.638601 11.816438 16.984064 15.160543 16.65625 19.51C 15.35405 19.223694 13.992082 19.536196 12.944951 20.361553C 11.89782 21.186911 11.275809 22.438198 11.25 23.77125C 11.145419 25.720091 12.468517 27.457582 14.375 27.875002M 31.25 36.875C 31.25 37.565353 30.690355 38.125 30 38.125L 21.25 38.125C 20.559643 38.125 20 37.565353 20 36.875L 20 29.375C 20 28.684643 20.559643 28.125 21.25 28.125L 30 28.125C 30.690355 28.125 31.25 28.684643 31.25 29.375ZM 24.0625 33.203751C 24.0625 34.066696 24.762056 34.766251 25.625 34.766251C 26.487946 34.766251 27.1875 34.066696 27.1875 33.203751C 27.1875 32.340805 26.487946 31.641251 25.625 31.641251C 24.762056 31.641251 24.0625 32.340805 24.0625 33.203751ZM 28.75 26.25C 28.75 24.524111 27.350891 23.125 25.625 23.125C 23.899111 23.125 22.5 24.524111 22.5 26.25L 22.5 28.125L 28.75 28.125Z"></path></g></g></g><g id="g-root-moni_hs4z5e1sop5hc-stroke" data-item-order="1000000000" transform="translate(389, 51)"><g id="moni_hs4z5e1sop5hc-stroke" fill="none" stroke-linecap="round" stroke-linejoin="round" stroke-miterlimit="4" stroke="#4e88e7" stroke-width="2"><g><path d="M 26.78875 28.125C 26.872906 29.736719 27.386946 31.296532 28.2775 32.642502L 28.577501 33.125M 21.422499 33.125L 21.7225 32.642502C 22.613054 31.296532 23.127094 29.736719 23.21125 28.125M 19.375 33.125L 30.625 33.125M 12.5 24.375L 37.5 24.375M 36.25 10.625C 36.940353 10.625 37.5 11.184644 37.5 11.875L 37.5 26.875C 37.5 27.565357 36.940353 28.125 36.25 28.125L 13.75 28.125C 13.059644 28.125 12.5 27.565357 12.5 26.875L 12.5 11.875C 12.5 11.184644 13.059644 10.625 13.75 10.625ZM 25 35.625L 25 39.375M 15 39.375L 35 39.375"></path></g></g></g><g id="g-root-tx_loggingm_qn5ib61sop72n-stroke" data-item-order="1000000000" transform="translate(179, 54)"></g><g id="g-root-lock_13z9q0i1sf7u9w-stroke" data-item-order="1000000000" transform="translate(627, 201)"><g id="lock_13z9q0i1sf7u9w-stroke" fill="none" stroke-linecap="round" stroke-linejoin="round" stroke-miterlimit="4" stroke="#ba5de5" stroke-width="2"><g><path d="M 29.375 29.376251L 38.125 29.376251C 38.125 29.376251 39.375 29.376251 39.375 30.626249L 39.375 38.125C 39.375 38.125 39.375 39.375 38.125 39.375L 29.375 39.375C 29.375 39.375 28.125 39.375 28.125 38.125L 28.125 30.626249C 28.125 30.626249 28.125 29.376251 29.375 29.376251M 32.1875 34.453751C 32.1875 35.316696 32.887054 36.016251 33.75 36.016251C 34.612946 36.016251 35.3125 35.316696 35.3125 34.453751C 35.3125 33.590805 34.612946 32.891251 33.75 32.891251C 32.887054 32.891251 32.1875 33.590805 32.1875 34.453751M 36.875 27.5C 36.875 25.774111 35.475891 24.375 33.75 24.375C 32.024109 24.375 30.625 25.774111 30.625 27.5L 30.625 29.375L 36.875 29.375ZM 24.375 29.375L 11.875 29.375C 11.184644 29.375 10.625 28.815357 10.625 28.125L 10.625 16.1425C 10.625071 15.811007 10.756813 15.493115 10.99125 15.25875L 15.25875 10.99125C 15.493115 10.756813 15.811007 10.625071 16.1425 10.625L 22.6075 10.625C 22.938993 10.625071 23.256884 10.756813 23.491251 10.99125L 27.758749 15.25875C 27.993187 15.493115 28.124929 15.811007 28.125 16.1425L 28.125 20.625M 28.012501 15.625L 10.7375 15.625M 19.375 10.625L 19.375 15.625"></path></g></g></g></g></g></svg>