<?xml version="1.0" encoding="utf-8" standalone="yes"?>
<!DOCTYPE svg PUBLIC "-//W3C//DTD SVG 1.1//EN" "http://www.w3.org/Graphics/SVG/1.1/DTD/svg11.dtd">
<svg width="641" height="544" viewBox="0 0 641 544" style="fill:none;stroke:none;fill-rule:evenodd;clip-rule:evenodd;stroke-linecap:round;stroke-linejoin:round;stroke-miterlimit:1.5;" version="1.1" xmlns="http://www.w3.org/2000/svg" xmlns:xlink="http://www.w3.org/1999/xlink"><style id="fontImports">@import url("https://fonts.googleapis.com/css2?family=Shantell+Sans:wght@300..800&amp;display=block");</style><g id="items" style="isolation: isolate"><g id="blend" style="mix-blend-mode: normal"><g id="g-root-0.cr-big_cr_m7zmic18ykk-fill" data-item-order="-121608" transform="translate(232.00698852539062, 220)"><g id="0.cr-big_cr_m7zmic18ykk-fill" stroke="none" fill="#ebebeb"><g><path d="M 130.7 65.9L 124.4 42.3L 104.6 45.4L 111.3 71ZM 104.6 45.4L 107.3 104.6L 127.1 100.9L 124.4 42.3ZM 127.1 100.9L 97.8 12.9L 78 16.7L 107.3 104.6ZM 78 16.7L 84.3 121.2L 104.1 118L 97.8 12.9ZM 104.1 118L 75.3 10L 55.6 13.7L 84.3 121.2ZM 55.6 13.7L 69 128.3L 88.6 123.9L 75.3 10ZM 88.6 123.9L 53.1 19.3L 33.5 23.8L 69 128.3ZM 33.5 23.8L 45.6 124.3L 65.2 120.3L 53.1 19.3ZM 65.2 120.3L 40 34.2L 19.6 35.8L 45.6 124.3ZM 19.6 35.8L 10.8 100.8L 31.2 99.3L 40 34.2ZM 31.2 99.3L 23.6 72.6L 4.3 78.1L 10.8 100.8Z" fill-rule="nonzero"></path></g></g></g><g id="g-root-3.cu_sy_dccm9g18zd9-fill" data-item-order="-121604" transform="translate(144.76364135742188, 101.2470703125)"><g id="3.cu_sy_dccm9g18zd9-fill" stroke="none" fill="#ffd9d8"><g><path d="M 25.043195 265.052899L 32.043195 267.352899L 46.743195 251.252899L 31.543195 246.052899ZM 46.743195 251.252899L 28.143195 210.052899L 12.743195 224.552899L 32.043195 267.352899ZM 12.743195 224.552899L 58.343195 248.552899L 69.743195 231.952899L 28.143195 210.052899ZM 69.743195 231.952899L 23.943195 191.952899L 12.643195 208.652899L 58.343195 248.552899ZM 12.643195 208.652899L 76.243195 240.752899L 87.643195 224.052899L 23.943195 191.952899ZM 87.643195 224.052899L 17.243195 161.652899L 5.743195 178.052899L 76.243195 240.752899ZM 5.743195 178.052899L 90.943195 224.552899L 102.443195 208.052899L 17.243195 161.652899ZM 102.443195 208.052899L 18.143195 135.752899L 6.643195 152.252899L 90.943195 224.552899ZM 6.643195 152.252899L 93.643195 200.052899L 105.243195 183.652899L 18.143195 135.752899ZM 105.243195 183.652899L 30.543195 116.352899L 19.443195 133.252899L 93.643195 200.052899ZM 19.443195 133.252899L 100.343195 170.252899L 110.743195 152.952899L 30.543195 116.352899ZM 110.743195 152.952899L 33.443195 93.252899L 22.843195 110.252899L 100.343195 170.252899ZM 22.843195 110.252899L 109.843195 153.452899L 120.643195 136.452899L 33.443195 93.252899ZM 120.643195 136.452899L 44.143195 76.452899L 33.243195 93.352899L 109.843195 153.452899ZM 33.243195 93.352899L 126.343195 142.152899L 137.743195 125.552899L 44.143195 76.452899ZM 137.743195 125.552899L 60.043195 56.852899L 48.543195 73.252899L 126.343195 142.152899ZM 48.543195 73.252899L 145.443195 126.352899L 156.443195 109.552899L 60.043195 56.852899ZM 156.443195 109.552899L 72.443195 44.952899L 62.343195 62.452899L 145.443195 126.352899ZM 62.343195 62.452899L 147.943195 98.152899L 158.043195 80.752899L 72.443195 44.952899ZM 158.043195 80.752899L 92.143195 29.152899L 81.943195 46.552899L 147.943195 98.152899ZM 81.943195 46.552899L 154.043195 76.552899L 165.043195 59.452899L 92.143195 29.152899ZM 165.043195 59.452899L 120.443195 17.952899L 108.843195 34.352899L 154.043195 76.552899ZM 108.843195 34.352899L 151.443195 56.852899L 167.643195 42.752899L 120.443195 17.952899ZM 167.643195 42.752899L 154.743195 7.252899L 139.143195 22.752899L 151.443195 56.852899ZM 139.143195 22.752899L 154.943195 28.652899L 162.043195 9.952899L 154.743195 7.252899Z" fill-rule="nonzero"></path></g></g></g><g id="g-root-2.cu_sy_dccm9g18zda-fill" data-item-order="-121600" transform="translate(137.20291137695312, 309.9970703125)"><g id="2.cu_sy_dccm9g18zda-fill" stroke="none" fill="#fff8b6"><g><path d="M 292.903925 53.803235L 292.903925 52.803235L 272.703925 47.003235L 272.903925 54.303235ZM 272.703925 47.003235L 253.703925 75.403235L 274.003925 81.003235L 292.903925 52.803235ZM 274.003925 81.003235L 271.603925 35.203235L 251.403925 32.603235L 253.703925 75.403235ZM 251.403925 32.603235L 229.503925 100.903235L 249.503925 104.003235L 271.603925 35.203235ZM 249.503925 104.003235L 248.503925 20.503235L 228.403925 19.503235L 229.503925 100.903235ZM 228.403925 19.503235L 217.603925 117.503235L 237.803925 117.303235L 248.503925 20.503235ZM 237.803925 117.303235L 223.003925 8.803235L 202.903925 9.103235L 217.603925 117.503235ZM 202.903925 9.103235L 190.503925 126.903235L 210.503925 127.603235L 223.003925 8.803235ZM 210.503925 127.603235L 207.303925 31.503235L 187.203925 29.803235L 190.503925 126.903235ZM 187.203925 29.803235L 166.603925 131.503235L 186.703925 132.803235L 207.303925 31.503235ZM 186.703925 132.803235L 180.503925 42.903235L 160.403925 42.203235L 166.603925 131.503235ZM 160.403925 42.203235L 146.703925 136.403235L 166.803925 137.403235L 180.503925 42.903235ZM 166.803925 137.403235L 162.403925 39.703235L 142.303925 38.303235L 146.703925 136.403235ZM 142.303925 38.303235L 124.603925 133.803235L 144.703925 135.103235L 162.403925 39.703235ZM 144.703925 135.103235L 139.103925 34.603235L 119.003925 33.703235L 124.603925 133.803235ZM 119.003925 33.703235L 104.303925 134.503235L 124.403925 134.803235L 139.103925 34.603235ZM 124.403925 134.803235L 110.703925 18.803235L 90.603925 19.103235L 104.303925 134.503235ZM 90.603925 19.103235L 82.003925 125.003235L 102.103925 125.203235L 110.703925 18.803235ZM 102.103925 125.203235L 96.103925 28.703235L 75.903925 27.003235L 82.003925 125.003235ZM 75.903925 27.003235L 56.403925 111.103235L 76.603925 112.503235L 96.103925 28.703235ZM 76.603925 112.503235L 70.403925 44.403235L 50.203925 42.703235L 56.403925 111.103235ZM 50.203925 42.703235L 35.803925 99.103235L 55.903925 101.403235L 70.403925 44.403235ZM 55.903925 101.403235L 54.903925 54.203235L 34.803925 47.603235L 35.803925 99.103235ZM 34.803925 47.603235L 12.503925 76.803235L 35.503925 79.603235L 54.903925 54.203235ZM 35.503925 79.603235L 27.903925 62.203235L 9.603925 70.203235L 12.503925 76.803235Z" fill-rule="nonzero"></path></g></g></g><g id="g-root-1.cu_sy_dccm9g18zdb-fill" data-item-order="-121596" transform="translate(292.00518798828125, 136)"><g id="1.cu_sy_dccm9g18zdb-fill" stroke="none" fill="#c8ffe5"><g><path d="M 11.301648 4.7L 10.001648 5L 10.701648 25.4L 15.901648 24.2ZM 10.701648 25.4L 45.901648 31L 41.401648 10L 10.001648 5ZM 41.401648 10L 7.301648 32.3L 15.301648 50.9L 45.901648 31ZM 15.301648 50.9L 77.901648 35.7L 69.801648 17.1L 7.301648 32.3ZM 69.801648 17.1L 3.501648 60.8L 12.601648 78.7L 77.901648 35.7ZM 12.601648 78.7L 104.301648 44.2L 94.901648 26.3L 3.501648 60.8ZM 94.901648 26.3L 5.501648 87.8L 15.301648 105.3L 104.301648 44.2ZM 15.301648 105.3L 121.101648 58.3L 111.501648 40.7L 5.501648 87.8ZM 111.501648 40.7L 33.701648 91.5L 42.601648 109.6L 121.101648 58.3ZM 42.601648 109.6L 138.201648 76.7L 129.001648 58.7L 33.701648 91.5ZM 129.001648 58.7L 52.401648 112.4L 62.601648 129.6L 138.201648 76.7ZM 62.601648 129.6L 147.301648 88.1L 137.001648 70.9L 52.401648 112.4ZM 137.001648 70.9L 64.501648 123.1L 73.501648 141.2L 147.301648 88.1ZM 73.501648 141.2L 164.101648 112.8L 155.401648 94.6L 64.501648 123.1ZM 155.401648 94.6L 69.201648 152.8L 78.701648 170.6L 164.101648 112.8ZM 78.701648 170.6L 174.801648 131.2L 165.701648 113.3L 69.201648 152.8ZM 165.701648 113.3L 64.301648 175.5L 72.901648 193.6L 174.801648 131.2ZM 72.901648 193.6L 178.001648 156.4L 168.601648 138.6L 64.301648 175.5ZM 168.601648 138.6L 92.101648 194.4L 101.501648 212.3L 178.001648 156.4ZM 101.501648 212.3L 175.201648 186.5L 166.401648 168.4L 92.101648 194.4ZM 166.401648 168.4L 116.101648 200.8L 124.001648 219.5L 175.201648 186.5ZM 124.001648 219.5L 174.301648 208.2L 165.501648 189.6L 116.101648 200.8ZM 165.501648 189.6L 134.001648 214.3L 139.401648 235.5L 174.301648 208.2ZM 139.401648 235.5L 169.101648 240.6L 168.901648 220.3L 134.001648 214.3ZM 168.901648 220.3L 152.501648 223.5L 156.301648 243.1L 169.101648 240.6Z" fill-rule="nonzero"></path></g></g></g><g id="g-root-tx_understa_8wj4501905k-fill" data-item-order="0" transform="translate(64.0068359375, 28)"><g id="tx_understa_8wj4501905k-fill" stroke="none" fill="#484848"><g><text style="font: bold 25px &quot;Shantell Sans&quot;, cursive; white-space: pre;" font-weight="bold" font-size="25px" font-family="'Shantell Sans', cursive"><tspan x="16.32" y="45" dominant-baseline="ideographic">Understanding HTTP Status Codes</tspan></text></g></g></g><g id="g-root-tx_serverer_mdlwac1elmo-fill" data-item-order="0" transform="translate(-8, 159.9853515625)"><g id="tx_serverer_mdlwac1elmo-fill" stroke="none" fill="#484848"><g><text style="font: 20px &quot;Shantell Sans&quot;, cursive; white-space: pre;" font-size="20px" font-family="'Shantell Sans', cursive"><tspan x="20.84" y="35" dominant-baseline="ideographic">Server Error </tspan><tspan x="79.05" y="59" dominant-baseline="ideographic">Status</tspan></text></g></g></g><g id="g-root-tx_successs_dhyw1g1emfe-fill" data-item-order="0" transform="translate(460.013671875, 184.01171875)"><g id="tx_successs_dhyw1g1emfe-fill" stroke="none" fill="#484848"><g><text style="font: 20px &quot;Shantell Sans&quot;, cursive; white-space: pre;" font-size="20px" font-family="'Shantell Sans', cursive"><tspan x="12" y="35" dominant-baseline="ideographic">Success Status</tspan></text></g></g></g><g id="g-root-mult_4hc33o1lngi-fill" data-item-order="0" transform="translate(179.643310546875, 204.9541015625)"></g><g id="g-root-ribb_v5i56c1bsow-fill" data-item-order="0" transform="translate(356.37060546875, 204.953125)"></g><g id="g-root-http_qtfees1ekuf-fill" data-item-order="0" transform="translate(256.0068359375, 243.99609375)"></g><g id="g-root-500_94na9g1r8r1-fill" data-item-order="0" transform="translate(268.007080078125, 358.00390625)"></g><g id="g-root-tx_clienter_dhyw1g1emfd-fill" data-item-order="0" transform="translate(226.0068359375, 459.9404296875)"><g id="tx_clienter_dhyw1g1emfd-fill" stroke="none" fill="#484848"><g><text style="font: 20px &quot;Shantell Sans&quot;, cursive; white-space: pre;" font-size="20px" font-family="'Shantell Sans', cursive"><tspan x="16.3" y="35" dominant-baseline="ideographic">Client Error </tspan><tspan x="42.11" y="59" dominant-baseline="ideographic">Status</tspan></text></g></g></g><g id="g-root-0.cr-big_cr_m7zmic18ykk-stroke" data-item-order="-121608" transform="translate(232.00698852539062, 220)"><g id="0.cr-big_cr_m7zmic18ykk-stroke" fill="none" stroke-linecap="round" stroke-linejoin="round" stroke-miterlimit="4" stroke="#484848" stroke-width="4"><g><path d="M 10 70C 11.1 103.1 36.9 131.3 70 130C 87.3 129.3 103.7 123.3 114 110.8C 123.3 99.6 130.6 85.8 130 70C 129.4 53.2 122.4 38.7 112 27.1C 101.9 15.9 86.3 8.8 70 10C 54.8 11.1 40.3 15 30.3 25C 18.6 36.8 8.7 52.1 10 70"></path><path d="M 10 70C 10.000003 103.137088 36.862918 130.000003 70.000003 130.000003C 103.137088 130.000003 130.000003 103.137088 130.000003 70.000003C 130.000003 36.862918 103.137088 10.000003 70.000003 10.000003C 36.862918 10.000003 10.000003 36.862918 10.000003 70.000003"></path></g></g></g><g id="g-root-3.cu_sy_dccm9g18zd9-stroke" data-item-order="-121604" transform="translate(144.76364135742188, 101.2470703125)"><g id="3.cu_sy_dccm9g18zd9-stroke" fill="none" stroke-linecap="round" stroke-linejoin="round" stroke-miterlimit="4" stroke="#484848" stroke-width="4"><g><path d="M 105.243195 218.752899C 80.743195 232.152899 57.343195 247.852899 32.543195 260.752899C 24.443195 246.952899 17.143195 232.752899 15.043195 217.652899C 13.043195 203.852899 8.743195 190.352899 10.043195 176.752899C 11.443195 160.852899 13.543195 145.352899 16.743195 129.852899C 19.743195 115.052899 27.743195 101.752899 35.143195 88.352899C 41.543195 76.652899 50.443195 66.152899 60.343195 56.752899C 70.443195 47.252899 81.243195 38.052899 94.043195 31.252899C 114.543195 20.352899 135.543195 12.552899 157.243195 9.952899C 156.943195 30.852899 159.143195 51.752899 157.243195 72.552899C 155.543195 91.152899 156.743195 110.052899 157.243195 128.752899C 147.143195 129.852899 135.743195 129.852899 127.243195 136.752899C 101.643195 157.852899 88.843195 190.052899 105.243195 218.752899"></path><path d="M 105.28557 218.7528L 32.53657 260.7544L 32.53577 260.753C -13.85613 180.3999 13.67487 77.6527 94.02807 31.2608C 114.11047 19.6661 135.59177 12.689 157.24257 10L 157.24557 128.7428C 147.04877 128.7335 136.71287 131.3262 127.24707 136.7913C 98.54957 153.3598 88.71707 190.0552 105.28557 218.7528Z"></path></g></g></g><g id="g-root-2.cu_sy_dccm9g18zda-stroke" data-item-order="-121600" transform="translate(137.20291137695312, 309.9970703125)"><g id="2.cu_sy_dccm9g18zda-stroke" fill="none" stroke-linecap="round" stroke-linejoin="round" stroke-miterlimit="4" stroke="#484848" stroke-width="4"><g><path d="M 216.803925 10.003235C 241.903925 22.403235 265.103925 38.303235 289.503925 52.003235C 281.803925 67.003235 270.803925 79.603235 259.103925 90.503235C 245.603925 103.003235 230.903925 114.103235 214.203925 120.703235C 197.703925 127.103235 181.103925 133.303235 163.503925 134.903235C 144.903925 136.603235 126.103925 135.803235 107.403925 132.003235C 91.103925 128.703235 75.303925 122.103235 60.003925 113.503235C 39.803925 102.103235 23.103925 86.803235 10.003925 69.403235C 27.803925 58.603235 45.903925 48.403235 64.003925 38.203235C 80.403925 29.003235 96.503925 19.403235 112.803925 10.003235C 119.403925 17.803235 125.403925 26.303235 134.803925 32.003235C 163.203925 49.003235 199.803925 38.503235 216.803925 10.003235"></path><path d="M 216.7637 10L 289.5127 52.0017L 289.5119 52.0031C 243.12 132.3562 140.3728 159.8872 60.0196 113.4953C 39.9372 101.9007 23.1541 86.7859 10 69.3803L 112.8327 10.0063C 117.9231 18.8416 125.3364 26.4965 134.8022 31.9615C 163.4997 48.5301 200.1952 38.6976 216.7637 10Z"></path></g></g></g><g id="g-root-1.cu_sy_dccm9g18zdb-stroke" data-item-order="-121596" transform="translate(292.00518798828125, 136)"><g id="1.cu_sy_dccm9g18zdb-stroke" fill="none" stroke-linecap="round" stroke-linejoin="round" stroke-miterlimit="4" stroke="#484848" stroke-width="4"><g><path d="M 10.001648 94C 9.201648 81 10.401648 67.9 10.001648 54.9C 9.601648 39.9 8.801648 24.9 10.001648 10C 28.201648 10.8 45.901648 12.4 62.201648 18.3C 79.901648 24.6 97.601648 31.6 111.201648 43.9C 122.701648 54.3 133.101648 65.5 144.001648 76.6C 156.601648 89.5 163.501648 107.3 169.401648 124.8C 175.001648 141.5 176.701648 159.5 178.001648 178C 179.601648 201.1 173.001648 223.2 164.801648 243.4C 145.401648 233.9 127.901648 220.7 108.601648 210.9C 92.601648 202.8 76.901648 194 62.001648 184C 66.901648 175.1 71.101648 164.9 70.001648 154C 68.501648 139.2 65.701648 124.3 55.501648 114.9C 43.101648 103.5 28.201648 93.7 10.001648 94"></path><path d="M 10 94.0033L 10 10L 10.0016 10C 102.7855 10 178.0016 85.2162 178.0016 178C 178.0016 201.1893 173.3033 223.2812 164.8067 243.3758L 61.9709 184.007C 67.0774 175.181 70 164.9335 70 154.0033C 70 120.8663 43.1371 94.0033 10 94.0033Z"></path></g></g></g><g id="g-root-tx_understa_8wj4501905k-stroke" data-item-order="0" transform="translate(64.0068359375, 28)"></g><g id="g-root-tx_serverer_mdlwac1elmo-stroke" data-item-order="0" transform="translate(-8, 159.9853515625)"></g><g id="g-root-tx_successs_dhyw1g1emfe-stroke" data-item-order="0" transform="translate(460.013671875, 184.01171875)"></g><g id="g-root-mult_4hc33o1lngi-stroke" data-item-order="0" transform="translate(179.643310546875, 204.9541015625)"><g id="mult_4hc33o1lngi-stroke" fill="none" stroke-linecap="round" stroke-linejoin="round" stroke-miterlimit="4" stroke="#484848" stroke-width="2"><g><path d="M 53 13.8C 43 14.2 33.200001 12.8 23.200001 13.8C 21.6 14 20.200001 15.2 20.200001 17C 19.799999 25.6 18.6 34.200001 20.200001 42.799999C 20.4 44.400002 21.6 46.599998 23.200001 45.799999C 32.400002 42 43.400002 43 53 45.799999C 54.599998 46.400002 56.400002 44.400002 56 42.799999C 54.400002 34.400002 55.599998 25.6 56 17C 56.200001 15.2 54.599998 13.4 53 13.8M 47.799999 49.200001C 47.400002 51 46.400002 52 44.799999 52.400002C 35.200001 55 25 52.599998 15 52.400002C 13.4 52.400002 12 51 12 49.200001C 11.8 40.599998 12 32.200001 12 23.6C 12 21.799999 13.4 20.6 15 20.4C 15.6 20.4 16 20.4 16.6 20.4M 20.200001 21.6C 32 20.200001 44.799999 25.4 56 21.6M 12 28.200001C 13 28 14 28.200001 15 28.200001M 35 18.200001C 34.799999 18.200001 34.599998 18 34.599998 17.799999C 34.599998 17.6 34.799999 17.4 35 17.4M 35 18.200001C 35.200001 18.200001 35.400002 18 35.400002 17.799999C 35.400002 17.6 35.200001 17.4 35 17.4M 30.200001 18.200001C 30 18.200001 30 18 30 17.799999C 29.799999 17.6 30.200001 17.4 30.200001 17.4M 30.200001 18.200001C 30.6 18.200001 30.6 18 30.6 17.799999C 30.799999 17.6 30.6 17.4 30.200001 17.4M 25.6 18.200001C 25.4 18.200001 25.200001 18 25.200001 17.799999C 25.200001 17.6 25.4 17.4 25.6 17.4M 25.6 18.200001C 25.799999 18.200001 26 18 26 17.799999C 26 17.6 25.799999 17.4 25.6 17.4M 38 30C 38 31.4 38.200001 32.599998 38 33.799999M 46.200001 39.200001C 46.599998 39.599998 46.200001 40 46.200001 40.400002C 46 41 45.599998 41.200001 45.200001 41C 40.599998 39.599998 35.799999 41 31.200001 41C 30.799999 41 30.200001 40.799999 30 40.400002C 29.799999 40 29.799999 39.599998 30 39.200001C 32.799999 35 33.599998 29.6 37 26C 37.200001 25.799999 37.400002 25.6 37.599998 25.4C 38.200001 25 39.400002 25.200001 39.400002 26C 42.200001 30 44 34.799999 46.200001 39.200001M 38 37.400002C 38 37.400002 37.799999 37.200001 37.799999 37C 37.799999 37 38 36.799999 38 36.799999M 38 37.400002C 38.200001 37.400002 38.400002 37.200001 38.400002 37C 38.400002 37 38.200001 36.799999 38 36.799999"></path><path d="M 52.908001 13.875999L 23.279999 13.875999C 21.557652 13.875999 20.161104 15.271652 20.16 16.993999L 20.16 42.723999C 20.16 44.445999 21.556 45.844002 23.279999 45.844002L 52.908001 45.844002C 54.631126 45.844002 56.028 44.447128 56.028 42.723999L 56.028 16.993999C 56.028 15.270872 54.631126 13.874 52.908001 13.874001ZM 47.84 49.256001C 47.84 50.97913 46.443127 52.375999 44.720001 52.375999L 15.092 52.375999C 13.368872 52.375999 11.972 50.97913 11.972 49.256001L 11.972 23.526001C 11.972 21.804001 13.37 20.406 15.092 20.406L 16.546 20.406M 20.16 21.672001L 56.026001 21.672001M 11.974 28.204L 15.032 28.204M 34.973999 18.164C 34.75861 18.164 34.584 17.989391 34.584 17.774C 34.584 17.558609 34.75861 17.383999 34.973999 17.383999M 34.973999 18.164C 35.189392 18.164 35.363998 17.989391 35.363998 17.774C 35.363998 17.558609 35.189392 17.383999 34.973999 17.383999M 30.296 18.164C 30.080608 18.164 29.906 17.989391 29.906 17.774C 29.906 17.558609 30.080608 17.383999 30.296 17.383999M 30.296 18.164C 30.511391 18.164 30.686001 17.989391 30.686001 17.774C 30.686001 17.558609 30.511391 17.383999 30.296 17.383999M 25.619999 18.164C 25.40461 18.164 25.23 17.989391 25.23 17.774C 25.23 17.558609 25.40461 17.383999 25.619999 17.383999M 25.619999 18.164C 25.835392 18.164 26.01 17.989391 26.01 17.774C 26.01 17.558609 25.835392 17.383999 25.619999 17.383999M 38.094002 30.096001L 38.094002 33.809998M 46.216 39.251999C 46.492001 39.666 46.354 40.082001 46.216 40.498001C 45.938 40.912003 45.523998 41.049999 45.108002 41.049999L 31.128 41.049999C 30.712 41.049999 30.296 40.774002 30.02 40.498001C 29.743664 40.128628 29.743664 39.621368 30.019999 39.251999L 37.080002 25.962C 37.18874 25.715611 37.385612 25.518738 37.632 25.41C 38.323997 25.132 39.015999 25.27 39.431999 25.962L 46.216 39.251999ZM 38.094002 37.403999C 37.922791 37.403999 37.784 37.265209 37.784 37.094002C 37.784 36.922791 37.922791 36.784 38.094002 36.784M 38.094002 37.403999C 38.265209 37.403999 38.403999 37.265209 38.403999 37.094002C 38.403999 36.922791 38.265209 36.784 38.094002 36.784"></path></g></g></g><g id="g-root-ribb_v5i56c1bsow-stroke" data-item-order="0" transform="translate(356.37060546875, 204.953125)"><g id="ribb_v5i56c1bsow-stroke" fill="none" stroke-linecap="round" stroke-linejoin="round" stroke-miterlimit="4" stroke="#484848" stroke-width="2"><g><path d="M 18.200001 38C 16.4 42.400002 12.6 45.799999 11.2 50.400002C 11 50.799999 11.2 51.400002 11.6 51C 13.6 49.799999 16 50.200001 18.4 50C 19.200001 52 20 54.200001 20.6 56.400002C 20.799999 56.799999 21.200001 57 21.6 56.400002C 23.200001 52.799999 25 49.200001 27.6 46.200001M 49.799999 38C 51.799999 42.400002 54.400002 46.400002 56.799999 50.400002C 57.200001 50.799999 57 51.200001 56.400002 51C 54.400002 50.200001 52 49.799999 49.599998 50C 49 52 47.799999 54.200001 47.400002 56.400002C 47.200001 56.799999 46.799999 56.799999 46.400002 56.400002C 44.400002 53 42.200001 49.599998 40.400002 46.200001M 16 29.200001C 17.200001 39.200001 24.200001 46.400002 34 47.200001C 43.799999 48.200001 51.200001 39.200001 52 29.200001C 52.799999 19.4 43.799999 12.6 34 11.2C 24.200001 9.8 16 19.4 16 29.200001M 41.799999 24.4C 39 27.799999 35.200001 30.200001 32.400002 33.799999C 32 34.400002 31 34.200001 30.4 33.799999C 28.799999 33 27.6 31.799999 26.799999 30.4"></path><path d="M 18.296 38.068001L 11.12 50.362C 10.844 50.838001 11.064 51.152 11.606 51.060001L 18.321999 49.922001L 20.65 56.321999C 20.838001 56.838001 21.222 56.875999 21.504 56.402L 27.634001 46.105999M 49.703999 38.068001L 56.880001 50.362C 57.155998 50.838001 56.936001 51.152 56.394001 51.060001L 49.678001 49.922001L 47.349998 56.321999C 47.161999 56.838001 46.778 56.875999 46.495998 56.402L 40.365997 46.105999M 16 29.264C 16 39.205124 24.058876 47.264 34 47.264C 43.941124 47.264 52 39.205124 52 29.264C 52 19.322876 43.941124 11.264 34 11.264C 24.058876 11.264 16 19.322876 16 29.264ZM 41.879997 24.324001L 32.440002 33.764C 31.854137 34.350243 30.903864 34.350243 30.318001 33.764L 26.878 30.323999"></path></g></g></g><g id="g-root-http_qtfees1ekuf-stroke" data-item-order="0" transform="translate(256.0068359375, 243.99609375)"><g id="http_qtfees1ekuf-stroke" fill="none" stroke-linecap="round" stroke-linejoin="round" stroke-miterlimit="4" stroke="#484848" stroke-width="2"><g><path d="M 17.5 19C 36.400002 17.799999 55.599998 16.9 74.5 19C 74.5 19 81.699997 19 80.5 25C 77.5 38.800003 80.5 52.900002 80.5 67C 80.5 67 80.5 73.899994 74.5 73C 55.599998 70.600006 36.099998 76.300003 17.5 73C 17.5 73 12.7 73 11.5 67C 8.8 53.199997 12.7 38.800003 11.5 25C 11.5 25 11.8 17.200001 17.5 19M 11.5 34C 34.599998 34 58 39.099998 80.5 34M 22 25.900002C 22.299999 25.900002 22.599998 26.200001 22.900002 26.5C 22.900002 26.799999 22.299999 27.099998 22 27.400002C 21.700001 27.400002 21.4 26.799999 21.4 26.5C 21.1 26.200001 21.700001 25.900002 22 25.900002M 31 25.900002C 31.299999 25.900002 31.900002 26.200001 31.900002 26.5C 31.599998 26.799999 31.299999 27.400002 31 27.400002C 30.700001 27.099998 30.400002 26.799999 30.400002 26.5C 30.099998 26.200001 30.700001 25.599998 31 25.900002M 40 25.900002C 40.300003 25.599998 40.900002 26.200001 40.900002 26.5C 40.599998 26.799999 40.300003 27.099998 40 27.400002C 39.699997 27.400002 39.099998 26.799999 39.400002 26.5C 39.400002 26.200001 39.699997 25.900002 40 25.900002M 38.5 61C 37.599998 56.199997 39.400002 50.800003 38.5 46M 35.5 46C 37.599998 45.699997 39.400002 45.699997 41.5 46M 50.5 61C 50.800003 55.900002 50.800003 51.099998 50.5 46M 47.5 46C 49.300003 45.400002 51.699997 46.300003 53.5 46M 23.5 61C 22 56.199997 22 50.800003 23.5 46M 29.5 61C 31 56.199997 28.900002 51.099998 29.5 46M 23.5 55C 25.599998 55 27.400002 54.699997 29.5 55M 59.5 61C 59.800003 55.900002 59.5 51.099998 59.5 46M 59.5 46C 60.100002 46 60.399998 46 61 46C 63.399998 46.599998 64.600006 48.099998 65.5 50.5C 66.399994 52.900002 63.399998 55.900002 61 55C 60.399998 54.699997 60.100002 55 59.5 55"></path><path d="M 17.5 19L 74.5 19C 74.5 19 80.5 19 80.5 25L 80.5 67C 80.5 67 80.5 73 74.5 73L 17.5 73C 17.5 73 11.5 73 11.5 67L 11.5 25C 11.5 25 11.5 19 17.5 19M 11.5 34L 80.5 34M 22 25.75C 22.414213 25.75 22.75 26.085787 22.75 26.5C 22.75 26.914213 22.414213 27.25 22 27.25C 21.585787 27.25 21.25 26.914213 21.25 26.5C 21.25 26.085787 21.585787 25.75 22 25.75M 31 25.75C 31.414213 25.75 31.75 26.085787 31.75 26.5C 31.75 26.914213 31.414213 27.25 31 27.25C 30.585787 27.25 30.25 26.914213 30.25 26.5C 30.25 26.085787 30.585787 25.75 31 25.75M 40 25.75C 40.414215 25.75 40.75 26.085787 40.75 26.5C 40.75 26.914213 40.414215 27.25 40 27.25C 39.585785 27.25 39.25 26.914213 39.25 26.5C 39.25 26.085787 39.585785 25.75 40 25.75M 38.5 61L 38.5 46M 35.5 46L 41.5 46M 50.5 61L 50.5 46M 47.5 46L 53.5 46M 23.5 61L 23.5 46M 29.5 61L 29.5 46M 23.5 55L 29.5 55M 59.5 61L 59.5 46M 59.5 46L 61 46C 63.485283 46 65.5 48.014721 65.5 50.5C 65.5 52.985283 63.485283 55 61 55L 59.5 55"></path></g></g></g><g id="g-root-500_94na9g1r8r1-stroke" data-item-order="0" transform="translate(268.007080078125, 358.00390625)"><g id="500_94na9g1r8r1-stroke" fill="none" stroke-linecap="round" stroke-linejoin="round" stroke-miterlimit="4" stroke="#484848" stroke-width="2"><g><path d="M 15 39C 15.4 31.6 16.4 24.200001 15 17C 14.6 14.8 17 12.2 19 13C 28.4 16.200001 39 13.4 49 13C 51.200001 13 53 14.8 53 17C 53 24.4 54 31.799999 53 39M 15 23C 27.200001 26.200001 40.400002 22 53 23M 28 18.4C 27.799999 18.4 27.4 18.200001 27.6 18C 27.6 17.799999 27.799999 17.6 28 17.4M 28 18.4C 28.200001 18.6 28.6 18.200001 28.6 18C 28.4 17.799999 28.200001 17.6 28 17.4M 22 18.4C 21.799999 18.6 21.6 18.200001 21.6 18C 21.4 17.799999 21.799999 17.4 22 17.4M 22 18.4C 22.200001 18.4 22.6 18.200001 22.6 18C 22.4 17.799999 22.200001 17.6 22 17.4M 34 18.4C 33.799999 18.6 33.599998 18.200001 33.400002 18C 33.400002 17.799999 33.799999 17.4 34 17.4M 34 18.4C 34.200001 18.4 34.599998 18.200001 34.400002 18C 34.400002 17.799999 34.200001 17.4 34 17.4M 26.6 30.200001C 24.799999 30.799999 23 29.799999 21.200001 30.200001C 21.6 32.200001 21.200001 34.200001 20.799999 36C 21.200001 35.799999 21.6 35.599998 22 35.400002C 22.6 35.400002 23.200001 35 23.799999 35C 25.6 35 27.4 36.599998 27.200001 38.200001C 27 38.799999 27.200001 39.200001 27.200001 39.799999C 27 41.599998 25.6 42.400002 24 43C 22.6 43.599998 21 42.200001 20.799999 40.799999M 31 33.400002C 31.4 35.599998 31.200001 37.599998 31 39.799999C 31 41.599998 32.599998 42.799999 34.200001 43C 36 43.200001 37.799999 41.599998 37.400002 39.799999C 37 37.799999 36.799999 35.400002 37.400002 33.400002C 37.799999 32.400002 37 31 35.799999 30.6C 34.799999 30.200001 33.599998 30 32.599998 30.6C 31.6 31.200001 31 32.200001 31 33.400002M 41.400002 33.400002C 41.799999 35.599998 41.799999 37.799999 41.400002 39.799999C 41 41.599998 42.799999 42.799999 44.599998 43C 46.400002 43.200001 47.200001 41.599998 47.799999 39.799999C 48.400002 37.799999 47.599998 35.599998 47.799999 33.400002C 47.799999 31.6 46.200001 29.799999 44.599998 30.200001C 42.799999 30.6 41.200001 31.799999 41.400002 33.400002M 39.400002 50.200001C 39.400002 51.400002 39.799999 52.799999 39.400002 54.200001C 39.400002 55.400002 40.400002 56 41.599998 56.200001C 42.599998 56.400002 43.200001 55.200001 43.599998 54.200001C 44 53 44 51.400002 43.599998 50.200001C 43.200001 49 42.599998 48.200001 41.599998 48.200001C 40.400002 48 39.799999 49 39.400002 50.200001M 20.799999 48C 19.6 48.200001 18 48.599998 16.799999 48C 17.4 50.799999 17 53.599998 16.799999 56.200001C 18 56.799999 19.6 56 20.799999 56.200001M 16.799999 51.799999C 17.799999 51.599998 19 51.599998 20.200001 51.799999M 24.6 56.200001C 24.799999 55.200001 24.799999 54 24.6 52.799999M 24.6 52.799999C 24.6 51.200001 24.4 49.599998 24.6 48C 25.200001 47.799999 25.799999 48.200001 26.200001 48C 27.6 48 28.4 49.200001 28.6 50.400002C 29 51.799999 27.6 53 26.200001 52.799999C 25.799999 52.799999 25.200001 52.799999 24.6 52.799999M 27.4 52.799999C 27.6 54 28.200001 55.200001 29 56.200001M 32.200001 56.200001C 32 55.200001 32.200001 54 32.200001 52.799999M 32.200001 52.799999C 31.6 51.200001 32.200001 49.599998 32.200001 48C 32.599998 48 33.200001 48 33.799999 48C 35.200001 48.200001 35.799999 49.200001 36.200001 50.400002C 36.599998 51.799999 35 52.400002 33.799999 52.799999C 33.200001 53 32.599998 52.799999 32.200001 52.799999M 34.799999 52.799999C 35.599998 54 36.200001 55 36.599998 56.200001M 47.200001 56.200001C 47.200001 55.200001 47 54 47.200001 52.799999M 47.200001 52.799999C 47 51.200001 46.599998 49.599998 47.200001 48C 47.799999 48.200001 48.400002 47.799999 49 48C 50.200001 48.599998 51.799999 49.200001 51.400002 50.400002C 51 51.799999 50.200001 52.400002 49 52.799999C 48.400002 53 47.799999 52.599998 47.200001 52.799999M 50 52.799999C 50.799999 53.799999 51.599998 55 51.799999 56.200001"></path><path d="M 15.002 39L 15.002 17C 15.002 14.790861 16.792862 13 19.001999 13L 49.001999 13C 51.21114 13 53.001999 14.790861 53.001999 17L 53.001999 39M 14.998 22.992001L 52.998001 22.992001M 28.002001 18.492001C 27.725857 18.492001 27.502001 18.268143 27.502001 17.992001C 27.502001 17.715858 27.725857 17.492001 28.002001 17.492001M 28.002001 18.492001C 28.278143 18.492001 28.502001 18.268143 28.502001 17.992001C 28.502001 17.715858 28.278143 17.492001 28.002001 17.492001M 22.001999 18.492001C 21.725857 18.492001 21.501999 18.268143 21.501999 17.992001C 21.501999 17.715858 21.725857 17.492001 22.001999 17.492001M 22.001999 18.492001C 22.278141 18.492001 22.501999 18.268143 22.501999 17.992001C 22.501999 17.715858 22.278141 17.492001 22.001999 17.492001M 33.996002 18.492001C 33.719856 18.492001 33.496002 18.268143 33.496002 17.992001C 33.496002 17.715858 33.719856 17.492001 33.996002 17.492001M 33.996002 18.492001C 34.272141 18.492001 34.496002 18.268143 34.496002 17.992001C 34.496002 17.715858 34.272141 17.492001 33.996002 17.492001M 26.58 30.25L 21.265999 30.25L 20.736 36.09L 21.962 35.478001C 22.552 35.181999 23.202 35.028 23.862 35.028L 23.922001 35.028C 25.681999 35.028 27.108 36.454002 27.108 38.214001L 27.108 39.807999C 27.108 41.568001 25.681999 42.993999 23.922001 42.993999C 22.534 42.993999 21.174 42.105999 20.736 40.870003M 31.059999 33.436001L 31.059999 39.807999C 31.060001 41.567581 32.48642 42.994003 34.246002 42.994003C 36.005581 42.994003 37.431999 41.567581 37.431999 39.808002L 37.431999 33.436001C 37.460995 32.279083 36.860359 31.19742 35.862991 30.610428C 34.865623 30.023438 33.62838 30.023438 32.631012 30.610428C 31.633646 31.19742 31.033009 32.279083 31.062 33.436001ZM 41.384003 33.436001L 41.384003 39.807999C 41.384003 41.567581 42.810421 42.994003 44.570004 42.994003C 46.329582 42.994003 47.756001 41.567581 47.756001 39.808002L 47.756001 33.436001C 47.756001 31.676422 46.329582 30.250002 44.570004 30.250002C 42.810421 30.250002 41.384003 31.676422 41.384003 33.436001ZM 39.486 50.113998L 39.486 54.203999C 39.485821 55.333549 40.401451 56.249325 41.530998 56.249325C 42.660549 56.249325 43.57618 55.333549 43.576 54.204002L 43.576 50.113998C 43.541454 49.009468 42.636074 48.131962 41.530998 48.131962C 40.425926 48.131962 39.520546 49.009468 39.486 50.114002ZM 20.864 48.07L 16.774 48.07L 16.774 56.25L 20.864 56.25M 16.774 51.82L 20.18 51.82M 24.577999 56.25L 24.577999 52.84M 24.577999 52.84L 24.577999 48.068001L 26.282 48.068001C 27.6 48.068001 28.667999 49.136002 28.667999 50.453999L 28.667999 50.453999C 28.667999 51.77 27.6 52.838001 26.282 52.838001L 24.577999 52.838001ZM 27.304001 52.84L 29.007999 56.248001M 32.110001 56.25L 32.110001 52.84M 32.110001 52.84L 32.110001 48.068001L 33.813999 48.068001C 35.132 48.068001 36.200001 49.136002 36.200001 50.453999L 36.200001 50.453999C 36.200001 51.77 35.132 52.838001 33.813999 52.838001L 32.110001 52.838001ZM 34.835999 52.84L 36.540001 56.248001M 47.290001 56.25L 47.290001 52.84M 47.290001 52.84L 47.290001 48.068001L 48.993999 48.068001C 50.312 48.068001 51.380001 49.136002 51.380001 50.453999L 51.380001 50.453999C 51.380001 51.77 50.312 52.838001 48.993999 52.838001L 47.290001 52.838001ZM 50.015999 52.84L 51.720001 56.248001"></path></g></g></g><g id="g-root-tx_clienter_dhyw1g1emfd-stroke" data-item-order="0" transform="translate(226.0068359375, 459.9404296875)"></g></g></g></svg>