<svg xmlns="http://www.w3.org/2000/svg" viewBox="0 0 800 400">
    <!-- Background -->
    <rect width="800" height="400" fill="#ffffff" />
    
    <!-- Title -->
    <text x="400" y="40" text-anchor="middle" font-size="24" font-family="Arial" fill="#1e293b">
        Rate Limiting Middleware Flow
    </text>

    <!-- Client Request -->
    <rect x="50" y="100" width="120" height="60" rx="10" fill="#60a5fa" />
    <text x="110" y="135" text-anchor="middle" font-size="14" fill="white" font-family="Arial">
        Client Request
    </text>

    <!-- Rate Limiter -->
    <rect x="300" y="80" width="200" height="100" rx="10" fill="#f97316" />
    <text x="400" y="120" text-anchor="middle" font-size="16" fill="white" font-family="Arial">
        Rate Limiter
    </text>
    <text x="400" y="145" text-anchor="middle" font-size="12" fill="white" font-family="Arial">
        limit: rate.Limit
    </text>
    <text x="400" y="165" text-anchor="middle" font-size="12" fill="white" font-family="Arial">
        burst: int
    </text>

    <!-- Server Handler -->
    <rect x="630" y="100" width="120" height="60" rx="10" fill="#22c55e" />
    <text x="690" y="135" text-anchor="middle" font-size="14" fill="white" font-family="Arial">
        Next Handler
    </text>

    <!-- Error Response -->
    <rect x="300" y="250" width="200" height="60" rx="10" fill="#ef4444" />
    <text x="400" y="285" text-anchor="middle" font-size="14" fill="white" font-family="Arial">
        429 Too Many Requests
    </text>

    <!-- Arrows -->
    <!-- Request to Limiter -->
    <path d="M170 130 L290 130" fill="none" stroke="#64748b" stroke-width="2" marker-end="url(#arrowhead)" />
    
    <!-- Limiter to Handler (Allow) -->
    <path d="M500 130 L620 130" fill="none" stroke="#22c55e" stroke-width="2" marker-end="url(#arrowhead)" />
    
    <!-- Limiter to Error (Deny) -->
    <path d="M400 180 L400 240" fill="none" stroke="#ef4444" stroke-width="2" marker-end="url(#arrowhead)" />

    <!-- Arrow Definitions -->
    <defs>
        <marker id="arrowhead" markerWidth="10" markerHeight="7" refX="9" refY="3.5" orient="auto">
            <polygon points="0 0, 10 3.5, 0 7" fill="#64748b" />
        </marker>
    </defs>

    <!-- Labels -->
    <text x="230" y="120" font-size="12" fill="#475569" font-family="Arial">
        1. Request
    </text>
    <text x="560" y="120" font-size="12" fill="#22c55e" font-family="Arial">
        2a. Allow
    </text>
    <text x="410" y="220" font-size="12" fill="#ef4444" font-family="Arial">
        2b. Deny
    </text>

    <!-- Legend -->
    <rect x="50" y="330" width="700" height="50" rx="5" fill="#f1f5f9" />
    <circle cx="70" y="355" r="6" fill="#60a5fa" />
    <text x="90" y="360" font-size="12" fill="#475569" font-family="Arial">Client</text>
    <circle cx="170" y="355" r="6" fill="#f97316" />
    <text x="190" y="360" font-size="12" fill="#475569" font-family="Arial">Rate Limiter</text>
    <circle cx="290" y="355" r="6" fill="#22c55e" />
    <text x="310" y="360" font-size="12" fill="#475569" font-family="Arial">Allowed Request</text>
    <circle cx="430" y="355" r="6" fill="#ef4444" />
    <text x="450" y="360" font-size="12" fill="#475569" font-family="Arial">Rate Limited</text>
</svg>
