<?xml version="1.0" encoding="utf-8" standalone="yes"?>
<!DOCTYPE svg PUBLIC "-//W3C//DTD SVG 1.1//EN" "http://www.w3.org/Graphics/SVG/1.1/DTD/svg11.dtd">
<svg width="890" height="374" viewBox="0 0 890 374" style="fill:none;stroke:none;fill-rule:evenodd;clip-rule:evenodd;stroke-linecap:round;stroke-linejoin:round;stroke-miterlimit:1.5;" version="1.1" xmlns="http://www.w3.org/2000/svg" xmlns:xlink="http://www.w3.org/1999/xlink"><style id="fontImports">@import url("https://fonts.googleapis.com/css2?family=Roboto:wght@400;700&amp;display=block");</style><g id="items" style="isolation: isolate"><g id="blend" style="mix-blend-mode: normal"><g id="g-root-ro_dl24fain1f5t-fill" data-item-order="-31320" transform="translate(327, 90)"><g id="ro_dl24fain1f5t-fill" stroke="none" fill="#f5f5f5"><g><path d="M 34 10L 166 10C 166 10 190 10 190 34L 190 160C 190 160 190 184 166 184L 34 184C 34 184 10 184 10 160L 10 34C 10 34 10 10 34 10"></path></g></g></g><g id="g-root-ro_1urrvmuimszy8-fill" data-item-order="-16200" transform="translate(555, 189)"><g id="ro_1urrvmuimszy8-fill" stroke="none" fill="#fffbda"><g><path d="M 22 10L 298 10C 298 10 310 10 310 22L 310 52C 310 52 310 64 298 64L 22 64C 22 64 10 64 10 52L 10 22C 10 22 10 10 22 10"></path></g></g></g><g id="g-root-ro_m7c3jain01zd-fill" data-item-order="-12960" transform="translate(39, 189)"><g id="ro_m7c3jain01zd-fill" stroke="none" fill="#f4ffdc"><g><path d="M 22 10L 238 10C 238 10 250 10 250 22L 250 52C 250 52 250 64 238 64L 22 64C 22 64 10 64 10 52L 10 22C 10 22 10 10 22 10"></path></g></g></g><g id="g-root-ro_146qa5iimym15-fill" data-item-order="-12312" transform="translate(51, 39)"><g id="ro_146qa5iimym15-fill" stroke="none" fill="#ffeceb"><g><path d="M 22 10L 226 10C 226 10 238 10 238 22L 238 52C 238 52 238 64 226 64L 22 64C 22 64 10 64 10 52L 10 22C 10 22 10 10 22 10"></path></g></g></g><g id="g-root-ro_4osq92imq8zq-fill" data-item-order="-11016" transform="translate(555, 39)"><g id="ro_4osq92imq8zq-fill" stroke="none" fill="#faf0ff"><g><path d="M 22 10L 202 10C 202 10 214 10 214 22L 214 52C 214 52 214 64 202 64L 22 64C 22 64 10 64 10 52L 10 22C 10 22 10 10 22 10"></path></g></g></g><g id="g-root-cu_8wi292in016w-fill" data-item-order="0" transform="translate(579, 243)"></g><g id="g-root-cu_hrileuin02rp-fill" data-item-order="0" transform="translate(507, 66)"></g><g id="g-root-tx_trafficm_dkfqhyimvugw-fill" data-item-order="0" transform="translate(603, 141)"><g id="tx_trafficm_dkfqhyimvugw-fill" stroke="none" fill="#484848"><g><text style="font: 20px Roboto, sans-serif; white-space: pre;" font-size="20px" font-family="Roboto, sans-serif"><tspan x="16.59" y="34" dominant-baseline="ideographic">Traffic Management</tspan></text></g></g></g><g id="g-root-cu_hrileuin02rs-fill" data-item-order="0" transform="translate(507, 206)"></g><g id="g-root-tx_ratelimi_i098meimvtol-fill" data-item-order="0" transform="translate(99, 105)"><g id="tx_ratelimi_i098meimvtol-fill" stroke="none" fill="#484848"><g><text style="font: 20px Roboto, sans-serif; white-space: pre;" font-size="20px" font-family="Roboto, sans-serif"><tspan x="17.48" y="34" dominant-baseline="ideographic">Rate Limiting</tspan></text></g></g></g><g id="g-root-tx_tasksche_4osq92imvv9m-fill" data-item-order="0" transform="translate(603, 291)"><g id="tx_tasksche_4osq92imvv9m-fill" stroke="none" fill="#484848"><g><text style="font: 20px Roboto, sans-serif; white-space: pre;" font-size="20px" font-family="Roboto, sans-serif"><tspan x="15.3" y="34" dominant-baseline="ideographic">Task Scheduling</tspan></text></g></g></g><g id="g-root-cu_dcbkdiin00eh-fill" data-item-order="0" transform="translate(237, 93)"></g><g id="g-root-cu_8wi292in016z-fill" data-item-order="0" transform="translate(579, 243)"></g><g id="g-root-cu_m7c3jain01ze-fill" data-item-order="0" transform="translate(279, 66)"></g><g id="g-root-tx_efficien_9lp7qimvsw4-fill" data-item-order="0" transform="translate(15, 291)"><g id="tx_efficien_9lp7qimvsw4-fill" stroke="none" fill="#484848"><g><text style="font: 20px Roboto, sans-serif; white-space: pre;" font-size="20px" font-family="Roboto, sans-serif"><tspan x="13.87" y="34" dominant-baseline="ideographic">Efficiency Improvement</tspan></text></g></g></g><g id="g-root-cu_dcbkdiin00ej-fill" data-item-order="0" transform="translate(579, 93)"></g><g id="g-root-cu_dcbkdiin00em-fill" data-item-order="0" transform="translate(579, 93)"></g><g id="g-root-tx_resource_4osq92imvv9n-fill" data-item-order="0" transform="translate(75, 255)"><g id="tx_resource_4osq92imvv9n-fill" stroke="none" fill="#484848"><g><text style="font: 20px Roboto, sans-serif; white-space: pre;" font-size="20px" font-family="Roboto, sans-serif"><tspan x="16.4" y="34" dominant-baseline="ideographic">Resource Reuse</tspan></text></g></g></g><g id="g-root-cu_8wi292in0171-fill" data-item-order="0" transform="translate(237, 243)"></g><g id="g-root-cu_hrileuin02rv-fill" data-item-order="0" transform="translate(279, 206)"></g><g id="g-root-tx_serverdi_94m8diimvuhb-fill" data-item-order="0" transform="translate(603, 105)"><g id="tx_serverdi_94m8diimvuhb-fill" stroke="none" fill="#484848"><g><text style="font: 20px Roboto, sans-serif; white-space: pre;" font-size="20px" font-family="Roboto, sans-serif"><tspan x="12.02" y="34" dominant-baseline="ideographic">Server Distribution</tspan></text></g></g></g><g id="g-root-tx_queueman_94m8diimvuha-fill" data-item-order="0" transform="translate(39, 141)"><g id="tx_queueman_94m8diimvuha-fill" stroke="none" fill="#484848"><g><text style="font: 20px Roboto, sans-serif; white-space: pre;" font-size="20px" font-family="Roboto, sans-serif"><tspan x="16.09" y="34" dominant-baseline="ideographic">Queue Management</tspan></text></g></g></g><g id="g-root-cu_4gok4min01zc-fill" data-item-order="0" transform="translate(237, 243)"></g><g id="g-root-cu_hrileuin02ry-fill" data-item-order="0" transform="translate(237, 93)"></g><g id="g-root-tx_nonblock_4osq92imvv9l-fill" data-item-order="0" transform="translate(603, 255)"><g id="tx_nonblock_4osq92imvv9l-fill" stroke="none" fill="#484848"><g><text style="font: 20px Roboto, sans-serif; white-space: pre;" font-size="20px" font-family="Roboto, sans-serif"><tspan x="13.63" y="34" dominant-baseline="ideographic">Non-Blocking Operations</tspan></text></g></g></g><g id="g-root-tx_loadbala_94m8diimq87g-fill" data-item-order="1000000000" transform="translate(603, 54)"><g id="tx_loadbala_94m8diimq87g-fill" stroke="none" fill="#ba5de5"><g><text style="font: 20px Roboto, sans-serif; white-space: pre;" font-size="20px" font-family="Roboto, sans-serif"><tspan x="13.48" y="34" dominant-baseline="ideographic">Load Balancing</tspan></text></g></g></g><g id="g-root-plan_i095gmin1hjc-fill" data-item-order="1000000000" transform="translate(393, 114)"></g><g id="g-root-tx_systempe_mg2nl2in1gr3-fill" data-item-order="1000000000" transform="translate(351, 168)"><g id="tx_systempe_mg2nl2in1gr3-fill" stroke="none" fill="#484848"><g><text style="font: 20px Roboto, sans-serif; white-space: pre;" font-size="20px" font-family="Roboto, sans-serif"><tspan x="41.49" y="34" dominant-baseline="ideographic">System </tspan><tspan x="16.82" y="58" dominant-baseline="ideographic">Performance </tspan><tspan x="17.95" y="82" dominant-baseline="ideographic">Optimization</tspan></text></g></g></g><g id="g-root-hori_4osq92imq8zp-fill" data-item-order="1000000000" transform="translate(567, 51)"></g><g id="g-root-lock_1d1qtbaimyoe8-fill" data-item-order="1000000000" transform="translate(237, 51)"></g><g id="g-root-tx_connecti_zislwmin00ef-fill" data-item-order="1000000000" transform="translate(51, 204)"><g id="tx_connecti_zislwmin00ef-fill" stroke="none" fill="#92bd39"><g><text style="font: 20px Roboto, sans-serif; white-space: pre;" font-size="20px" font-family="Roboto, sans-serif"><tspan x="13.14" y="34" dominant-baseline="ideographic">Connection Pooling</tspan></text></g></g></g><g id="g-root-bag_v2z3s6in016o-fill" data-item-order="1000000000" transform="translate(237, 201)"></g><g id="g-root-tran_1qbydieimszyn-fill" data-item-order="1000000000" transform="translate(567, 201)"></g><g id="g-root-tx_requestt_18lxb6uimyoen-fill" data-item-order="1000000000" transform="translate(63, 54)"><g id="tx_requestt_18lxb6uimyoen-fill" stroke="none" fill="#e55753"><g><text style="font: 20px Roboto, sans-serif; white-space: pre;" font-size="20px" font-family="Roboto, sans-serif"><tspan x="12.3" y="34" dominant-baseline="ideographic">Request Throttling</tspan></text></g></g></g><g id="g-root-tx_asynchro_6hbs6imszd2-fill" data-item-order="1000000000" transform="translate(603, 204)"><g id="tx_asynchro_6hbs6imszd2-fill" stroke="none" fill="#e0cb15"><g><text style="font: 20px Roboto, sans-serif; white-space: pre;" font-size="20px" font-family="Roboto, sans-serif"><tspan x="14.21" y="34" dominant-baseline="ideographic">Asynchronous Processing</tspan></text></g></g></g><g id="g-root-ro_dl24fain1f5t-stroke" data-item-order="-31320" transform="translate(327, 90)"><g id="ro_dl24fain1f5t-stroke" fill="none" stroke-linecap="round" stroke-linejoin="round" stroke-miterlimit="4" stroke="#484848" stroke-width="2"><g><path d="M 34 10L 166 10C 166 10 190 10 190 34L 190 160C 190 160 190 184 166 184L 34 184C 34 184 10 184 10 160L 10 34C 10 34 10 10 34 10"></path></g></g></g><g id="g-root-ro_1urrvmuimszy8-stroke" data-item-order="-16200" transform="translate(555, 189)"><g id="ro_1urrvmuimszy8-stroke" fill="none" stroke-linecap="round" stroke-linejoin="round" stroke-miterlimit="4" stroke="#e0cb15" stroke-width="2"><g><path d="M 22 10L 298 10C 298 10 310 10 310 22L 310 52C 310 52 310 64 298 64L 22 64C 22 64 10 64 10 52L 10 22C 10 22 10 10 22 10"></path></g></g></g><g id="g-root-ro_m7c3jain01zd-stroke" data-item-order="-12960" transform="translate(39, 189)"><g id="ro_m7c3jain01zd-stroke" fill="none" stroke-linecap="round" stroke-linejoin="round" stroke-miterlimit="4" stroke="#92bd39" stroke-width="2"><g><path d="M 22 10L 238 10C 238 10 250 10 250 22L 250 52C 250 52 250 64 238 64L 22 64C 22 64 10 64 10 52L 10 22C 10 22 10 10 22 10"></path></g></g></g><g id="g-root-ro_146qa5iimym15-stroke" data-item-order="-12312" transform="translate(51, 39)"><g id="ro_146qa5iimym15-stroke" fill="none" stroke-linecap="round" stroke-linejoin="round" stroke-miterlimit="4" stroke="#e55753" stroke-width="2"><g><path d="M 22 10L 226 10C 226 10 238 10 238 22L 238 52C 238 52 238 64 226 64L 22 64C 22 64 10 64 10 52L 10 22C 10 22 10 10 22 10"></path></g></g></g><g id="g-root-ro_4osq92imq8zq-stroke" data-item-order="-11016" transform="translate(555, 39)"><g id="ro_4osq92imq8zq-stroke" fill="none" stroke-linecap="round" stroke-linejoin="round" stroke-miterlimit="4" stroke="#ba5de5" stroke-width="2"><g><path d="M 22 10L 202 10C 202 10 214 10 214 22L 214 52C 214 52 214 64 202 64L 22 64C 22 64 10 64 10 52L 10 22C 10 22 10 10 22 10"></path></g></g></g><g id="g-root-cu_8wi292in016w-stroke" data-item-order="0" transform="translate(579, 243)"><g id="cu_8wi292in016w-stroke" fill="none" stroke-linecap="round" stroke-linejoin="round" stroke-miterlimit="4" stroke="#969696" stroke-width="2" stroke-dasharray="5.0, 7.0"><g><path d="M 10 10L 10 22L 10 34L 19 34L 28 34"></path></g></g></g><g id="g-root-cu_hrileuin02rp-stroke" data-item-order="0" transform="translate(507, 66)"><g id="cu_hrileuin02rp-stroke" fill="none" stroke-linecap="round" stroke-linejoin="round" stroke-miterlimit="4" stroke="#969696" stroke-width="2" stroke-dasharray="5.0, 7.0"><g><path d="M 10 92L 13 92L 13.1 92C 24.642748 92.000003 33.999998 82.642755 33.999998 71.100003L 34 71L 34 30.9C 33.999999 19.357249 43.357248 10.000001 54.899999 10.000002L 55 10L 58 10"></path></g></g></g><g id="g-root-tx_trafficm_dkfqhyimvugw-stroke" data-item-order="0" transform="translate(603, 141)"></g><g id="g-root-cu_hrileuin02rs-stroke" data-item-order="0" transform="translate(507, 206)"><g id="cu_hrileuin02rs-stroke" fill="none" stroke-linecap="round" stroke-linejoin="round" stroke-miterlimit="4" stroke="#969696" stroke-width="2" stroke-dasharray="5.0, 7.0"><g><path d="M 10 10L 13 10L 13.1 10C 16.360602 10.01615 19.962923 10.453815 23.800001 11.3C 26.03452 11.745014 29.638043 13.052174 34 15.000001C 38.361958 16.947827 41.965481 18.254987 44.200001 18.700001C 48.03708 19.546186 51.639401 19.983851 54.900002 20.000001L 55 20L 58 20"></path></g></g></g><g id="g-root-tx_ratelimi_i098meimvtol-stroke" data-item-order="0" transform="translate(99, 105)"></g><g id="g-root-tx_tasksche_4osq92imvv9m-stroke" data-item-order="0" transform="translate(603, 291)"></g><g id="g-root-cu_dcbkdiin00eh-stroke" data-item-order="0" transform="translate(237, 93)"><g id="cu_dcbkdiin00eh-stroke" fill="none" stroke-linecap="round" stroke-linejoin="round" stroke-miterlimit="4" stroke="#969696" stroke-width="2" stroke-dasharray="5.0, 7.0"><g><path d="M 28 10L 28 17.5L 28 58C 27.999999 64.627415 22.627416 69.999998 16 69.999998L 15.9 70L 10 70"></path></g></g></g><g id="g-root-cu_8wi292in016z-stroke" data-item-order="0" transform="translate(579, 243)"><g id="cu_8wi292in016z-stroke" fill="none" stroke-linecap="round" stroke-linejoin="round" stroke-miterlimit="4" stroke="#969696" stroke-width="2" stroke-dasharray="5.0, 7.0"><g><path d="M 10 10L 10 17.5L 10 58C 10.000002 64.627417 15.372585 70 22.000002 69.999999L 22.1 70L 28 70"></path></g></g></g><g id="g-root-cu_m7c3jain01ze-stroke" data-item-order="0" transform="translate(279, 66)"><g id="cu_m7c3jain01ze-stroke" fill="none" stroke-linecap="round" stroke-linejoin="round" stroke-miterlimit="4" stroke="#969696" stroke-width="2" stroke-dasharray="5.0, 7.0"><g><path d="M 58 92L 55 92L 54.9 92C 43.357247 92 33.999998 82.642751 33.999998 71.1L 34 71L 34 30.9C 33.999998 19.357248 24.64275 10 13.1 10L 13 10L 10 10"></path></g></g></g><g id="g-root-tx_efficien_9lp7qimvsw4-stroke" data-item-order="0" transform="translate(15, 291)"></g><g id="g-root-cu_dcbkdiin00ej-stroke" data-item-order="0" transform="translate(579, 93)"><g id="cu_dcbkdiin00ej-stroke" fill="none" stroke-linecap="round" stroke-linejoin="round" stroke-miterlimit="4" stroke="#969696" stroke-width="2" stroke-dasharray="5.0, 7.0"><g><path d="M 10 10L 10 22L 10 34L 19 34L 28 34"></path></g></g></g><g id="g-root-cu_dcbkdiin00em-stroke" data-item-order="0" transform="translate(579, 93)"><g id="cu_dcbkdiin00em-stroke" fill="none" stroke-linecap="round" stroke-linejoin="round" stroke-miterlimit="4" stroke="#969696" stroke-width="2" stroke-dasharray="5.0, 7.0"><g><path d="M 10 10L 10 17.5L 10 58C 10.000002 64.627417 15.372585 70 22.000002 69.999999L 22.1 70L 28 70"></path></g></g></g><g id="g-root-tx_resource_4osq92imvv9n-stroke" data-item-order="0" transform="translate(75, 255)"></g><g id="g-root-cu_8wi292in0171-stroke" data-item-order="0" transform="translate(237, 243)"><g id="cu_8wi292in0171-stroke" fill="none" stroke-linecap="round" stroke-linejoin="round" stroke-miterlimit="4" stroke="#969696" stroke-width="2" stroke-dasharray="5.0, 7.0"><g><path d="M 28 10L 28 22L 28 34L 19 34L 10 34"></path></g></g></g><g id="g-root-cu_hrileuin02rv-stroke" data-item-order="0" transform="translate(279, 206)"><g id="cu_hrileuin02rv-stroke" fill="none" stroke-linecap="round" stroke-linejoin="round" stroke-miterlimit="4" stroke="#969696" stroke-width="2" stroke-dasharray="5.0, 7.0"><g><path d="M 58 10L 55 10L 54.9 10C 51.639401 10.016148 48.03708 10.453814 44.200002 11.299999C 41.965481 11.745013 38.361958 13.052173 34 14.999999C 29.638043 16.947825 26.03452 18.254985 23.8 18.699999C 19.962923 19.546185 16.360601 19.98385 13.1 20L 13 20L 10 20"></path></g></g></g><g id="g-root-tx_serverdi_94m8diimvuhb-stroke" data-item-order="0" transform="translate(603, 105)"></g><g id="g-root-tx_queueman_94m8diimvuha-stroke" data-item-order="0" transform="translate(39, 141)"></g><g id="g-root-cu_4gok4min01zc-stroke" data-item-order="0" transform="translate(237, 243)"><g id="cu_4gok4min01zc-stroke" fill="none" stroke-linecap="round" stroke-linejoin="round" stroke-miterlimit="4" stroke="#969696" stroke-width="2" stroke-dasharray="5.0, 7.0"><g><path d="M 28 10L 28 17.5L 28 58C 27.999999 64.627415 22.627416 69.999998 16 69.999998L 15.9 70L 10 70"></path></g></g></g><g id="g-root-cu_hrileuin02ry-stroke" data-item-order="0" transform="translate(237, 93)"><g id="cu_hrileuin02ry-stroke" fill="none" stroke-linecap="round" stroke-linejoin="round" stroke-miterlimit="4" stroke="#969696" stroke-width="2" stroke-dasharray="5.0, 7.0"><g><path d="M 28 10L 28 22L 28 34L 19 34L 10 34"></path></g></g></g><g id="g-root-tx_nonblock_4osq92imvv9l-stroke" data-item-order="0" transform="translate(603, 255)"></g><g id="g-root-tx_loadbala_94m8diimq87g-stroke" data-item-order="1000000000" transform="translate(603, 54)"></g><g id="g-root-plan_i095gmin1hjc-stroke" data-item-order="1000000000" transform="translate(393, 114)"><g id="plan_i095gmin1hjc-stroke" fill="none" stroke-linecap="round" stroke-linejoin="round" stroke-miterlimit="4" stroke="#484848" stroke-width="2"><g><path d="M 19 34.68C 18.781696 34.876301 18.604893 35.114311 18.48 35.380001L 12.24 49.380001C 11.950814 50.030678 12.011045 50.783569 12.4 51.379997C 12.773495 51.891159 13.366945 52.195301 14 52.200001L 54 52.200001C 54.676128 52.203262 55.308132 51.864693 55.68 51.299999C 56.068954 50.703571 56.129185 49.950676 55.839996 49.299999L 49.599998 35.299999C 49.277824 34.583282 48.5658 34.121639 47.779999 34.120003L 34 34.120003M 17.68 38.200001L 50.779999 38.200001M 43.779999 17.059999C 44.844616 17.285761 45.719845 18.040268 46.099998 19.060001C 46.58432 20.473637 46.039028 22.035152 44.779999 22.84L 26.459999 34.279999C 26.084373 34.529682 25.595627 34.529682 25.220001 34.279999L 18.5 29.540001C 18.35527 29.418396 18.271704 29.239033 18.271704 29.049999C 18.271704 28.860966 18.35527 28.681602 18.5 28.559999L 21.34 26C 21.544205 25.882103 21.795795 25.882103 22 26L 25.48 28L 30 24.939999L 21.459999 19.700001C 21.274286 19.552006 21.166107 19.327469 21.166107 19.09C 21.166107 18.852531 21.274286 18.627995 21.459999 18.48L 23.459999 16.940001C 23.672403 16.799171 23.937256 16.762386 24.18 16.84L 36 21.200001L 41.419998 17.5C 42.110184 17.028938 42.966438 16.869299 43.780003 17.060001ZM 20 44.200001L 23 44.200001M 28 44.200001L 31 44.200001M 36 44.200001L 39 44.200001M 44 44.200001L 47 44.200001"></path></g></g></g><g id="g-root-tx_systempe_mg2nl2in1gr3-stroke" data-item-order="1000000000" transform="translate(351, 168)"></g><g id="g-root-hori_4osq92imq8zp-stroke" data-item-order="1000000000" transform="translate(567, 51)"><g id="hori_4osq92imq8zp-stroke" fill="none" stroke-linecap="round" stroke-linejoin="round" stroke-miterlimit="4" stroke="#ba5de5" stroke-width="2"><g><path d="M 10.625 21.875L 28.125 21.875M 21.875 28.125L 39.375 28.125M 15.625 26.875L 10.625 21.875L 15.625 16.875M 34.375 33.125L 39.375 28.125L 34.375 23.125"></path></g></g></g><g id="g-root-lock_1d1qtbaimyoe8-stroke" data-item-order="1000000000" transform="translate(237, 51)"><g id="lock_1d1qtbaimyoe8-stroke" fill="none" stroke-linecap="round" stroke-linejoin="round" stroke-miterlimit="4" stroke="#e55753" stroke-width="2"><g><path d="M 25.953749 32.184998L 13.36125 32.184998C 11.918693 32.18362 10.749999 31.013809 10.75 29.571251L 10.75 13.23875C 10.749999 11.796191 11.918693 10.62638 13.36125 10.625L 32.96125 10.625C 34.404297 10.62569 35.573753 11.795704 35.573753 13.23875L 35.57375 21.158751M 10.7475 15.72875L 35.57375 15.72875M 10.7475 26.5725L 25.953749 26.5725M 10.7475 21.158751L 35.57375 21.158751M 20.887501 15.72875L 20.887501 32.184998M 28.157499 15.72875L 28.157499 24.50375M 28.545 31.940001C 28.545 30.913441 29.37719 30.081251 30.403749 30.081251L 37.393753 30.081251C 38.419334 30.082628 39.25 30.914417 39.25 31.940001L 39.25 37.516251C 39.25 38.541836 38.419334 39.373619 37.393749 39.375L 30.403749 39.375C 29.37719 39.375 28.545 38.542809 28.545 37.516251ZM 33.89875 24.5L 33.89875 24.5C 31.886976 24.541687 30.289545 26.2057 30.33 28.217499L 30.33 30.077499L 37.467503 30.077499L 37.467503 28.221249C 37.510056 26.207998 35.912018 24.541676 33.89875 24.5ZM 33.89875 33.42625C 33.349682 33.403801 32.842079 33.717323 32.616337 34.218346C 32.390594 34.719368 32.492027 35.307301 32.872601 35.703716C 33.253178 36.100132 33.836487 36.225449 34.346291 36.020313C 34.856102 35.815178 35.190052 35.320782 35.190002 34.771252C 35.204643 34.043343 34.626644 33.441284 33.89875 33.42625L 33.89875 33.42625"></path></g></g></g><g id="g-root-tx_connecti_zislwmin00ef-stroke" data-item-order="1000000000" transform="translate(51, 204)"></g><g id="g-root-bag_v2z3s6in016o-stroke" data-item-order="1000000000" transform="translate(237, 201)"><g id="bag_v2z3s6in016o-stroke" fill="none" stroke-linecap="round" stroke-linejoin="round" stroke-miterlimit="4" stroke="#92bd39" stroke-width="2"><g><path d="M 14.375 20.625L 35.625 20.625C 35.625 20.625 36.875 20.625 36.875 21.875L 36.875 38.125C 36.875 38.125 36.875 39.375 35.625 39.375L 14.375 39.375C 14.375 39.375 13.125 39.375 13.125 38.125L 13.125 21.875C 13.125 21.875 13.125 20.625 14.375 20.625M 19.375 18.02375L 19.375 16.25C 19.375 13.143398 21.893398 10.625 25 10.625C 28.106602 10.625 30.625 13.143398 30.625 16.25L 30.625 18.02375M 28.76375 25.625L 28.13875 28.125L 25.63875 28.125M 18.758751 30.625L 21.258751 30.625L 21.883751 33.125M 27.52 37.483749L 26.02125 35.625L 27.52 33.733749M 29.57625 31.286249L 30.9025 33.786247C 31.107607 34.173553 31.094894 34.639992 30.868998 35.015549C 30.643099 35.391109 30.237015 35.62093 29.79875 35.62125L 26.02125 35.62125M 22.555 27.28125L 23.9575 24.897501C 24.178734 24.521128 24.580305 24.287451 25.016836 24.281065C 25.453367 24.274679 25.861603 24.49651 26.09375 24.866249L 28.13875 28.125M 22.508751 35.625L 20.383751 35.625C 19.929163 35.624832 19.510502 35.377884 19.290442 34.98011C 19.070381 34.582336 19.083614 34.096455 19.325001 33.71125L 21.258751 30.625"></path></g></g></g><g id="g-root-tran_1qbydieimszyn-stroke" data-item-order="1000000000" transform="translate(567, 201)"><g id="tran_1qbydieimszyn-stroke" fill="none" stroke-linecap="round" stroke-linejoin="round" stroke-miterlimit="4" stroke="#e0cb15" stroke-width="2"><g><path d="M 16.875 21.875L 11.77875 21.875C 11.115201 21.847927 10.598932 21.288589 10.625 20.625L 10.625 11.875C 10.59963 11.211668 11.115514 10.652748 11.77875 10.625L 24.471249 10.625C 25.134487 10.652748 25.65037 11.211668 25.625002 11.875L 25.625 19.375M 13.125 24.375L 16.875 24.375M 10.625 19.375L 25.625 19.375M 29.375 36.875L 29.375 39.33625M 24.375 39.375L 34.375 39.375M 39.375 34.625C 39.440483 35.797371 38.546959 36.802582 37.375 36.875L 21.375 36.875C 20.203362 36.801914 19.310215 35.797127 19.375 34.625L 19.375 24.125C 19.310909 22.953117 20.203684 21.948746 21.375 21.875L 37.375 21.875C 38.546635 21.948082 39.439781 22.952873 39.374996 24.125ZM 19.373751 33.125L 39.375 33.125"></path></g></g></g><g id="g-root-tx_requestt_18lxb6uimyoen-stroke" data-item-order="1000000000" transform="translate(63, 54)"></g><g id="g-root-tx_asynchro_6hbs6imszd2-stroke" data-item-order="1000000000" transform="translate(603, 204)"></g></g></g></svg>