<?xml version="1.0" encoding="utf-8" standalone="yes"?>
<!DOCTYPE svg PUBLIC "-//W3C//DTD SVG 1.1//EN" "http://www.w3.org/Graphics/SVG/1.1/DTD/svg11.dtd">
<svg width="746" height="644" viewBox="0 0 746 644" style="fill:none;stroke:none;fill-rule:evenodd;clip-rule:evenodd;stroke-linecap:round;stroke-linejoin:round;stroke-miterlimit:1.5;" version="1.1" xmlns="http://www.w3.org/2000/svg" xmlns:xlink="http://www.w3.org/1999/xlink"><style id="fontImports">@import url("https://fonts.googleapis.com/css2?family=Roboto:wght@400;700&amp;display=block");</style><g id="items" style="isolation: isolate"><g id="blend" style="mix-blend-mode: normal"><g id="g-root--1.cu_sy_91iztv1qh0umj-fill" data-item-order="-184794" transform="translate(315, 111)"><g id="-1.cu_sy_91iztv1qh0umj-fill" stroke="none" fill="url(#gradient-cbcbcb-248399021)"><g><path d="M 65.766602 478C 80.754802 478 106.000002 373.235 106.000002 244C 106.000002 114.765 80.754802 10 65.766602 10C 80.775202 10.0122 92.941702 115.084 92.941702 244C 92.941702 372.916 80.775202 477.988 65.766602 478ZM 65.765897 478C 80.774597 477.988 92.941097 372.916 92.941097 244C 92.941097 115.084 80.774597 10.0122 65.765897 10L 51.957397 10C 66.060697 18.3945 77.199297 120.263 77.199297 244C 77.199297 367.737 65.382597 469.605 51.279297 478L 65.765897 478ZM 77.2 244C 77.2 367.737 65.3833 469.605 51.28 478L 50.0615 478C 35.0734 478 10 373.235 10 244C 10 114.765 35.0734 10 50.0615 10C 50.6991 10 51.9581 10 51.9581 10C 66.0614 18.3945 77.2 120.263 77.2 244Z"></path></g></g></g><g id="g-root-0.cr-medium_cr_91iztv1qh0umk-fill" data-item-order="-184790" transform="translate(484, 309)"><g id="0.cr-medium_cr_91iztv1qh0umk-fill" stroke="none" fill="url(#gradient-cbcbcb-248399021)"><g><path d="M 10 46C 10 65.882251 26.117749 82 46 82C 65.882251 82 82 65.882251 82 46C 82 26.117749 65.882251 10 46 10C 26.117749 10 10 26.117749 10 46"></path></g></g></g><g id="g-root-6.line_sy_91iztv1qh0uml-fill" data-item-order="-184783" transform="translate(231, 387)"></g><g id="g-root-6.cr-small_cr_4lphpf1qh0veu-fill" data-item-order="-184782" transform="translate(171, 525)"><g id="6.cr-small_cr_4lphpf1qh0veu-fill" stroke="none" fill="url(#gradient-a28bff-80143514)"><g><path d="M 10 40C 10.000002 56.568544 23.431459 70.000002 40.000002 70.000002C 56.568544 70.000002 70.000002 56.568544 70.000002 40.000002C 70.000002 23.431459 56.568544 10.000002 40.000002 10.000002C 23.431459 10.000002 10.000002 23.431459 10.000002 40.000002"></path></g></g></g><g id="g-root-5.line_sy_4lphpf1qh0vev-fill" data-item-order="-184775" transform="translate(231, 373)"></g><g id="g-root-5.cr-small_cr_4lphpf1qh0vew-fill" data-item-order="-184774" transform="translate(171, 441)"><g id="5.cr-small_cr_4lphpf1qh0vew-fill" stroke="none" fill="url(#gradient-d98afd-525750490)"><g><path d="M 10 40C 10.000002 56.568544 23.431459 70.000002 40.000002 70.000002C 56.568544 70.000002 70.000002 56.568544 70.000002 40.000002C 70.000002 23.431459 56.568544 10.000002 40.000002 10.000002C 23.431459 10.000002 10.000002 23.431459 10.000002 40.000002"></path></g></g></g><g id="g-root-4.line_sy_4lphpf1qh0vex-fill" data-item-order="-184767" transform="translate(231, 355)"></g><g id="g-root-4.cr-small_cr_5vzkz1qh0w76-fill" data-item-order="-184766" transform="translate(171, 357)"><g id="4.cr-small_cr_5vzkz1qh0w76-fill" stroke="none" fill="url(#gradient-fb85cc-431468215)"><g><path d="M 10 40C 10.000002 56.568544 23.431459 70.000002 40.000002 70.000002C 56.568544 70.000002 70.000002 56.568544 70.000002 40.000002C 70.000002 23.431459 56.568544 10.000002 40.000002 10.000002C 23.431459 10.000002 10.000002 23.431459 10.000002 40.000002"></path></g></g></g><g id="g-root-3.line_sy_5vzkz1qh0w77-fill" data-item-order="-184759" transform="translate(231.10940551757812, 303)"></g><g id="g-root-3.cr-small_cr_5vzkz1qh0w78-fill" data-item-order="-184758" transform="translate(171, 273)"><g id="3.cr-small_cr_5vzkz1qh0w78-fill" stroke="none" fill="url(#gradient-fe8884-413551779)"><g><path d="M 10 40C 10.000002 56.568544 23.431459 70.000002 40.000002 70.000002C 56.568544 70.000002 70.000002 56.568544 70.000002 40.000002C 70.000002 23.431459 56.568544 10.000002 40.000002 10.000002C 23.431459 10.000002 10.000002 23.431459 10.000002 40.000002"></path></g></g></g><g id="g-root-2.line_sy_5vzkz1qh0w79-fill" data-item-order="-184751" transform="translate(231, 219)"></g><g id="g-root-2.cr-small_cr_1qbd1b71qh0wsu-fill" data-item-order="-184750" transform="translate(171, 189)"><g id="2.cr-small_cr_1qbd1b71qh0wsu-fill" stroke="none" fill="url(#gradient-fdac61-172712277)"><g><path d="M 10 40C 10.000002 56.568544 23.431459 70.000002 40.000002 70.000002C 56.568544 70.000002 70.000002 56.568544 70.000002 40.000002C 70.000002 23.431459 56.568544 10.000002 40.000002 10.000002C 23.431459 10.000002 10.000002 23.431459 10.000002 40.000002"></path></g></g></g><g id="g-root-1.line_sy_1qbd1b71qh0wsv-fill" data-item-order="-184743" transform="translate(231, 135)"></g><g id="g-root-1.cr-small_cr_1ur6jfn1qh0wsg-fill" data-item-order="-184742" transform="translate(171, 105)"><defs><linearGradient id="gradient-cbcbcb-248399021" x2="0" y2="1"><stop offset="0" stop-color="#d9d9d9"></stop><stop offset="1" stop-color="#bcbcbc"></stop></linearGradient><linearGradient id="gradient-a28bff-80143514" x2="0" y2="1"><stop offset="0" stop-color="#bcabff"></stop><stop offset="1" stop-color="#886aff"></stop></linearGradient><linearGradient id="gradient-d98afd-525750490" x2="0" y2="1"><stop offset="0" stop-color="#e4a9ff"></stop><stop offset="1" stop-color="#cd6afb"></stop></linearGradient><linearGradient id="gradient-fb85cc-431468215" x2="0" y2="1"><stop offset="0" stop-color="#ffa1da"></stop><stop offset="1" stop-color="#f669be"></stop></linearGradient><linearGradient id="gradient-fe8884-413551779" x2="0" y2="1"><stop offset="0" stop-color="#ffa6a3"></stop><stop offset="1" stop-color="#fd6a65"></stop></linearGradient><linearGradient id="gradient-fdac61-172712277" x2="0" y2="1"><stop offset="0" stop-color="#ffc188"></stop><stop offset="1" stop-color="#fa963a"></stop></linearGradient><linearGradient id="gradient-ffed4b-499785973" x2="0" y2="1"><stop offset="0" stop-color="#fff282"></stop><stop offset="1" stop-color="#ffe714"></stop></linearGradient></defs><g id="1.cr-small_cr_1ur6jfn1qh0wsg-fill" stroke="none" fill="url(#gradient-ffed4b-499785973)"><g><path d="M 10 40C 10.000002 56.568544 23.431459 70.000002 40.000002 70.000002C 56.568544 70.000002 70.000002 56.568544 70.000002 40.000002C 70.000002 23.431459 56.568544 10.000002 40.000002 10.000002C 23.431459 10.000002 10.000002 23.431459 10.000002 40.000002"></path></g></g></g><g id="g-root-sear_18mjowz1qqqo7b-fill" data-item-order="0" transform="translate(183, 201)"></g><g id="g-root-tx_compress_zrj5r71qqs000-fill" data-item-order="0" transform="translate(27, 291)"><g id="tx_compress_zrj5r71qqs000-fill" stroke="none" fill="#484848"><g><text style="font: 20px Roboto, sans-serif; white-space: pre;" font-size="20px" font-family="Roboto, sans-serif"><tspan x="21.73" y="33.5" dominant-baseline="ideographic">Compression</tspan></text></g></g></g><g id="g-root-bagg_1cw4g6b1qqp6v6-fill" data-item-order="0" transform="translate(183, 285)"></g><g id="g-root-tx_paginati_qvw5ib1qqs0sp-fill" data-item-order="0" transform="translate(39, 195)"><g id="tx_paginati_qvw5ib1qqs0sp-fill" stroke="none" fill="#484848"><g><text style="font: 20px Roboto, sans-serif; white-space: pre;" font-size="20px" font-family="Roboto, sans-serif"><tspan x="15.41" y="33.5" dominant-baseline="ideographic">Pagination &amp; </tspan><tspan x="56.23" y="57.5" dominant-baseline="ideographic">Filtering</tspan></text></g></g></g><g id="g-root-incr_htf5k31qhaq6l-fill" data-item-order="0" transform="translate(495, 321)"></g><g id="g-root-tx_enhanced_18mjowz1qqs1l8-fill" data-item-order="0" transform="translate(567, 321)"><g id="tx_enhanced_18mjowz1qqs1l8-fill" stroke="none" fill="#969696"><g><text style="font: 20px Roboto, sans-serif; white-space: pre;" font-size="20px" font-family="Roboto, sans-serif"><tspan x="12" y="33.5" dominant-baseline="ideographic">Enhanced API </tspan><tspan x="12" y="57.5" dominant-baseline="ideographic">Efficiency</tspan></text></g></g></g><g id="g-root-tx_queryopt_vbpnmr1qqs00f-fill" data-item-order="0" transform="translate(39, 363)"><g id="tx_queryopt_vbpnmr1qqs00f-fill" stroke="none" fill="#484848"><g><text style="font: 20px Roboto, sans-serif; white-space: pre;" font-size="20px" font-family="Roboto, sans-serif"><tspan x="76.22" y="33.5" dominant-baseline="ideographic">Query </tspan><tspan x="14.64" y="57.5" dominant-baseline="ideographic">Optimization</tspan></text></g></g></g><g id="g-root-2_18mjowz1qqs1l7-fill" data-item-order="0" transform="translate(183, 117)"></g><g id="g-root-knig_18f3bab1qh99mt-fill" data-item-order="0" transform="translate(183, 369)"></g><g id="g-root-tx_requestt_vbpnmr1qqs00e-fill" data-item-order="0" transform="translate(63, 447)"><g id="tx_requestt_vbpnmr1qqs00e-fill" stroke="none" fill="#484848"><g><text style="font: 20px Roboto, sans-serif; white-space: pre;" font-size="20px" font-family="Roboto, sans-serif"><tspan x="31.25" y="33.5" dominant-baseline="ideographic">Request </tspan><tspan x="18.04" y="57.5" dominant-baseline="ideographic">Throttling</tspan></text></g></g></g><g id="g-root-exch_18ml0bn1qgwnpf-fill" data-item-order="0" transform="translate(183, 537)"></g><g id="g-root-tx_response_qvw5ib1qqs0sq-fill" data-item-order="0" transform="translate(63, 111)"><g id="tx_response_qvw5ib1qqs0sq-fill" stroke="none" fill="#484848"><g><text style="font: 20px Roboto, sans-serif; white-space: pre;" font-size="20px" font-family="Roboto, sans-serif"><tspan x="16.2" y="33.5" dominant-baseline="ideographic">Response </tspan><tspan x="31.51" y="57.5" dominant-baseline="ideographic">Caching</tspan></text></g></g></g><g id="g-root-tx_loadbala_146q6sj1qqs2dh-fill" data-item-order="0" transform="translate(15, 543)"><g id="tx_loadbala_146q6sj1qqs2dh-fill" stroke="none" fill="#484848"><g><text style="font: 20px Roboto, sans-serif; white-space: pre;" font-size="20px" font-family="Roboto, sans-serif"><tspan x="15.05" y="33.5" dominant-baseline="ideographic">Load Balancing</tspan></text></g></g></g><g id="g-root-tx_strategi_qvw5ib1qqs0sr-fill" data-item-order="0" transform="translate(183, 39)"><g id="tx_strategi_qvw5ib1qqs0sr-fill" stroke="none" fill="#484848"><g><text style="font: 20px Roboto, sans-serif; white-space: pre;" font-size="20px" font-family="Roboto, sans-serif"><tspan x="14.48" y="33.5" dominant-baseline="ideographic">Strategies for Optimal API Performance</tspan></text></g></g></g><g id="g-root-1_1d0j36r1qh28lc-fill" data-item-order="0" transform="translate(183, 453)"></g><g id="g-root--1.cu_sy_91iztv1qh0umj-stroke" data-item-order="-184794" transform="translate(315, 111)"><g id="-1.cu_sy_91iztv1qh0umj-stroke" fill="none" stroke-linecap="round" stroke-linejoin="round" stroke-miterlimit="4" stroke="#484848" stroke-width="2"><g><path d="M 65.766602 478C 80.754802 478 106.000002 373.2347 106.000002 244C 106.000002 114.7654 80.754802 10 65.766602 10C 80.775202 10.0122 92.941702 115.0836 92.941702 244C 92.941702 372.9165 80.775202 477.9878 65.766602 478ZM 65.765897 478C 80.774597 477.9878 92.941097 372.9165 92.941097 244C 92.941097 115.0836 80.774597 10.0122 65.765897 10L 51.957397 10C 66.060697 18.3945 77.199297 120.2626 77.199297 244C 77.199297 367.7375 65.382597 469.6055 51.279297 478L 65.765897 478ZM 77.2 244C 77.2 367.7375 65.3833 469.6055 51.28 478L 50.0615 478C 35.0734 478 10 373.2347 10 244C 10 114.7654 35.0734 10 50.0615 10C 50.6991 10 51.9581 10 51.9581 10C 66.0614 18.3945 77.2 120.2626 77.2 244Z"></path></g></g></g><g id="g-root-0.cr-medium_cr_91iztv1qh0umk-stroke" data-item-order="-184790" transform="translate(484, 309)"><g id="0.cr-medium_cr_91iztv1qh0umk-stroke" fill="none" stroke-linecap="round" stroke-linejoin="round" stroke-miterlimit="4" stroke="#484848" stroke-width="2"><g><path d="M 10 46C 10 65.882251 26.117749 82 46 82C 65.882251 82 82 65.882251 82 46C 82 26.117749 65.882251 10 46 10C 26.117749 10 10 26.117749 10 46"></path></g></g></g><g id="g-root-6.line_sy_91iztv1qh0uml-stroke" data-item-order="-184783" transform="translate(231, 387)"><g id="6.line_sy_91iztv1qh0uml-stroke" fill="none" stroke-linecap="round" stroke-linejoin="round" stroke-miterlimit="4" stroke="#484848" stroke-width="2"><g><path d="M 272.7 11.52L 130 178L 10 178"></path><path d="M 273.7 20.3L 273 11.1L 263.9 11.8" stroke-dasharray="none"></path></g></g></g><g id="g-root-6.cr-small_cr_4lphpf1qh0veu-stroke" data-item-order="-184782" transform="translate(171, 525)"><g id="6.cr-small_cr_4lphpf1qh0veu-stroke" fill="none" stroke-linecap="round" stroke-linejoin="round" stroke-miterlimit="4" stroke="#484848" stroke-width="2"><g><path d="M 10 40C 10.000002 56.568544 23.431459 70.000002 40.000002 70.000002C 56.568544 70.000002 70.000002 56.568544 70.000002 40.000002C 70.000002 23.431459 56.568544 10.000002 40.000002 10.000002C 23.431459 10.000002 10.000002 23.431459 10.000002 40.000002"></path></g></g></g><g id="g-root-5.line_sy_4lphpf1qh0vev-stroke" data-item-order="-184775" transform="translate(231, 373)"><g id="5.line_sy_4lphpf1qh0vev-stroke" fill="none" stroke-linecap="round" stroke-linejoin="round" stroke-miterlimit="4" stroke="#484848" stroke-width="2"><g><path d="M 257.41 11.21L 130 108L 10 108"></path><path d="M 256.6 20L 257.8 10.9L 248.7 9.7" stroke-dasharray="none"></path></g></g></g><g id="g-root-5.cr-small_cr_4lphpf1qh0vew-stroke" data-item-order="-184774" transform="translate(171, 441)"><g id="5.cr-small_cr_4lphpf1qh0vew-stroke" fill="none" stroke-linecap="round" stroke-linejoin="round" stroke-miterlimit="4" stroke="#484848" stroke-width="2"><g><path d="M 10 40C 10.000002 56.568544 23.431459 70.000002 40.000002 70.000002C 56.568544 70.000002 70.000002 56.568544 70.000002 40.000002C 70.000002 23.431459 56.568544 10.000002 40.000002 10.000002C 23.431459 10.000002 10.000002 23.431459 10.000002 40.000002"></path></g></g></g><g id="g-root-4.line_sy_4lphpf1qh0vex-stroke" data-item-order="-184767" transform="translate(231, 355)"><g id="4.line_sy_4lphpf1qh0vex-stroke" fill="none" stroke-linecap="round" stroke-linejoin="round" stroke-miterlimit="4" stroke="#484848" stroke-width="2"><g><path d="M 250.07 10.51L 130 42L 10 42"></path><path d="M 245.9 18.3L 250.5 10.4L 242.6 5.7" stroke-dasharray="none"></path></g></g></g><g id="g-root-4.cr-small_cr_5vzkz1qh0w76-stroke" data-item-order="-184766" transform="translate(171, 357)"><g id="4.cr-small_cr_5vzkz1qh0w76-stroke" fill="none" stroke-linecap="round" stroke-linejoin="round" stroke-miterlimit="4" stroke="#484848" stroke-width="2"><g><path d="M 10 40C 10.000002 56.568544 23.431459 70.000002 40.000002 70.000002C 56.568544 70.000002 70.000002 56.568544 70.000002 40.000002C 70.000002 23.431459 56.568544 10.000002 40.000002 10.000002C 23.431459 10.000002 10.000002 23.431459 10.000002 40.000002"></path></g></g></g><g id="g-root-3.line_sy_5vzkz1qh0w77-stroke" data-item-order="-184759" transform="translate(231.10940551757812, 303)"><g id="3.line_sy_5vzkz1qh0w77-stroke" fill="none" stroke-linecap="round" stroke-linejoin="round" stroke-miterlimit="4" stroke="#484848" stroke-width="2"><g><path d="M 249.960594 41.49L 129.890594 10L 10.000594 10"></path><path d="M 242.490594 46.3L 250.390594 41.6L 245.790594 33.7" stroke-dasharray="none"></path></g></g></g><g id="g-root-3.cr-small_cr_5vzkz1qh0w78-stroke" data-item-order="-184758" transform="translate(171, 273)"><g id="3.cr-small_cr_5vzkz1qh0w78-stroke" fill="none" stroke-linecap="round" stroke-linejoin="round" stroke-miterlimit="4" stroke="#484848" stroke-width="2"><g><path d="M 10 40C 10.000002 56.568544 23.431459 70.000002 40.000002 70.000002C 56.568544 70.000002 70.000002 56.568544 70.000002 40.000002C 70.000002 23.431459 56.568544 10.000002 40.000002 10.000002C 23.431459 10.000002 10.000002 23.431459 10.000002 40.000002"></path></g></g></g><g id="g-root-2.line_sy_5vzkz1qh0w79-stroke" data-item-order="-184751" transform="translate(231, 219)"><g id="2.line_sy_5vzkz1qh0w79-stroke" fill="none" stroke-linecap="round" stroke-linejoin="round" stroke-miterlimit="4" stroke="#484848" stroke-width="2"><g><path d="M 257.41 106.79L 130 10L 10 10"></path><path d="M 248.7 108.3L 257.8 107.1L 256.6 98" stroke-dasharray="none"></path></g></g></g><g id="g-root-2.cr-small_cr_1qbd1b71qh0wsu-stroke" data-item-order="-184750" transform="translate(171, 189)"><g id="2.cr-small_cr_1qbd1b71qh0wsu-stroke" fill="none" stroke-linecap="round" stroke-linejoin="round" stroke-miterlimit="4" stroke="#484848" stroke-width="2"><g><path d="M 10 40C 10.000002 56.568544 23.431459 70.000002 40.000002 70.000002C 56.568544 70.000002 70.000002 56.568544 70.000002 40.000002C 70.000002 23.431459 56.568544 10.000002 40.000002 10.000002C 23.431459 10.000002 10.000002 23.431459 10.000002 40.000002"></path></g></g></g><g id="g-root-1.line_sy_1qbd1b71qh0wsv-stroke" data-item-order="-184743" transform="translate(231, 135)"><g id="1.line_sy_1qbd1b71qh0wsv-stroke" fill="none" stroke-linecap="round" stroke-linejoin="round" stroke-miterlimit="4" stroke="#484848" stroke-width="2"><g><path d="M 272.7 176.48L 130 10L 10 10"></path><path d="M 263.9 176.2L 273 176.9L 273.7 167.7" stroke-dasharray="none"></path></g></g></g><g id="g-root-1.cr-small_cr_1ur6jfn1qh0wsg-stroke" data-item-order="-184742" transform="translate(171, 105)"><g id="1.cr-small_cr_1ur6jfn1qh0wsg-stroke" fill="none" stroke-linecap="round" stroke-linejoin="round" stroke-miterlimit="4" stroke="#484848" stroke-width="2"><g><path d="M 10 40C 10.000002 56.568544 23.431459 70.000002 40.000002 70.000002C 56.568544 70.000002 70.000002 56.568544 70.000002 40.000002C 70.000002 23.431459 56.568544 10.000002 40.000002 10.000002C 23.431459 10.000002 10.000002 23.431459 10.000002 40.000002"></path></g></g></g><g id="g-root-sear_18mjowz1qqqo7b-stroke" data-item-order="0" transform="translate(183, 201)"><g id="sear_18mjowz1qqqo7b-stroke" fill="none" stroke-linecap="round" stroke-linejoin="round" stroke-miterlimit="4" stroke="#484848" stroke-width="2"><g><path d="M 21.25 18.084999L 21.25 42.084999M 31.75 25.75L 31.75 10.75M 25.75 39.040001L 21.684999 41.935001C 21.427784 42.130013 21.072214 42.130013 20.814999 41.934998L 11.065 34.974998C 10.868125 34.831799 10.751163 34.603443 10.75 34.360001L 10.75 11.5C 10.745133 11.219952 10.903117 10.962497 11.155 10.84C 11.393556 10.690662 11.696444 10.690662 11.934999 10.84L 21.25 18.084999L 31.315001 10.885C 31.576773 10.704047 31.923227 10.704047 32.185001 10.885L 41.935001 17.860001C 42.131435 17.996777 42.248962 18.22064 42.25 18.459999L 42.25 27.25M 42.25 35.5C 42.25 39.227921 39.227921 42.25 35.5 42.25C 31.772079 42.25 28.75 39.227921 28.75 35.5C 28.75 31.772079 31.772079 28.75 35.5 28.75C 39.227921 28.75 42.25 31.772079 42.25 35.5ZM 40.27 40.27L 45.25 45.25"></path></g></g></g><g id="g-root-tx_compress_zrj5r71qqs000-stroke" data-item-order="0" transform="translate(27, 291)"></g><g id="g-root-bagg_1cw4g6b1qqp6v6-stroke" data-item-order="0" transform="translate(183, 285)"><g id="bagg_1cw4g6b1qqp6v6-stroke" fill="none" stroke-linecap="round" stroke-linejoin="round" stroke-miterlimit="4" stroke="#484848" stroke-width="2"><g><path d="M 16.428572 20.285713L 39.571426 20.285713C 39.571426 20.285713 44.714287 20.285713 44.714287 25.428572L 44.714287 39.571426C 44.714287 39.571426 44.714287 44.714287 39.571426 44.714287L 16.428572 44.714287C 16.428572 44.714287 11.285714 44.714287 11.285714 39.571426L 11.285714 25.428572C 11.285714 25.428572 11.285714 20.285713 16.428572 20.285713M 20.285713 44.714287L 20.285713 20.285713M 35.714287 44.714287L 35.714287 20.285713M 21.571428 20.285713C 21.571428 16.735312 24.449598 13.857143 28 13.857142C 31.550402 13.857142 34.42857 16.735312 34.42857 20.285713"></path></g></g></g><g id="g-root-tx_paginati_qvw5ib1qqs0sp-stroke" data-item-order="0" transform="translate(39, 195)"></g><g id="g-root-incr_htf5k31qhaq6l-stroke" data-item-order="0" transform="translate(495, 321)"><g id="incr_htf5k31qhaq6l-stroke" fill="none" stroke-linecap="round" stroke-linejoin="round" stroke-miterlimit="4" stroke="#484848" stroke-width="2"><g><path d="M 11.008 56.5L 57.007999 56.5M 19 56.5L 19 51.5C 19 50.947716 18.552284 50.5 18 50.5L 14 50.5C 13.447716 50.5 13 50.947716 13 51.5L 13 56.5M 31 56.5L 31 43.5C 31 42.947716 30.552284 42.5 30 42.5L 26 42.5C 25.447716 42.5 25 42.947716 25 43.5L 25 56.5M 43 56.5L 43 35.5C 43 34.947716 42.552284 34.5 42 34.5L 38 34.5C 37.447716 34.5 37 34.947716 37 35.5L 37 56.5M 55 56.5L 55 27.5C 55 26.947716 54.552284 26.5 54 26.5L 50 26.5C 49.447716 26.5 49 26.947716 49 27.5L 49 56.5M 16.007999 36.5L 52.007999 12.5M 51.007999 20.5L 52.007999 12.5L 44.007999 11.5"></path></g></g></g><g id="g-root-tx_enhanced_18mjowz1qqs1l8-stroke" data-item-order="0" transform="translate(567, 321)"></g><g id="g-root-tx_queryopt_vbpnmr1qqs00f-stroke" data-item-order="0" transform="translate(39, 363)"></g><g id="g-root-2_18mjowz1qqs1l7-stroke" data-item-order="0" transform="translate(183, 117)"><g id="2_18mjowz1qqs1l7-stroke" fill="none" stroke-linecap="round" stroke-linejoin="round" stroke-miterlimit="4" stroke="#484848" stroke-width="2"><g><path d="M 45.25 39.25C 45.25 40.906857 43.906857 42.25 42.25 42.25L 13.75 42.25C 12.093145 42.25 10.75 40.906857 10.75 39.25L 10.75 37.75L 45.25 37.75ZM 13.75 42.25L 13.75 45.25M 42.25 42.25L 42.25 45.25M 28 37.75L 20.5 37.75L 20.5 12.25C 20.5 11.421573 21.171574 10.75 22 10.75L 26.5 10.75C 27.328428 10.75 28 11.421573 28 12.25ZM 35.716 37.75L 32.734001 13.141C 32.634357 12.318837 33.219879 11.571491 34.042 11.4715L 38.509003 10.93C 39.33168 10.830395 40.079266 11.416773 40.178497 12.2395L 43.27 37.75M 32.5 37.75L 28 37.75L 28 15.25L 31 15.25C 31.828428 15.25 32.5 15.921573 32.5 16.75ZM 20.5 37.75L 13 37.75L 13 12.25C 13 11.421573 13.671573 10.75 14.5 10.75L 19 10.75C 19.828426 10.75 20.5 11.421573 20.5 12.25ZM 23.5 33.25L 25 33.25M 16 33.25L 17.5 33.25M 16.75 15.25L 16.75 28.75M 24.25 15.25L 24.25 28.75M 37 30.25C 37 31.078428 37.671574 31.75 38.5 31.75C 39.328426 31.75 40 31.078428 40 30.25C 40 29.421572 39.328426 28.75 38.5 28.75C 37.671574 28.75 37 29.421572 37 30.25Z"></path></g></g></g><g id="g-root-knig_18f3bab1qh99mt-stroke" data-item-order="0" transform="translate(183, 369)"><g id="knig_18f3bab1qh99mt-stroke" fill="none" stroke-linecap="round" stroke-linejoin="round" stroke-miterlimit="4" stroke="#484848" stroke-width="2"><g><path d="M 16.75 40.75L 39.25 40.75C 39.25 40.75 40.75 40.75 40.75 42.25L 40.75 43.75C 40.75 43.75 40.75 45.25 39.25 45.25L 16.75 45.25C 16.75 45.25 15.25 45.25 15.25 43.75L 15.25 42.25C 15.25 42.25 15.25 40.75 16.75 40.75M 39.25 40.75C 39.25 39.093143 37.906857 37.75 36.25 37.75L 19.75 37.75C 18.093145 37.75 16.75 39.093143 16.75 40.75ZM 24.9505 11.026C 32.378452 12.442581 37.751358 18.938179 37.75 26.5L 37.75 34.75M 19.75 37.75L 36.25 37.75C 35.263355 35.777222 34.749786 33.601746 34.75 31.396L 34.75 26.5C 34.750099 19.906998 29.723755 14.401299 23.158001 13.8025C 22.407866 12.122471 20.827595 10.962352 19 10.75C 18.585787 10.75 18.25 11.085787 18.25 11.5L 18.25 14.887C 16.37534 16.139559 15.249828 18.245394 15.25 20.5L 15.25 27.25C 15.25 28.078428 15.921573 28.75 16.75 28.75L 18.25 28.75C 19.138945 28.750168 19.921255 28.163433 20.17 27.309999L 20.799999 25.150002C 20.955845 24.616867 21.444555 24.250334 22 24.25C 23.242641 24.25 24.25 23.242641 24.25 22C 24.247473 24.767187 23.471809 27.478626 22.0105 29.828499C 20.528791 32.204651 19.745451 34.949726 19.75 37.75Z"></path></g></g></g><g id="g-root-tx_requestt_vbpnmr1qqs00e-stroke" data-item-order="0" transform="translate(63, 447)"></g><g id="g-root-exch_18ml0bn1qgwnpf-stroke" data-item-order="0" transform="translate(183, 537)"><g id="exch_18ml0bn1qgwnpf-stroke" fill="none" stroke-linecap="round" stroke-linejoin="round" stroke-miterlimit="4" stroke="#484848" stroke-width="2"><g><path d="M 19.756001 27.280001L 19.756001 30.25M 22.756001 27.280001L 22.756001 30.25M 19.756001 39.279999L 19.756001 42.25M 22.756001 39.279999L 22.756001 42.25M 25.75 32.5C 25.75 33.742641 24.742641 34.75 23.5 34.75L 18.25 34.75L 18.25 30.25L 23.5 30.25C 24.742641 30.25 25.75 31.25736 25.75 32.5ZM 25.75 37C 25.75 38.242641 24.742641 39.25 23.5 39.25L 18.25 39.25L 18.25 34.75L 23.5 34.75C 24.742641 34.75 25.75 35.757362 25.75 37ZM 30.256001 18.25C 30.256001 22.392136 33.613865 25.75 37.756001 25.75C 41.898136 25.75 45.256001 22.392136 45.256001 18.25C 45.256001 14.107864 41.898136 10.75 37.756001 10.75C 33.613865 10.75 30.256001 14.107864 30.256001 18.25ZM 10.756 34.75C 10.756001 40.548988 15.45701 45.25 21.256001 45.25C 27.054989 45.25 31.756001 40.548988 31.756001 34.75C 31.756001 28.951012 27.054989 24.250002 21.256001 24.250002C 15.45701 24.250002 10.756001 28.951012 10.756001 34.75ZM 36.017498 19.988501C 36.017506 20.692204 36.441727 21.3265 37.092098 21.59523C 37.74247 21.863962 38.490696 21.714121 38.987431 21.215668C 39.484161 20.717216 39.631416 19.968473 39.360435 19.319036C 39.089458 18.669601 38.453701 18.247572 37.75 18.25C 36.789852 18.25 36.011497 17.471647 36.011497 16.511499C 36.011497 15.551353 36.789852 14.773 37.75 14.773C 38.710148 14.773 39.488503 15.551353 39.488503 16.511499M 37.756001 21.726999L 37.756001 22.886499M 37.756001 13.6135L 37.756001 14.7745M 23.5 11.5C 19.357864 11.5 16 14.857864 16 19L 16 20.5M 34 41.5C 38.142136 41.5 41.5 38.142136 41.5 34L 41.5 32.5M 13.006 17.5L 16.006001 20.5L 19.006001 17.5M 38.506001 35.5L 41.506001 32.5L 44.506001 35.5"></path></g></g></g><g id="g-root-tx_response_qvw5ib1qqs0sq-stroke" data-item-order="0" transform="translate(63, 111)"></g><g id="g-root-tx_loadbala_146q6sj1qqs2dh-stroke" data-item-order="0" transform="translate(15, 543)"></g><g id="g-root-tx_strategi_qvw5ib1qqs0sr-stroke" data-item-order="0" transform="translate(183, 39)"></g><g id="g-root-1_1d0j36r1qh28lc-stroke" data-item-order="0" transform="translate(183, 453)"><g id="1_1d0j36r1qh28lc-stroke" fill="none" stroke-linecap="round" stroke-linejoin="round" stroke-miterlimit="4" stroke="#484848" stroke-width="2"><g><path d="M 34 37.75C 34 38.578426 33.328426 39.25 32.5 39.25L 23.5 39.25C 22.671572 39.25 22 38.578426 22 37.75L 22 13.75C 22 12.093145 23.343145 10.75 25 10.75L 31 10.75C 32.656853 10.75 34 12.093145 34 13.75ZM 25.75 25C 25.75 26.242641 26.75736 27.25 28 27.25C 29.242641 27.25 30.25 26.242641 30.25 25C 30.25 23.75736 29.242641 22.75 28 22.75C 26.75736 22.75 25.75 23.75736 25.75 25M 25.75 33.25C 25.75 34.492641 26.75736 35.5 28 35.5C 29.242641 35.5 30.25 34.492641 30.25 33.25C 30.25 32.007362 29.242641 31 28 31C 26.75736 31 25.75 32.007362 25.75 33.25M 25.75 16.75C 25.75 17.992641 26.75736 19 28 19C 29.242641 19 30.25 17.992641 30.25 16.75C 30.25 15.50736 29.242641 14.5 28 14.5C 26.75736 14.5 25.75 15.50736 25.75 16.75M 28 39.25L 28 45.25M 34 14.5L 38.875 14.5C 39.024582 14.499479 39.160168 14.587904 39.220001 14.725C 39.280579 14.867476 39.251148 15.032296 39.144997 15.145L 34 19.75M 34 22.75L 38.875 22.75C 39.024582 22.749479 39.160168 22.837906 39.220001 22.974998C 39.280579 23.117476 39.251148 23.282295 39.144997 23.394999L 34 28M 34 31L 38.875 31C 39.024582 30.999479 39.160168 31.087906 39.220001 31.224998C 39.280579 31.367476 39.251148 31.532295 39.144997 31.644999L 34 36.25M 22 14.5L 17.125 14.5C 16.975418 14.499479 16.839832 14.587904 16.780001 14.725C 16.719418 14.867476 16.74885 15.032296 16.855 15.145L 22 19.75M 22 22.75L 17.125 22.75C 16.975418 22.749479 16.839832 22.837906 16.780001 22.974998C 16.719418 23.117476 16.74885 23.282295 16.855 23.394999L 22 28M 22 31L 17.125 31C 16.975418 30.999479 16.839832 31.087906 16.780001 31.224998C 16.719418 31.367476 16.74885 31.532295 16.855 31.644999L 22 36.25"></path></g></g></g></g></g></svg>