<?xml version="1.0" encoding="utf-8" standalone="yes"?>
<!DOCTYPE svg PUBLIC "-//W3C//DTD SVG 1.1//EN" "http://www.w3.org/Graphics/SVG/1.1/DTD/svg11.dtd">
<svg width="626" height="506" viewBox="0 0 626 506" style="fill:none;stroke:none;fill-rule:evenodd;clip-rule:evenodd;stroke-linecap:round;stroke-linejoin:round;stroke-miterlimit:1.5;" version="1.1" xmlns="http://www.w3.org/2000/svg" xmlns:xlink="http://www.w3.org/1999/xlink"><style id="fontImports">@import url("https://fonts.googleapis.com/css2?family=Roboto:wght@400;700&amp;display=block");</style><g id="items" style="isolation: isolate"><g id="blend" style="mix-blend-mode: normal"><g id="g-root-0.cr-big_cr_dg2oafjghz44-fill" data-item-order="-86900" transform="translate(231, 231)"><g id="0.cr-big_cr_dg2oafjghz44-fill" stroke="none" fill="#f5f5f5"><g><path d="M 10 70C 10.000003 103.137088 36.862918 130.000003 70.000003 130.000003C 103.137088 130.000003 130.000003 103.137088 130.000003 70.000003C 130.000003 36.862918 103.137088 10.000003 70.000003 10.000003C 36.862918 10.000003 10.000003 36.862918 10.000003 70.000003"></path></g></g></g><g id="g-root-6.cu_sy_dg2oafjghz45-fill" data-item-order="-86896" transform="translate(166.8472900390625, 147.009765625)"><g id="6.cu_sy_dg2oafjghz45-fill" stroke="none" fill="#ffeceb"><g><path d="M 10.20843 80.6906C 9.78453 81.4039 10.02853 82.3271 10.74713 82.742L 35.77173 97.1899C 37.05783 97.9325 36.63933 100.3041 35.31873 100.9834C 33.34003 102.0012 31.62103 103.5805 30.42583 105.6507C 27.11213 111.39 29.07863 118.729 34.81813 122.043C 40.55763 125.357 47.89673 123.39 51.21043 117.651C 52.40563 115.581 52.91393 113.302 52.80593 111.08C 52.73393 109.5964 54.57863 108.0481 55.86473 108.7907L 80.89193 123.24C 81.60933 123.654 82.52593 123.406 82.95763 122.699C 93.92743 104.7327 112.93703 94.5117 132.65403 94.0005C 133.48203 93.979 134.15303 93.3096 134.15303 92.4817L 134.15303 63.5912C 134.15303 62.1062 131.89003 61.2827 130.64103 62.0868C 128.77003 63.2915 126.54303 63.9905 124.15303 63.9905C 117.52503 63.9905 112.15303 58.6179 112.15303 51.9905C 112.15303 45.3631 117.52503 39.9905 124.15303 39.9905C 126.54303 39.9905 128.77003 40.6895 130.64103 41.8942C 131.89003 42.6982 134.15303 41.8748 134.15303 40.3897L 134.15303 11.4922C 134.15303 10.663 133.47903 9.9903 132.65003 10.0001C 84.04403 10.572 36.76333 35.9987 10.20843 80.6906Z"></path></g></g></g><g id="g-root-5.cu_sy_4kfo1jjghzwu-fill" data-item-order="-86892" transform="translate(147.0809326171875, 219.5498046875)"><g id="5.cu_sy_4kfo1jjghzwu-fill" stroke="none" fill="#fff2e5"><g><path d="M 28.467415 152.139015C 28.873315 152.863015 29.794815 153.113015 30.513415 152.698015L 55.537915 138.250015C 56.824015 137.508015 58.668715 139.056015 58.596715 140.539015C 58.488715 142.762015 58.997015 145.040015 60.192215 147.110015C 63.505915 152.850015 70.845015 154.816015 76.584515 151.503015C 82.324115 148.189015 84.290615 140.850015 80.976915 135.110015C 79.781615 133.040015 78.062715 131.461015 76.083915 130.443015C 74.763315 129.764015 74.344815 127.392015 75.631015 126.650015L 100.658215 112.200015C 101.375615 111.786015 101.618915 110.868015 101.222415 110.141015C 91.148015 91.657415 91.801115 70.084315 101.216915 52.753115C 101.612115 52.025715 101.368015 51.109715 100.651015 50.695815L 75.631115 36.250615C 74.345015 35.508015 72.500415 37.056215 72.572415 38.539515C 72.680415 40.762015 72.172115 43.040315 70.976915 45.110515C 67.663215 50.850015 60.324115 52.816515 54.584515 49.502815C 48.845015 46.189115 46.878515 38.850015 50.192215 33.110515C 51.387515 31.040315 53.106415 29.460915 55.085115 28.443215C 56.405715 27.763915 56.824215 25.392315 55.538015 24.649815L 30.512015 10.201015C 29.794015 9.786415 28.874715 10.033315 28.468615 10.756215C 4.660715 53.136415 3.040615 106.796015 28.467415 152.139015Z"></path></g></g></g><g id="g-root-4.cu_sy_4kfo1jjghzwv-fill" data-item-order="-86888" transform="translate(166.84454345703125, 321.552734375)"><g id="4.cu_sy_4kfo1jjghzwv-fill" stroke="none" fill="#fffbda"><g><path d="M 132.648031 123.43603C 133.478031 123.44603 134.155031 122.77303 134.155031 121.94403L 134.155031 93.04763C 134.155031 91.56253 136.418031 90.73913 137.667031 91.54323C 139.538031 92.74793 141.765031 93.44693 144.155031 93.44693C 150.783031 93.44693 156.155031 88.07433 156.155031 81.44693C 156.155031 74.81953 150.783031 69.44693 144.155031 69.44693C 141.765031 69.44693 139.538031 70.14593 137.667031 71.35063C 136.418031 72.15473 134.155031 71.33133 134.155031 69.84623L 134.155031 40.94733C 134.155031 40.11883 133.482031 39.44923 132.654031 39.42883C 111.610031 38.91193 93.253231 27.55983 82.951931 10.73983C 82.519531 10.03383 81.604231 9.78733 80.887231 10.20123L 55.867431 24.64653C 54.581231 25.38903 54.999731 27.76063 56.320331 28.43993C 58.299031 29.45763 60.017931 31.03703 61.213231 33.10723C 64.526931 38.84673 62.560431 46.18583 56.820831 49.49953C 51.081331 52.81323 43.742231 50.84673 40.428531 45.10723C 39.233331 43.03703 38.725031 40.75863 38.833031 38.53623C 38.905031 37.05293 37.060431 35.50473 35.774331 36.24723L 10.748231 50.69603C 10.030231 51.11063 9.784331 52.03013 10.207331 52.74333C 35.005831 94.55163 80.666231 122.78403 132.648031 123.43603Z"></path></g></g></g><g id="g-root-3.cu_sy_58n07jghxjc-fill" data-item-order="-86884" transform="translate(290.999755859375, 321.3369140625)"><g id="3.cu_sy_58n07jghxjc-fill" stroke="none" fill="#f4ffdc"><g><path d="M 133.944 52.9622C 134.368 52.2488 134.124 51.3256 133.406 50.9107L 108.3811 36.4628C 107.095 35.7203 107.5134 33.3486 108.8341 32.6693C 110.813 31.6516 112.532 30.0722 113.727 28.002C 117.041 22.2625 115.074 14.9234 109.3347 11.6097C 103.5952 8.296 96.2561 10.2625 92.9424 16.002C 91.7471 18.0722 91.2389 20.3506 91.3468 22.573C 91.4189 24.0564 89.5742 25.6046 88.2881 24.8621L 63.2609 10.4126C 62.5434 9.9984 61.6268 10.2467 61.1951 10.9537C 50.2254 28.92 31.2159 39.1411 11.4988 39.6523C 10.6712 39.6737 10.000038 40.3431 10.000038 41.171L 10.000035 70.0615C 10.000035 71.5466 12.2631 72.37 13.5117 71.5659C 15.3824 70.3612 17.6096 69.6622 20.0001 69.6622C 26.6275 69.6622 32.0001 75.0348 32.0001 81.6622C 32.0001 88.2897 26.6275 93.6622 20.0001 93.6622C 17.6096 93.6622 15.3824 92.9633 13.5117 91.7586C 12.2631 90.9545 10.000003 91.7779 10.000003 93.263L 10 122.161C 10 122.99 10.6735 123.662 11.5025 123.653C 60.1088 123.081 107.3895 97.654 133.944 52.9622Z"></path></g></g></g><g id="g-root-2.cu_sy_58n07jghxjd-fill" data-item-order="-86880" transform="translate(343.50689697265625, 219.337890625)"><g id="2.cu_sy_58n07jghxjd-fill" stroke="none" fill="#e3fff2"><g><path d="M 82.9445 10.9733C 82.5387 10.2496 81.6172 9.9993 80.8986 10.4141L 55.874 24.8621C 54.5879 25.6046 52.7432 24.0564 52.8153 22.5731C 52.9232 20.3506 52.4149 18.0722 51.2197 16.002C 47.906 10.2625 40.5669 8.296 34.8274 11.6097C 29.0879 14.9234 27.1214 22.2625 30.4351 28.002C 31.6303 30.0722 33.3493 31.6516 35.328 32.6693C 36.6486 33.3486 37.0671 35.7203 35.781 36.4628L 10.7538 50.9123C 10.0363 51.3265 9.7931 52.2444 10.1895 52.9718C 20.2639 71.455 19.6108 93.0282 10.195 110.359C 9.7998 111.087 10.0439 112.003 10.7609 112.417L 35.7808 126.862C 37.0669 127.604 38.9116 126.056 38.8395 124.573C 38.7316 122.351 39.2398 120.072 40.4351 118.002C 43.7488 112.262 51.0879 110.296 56.8274 113.61C 62.5669 116.923 64.5334 124.262 61.2197 130.002C 60.0244 132.072 58.3055 133.652 56.3268 134.669C 55.0062 135.349 54.5878 137.72 55.8739 138.463L 80.8999 152.911C 81.618 153.326 82.5372 153.079 82.9433 152.356C 106.7512 109.9761 108.3714 56.3165 82.9445 10.9733Z"></path></g></g></g><g id="g-root-1.cu_sy_58n07jghxje-fill" data-item-order="-86876" transform="translate(268.99981689453125, 147)"><g id="1.cu_sy_58n07jghxje-fill" stroke="none" fill="#e8f9ff"><g><path d="M 32.3317 10C 32.1486 10 32.0002 10.1484 32.0002 10.3315L 32.0002 40.3993C 32.0002 41.8843 29.7371 42.7078 28.4885 41.9037C 26.6177 40.699 24.3905 40 22 40C 15.3726 40 10.000016 45.3726 10 52C 9.999984 58.6274 15.3726 64 22 64C 24.3905 64 26.6177 63.301 28.4885 62.0963C 29.737 61.2922 32.0002 62.1156 32.0002 63.6007L 32.0002 92.4996C 32.0002 93.3281 32.6735 93.9977 33.5017 94.0181C 54.5458 94.535 72.9022 105.8872 83.2035 122.707C 83.6359 123.413 84.5512 123.66 85.2682 123.246L 110.288 108.8004C 111.574 108.0579 111.156 105.6863 109.8351 105.007C 107.8564 103.9893 106.1375 102.4099 104.9423 100.3397C 101.6286 94.6002 103.5951 87.2611 109.3346 83.9474C 115.074 80.6337 122.413 82.6002 125.727 88.3397C 126.922 90.4099 127.43 92.6883 127.322 94.9107C 127.25 96.3941 129.095 97.9422 130.381 97.1997L 155.407 82.7509C 156.125 82.3363 156.371 81.4167 155.948 80.7035C 130.917 38.4917 84.9371 10.1186 32.3317 10Z"></path></g></g></g><g id="g-root-tx_overview_1cz96d3jgi0ht-fill" data-item-order="0" transform="translate(147, 39)"><g id="tx_overview_1cz96d3jgi0ht-fill" stroke="none" fill="#484848"><g><text style="font: 20px Roboto, sans-serif; white-space: pre;" font-size="20px" font-family="Roboto, sans-serif"><tspan x="13.05" y="34" dominant-baseline="ideographic">Overview of API Documentation</tspan></text></g></g></g><g id="g-root-tx_errorres_1uqj6uvjghy4j-fill" data-item-order="0" transform="translate(75, 135)"><g id="tx_errorres_1uqj6uvjghy4j-fill" stroke="none" fill="#484848"><g><text style="font: 20px Roboto, sans-serif; white-space: pre;" font-size="20px" font-family="Roboto, sans-serif"><tspan x="16.27" y="34" dominant-baseline="ideographic">Error Response</tspan></text></g></g></g><g id="g-root-tx_baseurl_1cz96d3jgi0hs-fill" data-item-order="0" transform="translate(363, 135)"><g id="tx_baseurl_1cz96d3jgi0hs-fill" stroke="none" fill="#484848"><g><text style="font: 20px Roboto, sans-serif; white-space: pre;" font-size="20px" font-family="Roboto, sans-serif"><tspan x="12" y="34" dominant-baseline="ideographic">Base URL</tspan></text></g></g></g><g id="g-root-warn_mg33avjgjcoz-fill" data-item-order="0" transform="translate(212.500732421875, 190.87890625)"></g><g id="g-root-fiel_1q9h01jjgp155-fill" data-item-order="0" transform="translate(313.869140625, 179.5458984375)"></g><g id="g-root-1_hvw6evjgytxh-fill" data-item-order="0" transform="translate(255, 254.99609375)"></g><g id="g-root-tx_requesta_1luw6lzjghyx8-fill" data-item-order="0" transform="translate(15, 267)"><g id="tx_requesta_1luw6lzjghyx8-fill" stroke="none" fill="#484848"><g><text style="font: 20px Roboto, sans-serif; white-space: pre;" font-size="20px" font-family="Roboto, sans-serif"><tspan x="17.03" y="34" dominant-baseline="ideographic">Request and </tspan><tspan x="40.13" y="58" dominant-baseline="ideographic">Response</tspan></text></g></g></g><g id="g-root-lock_1q5q2d3jh1nnq-fill" data-item-order="0" transform="translate(374.368408203125, 261.6669921875)"></g><g id="g-root-repl_1usep9zjgul8g-fill" data-item-order="0" transform="translate(171.631591796875, 284.3330078125)"></g><g id="g-root-tx_authenti_1hf2ohjjghzpj-fill" data-item-order="0" transform="translate(447, 279)"><g id="tx_authenti_1hf2ohjjghzpj-fill" stroke="none" fill="#484848"><g><text style="font: 20px Roboto, sans-serif; white-space: pre;" font-size="20px" font-family="Roboto, sans-serif"><tspan x="12" y="34" dominant-baseline="ideographic">Authentication</tspan></text></g></g></g><g id="g-root-1_8zmvefjghy4j-fill" data-item-order="0" transform="translate(232.13082885742188, 366.4541015625)"></g><g id="g-root-spee_1cz9conjgrsw9-fill" data-item-order="0" transform="translate(333.499267578125, 355.12109375)"></g><g id="g-root-tx_endpoint_1luw6lzjghyx9-fill" data-item-order="0" transform="translate(123, 423)"><g id="tx_endpoint_1luw6lzjghyx9-fill" stroke="none" fill="#484848"><g><text style="font: 20px Roboto, sans-serif; white-space: pre;" font-size="20px" font-family="Roboto, sans-serif"><tspan x="14.89" y="34" dominant-baseline="ideographic">Endpoints</tspan></text></g></g></g><g id="g-root-tx_ratelimi_1hf2ohjjghzpi-fill" data-item-order="0" transform="translate(363, 423)"><g id="tx_ratelimi_1hf2ohjjghzpi-fill" stroke="none" fill="#484848"><g><text style="font: 20px Roboto, sans-serif; white-space: pre;" font-size="20px" font-family="Roboto, sans-serif"><tspan x="12" y="34" dominant-baseline="ideographic">Rate Limiting</tspan></text></g></g></g><g id="g-root-0.cr-big_cr_dg2oafjghz44-stroke" data-item-order="-86900" transform="translate(231, 231)"><g id="0.cr-big_cr_dg2oafjghz44-stroke" fill="none" stroke-linecap="round" stroke-linejoin="round" stroke-miterlimit="4" stroke="#969696" stroke-width="2"><g><path d="M 10 70C 10.000003 103.137088 36.862918 130.000003 70.000003 130.000003C 103.137088 130.000003 130.000003 103.137088 130.000003 70.000003C 130.000003 36.862918 103.137088 10.000003 70.000003 10.000003C 36.862918 10.000003 10.000003 36.862918 10.000003 70.000003"></path></g></g></g><g id="g-root-6.cu_sy_dg2oafjghz45-stroke" data-item-order="-86896" transform="translate(166.8472900390625, 147.009765625)"><g id="6.cu_sy_dg2oafjghz45-stroke" fill="none" stroke-linecap="round" stroke-linejoin="round" stroke-miterlimit="4" stroke="#e55753" stroke-width="2"><g><path d="M 10.20843 80.6906C 9.78453 81.4039 10.02853 82.3271 10.74713 82.742L 35.77173 97.1899C 37.05783 97.9325 36.63933 100.3041 35.31873 100.9834C 33.34003 102.0012 31.62103 103.5805 30.42583 105.6507C 27.11213 111.3902 29.07863 118.7293 34.81813 122.043C 40.55763 125.3568 47.89673 123.3902 51.21043 117.6507C 52.40563 115.5805 52.91393 113.3022 52.80593 111.0797C 52.73393 109.5964 54.57863 108.0481 55.86473 108.7907L 80.89193 123.2401C 81.60933 123.6543 82.52593 123.406 82.95763 122.699C 93.92743 104.7327 112.93693 94.5117 132.65403 94.0005C 133.48163 93.979 134.15273 93.3096 134.15273 92.4817L 134.15273 63.5912C 134.15273 62.1062 131.88963 61.2827 130.64113 62.0868C 128.77033 63.2915 126.54313 63.9905 124.15273 63.9905C 117.52533 63.9905 112.15273 58.6179 112.15273 51.9905C 112.15273 45.3631 117.52533 39.9905 124.15273 39.9905C 126.54313 39.9905 128.77043 40.6895 130.64113 41.8942C 131.88973 42.6982 134.15283 41.8748 134.15283 40.3897L 134.15283 11.4922C 134.15283 10.663 133.47933 9.9903 132.65023 10.0001C 84.04403 10.572 36.76333 35.9987 10.20843 80.6906Z"></path></g></g></g><g id="g-root-5.cu_sy_4kfo1jjghzwu-stroke" data-item-order="-86892" transform="translate(147.0809326171875, 219.5498046875)"><g id="5.cu_sy_4kfo1jjghzwu-stroke" fill="none" stroke-linecap="round" stroke-linejoin="round" stroke-miterlimit="4" stroke="#de8431" stroke-width="2"><g><path d="M 28.467415 152.139215C 28.873315 152.862915 29.794815 153.113215 30.513415 152.698315L 55.537915 138.250415C 56.824015 137.507915 58.668715 139.056115 58.596715 140.539415C 58.488715 142.761915 58.997015 145.040315 60.192215 147.110515C 63.505915 152.850015 70.845015 154.816515 76.584515 151.502815C 82.324115 148.189115 84.290615 140.850015 80.976915 135.110515C 79.781615 133.040315 78.062715 131.460915 76.083915 130.443215C 74.763315 129.763915 74.344815 127.392215 75.631015 126.649715L 100.658215 112.200215C 101.375615 111.786015 101.618915 110.868115 101.222415 110.140715C 91.148015 91.657415 91.801115 70.084315 101.216915 52.753115C 101.612115 52.025715 101.368015 51.109715 100.651015 50.695815L 75.631115 36.250615C 74.345015 35.508015 72.500415 37.056215 72.572415 38.539515C 72.680415 40.762015 72.172115 43.040315 70.976915 45.110515C 67.663215 50.850015 60.324115 52.816515 54.584515 49.502815C 48.845015 46.189115 46.878515 38.850015 50.192215 33.110515C 51.387515 31.040315 53.106415 29.460915 55.085115 28.443215C 56.405715 27.763915 56.824215 25.392315 55.538015 24.649815L 30.512015 10.201015C 29.794015 9.786415 28.874715 10.033315 28.468615 10.756215C 4.660815 53.136415 3.040615 106.796015 28.467415 152.139215Z"></path></g></g></g><g id="g-root-4.cu_sy_4kfo1jjghzwv-stroke" data-item-order="-86888" transform="translate(166.84454345703125, 321.552734375)"><g id="4.cu_sy_4kfo1jjghzwv-stroke" fill="none" stroke-linecap="round" stroke-linejoin="round" stroke-miterlimit="4" stroke="#e0cb15" stroke-width="2"><g><path d="M 132.648031 123.43583C 133.477731 123.44623 134.155231 122.77333 134.155231 121.94353L 134.155231 93.04763C 134.155231 91.56253 136.418431 90.73913 137.667031 91.54323C 139.537731 92.74793 141.765031 93.44693 144.155431 93.44693C 150.782931 93.44693 156.155431 88.07433 156.155431 81.44693C 156.155531 74.81953 150.782831 69.44693 144.155431 69.44693C 141.765031 69.44693 139.537731 70.14593 137.667031 71.35063C 136.418431 72.15473 134.155231 71.33133 134.155231 69.84623L 134.155231 40.94733C 134.155231 40.11883 133.481931 39.44923 132.653731 39.42883C 111.609631 38.91193 93.253231 27.55983 82.951931 10.73983C 82.519531 10.03383 81.604231 9.78733 80.887231 10.20123L 55.867431 24.64653C 54.581231 25.38903 54.999731 27.76063 56.320331 28.43993C 58.299031 29.45763 60.017931 31.03703 61.213231 33.10723C 64.526931 38.84673 62.560431 46.18583 56.820831 49.49953C 51.081331 52.81323 43.742231 50.84673 40.428531 45.10723C 39.233331 43.03703 38.725031 40.75863 38.833031 38.53623C 38.905031 37.05293 37.060431 35.50473 35.774331 36.24723L 10.748231 50.69603C 10.030231 51.11063 9.784331 52.03013 10.207331 52.74333C 35.005831 94.55163 80.666231 122.78453 132.648031 123.43583Z"></path></g></g></g><g id="g-root-3.cu_sy_58n07jghxjc-stroke" data-item-order="-86884" transform="translate(290.999755859375, 321.3369140625)"><g id="3.cu_sy_58n07jghxjc-stroke" fill="none" stroke-linecap="round" stroke-linejoin="round" stroke-miterlimit="4" stroke="#92bd39" stroke-width="2"><g><path d="M 133.9444 52.9622C 134.3682 52.2488 134.1242 51.3256 133.4057 50.9107L 108.3811 36.4628C 107.095 35.7203 107.5134 33.3486 108.8341 32.6693C 110.8128 31.6516 112.5317 30.0722 113.727 28.002C 117.0407 22.2625 115.0742 14.9234 109.3347 11.6097C 103.5952 8.296 96.2561 10.2625 92.9424 16.002C 91.7471 18.0722 91.2389 20.3506 91.3468 22.573C 91.4189 24.0564 89.5742 25.6046 88.2881 24.8621L 63.2609 10.4126C 62.5434 9.9984 61.6268 10.2467 61.1951 10.9537C 50.2254 28.92 31.2159 39.1411 11.4988 39.6523C 10.6712 39.6737 10 40.3431 10 41.171L 10 70.0615C 10 71.5466 12.2631 72.37 13.5117 71.5659C 15.3824 70.3612 17.6096 69.6622 20.0001 69.6622C 26.6275 69.6622 32.0001 75.0348 32.0001 81.6622C 32.0001 88.2897 26.6275 93.6622 20.0001 93.6622C 17.6096 93.6622 15.3824 92.9633 13.5117 91.7586C 12.2631 90.9545 10 91.7779 10 93.263L 10 122.1606C 10 122.9897 10.6735 123.6624 11.5025 123.6526C 60.1088 123.0807 107.3895 97.654 133.9444 52.9622Z"></path></g></g></g><g id="g-root-2.cu_sy_58n07jghxjd-stroke" data-item-order="-86880" transform="translate(343.50689697265625, 219.337890625)"><g id="2.cu_sy_58n07jghxjd-stroke" fill="none" stroke-linecap="round" stroke-linejoin="round" stroke-miterlimit="4" stroke="#3cc583" stroke-width="2"><g><path d="M 82.9445 10.9733C 82.5387 10.2496 81.6172 9.9993 80.8986 10.4141L 55.874 24.8621C 54.5879 25.6046 52.7432 24.0564 52.8153 22.5731C 52.9232 20.3506 52.4149 18.0722 51.2197 16.002C 47.906 10.2625 40.5669 8.296 34.8274 11.6097C 29.0879 14.9234 27.1214 22.2625 30.4351 28.002C 31.6303 30.0722 33.3493 31.6516 35.328 32.6693C 36.6486 33.3486 37.0671 35.7203 35.781 36.4628L 10.7538 50.9123C 10.0363 51.3265 9.7931 52.2444 10.1895 52.9718C 20.2639 71.455 19.6109 93.0282 10.195 110.3594C 9.7998 111.0868 10.0439 112.0027 10.7609 112.4167L 35.7808 126.8619C 37.0669 127.6045 38.9116 126.0563 38.8395 124.573C 38.7316 122.3505 39.2398 120.0722 40.4351 118.002C 43.7488 112.2625 51.0879 110.296 56.8274 113.6097C 62.5669 116.9234 64.5334 124.2625 61.2197 130.002C 60.0244 132.0722 58.3055 133.6515 56.3268 134.6693C 55.0062 135.3486 54.5878 137.7202 55.8739 138.4627L 80.8999 152.9115C 81.618 153.326 82.5372 153.0792 82.9433 152.3563C 106.7512 109.9761 108.3714 56.3165 82.9445 10.9733Z"></path></g></g></g><g id="g-root-1.cu_sy_58n07jghxje-stroke" data-item-order="-86876" transform="translate(268.99981689453125, 147)"><g id="1.cu_sy_58n07jghxje-stroke" fill="none" stroke-linecap="round" stroke-linejoin="round" stroke-miterlimit="4" stroke="#1eabda" stroke-width="2"><g><path d="M 32.3317 10C 32.1486 10 32.0002 10.1484 32.0002 10.3315L 32.0002 40.3993C 32.0002 41.8843 29.7371 42.7078 28.4885 41.9037C 26.6177 40.699 24.3905 40 22 40C 15.3726 40 10 45.3726 10 52C 10 58.6274 15.3726 64 22 64C 24.3905 64 26.6177 63.301 28.4885 62.0963C 29.737 61.2922 32.0002 62.1156 32.0002 63.6007L 32.0002 92.4996C 32.0002 93.3281 32.6735 93.9977 33.5017 94.0181C 54.5458 94.535 72.9022 105.8872 83.2035 122.7071C 83.6359 123.4131 84.5512 123.6596 85.2682 123.2457L 110.2881 108.8004C 111.5742 108.0579 111.1557 105.6863 109.8351 105.007C 107.8564 103.9893 106.1375 102.4099 104.9423 100.3397C 101.6286 94.6002 103.5951 87.2611 109.3346 83.9474C 115.0741 80.6337 122.4132 82.6002 125.7269 88.3397C 126.9221 90.4099 127.4304 92.6883 127.3224 94.9107C 127.2504 96.3941 129.0951 97.9422 130.3812 97.1997L 155.4072 82.7509C 156.1253 82.3363 156.371 81.4167 155.9481 80.7035C 130.9168 38.4917 84.9371 10.1186 32.3317 10Z"></path></g></g></g><g id="g-root-tx_overview_1cz96d3jgi0ht-stroke" data-item-order="0" transform="translate(147, 39)"></g><g id="g-root-tx_errorres_1uqj6uvjghy4j-stroke" data-item-order="0" transform="translate(75, 135)"></g><g id="g-root-tx_baseurl_1cz96d3jgi0hs-stroke" data-item-order="0" transform="translate(363, 135)"></g><g id="g-root-warn_mg33avjgjcoz-stroke" data-item-order="0" transform="translate(212.500732421875, 190.87890625)"><g id="warn_mg33avjgjcoz-stroke" fill="none" stroke-linecap="round" stroke-linejoin="round" stroke-miterlimit="4" stroke="#e55753" stroke-width="2"><g><path d="M 42.25 16.75C 42.25 18.406855 40.906857 19.75 39.25 19.75L 13.75 19.75C 12.093145 19.75 10.75 18.406855 10.75 16.75L 10.75 13.75C 10.75 12.093145 12.093145 10.75 13.75 10.75L 39.25 10.75C 40.906857 10.75 42.25 12.093145 42.25 13.75ZM 13.75 28.75C 12.093145 28.75 10.75 27.406855 10.75 25.75L 10.75 22.75C 10.75 21.093145 12.093145 19.75 13.75 19.75L 39.25 19.75C 40.906857 19.75 42.25 21.093145 42.25 22.75L 42.25 25.75M 17.125 14.875C 16.917892 14.875 16.75 15.042893 16.75 15.25C 16.75 15.457107 16.917892 15.625 17.125 15.625C 17.332108 15.625 17.5 15.457107 17.5 15.25C 17.5 15.042893 17.332108 14.875 17.125 14.875L 17.125 14.875M 22.375 14.875C 22.167892 14.875 22 15.042893 22 15.25C 22 15.457107 22.167892 15.625 22.375 15.625C 22.582108 15.625 22.75 15.457107 22.75 15.25C 22.75 15.042893 22.582108 14.875 22.375 14.875L 22.375 14.875M 17.125 23.875C 16.917892 23.875 16.75 24.042892 16.75 24.25C 16.75 24.457108 16.917892 24.625 17.125 24.625C 17.332108 24.625 17.5 24.457108 17.5 24.25C 17.5 24.042892 17.332108 23.875 17.125 23.875L 17.125 23.875M 22.375 23.875C 22.167892 23.875 22 24.042892 22 24.25C 22 24.457108 22.167892 24.625 22.375 24.625C 22.582108 24.625 22.75 24.457108 22.75 24.25C 22.75 24.042892 22.582108 23.875 22.375 23.875L 22.375 23.875M 26.5 37.75L 13.75 37.75C 12.093145 37.75 10.75 36.406857 10.75 34.75L 10.75 31.75C 10.75 30.093145 12.093145 28.75 13.75 28.75L 30.25 28.75M 17.125 32.875C 16.917892 32.875 16.75 33.042892 16.75 33.25C 16.75 33.457108 16.917892 33.625 17.125 33.625C 17.332108 33.625 17.5 33.457108 17.5 33.25C 17.5 33.042892 17.332108 32.875 17.125 32.875L 17.125 32.875M 22.375 32.875C 22.167892 32.875 22 33.042892 22 33.25C 22 33.457108 22.167892 33.625 22.375 33.625C 22.582108 33.625 22.75 33.457108 22.75 33.25C 22.75 33.042892 22.582108 32.875 22.375 32.875L 22.375 32.875M 36.25 40.75C 36.042892 40.75 35.875 40.917892 35.875 41.125C 35.875 41.332108 36.042892 41.5 36.25 41.5C 36.457108 41.5 36.625 41.332108 36.625 41.125C 36.625 40.917892 36.457108 40.75 36.25 40.75L 36.25 40.75M 36.25 37.75L 36.25 33.25M 37.507 28.75C 37.259224 28.286013 36.776001 27.99625 36.25 27.99625C 35.723999 27.99625 35.240776 28.286013 34.993 28.75L 27.409 43.201C 27.181095 43.634098 27.198772 44.155338 27.4555 44.571999C 27.714775 44.991367 28.172962 45.246292 28.666002 45.245502L 43.834 45.245499C 44.326668 45.246323 44.784657 44.992073 45.044502 44.573502C 45.301224 44.156837 45.318901 43.635597 45.091 43.202499Z"></path></g></g></g><g id="g-root-fiel_1q9h01jjgp155-stroke" data-item-order="0" transform="translate(313.869140625, 179.5458984375)"><g id="fiel_1q9h01jjgp155-stroke" fill="none" stroke-linecap="round" stroke-linejoin="round" stroke-miterlimit="4" stroke="#1eabda" stroke-width="2"><g><path d="M 28 35.071426L 13.857142 35.071426C 12.436982 35.071426 11.285714 33.920162 11.285714 32.5L 11.285714 17.071428C 11.285714 15.651268 12.436982 14.5 13.857142 14.5L 42.142857 14.5C 43.563019 14.5 44.714287 15.651268 44.714287 17.071428L 44.714287 18.357143M 19 22.214285L 19 27.357143M 44.714287 29.491428C 44.714287 32.808571 38.92857 41.5 38.92857 41.5C 38.92857 41.5 33.142857 32.808571 33.142857 29.491428C 33.142857 26.296066 35.733212 23.705713 38.92857 23.705713C 42.123932 23.705713 44.714287 26.296066 44.714287 29.491428ZM 38.285713 29.285713C 38.285713 29.640755 38.573532 29.928572 38.92857 29.928572C 39.283611 29.928572 39.571426 29.640755 39.571426 29.285713C 39.571426 28.930674 39.283611 28.642857 38.92857 28.642857C 38.573532 28.642857 38.285713 28.930674 38.285713 29.285713"></path></g></g></g><g id="g-root-1_hvw6evjgytxh-stroke" data-item-order="0" transform="translate(255, 254.99609375)"><g id="1_hvw6evjgytxh-stroke" fill="none" stroke-linecap="round" stroke-linejoin="round" stroke-miterlimit="4" stroke="#969696" stroke-width="2"><g><path d="M 35.5 80.5L 14.5 80.5C 12.843145 80.5 11.5 79.156853 11.5 77.5L 11.5 14.5C 11.5 12.843145 12.843145 11.5 14.5 11.5L 54.369999 11.5C 55.167412 11.49539 55.933846 11.80844 56.5 12.37L 67.629997 23.5C 68.191559 24.066156 68.504608 24.832592 68.5 25.630001L 68.5 38.5M 29.5 31L 20.5 40L 29.5 49M 38.5 31L 47.5 40L 38.5 49M 67.270004 55.420002L 76.389999 59.5L 80.5 50.290001M 43.959999 55.810001C 46.501202 48.387943 53.863434 43.732998 61.65818 44.619911C 69.452927 45.506824 75.581184 51.696766 76.389999 59.5M 53.139999 69.580002L 44.02 65.5L 39.91 74.709999M 76.449997 69.190002C 73.908798 76.612061 66.54657 81.267006 58.751823 80.380096C 50.957081 79.493179 44.828815 73.303238 44.02 65.5"></path></g></g></g><g id="g-root-tx_requesta_1luw6lzjghyx8-stroke" data-item-order="0" transform="translate(15, 267)"></g><g id="g-root-lock_1q5q2d3jh1nnq-stroke" data-item-order="0" transform="translate(374.368408203125, 261.6669921875)"><g id="lock_1q5q2d3jh1nnq-stroke" fill="none" stroke-linecap="round" stroke-linejoin="round" stroke-miterlimit="4" stroke="#3cc583" stroke-width="2"><g><path d="M 31.75 25.75L 42.25 25.75C 42.25 25.75 43.75 25.75 43.75 27.25L 43.75 34.75C 43.75 34.75 43.75 36.25 42.25 36.25L 31.75 36.25C 31.75 36.25 30.25 36.25 30.25 34.75L 30.25 27.25C 30.25 27.25 30.25 25.75 31.75 25.75M 37 33.25L 37 29.5M 32.5 25.75L 32.5 24.25C 32.5 21.764719 34.514717 19.75 37 19.75C 39.485283 19.75 41.5 21.764719 41.5 24.25L 41.5 25.75M 37 29.125L 37 29.125C 37.207108 29.125 37.375 29.292892 37.375 29.5L 37.375 29.5C 37.375 29.707108 37.207108 29.875 37 29.875L 37 29.875C 36.792892 29.875 36.625 29.707108 36.625 29.5L 36.625 29.5C 36.625 29.292892 36.792892 29.125 37 29.125M 25.75 13.75L 37 13.75C 37.414215 13.75 37.75 14.085787 37.75 14.5L 37.75 16.75M 37.75 39.281502L 37.75 41.5C 37.75 41.914215 37.414215 42.25 37 42.25L 25.75 42.25M 12.25 41.834499C 12.250138 42.18618 12.494621 42.49054 12.838 42.566502L 24.838001 45.232002C 25.059948 45.281097 25.292185 45.226891 25.46946 45.084602C 25.646732 44.942322 25.74991 44.727314 25.75 44.5L 25.75 11.5C 25.74991 11.272687 25.646732 11.05768 25.46946 10.915395C 25.292185 10.773109 25.059948 10.718901 24.838001 10.768L 12.838 13.434999C 12.494621 13.510963 12.250138 13.815319 12.25 14.167ZM 18.25 28C 18.25 29.242641 19.25736 30.25 20.5 30.25C 21.742641 30.25 22.75 29.242641 22.75 28C 22.75 26.75736 21.742641 25.75 20.5 25.75C 19.25736 25.75 18.25 26.75736 18.25 28"></path></g></g></g><g id="g-root-repl_1usep9zjgul8g-stroke" data-item-order="0" transform="translate(171.631591796875, 284.3330078125)"><g id="repl_1usep9zjgul8g-stroke" fill="none" stroke-linecap="round" stroke-linejoin="round" stroke-miterlimit="4" stroke="#de8431" stroke-width="2"><g><path d="M 24.999994 22.680996C 24.999994 22.680996 43.749985 20.430996 43.749985 39.180988C 37.749989 27.930994 24.999994 31.680992 24.999994 31.680992L 24.999994 37.680988L 12.249999 27.180994L 24.999994 16.680998Z"></path></g></g></g><g id="g-root-tx_authenti_1hf2ohjjghzpj-stroke" data-item-order="0" transform="translate(447, 279)"></g><g id="g-root-1_8zmvefjghy4j-stroke" data-item-order="0" transform="translate(232.13082885742188, 366.4541015625)"><g id="1_8zmvefjghy4j-stroke" fill="none" stroke-linecap="round" stroke-linejoin="round" stroke-miterlimit="4" stroke="#e0cb15" stroke-width="2"><g><path d="M 11.578 45.25L 44.5 45.25M 28.046501 45.25L 28.046501 37.75M 41.546501 24.2005C 41.548988 31.680027 35.488525 37.745857 28.008999 37.75C 20.494308 37.625084 14.485349 31.465481 14.5465 23.950001C 14.552219 16.773243 20.290861 10.916004 27.466002 10.7635C 27.6595 10.75 27.849998 10.75 28.0525 10.75C 31.629639 10.730803 35.066444 12.140341 37.599983 14.665709C 40.133518 17.191078 41.554146 20.623318 41.546501 24.2005ZM 27.466 10.7635C 20.4235 18.3925 20.4235 28.348 27.466 37.739502M 28.640499 10.7635C 35.690502 18.3925 35.690502 28.344999 28.640499 37.735001M 16.0495 30.25L 40.1245 30.25M 16.796501 16.75L 39.296501 16.75M 14.5465 24.25L 41.546501 24.25"></path></g></g></g><g id="g-root-spee_1cz9conjgrsw9-stroke" data-item-order="0" transform="translate(333.499267578125, 355.12109375)"><g id="spee_1cz9conjgrsw9-stroke" fill="none" stroke-linecap="round" stroke-linejoin="round" stroke-miterlimit="4" stroke="#92bd39" stroke-width="2"><g><path d="M 10.75 28C 10.75 37.526913 18.473087 45.25 28 45.25C 37.526913 45.25 45.25 37.526913 45.25 28C 45.25 18.473087 37.526913 10.75 28 10.75C 18.473087 10.75 10.75 18.473087 10.75 28M 25.75 28C 25.75 29.242641 26.75736 30.25 28 30.25C 29.242641 30.25 30.25 29.242641 30.25 28C 30.25 26.75736 29.242641 25.75 28 25.75C 26.75736 25.75 25.75 26.75736 25.75 28M 29.591499 26.41L 37.014999 18.985001M 13.666 27.25L 16.666 27.25M 14.833 33.452499L 17.606501 32.305M 41.163998 33.453999L 38.393501 32.305M 42.248501 27.25L 39.25 27.248499M 41.163998 22.547501L 38.393501 23.695M 34.399002 14.836L 33.25 17.605M 28.75 14.0275L 28.75 17.0275M 22.547501 14.8345L 23.695 17.605M 17.9245 17.923L 20.044001 20.044001M 14.836 22.546001L 17.606501 23.695M 22 34.75L 34 34.75C 34 34.75 34.75 34.75 34.75 35.5L 34.75 38.5C 34.75 38.5 34.75 39.25 34 39.25L 22 39.25C 22 39.25 21.25 39.25 21.25 38.5L 21.25 35.5C 21.25 35.5 21.25 34.75 22 34.75"></path></g></g></g><g id="g-root-tx_endpoint_1luw6lzjghyx9-stroke" data-item-order="0" transform="translate(123, 423)"></g><g id="g-root-tx_ratelimi_1hf2ohjjghzpi-stroke" data-item-order="0" transform="translate(363, 423)"></g></g></g></svg>