<?xml version="1.0" encoding="utf-8" standalone="yes"?>
<!DOCTYPE svg PUBLIC "-//W3C//DTD SVG 1.1//EN" "http://www.w3.org/Graphics/SVG/1.1/DTD/svg11.dtd">
<svg width="818" height="374" viewBox="0 0 818 374" style="fill:none;stroke:none;fill-rule:evenodd;clip-rule:evenodd;stroke-linecap:round;stroke-linejoin:round;stroke-miterlimit:1.5;" version="1.1" xmlns="http://www.w3.org/2000/svg" xmlns:xlink="http://www.w3.org/1999/xlink"><style id="fontImports">@import url("https://fonts.googleapis.com/css2?family=Roboto:wght@400;700&amp;display=block");</style><g id="items" style="isolation: isolate"><g id="blend" style="mix-blend-mode: normal"><g id="g-root-ro_vb4exjkkzzf1-fill" data-item-order="-35640" transform="translate(267, 78)"><g id="ro_vb4exjkkzzf1-fill" stroke="none" fill="#f5f5f5"><g><path d="M 34 10L 166 10C 166 10 190 10 190 34L 190 184C 190 184 190 208 166 208L 34 208C 34 208 10 208 10 184L 10 34C 10 34 10 10 34 10"></path></g></g></g><g id="g-root-ro_1lwrcevkuirk1-fill" data-item-order="-10368" transform="translate(495, 189)"><g id="ro_1lwrcevkuirk1-fill" stroke="none" fill="#fffbda"><g><path d="M 22 10L 190 10C 190 10 202 10 202 22L 202 52C 202 52 202 64 190 64L 22 64C 22 64 10 64 10 52L 10 22C 10 22 10 10 22 10"></path></g></g></g><g id="g-root-ro_142cyhjkuvdov-fill" data-item-order="-7776" transform="translate(75, 39)"><g id="ro_142cyhjkuvdov-fill" stroke="none" fill="#ffeceb"><g><path d="M 22 10L 142 10C 142 10 154 10 154 22L 154 52C 154 52 154 64 142 64L 22 64C 22 64 10 64 10 52L 10 22C 10 22 10 10 22 10"></path></g></g></g><g id="g-root-ro_qqwcyfkuzle6-fill" data-item-order="-7776" transform="translate(495, 39)"><g id="ro_qqwcyfkuzle6-fill" stroke="none" fill="#faf0ff"><g><path d="M 22 10L 142 10C 142 10 154 10 154 22L 154 52C 154 52 154 64 142 64L 22 64C 22 64 10 64 10 52L 10 22C 10 22 10 10 22 10"></path></g></g></g><g id="g-root-ro_93zudzkuekne-fill" data-item-order="-7776" transform="translate(75, 189)"><g id="ro_93zudzkuekne-fill" stroke="none" fill="#f4ffdc"><g><path d="M 22 10L 142 10C 142 10 154 10 154 22L 154 52C 154 52 154 64 142 64L 22 64C 22 64 10 64 10 52L 10 22C 10 22 10 10 22 10"></path></g></g></g><g id="g-root-cu_1uu9v2vkuejnw-fill" data-item-order="0" transform="translate(519, 243)"></g><g id="g-root-cu_4ostcnkuei9y-fill" data-item-order="0" transform="translate(447, 66)"></g><g id="g-root-cu_1uu9v2vkuejnt-fill" data-item-order="0" transform="translate(519, 243)"></g><g id="g-root-cu_1qegcyfkuekg9-fill" data-item-order="0" transform="translate(177, 243)"></g><g id="g-root-cu_93zudzkueknf-fill" data-item-order="0" transform="translate(219, 66)"></g><g id="g-root-tx_apitesti_m7c3h3kupssg-fill" data-item-order="0" transform="translate(543, 141)"><g id="tx_apitesti_m7c3h3kupssg-fill" stroke="none" fill="#484848"><g><text style="font: 20px Roboto, sans-serif; white-space: pre;" font-size="20px" font-family="Roboto, sans-serif"><tspan x="13.38" y="34" dominant-baseline="ideographic">API Testing</tspan></text></g></g></g><g id="g-root-cu_4ostcnkueia7-fill" data-item-order="0" transform="translate(177, 93)"></g><g id="g-root-cu_8zb87kuej2i-fill" data-item-order="0" transform="translate(177, 93)"></g><g id="g-root-cu_1uu9v2vkuejny-fill" data-item-order="0" transform="translate(177, 243)"></g><g id="g-root-tx_flexible_dcbkbbkupqff-fill" data-item-order="0" transform="translate(15, 255)"><g id="tx_flexible_dcbkbbkupqff-fill" stroke="none" fill="#484848"><g><text style="font: 20px Roboto, sans-serif; white-space: pre;" font-size="20px" font-family="Roboto, sans-serif"><tspan x="17.53" y="34" dominant-baseline="ideographic">Flexible Queries</tspan></text></g></g></g><g id="g-root-cu_4ostcnkueia1-fill" data-item-order="0" transform="translate(447, 210)"></g><g id="g-root-cu_8zb87kuej2k-fill" data-item-order="0" transform="translate(519, 93)"></g><g id="g-root-cu_1uu9v2vkuejnr-fill" data-item-order="0" transform="translate(519, 93)"></g><g id="g-root-cu_4ostcnkueia4-fill" data-item-order="0" transform="translate(219, 210)"></g><g id="g-root-tx_datavali_m7c3h3kupssh-fill" data-item-order="0" transform="translate(543, 255)"><g id="tx_datavali_m7c3h3kupssh-fill" stroke="none" fill="#484848"><g><text style="font: 20px Roboto, sans-serif; white-space: pre;" font-size="20px" font-family="Roboto, sans-serif"><tspan x="14.35" y="34" dominant-baseline="ideographic">Data Validation</tspan></text></g></g></g><g id="g-root-tx_interact_qn5lljkups07-fill" data-item-order="0" transform="translate(543, 105)"><g id="tx_interact_qn5lljkups07-fill" stroke="none" fill="#484848"><g><text style="font: 20px Roboto, sans-serif; white-space: pre;" font-size="20px" font-family="Roboto, sans-serif"><tspan x="12.8" y="34" dominant-baseline="ideographic">Interactive Documentation</tspan></text></g></g></g><g id="g-root-tx_codegene_qn5lljkups06-fill" data-item-order="0" transform="translate(15, 141)"><g id="tx_codegene_qn5lljkups06-fill" stroke="none" fill="#484848"><g><text style="font: 20px Roboto, sans-serif; white-space: pre;" font-size="20px" font-family="Roboto, sans-serif"><tspan x="13.86" y="34" dominant-baseline="ideographic">Code Generation</tspan></text></g></g></g><g id="g-root-tx_singleen_dcbkbbkupqfg-fill" data-item-order="0" transform="translate(27, 291)"><g id="tx_singleen_dcbkbbkupqfg-fill" stroke="none" fill="#484848"><g><text style="font: 20px Roboto, sans-serif; white-space: pre;" font-size="20px" font-family="Roboto, sans-serif"><tspan x="12.88" y="34" dominant-baseline="ideographic">Single Endpoint</tspan></text></g></g></g><g id="g-root-tx_datastru_m7c3h3kupssi-fill" data-item-order="0" transform="translate(543, 291)"><g id="tx_datastru_m7c3h3kupssi-fill" stroke="none" fill="#484848"><g><text style="font: 20px Roboto, sans-serif; white-space: pre;" font-size="20px" font-family="Roboto, sans-serif"><tspan x="15.3" y="34" dominant-baseline="ideographic">Data Structure Definition</tspan></text></g></g></g><g id="g-root-tx_document_v2z3pzkupr7x-fill" data-item-order="0" transform="translate(27, 105)"><g id="tx_document_v2z3pzkupr7x-fill" stroke="none" fill="#484848"><g><text style="font: 20px Roboto, sans-serif; white-space: pre;" font-size="20px" font-family="Roboto, sans-serif"><tspan x="13.75" y="34" dominant-baseline="ideographic">Documentation</tspan></text></g></g></g><g id="g-root-tx_apispeci_18lyg7rkl00zv-fill" data-item-order="1000000000" transform="translate(291, 156)"><g id="tx_apispeci_18lyg7rkl00zv-fill" stroke="none" fill="#484848"><g><text style="font: 20px Roboto, sans-serif; white-space: pre;" font-size="20px" font-family="Roboto, sans-serif"><tspan x="59.02" y="34" dominant-baseline="ideographic">API </tspan><tspan x="16.91" y="58" dominant-baseline="ideographic">Specification </tspan><tspan x="29.59" y="82" dominant-baseline="ideographic">and Query </tspan><tspan x="25.59" y="106" dominant-baseline="ideographic">Languages</tspan></text></g></g></g><g id="g-root-tx_graphql_mfgcrbkuej2g-fill" data-item-order="1000000000" transform="translate(87, 204)"><g id="tx_graphql_mfgcrbkuej2g-fill" stroke="none" fill="#92bd39"><g><text style="font: 20px Roboto, sans-serif; white-space: pre;" font-size="20px" font-family="Roboto, sans-serif"><tspan x="13.16" y="34" dominant-baseline="ideographic">GraphQL</tspan></text></g></g></g><g id="g-root-grap_hzmumvkuejup-fill" data-item-order="1000000000" transform="translate(177, 201)"></g><g id="g-root-json_1qckujbkuiqrs-fill" data-item-order="1000000000" transform="translate(507, 201)"></g><g id="g-root-tx_jsonsche_1qckujbkuiqrr-fill" data-item-order="1000000000" transform="translate(543, 204)"><g id="tx_jsonsche_1qckujbkuiqrr-fill" stroke="none" fill="#e0cb15"><g><text style="font: 20px Roboto, sans-serif; white-space: pre;" font-size="20px" font-family="Roboto, sans-serif"><tspan x="11.86" y="34" dominant-baseline="ideographic">JSON Schema</tspan></text></g></g></g><g id="g-root-xml_1464y3bkl01s4-fill" data-item-order="1000000000" transform="translate(333, 102)"></g><g id="g-root-tx_swagger_zmjd7bkuzklg-fill" data-item-order="1000000000" transform="translate(543, 54)"><g id="tx_swagger_zmjd7bkuzklg-fill" stroke="none" fill="#ba5de5"><g><text style="font: 20px Roboto, sans-serif; white-space: pre;" font-size="20px" font-family="Roboto, sans-serif"><tspan x="13.18" y="34" dominant-baseline="ideographic">Swagger</tspan></text></g></g></g><g id="g-root-2_qqwcyfkuzle5-fill" data-item-order="1000000000" transform="translate(507, 51)"></g><g id="g-root-sett_1cxzyqfkuvcw6-fill" data-item-order="1000000000" transform="translate(177, 51)"></g><g id="g-root-tx_openapi_1hd6zrrkuvf9p-fill" data-item-order="1000000000" transform="translate(87, 54)"><g id="tx_openapi_1hd6zrrkuvf9p-fill" stroke="none" fill="#e55753"><g><text style="font: 20px Roboto, sans-serif; white-space: pre;" font-size="20px" font-family="Roboto, sans-serif"><tspan x="13.13" y="34" dominant-baseline="ideographic">OpenAPI</tspan></text></g></g></g><g id="g-root-ro_vb4exjkkzzf1-stroke" data-item-order="-35640" transform="translate(267, 78)"><g id="ro_vb4exjkkzzf1-stroke" fill="none" stroke-linecap="round" stroke-linejoin="round" stroke-miterlimit="4" stroke="#484848" stroke-width="2"><g><path d="M 34 10L 166 10C 166 10 190 10 190 34L 190 184C 190 184 190 208 166 208L 34 208C 34 208 10 208 10 184L 10 34C 10 34 10 10 34 10"></path></g></g></g><g id="g-root-ro_1lwrcevkuirk1-stroke" data-item-order="-10368" transform="translate(495, 189)"><g id="ro_1lwrcevkuirk1-stroke" fill="none" stroke-linecap="round" stroke-linejoin="round" stroke-miterlimit="4" stroke="#e0cb15" stroke-width="2"><g><path d="M 22 10L 190 10C 190 10 202 10 202 22L 202 52C 202 52 202 64 190 64L 22 64C 22 64 10 64 10 52L 10 22C 10 22 10 10 22 10"></path></g></g></g><g id="g-root-ro_142cyhjkuvdov-stroke" data-item-order="-7776" transform="translate(75, 39)"><g id="ro_142cyhjkuvdov-stroke" fill="none" stroke-linecap="round" stroke-linejoin="round" stroke-miterlimit="4" stroke="#e55753" stroke-width="2"><g><path d="M 22 10L 142 10C 142 10 154 10 154 22L 154 52C 154 52 154 64 142 64L 22 64C 22 64 10 64 10 52L 10 22C 10 22 10 10 22 10"></path></g></g></g><g id="g-root-ro_qqwcyfkuzle6-stroke" data-item-order="-7776" transform="translate(495, 39)"><g id="ro_qqwcyfkuzle6-stroke" fill="none" stroke-linecap="round" stroke-linejoin="round" stroke-miterlimit="4" stroke="#ba5de5" stroke-width="2"><g><path d="M 22 10L 142 10C 142 10 154 10 154 22L 154 52C 154 52 154 64 142 64L 22 64C 22 64 10 64 10 52L 10 22C 10 22 10 10 22 10"></path></g></g></g><g id="g-root-ro_93zudzkuekne-stroke" data-item-order="-7776" transform="translate(75, 189)"><g id="ro_93zudzkuekne-stroke" fill="none" stroke-linecap="round" stroke-linejoin="round" stroke-miterlimit="4" stroke="#92bd39" stroke-width="2"><g><path d="M 22 10L 142 10C 142 10 154 10 154 22L 154 52C 154 52 154 64 142 64L 22 64C 22 64 10 64 10 52L 10 22C 10 22 10 10 22 10"></path></g></g></g><g id="g-root-cu_1uu9v2vkuejnw-stroke" data-item-order="0" transform="translate(519, 243)"><g id="cu_1uu9v2vkuejnw-stroke" fill="none" stroke-linecap="round" stroke-linejoin="round" stroke-miterlimit="4" stroke="#969696" stroke-width="2" stroke-dasharray="5.0, 7.0"><g><path d="M 10 10L 10 17.5L 10 58C 10.000002 64.627417 15.372585 70 22.000002 69.999999L 22.1 70L 28 70"></path></g></g></g><g id="g-root-cu_4ostcnkuei9y-stroke" data-item-order="0" transform="translate(447, 66)"><g id="cu_4ostcnkuei9y-stroke" fill="none" stroke-linecap="round" stroke-linejoin="round" stroke-miterlimit="4" stroke="#969696" stroke-width="2" stroke-dasharray="5.0, 7.0"><g><path d="M 10 88L 13 88L 13.1 88C 24.642753 88.000001 34.000002 78.642752 34.000002 67.100001L 34 67L 34 30.9C 33.999999 19.357249 43.357248 10.000001 54.899999 10.000002L 55 10L 58 10"></path></g></g></g><g id="g-root-cu_1uu9v2vkuejnt-stroke" data-item-order="0" transform="translate(519, 243)"><g id="cu_1uu9v2vkuejnt-stroke" fill="none" stroke-linecap="round" stroke-linejoin="round" stroke-miterlimit="4" stroke="#969696" stroke-width="2" stroke-dasharray="5.0, 7.0"><g><path d="M 10 10L 10 22L 10 34L 19 34L 28 34"></path></g></g></g><g id="g-root-cu_1qegcyfkuekg9-stroke" data-item-order="0" transform="translate(177, 243)"><g id="cu_1qegcyfkuekg9-stroke" fill="none" stroke-linecap="round" stroke-linejoin="round" stroke-miterlimit="4" stroke="#969696" stroke-width="2" stroke-dasharray="5.0, 7.0"><g><path d="M 28 10L 28 17.5L 28 58C 27.999999 64.627415 22.627416 69.999998 16 69.999998L 15.9 70L 10 70"></path></g></g></g><g id="g-root-cu_93zudzkueknf-stroke" data-item-order="0" transform="translate(219, 66)"><g id="cu_93zudzkueknf-stroke" fill="none" stroke-linecap="round" stroke-linejoin="round" stroke-miterlimit="4" stroke="#969696" stroke-width="2" stroke-dasharray="5.0, 7.0"><g><path d="M 58 88L 55 88L 54.9 88C 43.357247 88.000005 33.999998 78.642755 33.999999 67.100003L 34 67L 34 30.9C 33.999998 19.357248 24.64275 10 13.1 10L 13 10L 10 10"></path></g></g></g><g id="g-root-tx_apitesti_m7c3h3kupssg-stroke" data-item-order="0" transform="translate(543, 141)"></g><g id="g-root-cu_4ostcnkueia7-stroke" data-item-order="0" transform="translate(177, 93)"><g id="cu_4ostcnkueia7-stroke" fill="none" stroke-linecap="round" stroke-linejoin="round" stroke-miterlimit="4" stroke="#969696" stroke-width="2" stroke-dasharray="5.0, 7.0"><g><path d="M 28 10L 28 22L 28 34L 19 34L 10 34"></path></g></g></g><g id="g-root-cu_8zb87kuej2i-stroke" data-item-order="0" transform="translate(177, 93)"><g id="cu_8zb87kuej2i-stroke" fill="none" stroke-linecap="round" stroke-linejoin="round" stroke-miterlimit="4" stroke="#969696" stroke-width="2" stroke-dasharray="5.0, 7.0"><g><path d="M 28 10L 28 17.5L 28 58C 27.999999 64.627415 22.627416 69.999998 16 69.999998L 15.9 70L 10 70"></path></g></g></g><g id="g-root-cu_1uu9v2vkuejny-stroke" data-item-order="0" transform="translate(177, 243)"><g id="cu_1uu9v2vkuejny-stroke" fill="none" stroke-linecap="round" stroke-linejoin="round" stroke-miterlimit="4" stroke="#969696" stroke-width="2" stroke-dasharray="5.0, 7.0"><g><path d="M 28 10L 28 22L 28 34L 19 34L 10 34"></path></g></g></g><g id="g-root-tx_flexible_dcbkbbkupqff-stroke" data-item-order="0" transform="translate(15, 255)"></g><g id="g-root-cu_4ostcnkueia1-stroke" data-item-order="0" transform="translate(447, 210)"><g id="cu_4ostcnkueia1-stroke" fill="none" stroke-linecap="round" stroke-linejoin="round" stroke-miterlimit="4" stroke="#969696" stroke-width="2" stroke-dasharray="5.0, 7.0"><g><path d="M 10 10L 13 10L 13.1 10C 16.311297 10.016369 19.867515 10.284763 23.700001 10.800001C 25.868292 11.054283 29.498118 11.829585 33.999999 13C 38.50188 14.170414 42.131706 14.945717 44.299999 15.2C 48.132487 15.71524 51.688705 15.983634 54.900002 16.000002L 55 16L 58 16"></path></g></g></g><g id="g-root-cu_8zb87kuej2k-stroke" data-item-order="0" transform="translate(519, 93)"><g id="cu_8zb87kuej2k-stroke" fill="none" stroke-linecap="round" stroke-linejoin="round" stroke-miterlimit="4" stroke="#969696" stroke-width="2" stroke-dasharray="5.0, 7.0"><g><path d="M 10 10L 10 22L 10 34L 19 34L 28 34"></path></g></g></g><g id="g-root-cu_1uu9v2vkuejnr-stroke" data-item-order="0" transform="translate(519, 93)"><g id="cu_1uu9v2vkuejnr-stroke" fill="none" stroke-linecap="round" stroke-linejoin="round" stroke-miterlimit="4" stroke="#969696" stroke-width="2" stroke-dasharray="5.0, 7.0"><g><path d="M 10 10L 10 17.5L 10 58C 10.000002 64.627417 15.372585 70 22.000002 69.999999L 22.1 70L 28 70"></path></g></g></g><g id="g-root-cu_4ostcnkueia4-stroke" data-item-order="0" transform="translate(219, 210)"><g id="cu_4ostcnkueia4-stroke" fill="none" stroke-linecap="round" stroke-linejoin="round" stroke-miterlimit="4" stroke="#969696" stroke-width="2" stroke-dasharray="5.0, 7.0"><g><path d="M 58 10L 55 10L 54.9 10C 51.688705 10.016366 48.132487 10.28476 44.300001 10.799998C 42.131706 11.054283 38.50188 11.829586 33.999999 13C 29.498118 14.170414 25.868292 14.945717 23.699999 15.2C 19.867515 15.715237 16.311297 15.983631 13.1 16L 13 16L 10 16"></path></g></g></g><g id="g-root-tx_datavali_m7c3h3kupssh-stroke" data-item-order="0" transform="translate(543, 255)"></g><g id="g-root-tx_interact_qn5lljkups07-stroke" data-item-order="0" transform="translate(543, 105)"></g><g id="g-root-tx_codegene_qn5lljkups06-stroke" data-item-order="0" transform="translate(15, 141)"></g><g id="g-root-tx_singleen_dcbkbbkupqfg-stroke" data-item-order="0" transform="translate(27, 291)"></g><g id="g-root-tx_datastru_m7c3h3kupssi-stroke" data-item-order="0" transform="translate(543, 291)"></g><g id="g-root-tx_document_v2z3pzkupr7x-stroke" data-item-order="0" transform="translate(27, 105)"></g><g id="g-root-tx_apispeci_18lyg7rkl00zv-stroke" data-item-order="1000000000" transform="translate(291, 156)"></g><g id="g-root-tx_graphql_mfgcrbkuej2g-stroke" data-item-order="1000000000" transform="translate(87, 204)"></g><g id="g-root-grap_hzmumvkuejup-stroke" data-item-order="1000000000" transform="translate(177, 201)"><g id="grap_hzmumvkuejup-stroke" fill="none" stroke-linecap="round" stroke-linejoin="round" stroke-miterlimit="4" stroke="#92bd39" stroke-width="2"><g><path d="M 14.375 31.25L 25 12.5L 35.625 31.25L 14.375 31.25ZM 14.375 18.75L 25 12.5L 35.625 18.75L 35.625 31.25L 25 37.5L 14.375 31.25L 14.375 18.75Z"></path></g></g><g id="grap_hzmumvkuejup-stroke" fill="none" stroke-linecap="round" stroke-linejoin="round" stroke-miterlimit="4" stroke="#92bd39" stroke-width="2"><g><path d="M 23.125 12.5C 23.125 13.535534 23.964466 14.375 25 14.375C 26.035534 14.375 26.875 13.535534 26.875 12.5C 26.875 11.464466 26.035534 10.625 25 10.625C 23.964466 10.625 23.125 11.464466 23.125 12.5M 12.5 18.75C 12.5 19.785534 13.339466 20.625 14.375 20.625C 15.410534 20.625 16.25 19.785534 16.25 18.75C 16.25 17.714466 15.410534 16.875 14.375 16.875C 13.339466 16.875 12.5 17.714466 12.5 18.75M 33.75 18.75C 33.75 19.785534 34.589466 20.625 35.625 20.625C 36.660534 20.625 37.5 19.785534 37.5 18.75C 37.5 17.714466 36.660534 16.875 35.625 16.875C 34.589466 16.875 33.75 17.714466 33.75 18.75M 23.125 37.5C 23.125 38.535534 23.964466 39.375 25 39.375C 26.035534 39.375 26.875 38.535534 26.875 37.5C 26.875 36.464466 26.035534 35.625 25 35.625C 23.964466 35.625 23.125 36.464466 23.125 37.5M 12.5 31.25C 12.5 32.285534 13.339466 33.125 14.375 33.125C 15.410534 33.125 16.25 32.285534 16.25 31.25C 16.25 30.214466 15.410534 29.375002 14.375 29.375002C 13.339466 29.375002 12.5 30.214466 12.5 31.25M 33.75 31.25C 33.75 32.285534 34.589466 33.125 35.625 33.125C 36.660534 33.125 37.5 32.285534 37.5 31.25C 37.5 30.214466 36.660534 29.375002 35.625 29.375002C 34.589466 29.375002 33.75 30.214466 33.75 31.25"></path></g></g></g><g id="g-root-json_1qckujbkuiqrs-stroke" data-item-order="1000000000" transform="translate(507, 201)"><g id="json_1qckujbkuiqrs-stroke" fill="none" stroke-linecap="round" stroke-linejoin="round" stroke-miterlimit="4" stroke="#e0cb15" stroke-width="2"><g><path d="M 10.625 25C 10.625 32.939095 17.060907 39.375 25 39.375C 32.939095 39.375 39.375 32.939095 39.375 25C 39.375 17.060907 32.939095 10.625 25 10.625C 17.060907 10.625 10.625 17.060907 10.625 25M 25 10.625C 38.75 12.425 36.25 35.4375 25 32.075001C 19.25 30.35 19.6 19.6625 25 17.924999M 25 39.375C 11.25 37.575001 13.75 14.5625 25 17.924999C 30.75 19.65 30.4 30.337502 25 32.075001"></path></g></g></g><g id="g-root-tx_jsonsche_1qckujbkuiqrr-stroke" data-item-order="1000000000" transform="translate(543, 204)"></g><g id="g-root-xml_1464y3bkl01s4-stroke" data-item-order="1000000000" transform="translate(333, 102)"><g id="xml_1464y3bkl01s4-stroke" fill="none" stroke-linecap="round" stroke-linejoin="round" stroke-miterlimit="4" stroke="#484848" stroke-width="2"><g><path d="M 51 57C 52.104568 57 53 56.104568 53 55L 53 22.956001C 53.003315 16.353855 47.652145 10.999999 41.049999 11L 17 11C 15.895431 11 15 11.895431 15 13L 15 55C 15 56.104568 15.895431 57 17 57ZM 43 11.168L 43 19C 43 20.104568 43.895432 21 45 21L 52.84 21M 21 47.007999L 27 35.007999M 27 47.007999L 21 35.007999M 31 47.007999L 31 35.007999L 34 41.007999L 37 35.007999L 37 47.007999M 41 35L 41 45C 41 46.104568 41.895432 47 43 47L 47 47"></path></g></g></g><g id="g-root-tx_swagger_zmjd7bkuzklg-stroke" data-item-order="1000000000" transform="translate(543, 54)"></g><g id="g-root-2_qqwcyfkuzle5-stroke" data-item-order="1000000000" transform="translate(507, 51)"><g id="2_qqwcyfkuzle5-stroke" fill="none" stroke-linecap="round" stroke-linejoin="round" stroke-miterlimit="4" stroke="#ba5de5" stroke-width="2"><g><path d="M 23.255001 10.625C 22.564644 10.625 22.005001 11.184644 22.005001 11.875L 22.005001 17.77L 17.8375 13.60125C 17.349375 13.113273 16.558125 13.113273 16.07 13.60125L 13.60125 16.06875C 13.113273 16.556875 13.113273 17.348125 13.60125 17.83625L 17.77 22.005001L 11.875 22.005001C 11.184644 22.005001 10.625 22.564644 10.625 23.255001L 10.625 26.744999C 10.625 27.435356 11.184644 27.994999 11.875 27.994999L 17.77 27.994999L 13.60125 32.162498C 13.113273 32.650627 13.113273 33.441875 13.60125 33.93L 16.06875 36.397499C 16.556875 36.885479 17.348125 36.885479 17.83625 36.397499L 22.005001 32.228752L 22.005001 38.125C 22.005001 38.815353 22.564644 39.375 23.255001 39.375L 26.744999 39.375C 27.435356 39.375 27.994999 38.815353 27.994999 38.125L 27.994999 32.23L 32.162498 36.39875C 32.396961 36.633472 32.715115 36.765358 33.046875 36.765358C 33.378635 36.765358 33.696789 36.633472 33.931252 36.39875L 36.39875 33.931252C 36.633472 33.696789 36.765358 33.378635 36.765358 33.046875C 36.765358 32.715115 36.633472 32.396961 36.39875 32.162498L 32.23 27.994999L 38.125 27.994999C 38.815353 27.994999 39.375 27.435356 39.375 26.744999L 39.375 23.255001C 39.375 22.564644 38.815353 22.005001 38.125 22.005001L 32.23 22.005001L 36.400002 17.8375C 36.63472 17.603039 36.766609 17.284887 36.766609 16.953125C 36.766609 16.621363 36.63472 16.303211 36.400002 16.06875L 33.932499 13.60125C 33.69804 13.366529 33.379887 13.234642 33.048126 13.234642C 32.716362 13.234642 32.398209 13.366529 32.16375 13.60125L 27.99625 17.77L 27.99625 11.875C 27.99625 11.184644 27.436605 10.625 26.74625 10.625L 23.256248 10.625ZM 25 21.40625C 22.946251 21.40625 21.92 21.918751 21.92 21.918751C 21.92 21.918751 21.40625 22.946251 21.40625 25C 21.40625 27.053749 21.918751 28.08 21.918751 28.08C 21.918751 28.08 23.459999 28.59375 25 28.59375C 26.540001 28.59375 28.08 28.081249 28.08 28.081249C 28.08 28.081249 28.59375 27.053749 28.59375 25C 28.59375 22.946251 28.081249 21.92 28.081249 21.92C 28.081249 21.92 27.053749 21.40625 25 21.40625Z"></path></g></g></g><g id="g-root-sett_1cxzyqfkuvcw6-stroke" data-item-order="1000000000" transform="translate(177, 51)"><g id="sett_1cxzyqfkuvcw6-stroke" fill="none" stroke-linecap="round" stroke-linejoin="round" stroke-miterlimit="4" stroke="#e55753" stroke-width="2"><g><path d="M 30.411251 31.215C 30.411251 32.207043 31.21546 33.01125 32.2075 33.01125C 33.199543 33.01125 34.00375 32.207043 34.00375 31.215C 34.00375 30.22296 33.199543 29.418751 32.2075 29.418751C 31.21546 29.418751 30.411251 30.22296 30.411251 31.215ZM 33.733749 24.264999L 34.263748 26.004999C 34.444534 26.604153 35.058899 26.960527 35.668751 26.82L 37.432499 26.411249C 38.118671 26.256588 38.825542 26.567091 39.17585 27.17704C 39.526154 27.786989 39.438126 28.554018 38.958748 29.06875L 37.724998 30.4C 37.302448 30.859259 37.302448 31.565741 37.724998 32.024998L 38.958748 33.356251C 39.438126 33.870983 39.526154 34.638012 39.17585 35.247959C 38.825542 35.85791 38.118671 36.168411 37.432503 36.013752L 35.668751 35.605C 35.058899 35.464474 34.444534 35.820847 34.263752 36.419998L 33.733749 38.16C 33.531197 38.833652 32.910946 39.294838 32.2075 39.294838C 31.504055 39.294838 30.883804 38.833652 30.68125 38.16L 30.151251 36.419998C 29.966938 35.825935 29.356596 35.473667 28.75 35.611252L 26.98625 36.02C 26.300079 36.174664 25.593206 35.864159 25.242903 35.254211C 24.892595 34.64426 24.980623 33.877232 25.459999 33.362499L 26.693748 32.03125C 27.116299 31.571989 27.116299 30.865509 26.693748 30.406248L 25.459999 29.075001C 24.980623 28.560268 24.892595 27.79324 25.242903 27.183289C 25.593206 26.573341 26.300079 26.262838 26.98625 26.4175L 28.75 26.82C 29.360069 26.959965 29.974407 26.603922 30.15625 26.004999L 30.686249 24.264999C 30.891504 23.595491 31.509735 23.138395 32.209999 23.138395C 32.910263 23.138395 33.528496 23.595491 33.733749 24.264999ZM 23.145 39.375L 11.895 39.375C 11.204644 39.375 10.645 38.815353 10.645 38.125L 10.645 11.875C 10.645 11.184644 11.204644 10.625 11.895 10.625L 28.51125 10.625C 28.844006 10.627385 29.162075 10.762351 29.395 11L 34.028748 15.625C 34.263187 15.859366 34.394928 16.177258 34.395 16.508749L 34.395 19.375M 14.395 16.880001L 14.395 21.879999M 25.645 16.880001L 25.645 21.879999M 21.895 25.629999L 21.895 30.629999M 29.395 16.880001L 29.395 21.879999M 20.02 16.875C 21.055534 16.875 21.895 17.714466 21.895 18.75L 21.895 20C 21.895 21.035534 21.055534 21.875 20.02 21.875C 18.984467 21.875 18.145 21.035534 18.145 20L 18.145 18.75C 18.145 17.714466 18.984467 16.875 20.02 16.875ZM 16.27 25.625C 17.305534 25.625 18.145 26.464466 18.145 27.5L 18.145 28.75C 18.145 29.785534 17.305534 30.625 16.27 30.625C 15.234467 30.625 14.395 29.785534 14.395 28.75L 14.395 27.5C 14.395 26.464466 15.234467 25.625 16.27 25.625Z"></path></g></g></g><g id="g-root-tx_openapi_1hd6zrrkuvf9p-stroke" data-item-order="1000000000" transform="translate(87, 54)"></g></g></g></svg>