<?xml version="1.0" encoding="utf-8" standalone="yes"?>
<!DOCTYPE svg PUBLIC "-//W3C//DTD SVG 1.1//EN" "http://www.w3.org/Graphics/SVG/1.1/DTD/svg11.dtd">
<svg width="926" height="710" viewBox="0 0 926 710" style="fill:none;stroke:none;fill-rule:evenodd;clip-rule:evenodd;stroke-linecap:round;stroke-linejoin:round;stroke-miterlimit:1.5;" version="1.1" xmlns="http://www.w3.org/2000/svg" xmlns:xlink="http://www.w3.org/1999/xlink"><style id="fontImports">@import url("https://fonts.googleapis.com/css2?family=Roboto:wght@400;700&amp;display=block");</style><g id="items" style="isolation: isolate"><g id="blend" style="mix-blend-mode: normal"><g id="g-root-ro_1lt1gq2paroqs-fill" data-item-order="-27000" transform="translate(387, 270)"><g id="ro_1lt1gq2paroqs-fill" stroke="none" fill="#f5f5f5"><g><path d="M 34 10L 166 10C 166 10 190 10 190 34L 190 136C 190 136 190 160 166 160L 34 160C 34 160 10 160 10 136L 10 34C 10 34 10 10 34 10"></path></g></g></g><g id="g-root-ro_1lvjmjupadnnt-fill" data-item-order="-17496" transform="translate(15, 189)"><g id="ro_1lvjmjupadnnt-fill" stroke="none" fill="#fff2e5"><g><path d="M 22 10L 322 10C 322 10 334 10 334 22L 334 52C 334 52 334 64 322 64L 22 64C 22 64 10 64 10 52L 10 22C 10 22 10 10 22 10"></path></g></g></g><g id="g-root-ro_zk2p62paowzo-fill" data-item-order="-14904" transform="translate(339, 525)"><g id="ro_zk2p62paowzo-fill" stroke="none" fill="#ffebf7"><g><path d="M 22 10L 274 10C 274 10 286 10 286 22L 286 52C 286 52 286 64 274 64L 22 64C 22 64 10 64 10 52L 10 22C 10 22 10 10 22 10"></path></g></g></g><g id="g-root-ro_dfh622pam2h8-fill" data-item-order="-12960" transform="translate(183, 39)"><g id="ro_dfh622pam2h8-fill" stroke="none" fill="#f3f0ff"><g><path d="M 22 10L 238 10C 238 10 250 10 250 22L 250 52C 250 52 250 64 238 64L 22 64C 22 64 10 64 10 52L 10 22C 10 22 10 10 22 10"></path></g></g></g><g id="g-root-ro_1cz9vqipat4ap-fill" data-item-order="-11016" transform="translate(615, 207)"><g id="ro_1cz9vqipat4ap-fill" stroke="none" fill="#e3fff2"><g><path d="M 22 10L 202 10C 202 10 214 10 214 22L 214 52C 214 52 214 64 202 64L 22 64C 22 64 10 64 10 52L 10 22C 10 22 10 10 22 10"></path></g></g></g><g id="g-root-ro_1lpx9m2paf3m4-fill" data-item-order="-11016" transform="translate(531, 57)"><g id="ro_1lpx9m2paf3m4-fill" stroke="none" fill="#f4ffdc"><g><path d="M 22 10L 202 10C 202 10 214 10 214 22L 214 52C 214 52 214 64 202 64L 22 64C 22 64 10 64 10 52L 10 22C 10 22 10 10 22 10"></path></g></g></g><g id="g-root-ro_1ly1ckqpa82kv-fill" data-item-order="-9720" transform="translate(615, 357)"><g id="ro_1ly1ckqpa82kv-fill" stroke="none" fill="#faf0ff"><g><path d="M 22 10L 178 10C 178 10 190 10 190 22L 190 52C 190 52 190 64 178 64L 22 64C 22 64 10 64 10 52L 10 22C 10 22 10 10 22 10"></path></g></g></g><g id="g-root-ro_1lwshkaparq4m-fill" data-item-order="-9720" transform="translate(159, 375)"><g id="ro_1lwshkaparq4m-fill" stroke="none" fill="#e8f9ff"><g><path d="M 22 10L 178 10C 178 10 190 10 190 22L 190 52C 190 52 190 64 178 64L 22 64C 22 64 10 64 10 52L 10 22C 10 22 10 10 22 10"></path></g></g></g><g id="g-root-tx_datarete_htf5repaow74-fill" data-item-order="0" transform="translate(663, 459)"><g id="tx_datarete_htf5repaow74-fill" stroke="none" fill="#484848"><g><text style="font: 20px Roboto, sans-serif; white-space: pre;" font-size="20px" font-family="Roboto, sans-serif"><tspan x="16.31" y="34" dominant-baseline="ideographic">Data Retention</tspan></text></g></g></g><g id="g-root-tx_notifica_4hyne2paoxs6-fill" data-item-order="0" transform="translate(159, 105)"><g id="tx_notifica_4hyne2paoxs6-fill" stroke="none" fill="#484848"><g><text style="font: 20px Roboto, sans-serif; white-space: pre;" font-size="20px" font-family="Roboto, sans-serif"><tspan x="13.08" y="34" dominant-baseline="ideographic">Notification Procedures</tspan></text></g></g></g><g id="g-root-cu_1upxomipam328-fill" data-item-order="0" transform="translate(381, 93)"></g><g id="g-root-cu_1upxomipam32b-fill" data-item-order="0" transform="translate(381, 93)"></g><g id="g-root-cu_1upxomipam2a7-fill" data-item-order="0" transform="translate(297, 429)"></g><g id="g-root-cu_1upxomipam2a4-fill" data-item-order="0" transform="translate(297, 429)"></g><g id="g-root-tx_accessco_htf5repaow75-fill" data-item-order="0" transform="translate(147, 441)"><g id="tx_accessco_htf5repaow75-fill" stroke="none" fill="#484848"><g><text style="font: 20px Roboto, sans-serif; white-space: pre;" font-size="20px" font-family="Roboto, sans-serif"><tspan x="14.47" y="34" dominant-baseline="ideographic">Access Control</tspan></text></g></g></g><g id="g-root-cu_1upxomipam32d-fill" data-item-order="0" transform="translate(555, 111)"></g><g id="g-root-cu_1qa46i2pam3uo-fill" data-item-order="0" transform="translate(555, 111)"></g><g id="g-root-tx_privacyn_4hyne2paoxs8-fill" data-item-order="0" transform="translate(579, 123)"><g id="tx_privacyn_4hyne2paoxs8-fill" stroke="none" fill="#484848"><g><text style="font: 20px Roboto, sans-serif; white-space: pre;" font-size="20px" font-family="Roboto, sans-serif"><tspan x="12.98" y="34" dominant-baseline="ideographic">Privacy Notices</tspan></text></g></g></g><g id="g-root-tx_notifica_4hyne2paoxs7-fill" data-item-order="0" transform="translate(183, 141)"><g id="tx_notifica_4hyne2paoxs7-fill" stroke="none" fill="#484848"><g><text style="font: 20px Roboto, sans-serif; white-space: pre;" font-size="20px" font-family="Roboto, sans-serif"><tspan x="16.73" y="34" dominant-baseline="ideographic">Notification Content</tspan></text></g></g></g><g id="g-root-tx_encrypti_m98nvupaovev-fill" data-item-order="0" transform="translate(663, 423)"><g id="tx_encrypti_m98nvupaovev-fill" stroke="none" fill="#484848"><g><text style="font: 20px Roboto, sans-serif; white-space: pre;" font-size="20px" font-family="Roboto, sans-serif"><tspan x="12.6" y="34" dominant-baseline="ideographic">Encryption Requirements</tspan></text></g></g></g><g id="g-root-cu_4kgmwapam1oi-fill" data-item-order="0" transform="translate(639, 411)"></g><g id="g-root-cu_4n4rupam1ov-fill" data-item-order="0" transform="translate(639, 411)"></g><g id="g-root-tx_technica_2rmcqpaovep-fill" data-item-order="0" transform="translate(579, 159)"><g id="tx_technica_2rmcqpaovep-fill" stroke="none" fill="#484848"><g><text style="font: 20px Roboto, sans-serif; white-space: pre;" font-size="20px" font-family="Roboto, sans-serif"><tspan x="16.68" y="34" dominant-baseline="ideographic">Technical Documentation</tspan></text></g></g></g><g id="g-root-tx_auditlog_htf5repaow76-fill" data-item-order="0" transform="translate(159, 477)"><g id="tx_auditlog_htf5repaow76-fill" stroke="none" fill="#484848"><g><text style="font: 20px Roboto, sans-serif; white-space: pre;" font-size="20px" font-family="Roboto, sans-serif"><tspan x="14.3" y="34" dominant-baseline="ideographic">Audit Logging</tspan></text></g></g></g><g id="g-root-cu_4ju5t6pam427-fill" data-item-order="0" transform="translate(477, 420)"></g><g id="g-root-cu_8znnxmpam39k-fill" data-item-order="0" transform="translate(567, 370)"></g><g id="g-root-cu_8znnxmpam39q-fill" data-item-order="0" transform="translate(339, 216)"></g><g id="g-root-cu_8znnxmpam39n-fill" data-item-order="0" transform="translate(339, 370)"></g><g id="g-root-cu_4ju5t6pam424-fill" data-item-order="0" transform="translate(507, 84)"></g><g id="g-root-tx_complian_1q88o2ypaow0b-fill" data-item-order="0" transform="translate(387, 627)"><g id="tx_complian_1q88o2ypaow0b-fill" stroke="none" fill="#484848"><g><text style="font: 20px Roboto, sans-serif; white-space: pre;" font-size="20px" font-family="Roboto, sans-serif"><tspan x="13.3" y="34" dominant-baseline="ideographic">Compliance Reporting</tspan></text></g></g></g><g id="g-root-cu_8znnxmpam39h-fill" data-item-order="0" transform="translate(567, 234)"></g><g id="g-root-cu_1qa46i2pam3uq-fill" data-item-order="0" transform="translate(363, 579)"></g><g id="g-root-cu_4ju5t6pam421-fill" data-item-order="0" transform="translate(423, 66)"></g><g id="g-root-tx_datatran_8xs5iipaowzv-fill" data-item-order="0" transform="translate(51, 255)"><g id="tx_datatran_8xs5iipaowzv-fill" stroke="none" fill="#484848"><g><text style="font: 20px Roboto, sans-serif; white-space: pre;" font-size="20px" font-family="Roboto, sans-serif"><tspan x="13.48" y="34" dominant-baseline="ideographic">Data Transfer Agreements</tspan></text></g></g></g><g id="g-root-cu_4n4rupam2gx-fill" data-item-order="0" transform="translate(297, 243)"></g><g id="g-root-cu_4n4rupam2h0-fill" data-item-order="0" transform="translate(297, 243)"></g><g id="g-root-cu_1qa46i2pam32m-fill" data-item-order="0" transform="translate(297, 243)"></g><g id="g-root-tx_datatran_8xs5iipaowzx-fill" data-item-order="0" transform="translate(39, 327)"><g id="tx_datatran_8xs5iipaowzx-fill" stroke="none" fill="#484848"><g><text style="font: 20px Roboto, sans-serif; white-space: pre;" font-size="20px" font-family="Roboto, sans-serif"><tspan x="16.29" y="34" dominant-baseline="ideographic">Data Transfer Mechanisms</tspan></text></g></g></g><g id="g-root-tx_datamini_qofox6paoxse-fill" data-item-order="0" transform="translate(663, 309)"><g id="tx_datamini_qofox6paoxse-fill" stroke="none" fill="#484848"><g><text style="font: 20px Roboto, sans-serif; white-space: pre;" font-size="20px" font-family="Roboto, sans-serif"><tspan x="13.16" y="34" dominant-baseline="ideographic">Data Minimization</tspan></text></g></g></g><g id="g-root-cu_1qa46i2pam3ut-fill" data-item-order="0" transform="translate(363, 579)"></g><g id="g-root-cu_8znnxmpam41u-fill" data-item-order="0" transform="translate(639, 261)"></g><g id="g-root-tx_consentm_qofox6paoxsd-fill" data-item-order="0" transform="translate(663, 273)"><g id="tx_consentm_qofox6paoxsd-fill" stroke="none" fill="#484848"><g><text style="font: 20px Roboto, sans-serif; white-space: pre;" font-size="20px" font-family="Roboto, sans-serif"><tspan x="13.61" y="34" dominant-baseline="ideographic">Consent Management</tspan></text></g></g></g><g id="g-root-cu_4n4rupam1ot-fill" data-item-order="0" transform="translate(639, 261)"></g><g id="g-root-tx_regulara_2rmcqpaoveq-fill" data-item-order="0" transform="translate(387, 591)"><g id="tx_regulara_2rmcqpaoveq-fill" stroke="none" fill="#484848"><g><text style="font: 20px Roboto, sans-serif; white-space: pre;" font-size="20px" font-family="Roboto, sans-serif"><tspan x="17.18" y="34" dominant-baseline="ideographic">Regular Audits</tspan></text></g></g></g><g id="g-root-tx_dataprot_8xs5iipaowzw-fill" data-item-order="0" transform="translate(27, 291)"><g id="tx_dataprot_8xs5iipaowzw-fill" stroke="none" fill="#484848"><g><text style="font: 20px Roboto, sans-serif; white-space: pre;" font-size="20px" font-family="Roboto, sans-serif"><tspan x="16.22" y="34" dominant-baseline="ideographic">Data Protection Agreements</tspan></text></g></g></g><g id="g-root-pers_1lt1gq2paroqr-fill" data-item-order="1000000000" transform="translate(453, 294)"></g><g id="g-root-tx_datapriv_1q8uyuiparnyi-fill" data-item-order="1000000000" transform="translate(411, 348)"><g id="tx_datapriv_1q8uyuiparnyi-fill" stroke="none" fill="#484848"><g><text style="font: 20px Roboto, sans-serif; white-space: pre;" font-size="20px" font-family="Roboto, sans-serif"><tspan x="20.46" y="34" dominant-baseline="ideographic">Data Privacy </tspan><tspan x="17.04" y="58" dominant-baseline="ideographic">Management</tspan></text></g></g></g><g id="g-root-tx_datacoll_1luwvzepat2q7-fill" data-item-order="1000000000" transform="translate(663, 222)"><g id="tx_datacoll_1luwvzepat2q7-fill" stroke="none" fill="#3cc583"><g><text style="font: 20px Roboto, sans-serif; white-space: pre;" font-size="20px" font-family="Roboto, sans-serif"><tspan x="14.27" y="34" dominant-baseline="ideographic">Data Collection</tspan></text></g></g></g><g id="g-root-lock_1utoctmpa81s6-fill" data-item-order="1000000000" transform="translate(627, 369)"></g><g id="g-root-tx_datastor_dj7u96pa82rx-fill" data-item-order="1000000000" transform="translate(663, 372)"><g id="tx_datastor_dj7u96pa82rx-fill" stroke="none" fill="#ba5de5"><g><text style="font: 20px Roboto, sans-serif; white-space: pre;" font-size="20px" font-family="Roboto, sans-serif"><tspan x="12.44" y="34" dominant-baseline="ideographic">Data Storage</tspan></text></g></g></g><g id="g-root-tx_dataacce_qtfhm2paroqs-fill" data-item-order="1000000000" transform="translate(171, 390)"><g id="tx_dataacce_qtfhm2paroqs-fill" stroke="none" fill="#1eabda"><g><text style="font: 20px Roboto, sans-serif; white-space: pre;" font-size="20px" font-family="Roboto, sans-serif"><tspan x="14.19" y="34" dominant-baseline="ideographic">Data Access</tspan></text></g></g></g><g id="g-root-lock_1qclzoqparpcd-fill" data-item-order="1000000000" transform="translate(297, 387)"></g><g id="g-root-diag_1lvjmjupadnns-fill" data-item-order="1000000000" transform="translate(297, 201)"></g><g id="g-root-tx_crossbor_1qbd4oapadmvj-fill" data-item-order="1000000000" transform="translate(27, 204)"><g id="tx_crossbor_1qbd4oapadmvj-fill" stroke="none" fill="#de8431"><g><text style="font: 20px Roboto, sans-serif; white-space: pre;" font-size="20px" font-family="Roboto, sans-serif"><tspan x="16.24" y="34" dominant-baseline="ideographic">Cross-Border Data Transfers</tspan></text></g></g></g><g id="g-root-tx_document_1ulk9uypaf2te-fill" data-item-order="1000000000" transform="translate(579, 72)"><g id="tx_document_1ulk9uypaf2te-fill" stroke="none" fill="#92bd39"><g><text style="font: 20px Roboto, sans-serif; white-space: pre;" font-size="20px" font-family="Roboto, sans-serif"><tspan x="13.75" y="34" dominant-baseline="ideographic">Documentation</tspan></text></g></g></g><g id="g-root-chec_zk2p62paowzn-fill" data-item-order="1000000000" transform="translate(351, 537)"></g><g id="g-root-tx_complian_13zw7aipaow7e-fill" data-item-order="1000000000" transform="translate(387, 540)"><g id="tx_complian_13zw7aipaow7e-fill" stroke="none" fill="#de58a9"><g><text style="font: 20px Roboto, sans-serif; white-space: pre;" font-size="20px" font-family="Roboto, sans-serif"><tspan x="14.34" y="34" dominant-baseline="ideographic">Compliance Monitoring</tspan></text></g></g></g><g id="g-root-fold_1ulk9uypaf2tf-fill" data-item-order="1000000000" transform="translate(543, 69)"></g><g id="g-root-hack_mb46aypam1oj-fill" data-item-order="1000000000" transform="translate(381, 51)"></g><g id="g-root-tx_breachno_qqb7capam422-fill" data-item-order="1000000000" transform="translate(195, 54)"><g id="tx_breachno_qqb7capam422-fill" stroke="none" fill="#7f64ea"><g><text style="font: 20px Roboto, sans-serif; white-space: pre;" font-size="20px" font-family="Roboto, sans-serif"><tspan x="14.82" y="34" dominant-baseline="ideographic">Breach Notification</tspan></text></g></g></g><g id="g-root-bars_1hf3duypat3ig-fill" data-item-order="1000000000" transform="translate(627, 219)"></g><g id="g-root-ro_1lt1gq2paroqs-stroke" data-item-order="-27000" transform="translate(387, 270)"><g id="ro_1lt1gq2paroqs-stroke" fill="none" stroke-linecap="round" stroke-linejoin="round" stroke-miterlimit="4" stroke="#484848" stroke-width="2"><g><path d="M 34 10L 166 10C 166 10 190 10 190 34L 190 136C 190 136 190 160 166 160L 34 160C 34 160 10 160 10 136L 10 34C 10 34 10 10 34 10"></path></g></g></g><g id="g-root-ro_1lvjmjupadnnt-stroke" data-item-order="-17496" transform="translate(15, 189)"><g id="ro_1lvjmjupadnnt-stroke" fill="none" stroke-linecap="round" stroke-linejoin="round" stroke-miterlimit="4" stroke="#de8431" stroke-width="2"><g><path d="M 22 10L 322 10C 322 10 334 10 334 22L 334 52C 334 52 334 64 322 64L 22 64C 22 64 10 64 10 52L 10 22C 10 22 10 10 22 10"></path></g></g></g><g id="g-root-ro_zk2p62paowzo-stroke" data-item-order="-14904" transform="translate(339, 525)"><g id="ro_zk2p62paowzo-stroke" fill="none" stroke-linecap="round" stroke-linejoin="round" stroke-miterlimit="4" stroke="#de58a9" stroke-width="2"><g><path d="M 22 10L 274 10C 274 10 286 10 286 22L 286 52C 286 52 286 64 274 64L 22 64C 22 64 10 64 10 52L 10 22C 10 22 10 10 22 10"></path></g></g></g><g id="g-root-ro_dfh622pam2h8-stroke" data-item-order="-12960" transform="translate(183, 39)"><g id="ro_dfh622pam2h8-stroke" fill="none" stroke-linecap="round" stroke-linejoin="round" stroke-miterlimit="4" stroke="#7f64ea" stroke-width="2"><g><path d="M 22 10L 238 10C 238 10 250 10 250 22L 250 52C 250 52 250 64 238 64L 22 64C 22 64 10 64 10 52L 10 22C 10 22 10 10 22 10"></path></g></g></g><g id="g-root-ro_1cz9vqipat4ap-stroke" data-item-order="-11016" transform="translate(615, 207)"><g id="ro_1cz9vqipat4ap-stroke" fill="none" stroke-linecap="round" stroke-linejoin="round" stroke-miterlimit="4" stroke="#3cc583" stroke-width="2"><g><path d="M 22 10L 202 10C 202 10 214 10 214 22L 214 52C 214 52 214 64 202 64L 22 64C 22 64 10 64 10 52L 10 22C 10 22 10 10 22 10"></path></g></g></g><g id="g-root-ro_1lpx9m2paf3m4-stroke" data-item-order="-11016" transform="translate(531, 57)"><g id="ro_1lpx9m2paf3m4-stroke" fill="none" stroke-linecap="round" stroke-linejoin="round" stroke-miterlimit="4" stroke="#92bd39" stroke-width="2"><g><path d="M 22 10L 202 10C 202 10 214 10 214 22L 214 52C 214 52 214 64 202 64L 22 64C 22 64 10 64 10 52L 10 22C 10 22 10 10 22 10"></path></g></g></g><g id="g-root-ro_1ly1ckqpa82kv-stroke" data-item-order="-9720" transform="translate(615, 357)"><g id="ro_1ly1ckqpa82kv-stroke" fill="none" stroke-linecap="round" stroke-linejoin="round" stroke-miterlimit="4" stroke="#ba5de5" stroke-width="2"><g><path d="M 22 10L 178 10C 178 10 190 10 190 22L 190 52C 190 52 190 64 178 64L 22 64C 22 64 10 64 10 52L 10 22C 10 22 10 10 22 10"></path></g></g></g><g id="g-root-ro_1lwshkaparq4m-stroke" data-item-order="-9720" transform="translate(159, 375)"><g id="ro_1lwshkaparq4m-stroke" fill="none" stroke-linecap="round" stroke-linejoin="round" stroke-miterlimit="4" stroke="#1eabda" stroke-width="2"><g><path d="M 22 10L 178 10C 178 10 190 10 190 22L 190 52C 190 52 190 64 178 64L 22 64C 22 64 10 64 10 52L 10 22C 10 22 10 10 22 10"></path></g></g></g><g id="g-root-tx_datarete_htf5repaow74-stroke" data-item-order="0" transform="translate(663, 459)"></g><g id="g-root-tx_notifica_4hyne2paoxs6-stroke" data-item-order="0" transform="translate(159, 105)"></g><g id="g-root-cu_1upxomipam328-stroke" data-item-order="0" transform="translate(381, 93)"><g id="cu_1upxomipam328-stroke" fill="none" stroke-linecap="round" stroke-linejoin="round" stroke-miterlimit="4" stroke="#969696" stroke-width="2" stroke-dasharray="5.0, 7.0"><g><path d="M 28 10L 28 22L 28 34L 19 34L 10 34"></path></g></g></g><g id="g-root-cu_1upxomipam32b-stroke" data-item-order="0" transform="translate(381, 93)"><g id="cu_1upxomipam32b-stroke" fill="none" stroke-linecap="round" stroke-linejoin="round" stroke-miterlimit="4" stroke="#969696" stroke-width="2" stroke-dasharray="5.0, 7.0"><g><path d="M 28 10L 28 17.5L 28 58C 27.999999 64.627415 22.627416 69.999998 16 69.999998L 15.9 70L 10 70"></path></g></g></g><g id="g-root-cu_1upxomipam2a7-stroke" data-item-order="0" transform="translate(297, 429)"><g id="cu_1upxomipam2a7-stroke" fill="none" stroke-linecap="round" stroke-linejoin="round" stroke-miterlimit="4" stroke="#969696" stroke-width="2" stroke-dasharray="5.0, 7.0"><g><path d="M 28 10L 28 17.5L 28 58C 27.999999 64.627415 22.627416 69.999998 16 69.999998L 15.9 70L 10 70"></path></g></g></g><g id="g-root-cu_1upxomipam2a4-stroke" data-item-order="0" transform="translate(297, 429)"><g id="cu_1upxomipam2a4-stroke" fill="none" stroke-linecap="round" stroke-linejoin="round" stroke-miterlimit="4" stroke="#969696" stroke-width="2" stroke-dasharray="5.0, 7.0"><g><path d="M 28 10L 28 22L 28 34L 19 34L 10 34"></path></g></g></g><g id="g-root-tx_accessco_htf5repaow75-stroke" data-item-order="0" transform="translate(147, 441)"></g><g id="g-root-cu_1upxomipam32d-stroke" data-item-order="0" transform="translate(555, 111)"><g id="cu_1upxomipam32d-stroke" fill="none" stroke-linecap="round" stroke-linejoin="round" stroke-miterlimit="4" stroke="#969696" stroke-width="2" stroke-dasharray="5.0, 7.0"><g><path d="M 10 10L 10 22L 10 34L 19 34L 28 34"></path></g></g></g><g id="g-root-cu_1qa46i2pam3uo-stroke" data-item-order="0" transform="translate(555, 111)"><g id="cu_1qa46i2pam3uo-stroke" fill="none" stroke-linecap="round" stroke-linejoin="round" stroke-miterlimit="4" stroke="#969696" stroke-width="2" stroke-dasharray="5.0, 7.0"><g><path d="M 10 10L 10 17.5L 10 58C 10.000002 64.627417 15.372585 70 22.000002 69.999999L 22.1 70L 28 70"></path></g></g></g><g id="g-root-tx_privacyn_4hyne2paoxs8-stroke" data-item-order="0" transform="translate(579, 123)"></g><g id="g-root-tx_notifica_4hyne2paoxs7-stroke" data-item-order="0" transform="translate(183, 141)"></g><g id="g-root-tx_encrypti_m98nvupaovev-stroke" data-item-order="0" transform="translate(663, 423)"></g><g id="g-root-cu_4kgmwapam1oi-stroke" data-item-order="0" transform="translate(639, 411)"><g id="cu_4kgmwapam1oi-stroke" fill="none" stroke-linecap="round" stroke-linejoin="round" stroke-miterlimit="4" stroke="#969696" stroke-width="2" stroke-dasharray="5.0, 7.0"><g><path d="M 10 10L 10 17.5L 10 58C 10.000002 64.627417 15.372585 70 22.000002 69.999999L 22.1 70L 28 70"></path></g></g></g><g id="g-root-cu_4n4rupam1ov-stroke" data-item-order="0" transform="translate(639, 411)"><g id="cu_4n4rupam1ov-stroke" fill="none" stroke-linecap="round" stroke-linejoin="round" stroke-miterlimit="4" stroke="#969696" stroke-width="2" stroke-dasharray="5.0, 7.0"><g><path d="M 10 10L 10 22L 10 34L 19 34L 28 34"></path></g></g></g><g id="g-root-tx_technica_2rmcqpaovep-stroke" data-item-order="0" transform="translate(579, 159)"></g><g id="g-root-tx_auditlog_htf5repaow76-stroke" data-item-order="0" transform="translate(159, 477)"></g><g id="g-root-cu_4ju5t6pam427-stroke" data-item-order="0" transform="translate(477, 420)"><g id="cu_4ju5t6pam427-stroke" fill="none" stroke-linecap="round" stroke-linejoin="round" stroke-miterlimit="4" stroke="#969696" stroke-width="2" stroke-dasharray="5.0, 7.0"><g><path d="M 10 10L 10 62.5L 10 115"></path></g></g></g><g id="g-root-cu_8znnxmpam39k-stroke" data-item-order="0" transform="translate(567, 370)"><g id="cu_8znnxmpam39k-stroke" fill="none" stroke-linecap="round" stroke-linejoin="round" stroke-miterlimit="4" stroke="#969696" stroke-width="2" stroke-dasharray="5.0, 7.0"><g><path d="M 10 10L 13 10L 13.1 10C 16.47715 10.00393 20.199416 10.613028 24.1 11.8C 26.434787 12.503612 29.936878 14.343094 34 16.999999C 38.063122 19.656905 41.565214 21.496387 43.900001 22.199999C 47.800584 23.386973 51.52285 23.996071 54.900001 24.000001L 55 24L 58 24"></path></g></g></g><g id="g-root-cu_8znnxmpam39q-stroke" data-item-order="0" transform="translate(339, 216)"><g id="cu_8znnxmpam39q-stroke" fill="none" stroke-linecap="round" stroke-linejoin="round" stroke-miterlimit="4" stroke="#969696" stroke-width="2" stroke-dasharray="5.0, 7.0"><g><path d="M 58 114L 55 114L 54.9 114C 43.357245 113.999995 33.999997 104.642746 33.999997 93.099996L 34 93L 34 30.9C 33.999998 19.357248 24.64275 10 13.1 10L 13 10L 10 10"></path></g></g></g><g id="g-root-cu_8znnxmpam39n-stroke" data-item-order="0" transform="translate(339, 370)"><g id="cu_8znnxmpam39n-stroke" fill="none" stroke-linecap="round" stroke-linejoin="round" stroke-miterlimit="4" stroke="#969696" stroke-width="2" stroke-dasharray="5.0, 7.0"><g><path d="M 58 10L 55 10L 54.9 10C 50.611929 10.004962 45.995266 11.578824 41.700001 14.500001C 39.147207 16.234511 36.356002 20.403194 34.000002 26.000001C 31.644001 31.596807 28.852796 35.76549 26.300001 37.500001C 22.004737 40.421177 17.388073 41.995039 13.100001 42L 13 42L 10 42"></path></g></g></g><g id="g-root-cu_4ju5t6pam424-stroke" data-item-order="0" transform="translate(507, 84)"><g id="cu_4ju5t6pam424-stroke" fill="none" stroke-linecap="round" stroke-linejoin="round" stroke-miterlimit="4" stroke="#969696" stroke-width="2" stroke-dasharray="5.0, 7.0"><g><path d="M 10 196L 10 172.8L 10 30.9C 10 19.357248 19.357248 10 30.899998 10L 31 10L 34 10"></path></g></g></g><g id="g-root-tx_complian_1q88o2ypaow0b-stroke" data-item-order="0" transform="translate(387, 627)"></g><g id="g-root-cu_8znnxmpam39h-stroke" data-item-order="0" transform="translate(567, 234)"><g id="cu_8znnxmpam39h-stroke" fill="none" stroke-linecap="round" stroke-linejoin="round" stroke-miterlimit="4" stroke="#969696" stroke-width="2" stroke-dasharray="5.0, 7.0"><g><path d="M 10 96L 13 96L 13.1 96C 24.642748 96.000003 33.999998 86.642755 33.999998 75.100003L 34 75L 34 30.9C 33.999999 19.357249 43.357248 10.000001 54.899999 10.000002L 55 10L 58 10"></path></g></g></g><g id="g-root-cu_1qa46i2pam3uq-stroke" data-item-order="0" transform="translate(363, 579)"><g id="cu_1qa46i2pam3uq-stroke" fill="none" stroke-linecap="round" stroke-linejoin="round" stroke-miterlimit="4" stroke="#969696" stroke-width="2" stroke-dasharray="5.0, 7.0"><g><path d="M 10 10L 10 22L 10 34L 19 34L 28 34"></path></g></g></g><g id="g-root-cu_4ju5t6pam421-stroke" data-item-order="0" transform="translate(423, 66)"><g id="cu_4ju5t6pam421-stroke" fill="none" stroke-linecap="round" stroke-linejoin="round" stroke-miterlimit="4" stroke="#969696" stroke-width="2" stroke-dasharray="5.0, 7.0"><g><path d="M 34 214L 34 188.5L 34 30.9C 33.999998 19.357248 24.64275 10 13.1 10L 13 10L 10 10"></path></g></g></g><g id="g-root-tx_datatran_8xs5iipaowzv-stroke" data-item-order="0" transform="translate(51, 255)"></g><g id="g-root-cu_4n4rupam2gx-stroke" data-item-order="0" transform="translate(297, 243)"><g id="cu_4n4rupam2gx-stroke" fill="none" stroke-linecap="round" stroke-linejoin="round" stroke-miterlimit="4" stroke="#969696" stroke-width="2" stroke-dasharray="5.0, 7.0"><g><path d="M 28 10L 28 22L 28 34L 19 34L 10 34"></path></g></g></g><g id="g-root-cu_4n4rupam2h0-stroke" data-item-order="0" transform="translate(297, 243)"><g id="cu_4n4rupam2h0-stroke" fill="none" stroke-linecap="round" stroke-linejoin="round" stroke-miterlimit="4" stroke="#969696" stroke-width="2" stroke-dasharray="5.0, 7.0"><g><path d="M 28 10L 28 40L 28 70L 19 70L 10 70"></path></g></g></g><g id="g-root-cu_1qa46i2pam32m-stroke" data-item-order="0" transform="translate(297, 243)"><g id="cu_1qa46i2pam32m-stroke" fill="none" stroke-linecap="round" stroke-linejoin="round" stroke-miterlimit="4" stroke="#969696" stroke-width="2" stroke-dasharray="5.0, 7.0"><g><path d="M 28 10L 28 22L 28 94C 28.000002 100.627415 22.627419 105.999998 16.000002 105.999998L 15.9 106L 10 106"></path></g></g></g><g id="g-root-tx_datatran_8xs5iipaowzx-stroke" data-item-order="0" transform="translate(39, 327)"></g><g id="g-root-tx_datamini_qofox6paoxse-stroke" data-item-order="0" transform="translate(663, 309)"></g><g id="g-root-cu_1qa46i2pam3ut-stroke" data-item-order="0" transform="translate(363, 579)"><g id="cu_1qa46i2pam3ut-stroke" fill="none" stroke-linecap="round" stroke-linejoin="round" stroke-miterlimit="4" stroke="#969696" stroke-width="2" stroke-dasharray="5.0, 7.0"><g><path d="M 10 10L 10 17.5L 10 58C 10.000002 64.627417 15.372585 70 22.000002 69.999999L 22.1 70L 28 70"></path></g></g></g><g id="g-root-cu_8znnxmpam41u-stroke" data-item-order="0" transform="translate(639, 261)"><g id="cu_8znnxmpam41u-stroke" fill="none" stroke-linecap="round" stroke-linejoin="round" stroke-miterlimit="4" stroke="#969696" stroke-width="2" stroke-dasharray="5.0, 7.0"><g><path d="M 10 10L 10 22L 10 34L 19 34L 28 34"></path></g></g></g><g id="g-root-tx_consentm_qofox6paoxsd-stroke" data-item-order="0" transform="translate(663, 273)"></g><g id="g-root-cu_4n4rupam1ot-stroke" data-item-order="0" transform="translate(639, 261)"><g id="cu_4n4rupam1ot-stroke" fill="none" stroke-linecap="round" stroke-linejoin="round" stroke-miterlimit="4" stroke="#969696" stroke-width="2" stroke-dasharray="5.0, 7.0"><g><path d="M 10 10L 10 17.5L 10 58C 10.000002 64.627417 15.372585 70 22.000002 69.999999L 22.1 70L 28 70"></path></g></g></g><g id="g-root-tx_regulara_2rmcqpaoveq-stroke" data-item-order="0" transform="translate(387, 591)"></g><g id="g-root-tx_dataprot_8xs5iipaowzw-stroke" data-item-order="0" transform="translate(27, 291)"></g><g id="g-root-pers_1lt1gq2paroqr-stroke" data-item-order="1000000000" transform="translate(453, 294)"><g id="pers_1lt1gq2paroqr-stroke" fill="none" stroke-linecap="round" stroke-linejoin="round" stroke-miterlimit="4" stroke="#484848" stroke-width="2"><g><path d="M 35.234287 56.045715L 35.234287 56.045715C 34.439972 56.352219 33.560028 56.352219 32.765713 56.045715L 32.765713 56.045715C 20.070606 51.067886 11.718046 38.824718 11.714286 25.188572L 11.714286 15.142858C 11.714286 13.24931 13.24931 11.714286 15.142858 11.714286L 52.857143 11.714286C 54.750694 11.714286 56.285713 13.24931 56.285713 15.142858L 56.285713 25.154285C 56.296062 38.802948 47.941048 51.063316 35.234283 56.045712ZM 25.428572 28.857143C 25.428572 33.591011 29.266132 37.428574 34 37.428574C 38.733868 37.428574 42.57143 33.591011 42.57143 28.857143C 42.57143 24.123276 38.733868 20.285715 34 20.285715C 29.266132 20.285715 25.428572 24.123276 25.428572 28.857143M 21.142857 48.365715C 24.397139 44.675705 29.07999 42.561794 34 42.561794C 38.920013 42.561794 43.602863 44.675705 46.857143 48.365715"></path></g></g></g><g id="g-root-tx_datapriv_1q8uyuiparnyi-stroke" data-item-order="1000000000" transform="translate(411, 348)"></g><g id="g-root-tx_datacoll_1luwvzepat2q7-stroke" data-item-order="1000000000" transform="translate(663, 222)"></g><g id="g-root-lock_1utoctmpa81s6-stroke" data-item-order="1000000000" transform="translate(627, 369)"><g id="lock_1utoctmpa81s6-stroke" fill="none" stroke-linecap="round" stroke-linejoin="round" stroke-miterlimit="4" stroke="#ba5de5" stroke-width="2"><g><path d="M 24.401249 39.388748L 11.90125 39.388748C 11.210894 39.388748 10.65125 38.829105 10.65125 38.138748L 10.65125 11.88875C 10.65125 11.198394 11.210894 10.63875 11.90125 10.63875L 28.5175 10.63875C 28.848278 10.637493 29.166067 10.767396 29.401249 11L 34.035 15.63375C 34.26944 15.868116 34.401176 16.186007 34.401249 16.5175L 34.401249 20.63875M 15.65125 27.4L 19.34375 23.7075C 19.707949 23.344053 20.277813 23.28759 20.706251 23.5725L 22.4475 24.733749C 22.886637 25.026175 23.472776 24.958523 23.83375 24.57375L 27.25625 20.922501M 15.65125 18.13875L 15.65125 30.63875L 23.151249 30.63875M 29.401249 29.38875L 38.151249 29.38875C 38.151249 29.38875 39.401249 29.38875 39.401249 30.63875L 39.401249 38.137501C 39.401249 38.137501 39.401249 39.387501 38.151249 39.387501L 29.401249 39.387501C 29.401249 39.387501 28.151249 39.387501 28.151249 38.137501L 28.151249 30.63875C 28.151249 30.63875 28.151249 29.38875 29.401249 29.38875M 32.213749 34.467499C 32.213749 35.330444 32.913307 36.029999 33.776249 36.029999C 34.639198 36.029999 35.338749 35.330444 35.338749 34.467499C 35.338749 33.604553 34.639198 32.904999 33.776249 32.904999C 32.913307 32.904999 32.213749 33.604553 32.213749 34.467499M 36.901249 27.51375C 36.901249 25.787861 35.50214 24.38875 33.776249 24.38875C 32.050362 24.38875 30.651249 25.787861 30.651249 27.51375L 30.651249 29.38875L 36.901249 29.38875Z"></path></g></g></g><g id="g-root-tx_datastor_dj7u96pa82rx-stroke" data-item-order="1000000000" transform="translate(663, 372)"></g><g id="g-root-tx_dataacce_qtfhm2paroqs-stroke" data-item-order="1000000000" transform="translate(171, 390)"></g><g id="g-root-lock_1qclzoqparpcd-stroke" data-item-order="1000000000" transform="translate(297, 387)"><g id="lock_1qclzoqparpcd-stroke" fill="none" stroke-linecap="round" stroke-linejoin="round" stroke-miterlimit="4" stroke="#1eabda" stroke-width="2"><g><path d="M 25.953749 32.184998L 13.36125 32.184998C 11.918693 32.18362 10.749999 31.013809 10.75 29.571251L 10.75 13.23875C 10.749999 11.796191 11.918693 10.62638 13.36125 10.625L 32.96125 10.625C 34.404297 10.62569 35.573753 11.795704 35.573753 13.23875L 35.57375 21.158751M 10.7475 15.72875L 35.57375 15.72875M 10.7475 26.5725L 25.953749 26.5725M 10.7475 21.158751L 35.57375 21.158751M 20.887501 15.72875L 20.887501 32.184998M 28.157499 15.72875L 28.157499 24.50375M 28.545 31.940001C 28.545 30.913441 29.37719 30.081251 30.403749 30.081251L 37.393753 30.081251C 38.419334 30.082628 39.25 30.914417 39.25 31.940001L 39.25 37.516251C 39.25 38.541836 38.419334 39.373619 37.393749 39.375L 30.403749 39.375C 29.37719 39.375 28.545 38.542809 28.545 37.516251ZM 33.89875 24.5L 33.89875 24.5C 31.886976 24.541687 30.289545 26.2057 30.33 28.217499L 30.33 30.077499L 37.467503 30.077499L 37.467503 28.221249C 37.510056 26.207998 35.912018 24.541676 33.89875 24.5ZM 33.89875 33.42625C 33.349682 33.403801 32.842079 33.717323 32.616337 34.218346C 32.390594 34.719368 32.492027 35.307301 32.872601 35.703716C 33.253178 36.100132 33.836487 36.225449 34.346291 36.020313C 34.856102 35.815178 35.190052 35.320782 35.190002 34.771252C 35.204643 34.043343 34.626644 33.441284 33.89875 33.42625L 33.89875 33.42625"></path></g></g></g><g id="g-root-diag_1lvjmjupadnns-stroke" data-item-order="1000000000" transform="translate(297, 201)"><g id="diag_1lvjmjupadnns-stroke" fill="none" stroke-linecap="round" stroke-linejoin="round" stroke-miterlimit="4" stroke="#de8431" stroke-width="2"><g><path d="M 13.214286 28.214285L 30.357141 11.071428M 30.357141 18.571428L 30.357141 11.071428L 30.357141 11.071428L 22.857143 11.071428M 36.785713 21.785713L 19.642857 38.92857M 19.642857 31.42857L 19.642857 38.92857L 19.642857 38.92857L 27.142857 38.92857"></path></g></g></g><g id="g-root-tx_crossbor_1qbd4oapadmvj-stroke" data-item-order="1000000000" transform="translate(27, 204)"></g><g id="g-root-tx_document_1ulk9uypaf2te-stroke" data-item-order="1000000000" transform="translate(579, 72)"></g><g id="g-root-chec_zk2p62paowzn-stroke" data-item-order="1000000000" transform="translate(351, 537)"><g id="chec_zk2p62paowzn-stroke" fill="none" stroke-linecap="round" stroke-linejoin="round" stroke-miterlimit="4" stroke="#de58a9" stroke-width="2"><g><path d="M 30.357141 13.214286L 33.571426 13.214286C 34.754894 13.214286 35.714287 14.173676 35.714287 15.357142L 35.714287 36.785713C 35.714287 37.969181 34.754894 38.92857 33.571426 38.92857L 16.428572 38.92857C 15.245104 38.92857 14.285714 37.969181 14.285714 36.785713L 14.285714 15.357142C 14.285714 14.173676 15.245104 13.214286 16.428572 13.214286L 19.642857 13.214286M 21.785713 11.071428L 28.214285 11.071428C 28.214285 11.071428 30.357141 11.071428 30.357141 13.214286L 30.357141 14.285714C 30.357141 14.285714 30.357141 16.428572 28.214285 16.428572L 21.785713 16.428572C 21.785713 16.428572 19.642857 16.428572 19.642857 14.285714L 19.642857 13.214286C 19.642857 13.214286 19.642857 11.071428 21.785713 11.071428M 19.642857 28.214285L 23.928572 31.42857L 29.285713 22.857143"></path></g></g></g><g id="g-root-tx_complian_13zw7aipaow7e-stroke" data-item-order="1000000000" transform="translate(387, 540)"></g><g id="g-root-fold_1ulk9uypaf2tf-stroke" data-item-order="1000000000" transform="translate(543, 69)"><g id="fold_1ulk9uypaf2tf-stroke" fill="none" stroke-linecap="round" stroke-linejoin="round" stroke-miterlimit="4" stroke="#92bd39" stroke-width="2"><g><path d="M 33.125 27.5C 33.125 27.154823 32.845177 26.875 32.5 26.875L 29.375 26.875L 29.375 23.75C 29.375 23.404823 29.095177 23.125 28.75 23.125L 26.25 23.125C 25.904823 23.125 25.625 23.404823 25.625 23.75L 25.625 26.875L 22.5 26.875C 22.154823 26.875 21.875 27.154823 21.875 27.5L 21.875 30C 21.875 30.345177 22.154823 30.625 22.5 30.625L 25.625 30.625L 25.625 33.75C 25.625 34.095177 25.904823 34.375 26.25 34.375L 28.75 34.375C 29.095177 34.375 29.375 34.095177 29.375 33.75L 29.375 30.625L 32.5 30.625C 32.845177 30.625 33.125 30.345177 33.125 30ZM 13.75 38.125L 35.625 38.125C 37.696068 38.125 39.375 36.446068 39.375 34.375L 39.375 20C 39.375 19.654821 39.095177 19.375 38.75 19.375L 17.5 19.375C 17.154821 19.375 16.875 19.654821 16.875 20L 16.875 35C 16.875 36.725891 15.47589 38.125 13.75 38.125C 12.02411 38.125 10.625 36.725891 10.625 35L 10.625 12.5C 10.625 12.154822 10.904822 11.875 11.25 11.875L 18.75 11.875C 19.095179 11.875 19.375 12.154822 19.375 12.5L 19.375 15C 19.375 15.345179 19.654821 15.625 20 15.625L 35.625 15.625"></path></g></g></g><g id="g-root-hack_mb46aypam1oj-stroke" data-item-order="1000000000" transform="translate(381, 51)"><g id="hack_mb46aypam1oj-stroke" fill="none" stroke-linecap="round" stroke-linejoin="round" stroke-miterlimit="4" stroke="#7f64ea" stroke-width="2"><g><path d="M 21.875 24.375C 25.671957 24.375 28.75 21.296957 28.75 17.5C 28.75 13.703043 25.671957 10.625 21.875 10.625C 18.078043 10.625 15 13.703043 15 17.5C 15 21.296957 18.078043 24.375 21.875 24.375ZM 15.46625 20C 17.375 20.86375 21.184999 21.125 21.875 16.25M 28.283751 20C 26.377501 20.875 22.565001 21.1325 21.875 16.25M 13.75 16.25L 30 16.25M 12.5 31.25L 25.625 31.25M 10.905 35L 23.75 35M 10.625 37.5C 10.623928 33.665485 12.57602 30.09449 15.804349 28.025333C 19.032679 25.956177 23.0926 25.673849 26.57625 27.276251M 39.375 35.625L 28.125 35.625C 29.160534 35.625 30 34.785534 30 33.75L 30 30.625C 30 28.553932 31.678932 26.875002 33.75 26.875002C 35.821068 26.875002 37.5 28.553932 37.5 30.625L 37.5 33.75C 37.5 34.785534 38.339466 35.625 39.375 35.625ZM 35 38.125C 35 38.815353 34.440353 39.375 33.75 39.375C 33.059647 39.375 32.5 38.815353 32.5 38.125"></path></g></g></g><g id="g-root-tx_breachno_qqb7capam422-stroke" data-item-order="1000000000" transform="translate(195, 54)"></g><g id="g-root-bars_1hf3duypat3ig-stroke" data-item-order="1000000000" transform="translate(627, 219)"><g id="bars_1hf3duypat3ig-stroke" fill="none" stroke-linecap="round" stroke-linejoin="round" stroke-miterlimit="4" stroke="#3cc583" stroke-width="2"><g><path d="M 10.55125 34.375L 39.30125 34.375M 15.55125 34.375L 15.55125 28.75C 15.55125 28.404823 15.271428 28.125 14.92625 28.125L 12.42625 28.125C 12.081072 28.125 11.80125 28.404823 11.80125 28.75L 11.80125 34.375M 23.05125 34.375L 23.05125 22.5C 23.05125 22.154823 22.771427 21.875 22.42625 21.875L 19.92625 21.875C 19.581072 21.875 19.30125 22.154823 19.30125 22.5L 19.30125 34.375M 30.55125 34.375L 30.55125 25C 30.55125 24.654823 30.271427 24.375 29.92625 24.375L 27.42625 24.375C 27.081072 24.375 26.80125 24.654823 26.80125 25L 26.80125 34.375M 38.05125 34.375L 38.05125 16.25C 38.05125 15.904821 37.771427 15.625 37.42625 15.625L 34.92625 15.625C 34.581074 15.625 34.30125 15.904821 34.30125 16.25L 34.30125 34.375"></path></g></g></g></g></g></svg>