<?xml version="1.0" encoding="utf-8" standalone="yes"?>
<!DOCTYPE svg PUBLIC "-//W3C//DTD SVG 1.1//EN" "http://www.w3.org/Graphics/SVG/1.1/DTD/svg11.dtd">
<svg width="758" height="710" viewBox="0 0 758 710" style="fill:none;stroke:none;fill-rule:evenodd;clip-rule:evenodd;stroke-linecap:round;stroke-linejoin:round;stroke-miterlimit:1.5;" version="1.1" xmlns="http://www.w3.org/2000/svg" xmlns:xlink="http://www.w3.org/1999/xlink"><style id="fontImports">@import url("https://fonts.googleapis.com/css2?family=Roboto:wght@400;700&amp;display=block");</style><g id="items" style="isolation: isolate"><g id="blend" style="mix-blend-mode: normal"><g id="g-root-5.cu_sy_1uljtyynckq2t-fill" data-item-order="-110246" transform="translate(193, 191)"><g id="5.cu_sy_1uljtyynckq2t-fill" stroke="none" fill="#ffeceb"><g><path d="M 180.239 10L 10 133.686L 94.6439 161.188L 180.239 99L 180.239 10Z"></path></g></g></g><g id="g-root-4.cu_sy_1uljtyynckq2u-fill" data-item-order="-110242" transform="translate(193, 314.685546875)"><g id="4.cu_sy_1uljtyynckq2u-fill" stroke="none" fill="#fff2e5"><g><path d="M 10 10L 75.0256 210.128L 127.338 138.126L 94.6439 37.5025L 10 10Z"></path></g></g></g><g id="g-root-3.cu_sy_1lpwtq2nckqvj-fill" data-item-order="-110238" transform="translate(258.025390625, 442.8125)"><g id="3.cu_sy_1lpwtq2nckqvj-fill" stroke="none" fill="#fffbda"><g><path d="M 10 82.0025L 220.427 82.0025L 168.114 10L 62.3128 10L 10 82.0025Z"></path></g></g></g><g id="g-root-2.cu_sy_1q5qbuinckqv4-fill" data-item-order="-110234" transform="translate(416.1396484375, 314.685546875)"><g id="2.cu_sy_1q5qbuinckqv4-fill" stroke="none" fill="#f4ffdc"><g><path d="M 62.313 210.128L 127.339 10L 42.6944 37.5025L 10 138.126L 62.313 210.128Z"></path></g></g></g><g id="g-root-1.cu_sy_1q5qbuinckqv5-fill" data-item-order="-110230" transform="translate(363.2392578125, 191)"><g id="1.cu_sy_1q5qbuinckqv5-fill" stroke="none" fill="#e3fff2"><g><path d="M 180.239 133.686L 10.0001 10L 10 99L 95.5951 161.188L 180.239 133.686Z"></path></g></g></g><g id="g-root-tx_restrict_qnt7qyncjbwi-fill" data-item-order="0" transform="translate(285, 591)"><g id="tx_restrict_qnt7qyncjbwi-fill" stroke="none" fill="#484848"><g><text style="font: 15px Roboto, sans-serif; white-space: pre;" font-size="15px" font-family="Roboto, sans-serif"><tspan x="17.52" y="31" dominant-baseline="ideographic">Restricts data use to </tspan><tspan x="19.41" y="49" dominant-baseline="ideographic">specified, legitimate </tspan><tspan x="53.05" y="67" dominant-baseline="ideographic">purposes.</tspan></text></g></g></g><g id="g-root-tx_ensuresd_dcz6gqncjabo-fill" data-item-order="0" transform="translate(471, 159)"><g id="tx_ensuresd_dcz6gqncjabo-fill" stroke="none" fill="#484848"><g><text style="font: 15px Roboto, sans-serif; white-space: pre;" font-size="15px" font-family="Roboto, sans-serif"><tspan x="12" y="31" dominant-baseline="ideographic">Ensures data </tspan><tspan x="12" y="49" dominant-baseline="ideographic">processing is grounded </tspan><tspan x="12" y="67" dominant-baseline="ideographic">in legal justification.</tspan></text></g></g></g><g id="g-root-chec_8djeincul1d-fill" data-item-order="0" transform="translate(273, 261)"></g><g id="g-root-hamm_v48ubenccbgg-fill" data-item-order="0" transform="translate(406, 261)"></g><g id="g-root-tx_requires_1ulk9runcjabk-fill" data-item-order="0" transform="translate(99, 159)"><g id="tx_requires_1ulk9runcjabk-fill" stroke="none" fill="#484848"><g><text style="font: 15px Roboto, sans-serif; white-space: pre;" font-size="15px" font-family="Roboto, sans-serif"><tspan x="35.17" y="28" dominant-baseline="ideographic">Requires data to be </tspan><tspan x="12.77" y="46" dominant-baseline="ideographic">correct and up-to-date.</tspan></text></g></g></g><g id="g-root-tx_lawfulba_1umt7y2ncjcht-fill" data-item-order="0" transform="translate(471, 123)"><g id="tx_lawfulba_1umt7y2ncjcht-fill" stroke="none" fill="#3cc583"><g><text style="font: bold 20px Roboto, sans-serif; white-space: pre;" font-weight="bold" font-size="20px" font-family="Roboto, sans-serif"><tspan x="12" y="34" dominant-baseline="ideographic">Lawful Basis</tspan></text></g></g></g><g id="g-root-tx_storagel_dcz6gqncjabp-fill" data-item-order="0" transform="translate(87, 333)"><g id="tx_storagel_dcz6gqncjabp-fill" stroke="none" fill="#de8431"><g><text style="font: bold 20px Roboto, sans-serif; white-space: pre;" font-weight="bold" font-size="20px" font-family="Roboto, sans-serif"><tspan x="33.95" y="34" dominant-baseline="ideographic">Storage </tspan><tspan x="13.22" y="58" dominant-baseline="ideographic">Limitation</tspan></text></g></g></g><g id="g-root-scal_1cza54qncuj9r-fill" data-item-order="0" transform="translate(327, 333)"></g><g id="g-root-tx_datamini_1io3encjbwn-fill" data-item-order="0" transform="translate(543.076171875, 357)"><g id="tx_datamini_1io3encjbwn-fill" stroke="none" fill="#92bd39"><g><text style="font: bold 20px Roboto, sans-serif; white-space: pre;" font-weight="bold" font-size="20px" font-family="Roboto, sans-serif"><tspan x="12" y="34" dominant-baseline="ideographic">Data Minimization</tspan></text></g></g></g><g id="g-root-tx_mandates_qnt7qyncjbwh-fill" data-item-order="0" transform="translate(15, 393)"><g id="tx_mandates_qnt7qyncjbwh-fill" stroke="none" fill="#484848"><g><text style="font: 15px Roboto, sans-serif; white-space: pre;" font-size="15px" font-family="Roboto, sans-serif"><tspan x="31.7" y="31" dominant-baseline="ideographic">Mandates timely data </tspan><tspan x="15.77" y="49" dominant-baseline="ideographic">deletion to prevent over-</tspan><tspan x="112.59" y="67" dominant-baseline="ideographic">retention.</tspan></text></g></g></g><g id="g-root-hour_1hd7yiinckr9i-fill" data-item-order="0" transform="translate(237, 381)"></g><g id="g-root-cut_1q5qrnencjabz-fill" data-item-order="0" transform="translate(441, 381)"></g><g id="g-root-tx_advocate_hs67i2ncjcp7-fill" data-item-order="0" transform="translate(543, 393)"><g id="tx_advocate_hs67i2ncjcp7-fill" stroke="none" fill="#484848"><g><text style="font: 15px Roboto, sans-serif; white-space: pre;" font-size="15px" font-family="Roboto, sans-serif"><tspan x="12" y="28" dominant-baseline="ideographic">Advocates for collecting </tspan><tspan x="12" y="46" dominant-baseline="ideographic">only necessary data.</tspan></text></g></g></g><g id="g-root-tx_accuracy_1umt7y2ncjchs-fill" data-item-order="0" transform="translate(159, 123)"><g id="tx_accuracy_1umt7y2ncjchs-fill" stroke="none" fill="#e55753"><g><text style="font: bold 20px Roboto, sans-serif; white-space: pre;" font-weight="bold" font-size="20px" font-family="Roboto, sans-serif"><tspan x="20.31" y="34" dominant-baseline="ideographic">Accuracy</tspan></text></g></g></g><g id="g-root-cros_1d154l6nckohx-fill" data-item-order="0" transform="translate(339, 455)"></g><g id="g-root-tx_purposel_4hc67uncjb4e-fill" data-item-order="0" transform="translate(315, 531)"><g id="tx_purposel_4hc67uncjb4e-fill" stroke="none" fill="#e0cb15"><g><text style="font: bold 20px Roboto, sans-serif; white-space: pre;" font-weight="bold" font-size="20px" font-family="Roboto, sans-serif"><tspan x="20.47" y="34" dominant-baseline="ideographic">Purpose </tspan><tspan x="12.61" y="58" dominant-baseline="ideographic">Limitation</tspan></text></g></g></g><g id="g-root-tx_ensuring_1hapsoqnckoi2-fill" data-item-order="0" transform="translate(117, 39)"><g id="tx_ensuring_1hapsoqnckoi2-fill" stroke="none" fill="#484848"><g><text style="font: 20px Roboto, sans-serif; white-space: pre;" font-size="20px" font-family="Roboto, sans-serif"><tspan x="14.5" y="34" dominant-baseline="ideographic">Ensuring Compliance with GDPR's Core Principles and </tspan><tspan x="191.8" y="58" dominant-baseline="ideographic">Requirements</tspan></text></g></g></g><g id="g-root-5.cu_sy_1uljtyynckq2t-stroke" data-item-order="-110246" transform="translate(193, 191)"><g id="5.cu_sy_1uljtyynckq2t-stroke" fill="none" stroke-linecap="round" stroke-linejoin="round" stroke-miterlimit="4" stroke="#e55753" stroke-width="2"><g><path d="M 180.2391 10L 10 133.686L 94.6439 161.1885L 180.239 99L 180.2391 10Z"></path></g></g></g><g id="g-root-4.cu_sy_1uljtyynckq2u-stroke" data-item-order="-110242" transform="translate(193, 314.685546875)"><g id="4.cu_sy_1uljtyynckq2u-stroke" fill="none" stroke-linecap="round" stroke-linejoin="round" stroke-miterlimit="4" stroke="#de8431" stroke-width="2"><g><path d="M 10 10L 75.0256 210.1281L 127.3383 138.1256L 94.6439 37.5025L 10 10Z"></path></g></g></g><g id="g-root-3.cu_sy_1lpwtq2nckqvj-stroke" data-item-order="-110238" transform="translate(258.025390625, 442.8125)"><g id="3.cu_sy_1lpwtq2nckqvj-stroke" fill="none" stroke-linecap="round" stroke-linejoin="round" stroke-miterlimit="4" stroke="#e0cb15" stroke-width="2"><g><path d="M 10 82.0025L 220.4271 82.0025L 168.1141 10L 62.3128 10L 10 82.0025Z"></path></g></g></g><g id="g-root-2.cu_sy_1q5qbuinckqv4-stroke" data-item-order="-110234" transform="translate(416.1396484375, 314.685546875)"><g id="2.cu_sy_1q5qbuinckqv4-stroke" fill="none" stroke-linecap="round" stroke-linejoin="round" stroke-miterlimit="4" stroke="#92bd39" stroke-width="2"><g><path d="M 62.313 210.1281L 127.3386 10L 42.6944 37.5025L 10 138.1256L 62.313 210.1281Z"></path></g></g></g><g id="g-root-1.cu_sy_1q5qbuinckqv5-stroke" data-item-order="-110230" transform="translate(363.2392578125, 191)"><g id="1.cu_sy_1q5qbuinckqv5-stroke" fill="none" stroke-linecap="round" stroke-linejoin="round" stroke-miterlimit="4" stroke="#3cc583" stroke-width="2"><g><path d="M 180.2393 133.686L 10.0001 10L 10 99L 95.5951 161.1885L 180.2393 133.686Z"></path></g></g></g><g id="g-root-tx_restrict_qnt7qyncjbwi-stroke" data-item-order="0" transform="translate(285, 591)"></g><g id="g-root-tx_ensuresd_dcz6gqncjabo-stroke" data-item-order="0" transform="translate(471, 159)"></g><g id="g-root-chec_8djeincul1d-stroke" data-item-order="0" transform="translate(273, 261)"><g id="chec_8djeincul1d-stroke" fill="none" stroke-linecap="round" stroke-linejoin="round" stroke-miterlimit="4" stroke="#e55753" stroke-width="2"><g><path d="M 42.57143 15.142858L 47.714287 15.142858C 49.607834 15.142858 51.142857 16.677881 51.142857 18.571428L 51.142857 52.857143C 51.142857 54.750694 49.607834 56.285713 47.714287 56.285713L 20.285715 56.285713C 18.392166 56.285713 16.857143 54.750694 16.857143 52.857143L 16.857143 18.571428C 16.857143 16.677881 18.392166 15.142858 20.285715 15.142858L 25.428572 15.142858M 28.857143 11.714286L 39.142857 11.714286C 39.142857 11.714286 42.57143 11.714286 42.57143 15.142858L 42.57143 16.857143C 42.57143 16.857143 42.57143 20.285715 39.142857 20.285715L 28.857143 20.285715C 28.857143 20.285715 25.428572 20.285715 25.428572 16.857143L 25.428572 15.142858C 25.428572 15.142858 25.428572 11.714286 28.857143 11.714286M 25.428572 39.142857L 32.285713 44.285713L 40.857143 30.571428"></path></g></g></g><g id="g-root-hamm_v48ubenccbgg-stroke" data-item-order="0" transform="translate(406, 261)"><g id="hamm_v48ubenccbgg-stroke" fill="none" stroke-linecap="round" stroke-linejoin="round" stroke-miterlimit="4" stroke="#3cc583" stroke-width="2"><g><path d="M 11.714286 55.565716L 37.428574 55.565716M 34 55.565716L 34 46.994286L 15.142858 46.994286L 15.142858 55.565716M 24.405733 25.727448L 36.697269 13.435908C 36.697269 13.435908 39.121635 11.011545 41.545998 13.435908L 46.976582 18.866488C 46.976582 18.866488 49.400948 21.290855 46.976582 23.715223L 34.685043 36.00676C 34.685043 36.00676 32.260674 38.431126 29.836309 36.00676L 24.405733 30.576181C 24.405733 30.576181 21.981365 28.151814 24.405733 25.727448M 40.857143 29.851429L 56.285713 45.279999"></path></g></g></g><g id="g-root-tx_requires_1ulk9runcjabk-stroke" data-item-order="0" transform="translate(99, 159)"></g><g id="g-root-tx_lawfulba_1umt7y2ncjcht-stroke" data-item-order="0" transform="translate(471, 123)"></g><g id="g-root-tx_storagel_dcz6gqncjabp-stroke" data-item-order="0" transform="translate(87, 333)"></g><g id="g-root-scal_1cza54qncuj9r-stroke" data-item-order="0" transform="translate(327, 333)"><g id="scal_1cza54qncuj9r-stroke" fill="none" stroke-linecap="round" stroke-linejoin="round" stroke-miterlimit="4" stroke="#484848" stroke-width="2"><g><path d="M 60.343002 77.686005C 60.495445 78.143707 60.418446 78.646805 60.136074 79.037964C 59.853703 79.429123 59.400429 79.660599 58.917999 79.659996L 33.082001 79.659996C 32.599571 79.660599 32.146297 79.429123 31.863924 79.037964C 31.581553 78.646805 31.504551 78.143707 31.657 77.686005L 33.052002 73.507004C 33.618587 71.807556 35.208599 70.660965 37 70.659996L 55 70.659996C 56.791397 70.660965 58.381409 71.807556 58.947998 73.506996ZM 52 70.659996L 40 70.659996L 40 67.659996C 40 64.346291 42.686291 61.659996 46 61.659996C 49.313709 61.659996 52 64.346291 52 67.659996ZM 10 10M 46 61.659996L 46 25.66M 50.5 21.16C 50.5 23.645281 48.485283 25.66 46 25.66C 43.514721 25.66 41.5 23.645281 41.5 21.16C 42.138584 18.343214 43.207104 15.641557 44.668003 13.150001C 44.925747 12.652268 45.439491 12.339766 46 12.339766C 46.560509 12.339766 47.074253 12.652268 47.332001 13.15C 48.794842 15.640608 49.863487 18.342575 50.5 21.16ZM 10 10M 19 31.66L 73 31.66M 10 10M 25 31.66L 25 46.66M 35.391998 46.66C 35.829639 46.65556 36.247383 46.84248 36.535706 47.171745C 36.824032 47.501015 36.95417 47.939781 36.891998 48.373001C 36.049343 54.286701 30.985435 58.680191 25.012001 58.680191C 19.038567 58.680191 13.974656 54.286701 13.132 48.373001C 13.06983 47.939781 13.199968 47.501015 13.488291 47.171745C 13.776615 46.84248 14.194363 46.65556 14.632 46.66ZM 10 10M 67 31.66L 67 46.66M 55.875999 46.66C 55.642754 46.661224 55.420284 46.758362 55.26083 46.928596C 55.101376 47.098831 55.018982 47.327171 55.032997 47.559998C 55.486935 53.670616 60.471706 58.457729 66.595673 58.6642C 72.71965 58.870667 78.015526 54.430164 78.879997 48.363998C 78.942169 47.930779 78.812027 47.492012 78.523712 47.162746C 78.235382 46.833481 77.817635 46.646561 77.379997 46.651001Z"></path></g></g></g><g id="g-root-tx_datamini_1io3encjbwn-stroke" data-item-order="0" transform="translate(543.076171875, 357)"></g><g id="g-root-tx_mandates_qnt7qyncjbwh-stroke" data-item-order="0" transform="translate(15, 393)"></g><g id="g-root-hour_1hd7yiinckr9i-stroke" data-item-order="0" transform="translate(237, 381)"><g id="hour_1hd7yiinckr9i-stroke" fill="none" stroke-linecap="round" stroke-linejoin="round" stroke-miterlimit="4" stroke="#de8431" stroke-width="2"><g><path d="M 47 21C 47 28.179703 41.179703 34 34 34C 26.820299 34 21 28.179703 21 21L 21 11L 47 11ZM 47 47C 47 39.820297 41.179703 34 34 34C 26.820299 34 21 39.820297 21 47L 21 57L 47 57ZM 17 11.002L 51 11.002M 17 57.001999L 51 57.001999M 21 49.001999L 28 49.001999L 34 43.001999L 40 49.001999L 47 49.001999M 23.792 29.002001L 44.208 29.002001"></path></g></g></g><g id="g-root-cut_1q5qrnencjabz-stroke" data-item-order="0" transform="translate(441, 381)"><g id="cut_1q5qrnencjabz-stroke" fill="none" stroke-linecap="round" stroke-linejoin="round" stroke-miterlimit="4" stroke="#92bd39" stroke-width="2"><g><path d="M 11 48C 11 51.313709 13.686292 54 17 54C 20.313709 54 23 51.313709 23 48C 23 44.686291 20.313709 42 17 42C 13.686292 42 11 44.686291 11 48ZM 11 20C 11 23.313709 13.686292 26 17 26C 20.313709 26 23 23.313709 23 20C 23 16.686291 20.313709 14 17 14C 13.686292 14 11 16.686291 11 20ZM 31 45L 32 45M 36 45L 38 45M 43 45L 45 45M 50 45L 52 45M 56 45L 57 45M 31.837999 41C 26.351059 35.363754 23.194561 27.863586 23 20M 23 48C 23 32.348 38.091999 13.496 57 22.178001L 26.716 34L 45 41"></path></g></g></g><g id="g-root-tx_advocate_hs67i2ncjcp7-stroke" data-item-order="0" transform="translate(543, 393)"></g><g id="g-root-tx_accuracy_1umt7y2ncjchs-stroke" data-item-order="0" transform="translate(159, 123)"></g><g id="g-root-cros_1d154l6nckohx-stroke" data-item-order="0" transform="translate(339, 455)"><g id="cros_1d154l6nckohx-stroke" fill="none" stroke-linecap="round" stroke-linejoin="round" stroke-miterlimit="4" stroke="#e0cb15" stroke-width="2"><g><path d="M 34 34L 42.57143 25.428572M 49.428574 27.142857L 42.57143 25.428572L 40.857143 18.571428L 47.714287 11.714286L 49.428574 18.571428L 56.285713 20.285715L 49.428574 27.142857ZM 56.285713 40.857143L 40.857143 56.285713M 40.857143 40.857143L 56.285713 56.285713M 31.874287 56.182858C 20.442482 55.087448 11.714928 45.484165 11.714286 34L 11.714286 34C 11.705386 22.28989 20.773972 12.576759 32.457142 11.782857M 32.354286 44.285713C 27.323978 43.470795 23.648705 39.09547 23.714287 34L 23.714287 34C 23.715775 29.776375 26.29911 25.98295 30.228573 24.434286"></path></g></g></g><g id="g-root-tx_purposel_4hc67uncjb4e-stroke" data-item-order="0" transform="translate(315, 531)"></g><g id="g-root-tx_ensuring_1hapsoqnckoi2-stroke" data-item-order="0" transform="translate(117, 39)"></g></g></g></svg>