<?xml version="1.0" encoding="utf-8" standalone="yes"?>
<!DOCTYPE svg PUBLIC "-//W3C//DTD SVG 1.1//EN" "http://www.w3.org/Graphics/SVG/1.1/DTD/svg11.dtd">
<svg width="698" height="662" viewBox="0 0 698 662" style="fill:none;stroke:none;fill-rule:evenodd;clip-rule:evenodd;stroke-linecap:round;stroke-linejoin:round;stroke-miterlimit:1.5;" version="1.1" xmlns="http://www.w3.org/2000/svg" xmlns:xlink="http://www.w3.org/1999/xlink"><style id="fontImports">@import url("https://fonts.googleapis.com/css2?family=Shantell+Sans:wght@300..800&amp;display=block");</style><g id="items" style="isolation: isolate"><g id="blend" style="mix-blend-mode: normal"><g id="g-root-4.cr-small-4_cr_8vwmwj1tixt72-fill" data-item-order="-129445" transform="translate(171, 327)"><g id="4.cr-small-4_cr_8vwmwj1tixt72-fill" stroke="none" fill="#ffe4cb"><g><path d="M 10 46C 10 65.882251 26.117749 82 46 82C 65.882251 82 82 65.882251 82 46C 82 26.117749 65.882251 10 46 10C 26.117749 10 10 26.117749 10 46"></path></g></g></g><g id="g-root-4.line_sy_4g34s31tixtzb-fill" data-item-order="-129440" transform="translate(217.68096923828125, 422.7255859375)"></g><g id="g-root-3.cr-small-3_cr_4g34s31tixtzc-fill" data-item-order="-129437" transform="translate(315, 471)"><g id="3.cr-small-3_cr_4g34s31tixtzc-fill" stroke="none" fill="#fff8b6"><g><path d="M 10 46C 10 65.882251 26.117749 82 46 82C 65.882251 82 82 65.882251 82 46C 82 26.117749 65.882251 10 46 10C 26.117749 10 10 26.117749 10 46"></path></g></g></g><g id="g-root-3.line_sy_4g34s31tixtzd-fill" data-item-order="-129432" transform="translate(410.5244140625, 420.2138671875)"></g><g id="g-root-2.cr-small-2_cr_4g34s31tixtze-fill" data-item-order="-129429" transform="translate(458.5849609375, 327)"><g id="2.cr-small-2_cr_4g34s31tixtze-fill" stroke="none" fill="#e9ffb9"><g><path d="M 10 46C 10 65.882251 26.117749 82 46 82C 65.882251 82 82 65.882251 82 46C 82 26.117749 65.882251 10 46 10C 26.117749 10 10 26.117749 10 46"></path></g></g></g><g id="g-root-2.line_sy_w3qr1tixrlv-fill" data-item-order="-129424" transform="translate(407.9990234375, 228.115234375)"></g><g id="g-root-1.cr-small-1_cr_w3qr1tixrlw-fill" data-item-order="-129421" transform="translate(315, 183)"><g id="1.cr-small-1_cr_w3qr1tixrlw-fill" stroke="none" fill="#c8ffe5"><g><path d="M 10 46C 10 65.882251 26.117749 82 46 82C 65.882251 82 82 65.882251 82 46C 82 26.117749 65.882251 10 46 10C 26.117749 10 10 26.117749 10 46"></path></g></g></g><g id="g-root-1.line_sy_w3qr1tixrlx-fill" data-item-order="-129416" transform="translate(216.62109375, 229.6142578125)"></g><g id="g-root-0.cr-big_cr_w3qr1tixrly-fill" data-item-order="-129379" transform="translate(267, 279)"><g id="0.cr-big_cr_w3qr1tixrly-fill" stroke="none" fill="#ebebeb"><g><path d="M 10 94C 10.000002 140.391921 47.608083 178.000002 94.000002 178.000002C 140.391921 178.000002 178.000002 140.391921 178.000002 94.000002C 178.000002 47.608083 140.391921 10.000002 94.000002 10.000002C 47.608083 10.000002 10.000002 47.608083 10.000002 94.000002"></path></g></g></g><g id="g-root-tx_apigover_1lsf5rn1tj3g97-fill" data-item-order="0" transform="translate(201, 27)"><g id="tx_apigover_1lsf5rn1tj3g97-fill" stroke="none" fill="#484848"><g><text style="font: bold 25px &quot;Shantell Sans&quot;, cursive; white-space: pre;" font-weight="bold" font-size="25px" font-family="'Shantell Sans', cursive"><tspan x="15.76" y="44.5" dominant-baseline="ideographic">API Governance Cycle</tspan></text></g></g></g><g id="g-root-tx_establis_1lsf5rn1tj3g96-fill" data-item-order="0" transform="translate(297, 123)"><g id="tx_establis_1lsf5rn1tj3g96-fill" stroke="none" fill="#484848"><g><text style="font: 20px &quot;Shantell Sans&quot;, cursive; white-space: pre;" font-size="20px" font-family="'Shantell Sans', cursive"><tspan x="20.07" y="35.5" dominant-baseline="ideographic">Establish </tspan><tspan x="13.81" y="59.5" dominant-baseline="ideographic">Standards</tspan></text></g></g></g><g id="g-root-asp_2rm5v1tj3eva-fill" data-item-order="0" transform="translate(327, 195)"></g><g id="g-root-incr_8vwt831tinxmu-fill" data-item-order="0" transform="translate(321, 303)"></g><g id="g-root-tx_conducta_1q88nw31tj3fgv-fill" data-item-order="0" transform="translate(75, 339)"><g id="tx_conducta_1q88nw31tj3fgv-fill" stroke="none" fill="#484848"><g><text style="font: 20px &quot;Shantell Sans&quot;, cursive; white-space: pre;" font-size="20px" font-family="'Shantell Sans', cursive"><tspan x="13.79" y="35.5" dominant-baseline="ideographic">Conduct </tspan><tspan x="29.42" y="59.5" dominant-baseline="ideographic">Audits</tspan></text></g></g></g><g id="g-root-chec_hvwyr71tj4umg-fill" data-item-order="0" transform="translate(183, 339)"></g><g id="g-root-2_1hbz6k31tiweff-fill" data-item-order="0" transform="translate(471, 339)"></g><g id="g-root-tx_ensureco_1uo260j1tj3fgh-fill" data-item-order="0" transform="translate(543, 339)"><g id="tx_ensureco_1uo260j1tj3fgh-fill" stroke="none" fill="#484848"><g><text style="font: 20px &quot;Shantell Sans&quot;, cursive; white-space: pre;" font-size="20px" font-family="'Shantell Sans', cursive"><tspan x="12" y="35.5" dominant-baseline="ideographic">Ensure </tspan><tspan x="12" y="59.5" dominant-baseline="ideographic">Compliance</tspan></text></g></g></g><g id="g-root-tx_apigover_1lsf5rn1tj3g98-fill" data-item-order="0" transform="translate(291.0009765625, 375.009765625)"><g id="tx_apigover_1lsf5rn1tj3g98-fill" stroke="none" fill="#969696"><g><text style="font: 20px &quot;Shantell Sans&quot;, cursive; white-space: pre;" font-size="20px" font-family="'Shantell Sans', cursive"><tspan x="51.69" y="35.5" dominant-baseline="ideographic">API </tspan><tspan x="12.53" y="59.5" dominant-baseline="ideographic">Governance</tspan></text></g></g></g><g id="g-root-docu_v308oj1tipdl2-fill" data-item-order="0" transform="translate(327, 483)"></g><g id="g-root-tx_document_1uo260j1tj3fgg-fill" data-item-order="0" transform="translate(297, 555)"><g id="tx_document_1uo260j1tj3fgg-fill" stroke="none" fill="#484848"><g><text style="font: 20px &quot;Shantell Sans&quot;, cursive; white-space: pre;" font-size="20px" font-family="'Shantell Sans', cursive"><tspan x="13.02" y="35.5" dominant-baseline="ideographic">Document </tspan><tspan x="14.29" y="59.5" dominant-baseline="ideographic">Processes</tspan></text></g></g></g><g id="g-root-4.cr-small-4_cr_8vwmwj1tixt72-stroke" data-item-order="-129445" transform="translate(171, 327)"><g id="4.cr-small-4_cr_8vwmwj1tixt72-stroke" fill="none" stroke-linecap="round" stroke-linejoin="round" stroke-miterlimit="4" stroke="#ffffff" stroke-width="2"><g><path d="M 10 46C 10 65.882251 26.117749 82 46 82C 65.882251 82 82 65.882251 82 46C 82 26.117749 65.882251 10 46 10C 26.117749 10 10 26.117749 10 46"></path></g></g></g><g id="g-root-4.line_sy_4g34s31tixtzb-stroke" data-item-order="-129440" transform="translate(217.68096923828125, 422.7255859375)"><g id="4.line_sy_4g34s31tixtzb-stroke" fill="none" stroke-linecap="round" stroke-linejoin="round" stroke-miterlimit="4" stroke="#666666" stroke-width="4"><g><path d="M 11.189031 12.574414C 26.359031 44.724414 52.899031 70.454414 85.639031 84.584414"></path><path d="M 23.519031 15.474414L 11.019031 11.874414L 7.419031 24.374414" stroke-dasharray="none"></path></g></g></g><g id="g-root-3.cr-small-3_cr_4g34s31tixtzc-stroke" data-item-order="-129437" transform="translate(315, 471)"><g id="3.cr-small-3_cr_4g34s31tixtzc-stroke" fill="none" stroke-linecap="round" stroke-linejoin="round" stroke-miterlimit="4" stroke="#ffffff" stroke-width="2"><g><path d="M 10 46C 10 65.882251 26.117749 82 46 82C 65.882251 82 82 65.882251 82 46C 82 26.117749 65.882251 10 46 10C 26.117749 10 10 26.117749 10 46"></path></g></g></g><g id="g-root-3.line_sy_4g34s31tixtzd-stroke" data-item-order="-129432" transform="translate(410.5244140625, 420.2138671875)"><g id="3.line_sy_4g34s31tixtzd-stroke" fill="none" stroke-linecap="round" stroke-linejoin="round" stroke-miterlimit="4" stroke="#666666" stroke-width="4"><g><path d="M 12.605586 85.316133C 45.185586 70.076133 71.215586 43.176133 85.345586 9.996133"></path><path d="M 15.575586 72.986133L 11.875586 85.486133L 24.375586 89.186133" stroke-dasharray="none"></path></g></g></g><g id="g-root-2.cr-small-2_cr_4g34s31tixtze-stroke" data-item-order="-129429" transform="translate(458.5849609375, 327)"><g id="2.cr-small-2_cr_4g34s31tixtze-stroke" fill="none" stroke-linecap="round" stroke-linejoin="round" stroke-miterlimit="4" stroke="#ffffff" stroke-width="2"><g><path d="M 10 46C 10 65.882251 26.117749 82 46 82C 65.882251 82 82 65.882251 82 46C 82 26.117749 65.882251 10 46 10C 26.117749 10 10 26.117749 10 46"></path></g></g></g><g id="g-root-2.line_sy_w3qr1tixrlv-stroke" data-item-order="-129424" transform="translate(407.9990234375, 228.115234375)"><g id="2.line_sy_w3qr1tixrlv-stroke" fill="none" stroke-linecap="round" stroke-linejoin="round" stroke-miterlimit="4" stroke="#666666" stroke-width="4"><g><path d="M 85.360977 82.034766C 69.970977 49.724766 43.090977 23.954766 10.000977 10.004766"></path><path d="M 73.000977 79.184766L 85.500977 82.784766L 89.100977 70.284766" stroke-dasharray="none"></path></g></g></g><g id="g-root-1.cr-small-1_cr_w3qr1tixrlw-stroke" data-item-order="-129421" transform="translate(315, 183)"><g id="1.cr-small-1_cr_w3qr1tixrlw-stroke" fill="none" stroke-linecap="round" stroke-linejoin="round" stroke-miterlimit="4" stroke="#ffffff" stroke-width="2"><g><path d="M 10 46C 10 65.882251 26.117749 82 46 82C 65.882251 82 82 65.882251 82 46C 82 26.117749 65.882251 10 46 10C 26.117749 10 10 26.117749 10 46"></path></g></g></g><g id="g-root-1.line_sy_w3qr1tixrlx-stroke" data-item-order="-129416" transform="translate(216.62109375, 229.6142578125)"><g id="1.line_sy_w3qr1tixrlx-stroke" fill="none" stroke-linecap="round" stroke-linejoin="round" stroke-miterlimit="4" stroke="#666666" stroke-width="4"><g><path d="M 81.818906 11.195742C 49.678906 26.495742 24.008906 53.155742 9.998906 85.995742"></path><path d="M 78.978906 23.485742L 82.578906 10.985742L 70.078906 7.485742" stroke-dasharray="none"></path></g></g></g><g id="g-root-0.cr-big_cr_w3qr1tixrly-stroke" data-item-order="-129379" transform="translate(267, 279)"><g id="0.cr-big_cr_w3qr1tixrly-stroke" fill="none" stroke-linecap="round" stroke-linejoin="round" stroke-miterlimit="4" stroke="#ffffff" stroke-width="2"><g><path d="M 10 94C 10.000002 140.391921 47.608083 178.000002 94.000002 178.000002C 140.391921 178.000002 178.000002 140.391921 178.000002 94.000002C 178.000002 47.608083 140.391921 10.000002 94.000002 10.000002C 47.608083 10.000002 10.000002 47.608083 10.000002 94.000002"></path></g></g></g><g id="g-root-tx_apigover_1lsf5rn1tj3g97-stroke" data-item-order="0" transform="translate(201, 27)"></g><g id="g-root-tx_establis_1lsf5rn1tj3g96-stroke" data-item-order="0" transform="translate(297, 123)"></g><g id="g-root-asp_2rm5v1tj3eva-stroke" data-item-order="0" transform="translate(327, 195)"><g id="asp_2rm5v1tj3eva-stroke" fill="none" stroke-linecap="round" stroke-linejoin="round" stroke-miterlimit="4" stroke="#3cc583" stroke-width="2"><g><path d="M 13 20.007999L 55 20.007999C 55 20.007999 57 20.007999 57 22.007999L 57 46.007999C 57 46.007999 57 48.007999 55 48.007999L 13 48.007999C 13 48.007999 11 48.007999 11 46.007999L 11 22.007999C 11 22.007999 11 20.007999 13 20.007999M 21 40L 21 31C 21 29.343147 22.343147 28 24 28C 25.656855 28 27 29.343147 27 31L 27 40M 21 34.007999L 27 34.007999M 37 28L 33.599998 28C 32.448231 27.992489 31.428791 28.743656 31.094774 29.845955C 30.760759 30.948252 31.191784 32.138935 32.153999 32.771999L 35.834 35.225998C 36.796234 35.857189 37.229076 37.045841 36.898022 38.14798C 36.566963 39.250114 35.550777 40.00351 34.400002 40L 31 40M 47 31C 47 32.656853 45.656857 34 44 34L 41 34L 41 28L 44 28C 45.656857 28 47 29.343145 47 31ZM 41 40.007999L 41 34.007999"></path></g></g></g><g id="g-root-incr_8vwt831tinxmu-stroke" data-item-order="0" transform="translate(321, 303)"><g id="incr_8vwt831tinxmu-stroke" fill="none" stroke-linecap="round" stroke-linejoin="round" stroke-miterlimit="4" stroke="#969696" stroke-width="2"><g><path d="M 11.26 68.125L 68.760002 68.125M 21.25 68.125L 21.25 61.875C 21.25 61.184647 20.690357 60.625 20 60.625L 15 60.625C 14.309644 60.625 13.75 61.184647 13.75 61.875L 13.75 68.125M 36.25 68.125L 36.25 51.875C 36.25 51.184647 35.690353 50.625 35 50.625L 30 50.625C 29.309643 50.625 28.75 51.184647 28.75 51.875L 28.75 68.125M 51.25 68.125L 51.25 41.875C 51.25 41.184647 50.690353 40.625 50 40.625L 45 40.625C 44.309647 40.625 43.75 41.184647 43.75 41.875L 43.75 68.125M 66.25 68.125L 66.25 31.875C 66.25 31.184645 65.690353 30.625 65 30.625L 60 30.625C 59.309647 30.625 58.75 31.184645 58.75 31.875L 58.75 68.125M 17.51 43.125L 62.509998 13.125M 61.259998 23.125L 62.509998 13.125L 52.509998 11.875"></path></g></g></g><g id="g-root-tx_conducta_1q88nw31tj3fgv-stroke" data-item-order="0" transform="translate(75, 339)"></g><g id="g-root-chec_hvwyr71tj4umg-stroke" data-item-order="0" transform="translate(183, 339)"><g id="chec_hvwyr71tj4umg-stroke" fill="none" stroke-linecap="round" stroke-linejoin="round" stroke-miterlimit="4" stroke="#de8431" stroke-width="2"><g><path d="M 42.57143 15.142858L 47.714287 15.142858C 49.607834 15.142858 51.142857 16.677881 51.142857 18.571428L 51.142857 52.857143C 51.142857 54.750694 49.607834 56.285713 47.714287 56.285713L 20.285715 56.285713C 18.392166 56.285713 16.857143 54.750694 16.857143 52.857143L 16.857143 18.571428C 16.857143 16.677881 18.392166 15.142858 20.285715 15.142858L 25.428572 15.142858M 28.857143 11.714286L 39.142857 11.714286C 39.142857 11.714286 42.57143 11.714286 42.57143 15.142858L 42.57143 16.857143C 42.57143 16.857143 42.57143 20.285715 39.142857 20.285715L 28.857143 20.285715C 28.857143 20.285715 25.428572 20.285715 25.428572 16.857143L 25.428572 15.142858C 25.428572 15.142858 25.428572 11.714286 28.857143 11.714286M 25.428572 39.142857L 32.285713 44.285713L 40.857143 30.571428"></path></g></g></g><g id="g-root-2_1hbz6k31tiweff-stroke" data-item-order="0" transform="translate(471, 339)"><g id="2_1hbz6k31tiweff-stroke" fill="none" stroke-linecap="round" stroke-linejoin="round" stroke-miterlimit="4" stroke="#92bd39" stroke-width="2"><g><path d="M 23 17.75L 17 17.75L 17 29.75L 23 29.75L 23 23.75L 21 23.75M 39 29.75L 39 17.75M 39 17.75L 41.25 17.75C 43.321068 17.75 45 19.428932 45 21.5C 45 23.571068 43.321068 25.25 41.25 25.25L 39 25.25M 50 29.75L 50 17.75M 50 17.75L 52.25 17.75C 54.321072 17.75 56.000004 19.428932 56.000004 21.5C 56.000004 23.571068 54.321072 25.25 52.250004 25.25L 50 25.25M 56 29.75L 51.5 25.25M 28 17.75L 28 29.75C 31.313709 29.75 34 27.063709 34 23.75C 34 20.436291 31.313709 17.75 28 17.75ZM 15.196 11.5L 56 11.5M 32.195999 36.5L 56 36.5M 12 38.5L 18 38.5C 18 38.5 19 38.5 19 39.5L 19 53.5C 19 53.5 19 54.5 18 54.5L 12 54.5C 12 54.5 11 54.5 11 53.5L 11 39.5C 11 39.5 11 38.5 12 38.5M 19 51.625999C 28 54.625999 31.85 56.5 35.200001 56.5C 40 56.5 43.27 53.486 57 46.625999C 55.618729 44.765095 53.221558 43.966038 51 44.625999L 42.368 47.360001M 19 40.5L 25 40.5C 29.705999 40.5 33 44.5 34 44.5L 41 44.5C 43 44.5 43 48.5 41 48.5L 30 48.5"></path></g></g></g><g id="g-root-tx_ensureco_1uo260j1tj3fgh-stroke" data-item-order="0" transform="translate(543, 339)"></g><g id="g-root-tx_apigover_1lsf5rn1tj3g98-stroke" data-item-order="0" transform="translate(291.0009765625, 375.009765625)"></g><g id="g-root-docu_v308oj1tipdl2-stroke" data-item-order="0" transform="translate(327, 483)"><g id="docu_v308oj1tipdl2-stroke" fill="none" stroke-linecap="round" stroke-linejoin="round" stroke-miterlimit="4" stroke="#e0cb15" stroke-width="2"><g><path d="M 10 10M 51.5 45.810001L 51.226002 45.596001C 45.40836 41.049515 37.21764 41.138374 31.5 45.810001L 30.667999 46.436001C 24.921577 50.745407 16.952999 50.485165 11.5 45.809998L 11.5 23.5L 51.5 23.5ZM 19.5 18.5L 56.5 18.5L 56.5 42.5"></path></g></g></g><g id="g-root-tx_document_1uo260j1tj3fgg-stroke" data-item-order="0" transform="translate(297, 555)"></g></g></g></svg>