<?xml version="1.0" encoding="utf-8" standalone="yes"?>
<!DOCTYPE svg PUBLIC "-//W3C//DTD SVG 1.1//EN" "http://www.w3.org/Graphics/SVG/1.1/DTD/svg11.dtd">
<svg width="650" height="566" viewBox="0 0 650 566" style="fill:none;stroke:none;fill-rule:evenodd;clip-rule:evenodd;stroke-linecap:round;stroke-linejoin:round;stroke-miterlimit:1.5;" version="1.1" xmlns="http://www.w3.org/2000/svg" xmlns:xlink="http://www.w3.org/1999/xlink"><style id="fontImports">@import url("https://fonts.googleapis.com/css2?family=Roboto:wght@400;700&amp;display=block");</style><g id="items" style="isolation: isolate"><g id="blend" style="mix-blend-mode: normal"><g id="g-root-0.cr-big_cr_1luahyypuifwi-fill" data-item-order="-92921" transform="translate(255, 231)"><g id="0.cr-big_cr_1luahyypuifwi-fill" stroke="none" fill="url(#gradient-cbcbcb-248399021)"><g><path d="M 10 70C 10.000003 103.137088 36.862918 130.000003 70.000003 130.000003C 103.137088 130.000003 130.000003 103.137088 130.000003 70.000003C 130.000003 36.862918 103.137088 10.000003 70.000003 10.000003C 36.862918 10.000003 10.000003 36.862918 10.000003 70.000003"></path></g></g></g><g id="g-root-5.cu_sy_1cynhq2puigp7-fill" data-item-order="-92917" transform="translate(178.16015625, 146.935546875)"><g id="5.cu_sy_1cynhq2puigp7-fill" stroke="none" fill="url(#gradient-fdac61-172712277)"><g><path d="M 145.321984 94.034C 146.149984 94.0133 146.822984 93.3436 146.822984 92.5151L 146.823984 63.717C 146.823984 62.2731 144.738984 61.4744 143.511984 62.2354C 141.665984 63.3805 139.486984 64.0384 137.153984 64.0302C 130.526984 64.0071 125.172984 58.6158 125.195984 51.9884C 125.218984 45.361 130.610984 40.0072 137.237984 40.0303C 139.540984 40.0384 141.689984 40.6945 143.512984 41.8254C 144.739984 42.5865 146.824984 41.788 146.824984 40.3441L 146.825984 11.4922C 146.825984 10.6639 146.151984 9.9915 145.323984 10.00008C 85.372584 10.6179 29.793384 48.9299 10.025184 109.0552C 9.938484 109.319 10.082984 109.6026 10.347084 109.6884L 38.703984 118.902C 40.081284 119.35 40.193184 121.597 39.084884 122.529C 37.436884 123.915 36.141684 125.762 35.419584 127.958C 33.349684 134.254 36.775384 141.036 43.071284 143.106C 49.367084 145.176 56.148984 141.75 58.218984 135.454C 58.950384 133.23 58.995584 130.944 58.470584 128.828C 58.121984 127.422 59.533284 125.67 60.910684 126.118L 88.331284 135.027C 89.119184 135.283 89.964484 134.849 90.239784 134.067C 98.710384 110.024 121.074984 94.6399 145.321984 94.034Z"></path></g></g></g><g id="g-root-4.cu_sy_1cynhq2puigp8-fill" data-item-order="-92913" transform="translate(170.95278930664062, 246.8828125)"><g id="4.cu_sy_1cynhq2puigp8-fill" stroke="none" fill="url(#gradient-ffed4b-499785973)"><g><path d="M 96.485531 37.0108C 96.721831 36.2166 96.292931 35.3695 95.504931 35.1135L 68.116631 26.2135C 66.743431 25.7673 65.339431 27.5035 65.684031 28.9057C 66.202631 31.0153 66.154831 33.2914 65.426331 35.5072C 63.356331 41.8031 56.574431 45.2289 50.278631 43.1589C 43.982731 41.0889 40.557031 34.3071 42.626931 28.0112C 43.346231 25.8236 44.634331 23.9825 46.273231 22.5981C 47.376331 21.6664 47.261131 19.4364 45.887931 18.9902L 18.448431 10.0736C 17.660631 9.8176 16.813031 10.2507 16.565131 11.041C -1.373269 68.249 17.888731 132.947 68.962631 170.327C 69.186631 170.491 69.501031 170.442 69.664231 170.217L 87.189831 146.095C 88.041031 144.923 90.212831 145.512 90.757031 146.854C 91.566131 148.849 92.922331 150.652 94.787731 152.017C 100.135731 155.931 107.644331 154.769 111.558031 149.421C 115.473031 144.073 114.310031 136.564 108.962231 132.65C 107.072631 131.267 104.913231 130.518 102.738031 130.363C 101.293431 130.26 100.063031 128.377 100.914331 127.205L 117.861031 103.8796C 118.348031 103.2094 118.196031 102.2712 117.538031 101.7679C 97.289431 86.2822 89.569031 60.2585 96.485531 37.0108Z"></path></g></g></g><g id="g-root-3.cu_sy_18itzlmpuihhh-fill" data-item-order="-92909" transform="translate(230.92340087890625, 340.171875)"><g id="3.cu_sy_18itzlmpuihhh-fill" stroke="none" fill="url(#gradient-bceb57-497517668)"><g><path d="M 60.0193 10.2858C 59.3371 9.8157 58.3989 9.9618 57.9119 10.6321L 40.984 33.9298C 40.1353 35.0979 41.3527 36.9697 42.7927 37.0752C 44.9594 37.234 47.1093 37.9828 48.9916 39.3604C 54.3397 43.2746 55.502 50.7831 51.5878 56.1312C 47.6737 61.4793 40.1651 62.6416 34.8171 58.7274C 32.9588 57.3674 31.6059 55.5734 30.7957 53.5869C 30.2504 52.2499 28.094 51.6702 27.2452 52.8384L 10.2858 76.1795C 9.7989 76.8496 9.9488 77.7896 10.6239 78.2695C 59.4886 113.008 126.972 114.682 178.306 77.6588C 178.531 77.4964 178.581 77.182 178.418 76.9574L 160.892 52.8355C 160.041 51.6639 161.271 49.7801 162.716 49.6773C 164.864 49.5245 166.997 48.7917 168.872 47.4395C 174.248 43.5627 175.462 36.0625 171.586 30.6872C 167.709 25.312 160.209 24.0972 154.833 27.974C 152.934 29.3438 151.554 31.1659 150.735 33.1869C 150.191 34.529 148.019 35.117 147.168 33.9453L 130.221 10.62C 129.734 9.9498 128.795 9.8044 128.113 10.2748C 107.1276 24.747 79.9919 24.0478 60.0193 10.2858Z"></path></g></g></g><g id="g-root-2.cu_sy_18itzlmpuihhi-fill" data-item-order="-92905" transform="translate(350.904541015625, 238.294921875)"><g id="2.cu_sy_18itzlmpuihhi-fill" stroke="none" fill="url(#gradient-64edab-240055791)"><g><path d="M 10.6085 110.379C 9.9505 110.883 9.7996 111.82 10.2866 112.49L 27.2129 135.789C 28.0616 136.957 30.218 136.378 30.7633 135.041C 31.5838 133.029 32.9603 131.216 34.8522 129.852C 40.2274 125.975 47.7277 127.19 51.6044 132.565C 55.4812 137.94 54.2664 145.44 48.8911 149.317C 47.0234 150.664 44.8992 151.397 42.7595 151.553C 41.3195 151.659 40.1019 153.53 40.9506 154.699L 57.9086 178.041C 58.3954 178.711 59.3357 178.859 60.0008 178.365C 108.1392 142.627 130.585 78.963 111.237 18.7012C 111.152 18.4369 110.868 18.2924 110.604 18.3782L 82.2471 27.5919C 80.8697 28.0394 79.4584 26.2871 79.807 24.8815C 80.3254 22.7913 80.2878 20.5359 79.5811 18.3349C 77.5552 12.0247 70.7974 8.5517 64.4872 10.5777C 58.1771 12.6037 54.704 19.3614 56.73 25.6716C 57.4459 27.9012 58.7524 29.7765 60.4213 31.1803C 61.5296 32.1126 61.4177 34.3597 60.0403 34.8073L 32.6197 43.7167C 31.8318 43.9727 31.4034 44.8211 31.6399 45.6151C 38.9191 70.0452 29.8687 95.6367 10.6085 110.379Z"></path></g></g></g><g id="g-root-1.cu_sy_zn6zcqpuiia7-fill" data-item-order="-92901" transform="translate(293.3560791015625, 146.97265625)"><defs><linearGradient id="gradient-cbcbcb-248399021" x2="0" y2="1"><stop offset="0" stop-color="#d9d9d9"></stop><stop offset="1" stop-color="#bcbcbc"></stop></linearGradient><linearGradient id="gradient-fdac61-172712277" x2="0" y2="1"><stop offset="0" stop-color="#ffc188"></stop><stop offset="1" stop-color="#fa963a"></stop></linearGradient><linearGradient id="gradient-ffed4b-499785973" x2="0" y2="1"><stop offset="0" stop-color="#fff282"></stop><stop offset="1" stop-color="#ffe714"></stop></linearGradient><linearGradient id="gradient-bceb57-497517668" x2="0" y2="1"><stop offset="0" stop-color="#cff976"></stop><stop offset="1" stop-color="#a8dd38"></stop></linearGradient><linearGradient id="gradient-64edab-240055791" x2="0" y2="1"><stop offset="0" stop-color="#83fac1"></stop><stop offset="1" stop-color="#44e095"></stop></linearGradient><linearGradient id="gradient-4dd3ff-378786070" x2="0" y2="1"><stop offset="0" stop-color="#7fdfff"></stop><stop offset="1" stop-color="#1ac6ff"></stop></linearGradient></defs><g id="1.cu_sy_zn6zcqpuiia7-fill" stroke="none" fill="url(#gradient-4dd3ff-378786070)"><g><path d="M 88.2674 134.033C 88.5431 134.814 89.388 135.248 90.176 134.992L 117.565 126.093C 118.938 125.647 119.053 123.417 117.95 122.486C 116.291 121.084 114.992 119.214 114.279 116.993C 112.253 110.683 115.726 103.9253 122.036 101.8993C 128.346 99.8734 135.104 103.3464 137.13 109.6566C 137.834 111.849 137.874 114.096 137.361 116.179C 137.017 117.581 138.421 119.318 139.794 118.871L 167.234 109.9566C 168.022 109.7006 168.453 108.8521 168.189 108.067C 149.076 51.2408 95.4637 10.2209 32.1724 10.000003C 31.8948 9.999 31.6697 10.2242 31.6697 10.5018L 31.6697 40.318C 31.6697 41.7663 29.567 42.5671 28.3379 41.8011C 26.5103 40.6622 24.3535 40.001 22.0419 39.9929C 15.4145 39.9698 10.0232 45.3236 10.000074 51.9509C 9.9769 58.5783 15.3307 63.9696 21.9581 63.9928C 24.2998 64.0009 26.4872 63.3378 28.3379 62.1844C 29.567 61.4185 31.6697 62.2193 31.6697 63.6675L 31.6696 92.4993C 31.6696 93.3277 32.3441 93.9974 33.1723 94.0177C 58.6561 94.6441 80.1984 111.16 88.2674 134.033Z"></path></g></g></g><g id="g-root-tx_overview_1430hh6puii9s-fill" data-item-order="0" transform="translate(171, 39)"><g id="tx_overview_1430hh6puii9s-fill" stroke="none" fill="#484848"><g><text style="font: 20px Roboto, sans-serif; white-space: pre;" font-size="20px" font-family="Roboto, sans-serif"><tspan x="15.35" y="34" dominant-baseline="ideographic">Overview of HIPAA Compliance</tspan></text></g></g></g><g id="g-root-tx_business_1q5qut6puig3v-fill" data-item-order="0" transform="translate(99, 87)"><g id="tx_business_1q5qut6puig3v-fill" stroke="none" fill="#484848"><g><text style="font: 20px Roboto, sans-serif; white-space: pre;" font-size="20px" font-family="Roboto, sans-serif"><tspan x="47.03" y="34" dominant-baseline="ideographic">Business </tspan><tspan x="39.53" y="58" dominant-baseline="ideographic">Associate </tspan><tspan x="19.86" y="82" dominant-baseline="ideographic">Agreements</tspan></text></g></g></g><g id="g-root-tx_privacyr_1cuacfupuihov-fill" data-item-order="0" transform="translate(411, 111)"><g id="tx_privacyr_1cuacfupuihov-fill" stroke="none" fill="#484848"><g><text style="font: 20px Roboto, sans-serif; white-space: pre;" font-size="20px" font-family="Roboto, sans-serif"><tspan x="12" y="34" dominant-baseline="ideographic">Privacy Rule </tspan><tspan x="12" y="58" dominant-baseline="ideographic">Compliance</tspan></text></g></g></g><g id="g-root-sign_1hd84u2puh1qa-fill" data-item-order="0" transform="translate(223.80694580078125, 190.259765625)"></g><g id="g-root-view_1q5qut6puig3u-fill" data-item-order="0" transform="translate(343.2205810546875, 179.380859375)"></g><g id="g-root-pers_4kgjnepua2v9-fill" data-item-order="0" transform="translate(279, 254.99609375)"></g><g id="g-root-1_qqxocapuh347-fill" data-item-order="0" transform="translate(390.46728515625, 289.58984375)"></g><g id="g-root-tx_patientr_1lpxcoqpuigw4-fill" data-item-order="0" transform="translate(15, 315)"><g id="tx_patientr_1lpxcoqpuigw4-fill" stroke="none" fill="#484848"><g><text style="font: 20px Roboto, sans-serif; white-space: pre;" font-size="20px" font-family="Roboto, sans-serif"><tspan x="15.75" y="34" dominant-baseline="ideographic">Patient Rights</tspan></text></g></g></g><g id="g-root-hist_mfhenupuo35v-fill" data-item-order="0" transform="translate(197.2518310546875, 307.19140625)"></g><g id="g-root-tx_security_1cuacfupuihou-fill" data-item-order="0" transform="translate(483, 303)"><g id="tx_security_1cuacfupuihou-fill" stroke="none" fill="#484848"><g><text style="font: 20px Roboto, sans-serif; white-space: pre;" font-size="20px" font-family="Roboto, sans-serif"><tspan x="12" y="34" dominant-baseline="ideographic">Security Rule </tspan><tspan x="12" y="58" dominant-baseline="ideographic">Compliance</tspan></text></g></g></g><g id="g-root-1_1hdup2ypuctfy-fill" data-item-order="0" transform="translate(300.2535400390625, 368.580078125)"></g><g id="g-root-tx_breachno_1lpxcoqpuigw5-fill" data-item-order="0" transform="translate(237, 459)"><g id="tx_breachno_1lpxcoqpuigw5-fill" stroke="none" fill="#484848"><g><text style="font: 20px Roboto, sans-serif; white-space: pre;" font-size="20px" font-family="Roboto, sans-serif"><tspan x="56.98" y="34" dominant-baseline="ideographic">Breach </tspan><tspan x="14.42" y="58" dominant-baseline="ideographic">Notification Rule</tspan></text></g></g></g><g id="g-root-0.cr-big_cr_1luahyypuifwi-stroke" data-item-order="-92921" transform="translate(255, 231)"><g id="0.cr-big_cr_1luahyypuifwi-stroke" fill="none" stroke-linecap="round" stroke-linejoin="round" stroke-miterlimit="4" stroke="#484848" stroke-width="2"><g><path d="M 10 70C 10.000003 103.137088 36.862918 130.000003 70.000003 130.000003C 103.137088 130.000003 130.000003 103.137088 130.000003 70.000003C 130.000003 36.862918 103.137088 10.000003 70.000003 10.000003C 36.862918 10.000003 10.000003 36.862918 10.000003 70.000003"></path></g></g></g><g id="g-root-5.cu_sy_1cynhq2puigp7-stroke" data-item-order="-92917" transform="translate(178.16015625, 146.935546875)"><g id="5.cu_sy_1cynhq2puigp7-stroke" fill="none" stroke-linecap="round" stroke-linejoin="round" stroke-miterlimit="4" stroke="#484848" stroke-width="2"><g><path d="M 145.321884 94.034C 146.150184 94.0133 146.823284 93.3436 146.823284 92.5151L 146.824184 63.717C 146.824284 62.2731 144.739184 61.4744 143.512184 62.2354C 141.665984 63.3805 139.486584 64.0384 137.154084 64.0302C 130.526684 64.0071 125.172884 58.6158 125.196084 51.9884C 125.219184 45.361 130.610484 40.0072 137.237884 40.0303C 139.540584 40.0384 141.689584 40.6945 143.512684 41.8254C 144.739684 42.5865 146.824884 41.788 146.824984 40.3441L 146.825884 11.4922C 146.825884 10.6639 146.152084 9.9915 145.323884 10.0001C 85.372584 10.6179 29.793384 48.9299 10.025184 109.0552C 9.938484 109.319 10.082984 109.6026 10.347084 109.6884L 38.703984 118.9021C 40.081284 119.3497 40.193184 121.5969 39.084884 122.5291C 37.436884 123.9154 36.141684 125.7622 35.419584 127.9582C 33.349684 134.254 36.775384 141.0359 43.071284 143.1059C 49.367184 145.1758 56.148984 141.7501 58.218984 135.4542C 58.950384 133.2297 58.995584 130.9445 58.470584 128.8279C 58.121984 127.4223 59.533284 125.67 60.910684 126.1175L 88.331284 135.0271C 89.119184 135.2831 89.964484 134.8485 90.239784 134.0672C 98.710484 110.0242 121.074684 94.6399 145.321884 94.034Z"></path></g></g></g><g id="g-root-4.cu_sy_1cynhq2puigp8-stroke" data-item-order="-92913" transform="translate(170.95278930664062, 246.8828125)"><g id="4.cu_sy_1cynhq2puigp8-stroke" fill="none" stroke-linecap="round" stroke-linejoin="round" stroke-miterlimit="4" stroke="#484848" stroke-width="2"><g><path d="M 96.485531 37.0108C 96.721831 36.2166 96.292931 35.3695 95.504931 35.1135L 68.116631 26.2135C 66.743431 25.7673 65.339431 27.5035 65.684031 28.9057C 66.202631 31.0153 66.154831 33.2914 65.426331 35.5072C 63.356331 41.8031 56.574431 45.2289 50.278631 43.1589C 43.982731 41.0889 40.557031 34.3071 42.626931 28.0112C 43.346231 25.8236 44.634331 23.9825 46.273231 22.5981C 47.376331 21.6664 47.261131 19.4364 45.887931 18.9902L 18.448431 10.0736C 17.660631 9.8176 16.813031 10.2507 16.565131 11.041C -1.373269 68.249 17.888731 132.947 68.962631 170.3274C 69.186631 170.4914 69.501031 170.4416 69.664231 170.217L 87.189831 146.0951C 88.041031 144.9235 90.212831 145.5115 90.757031 146.8537C 91.566131 148.8493 92.922331 150.6519 94.787731 152.0172C 100.135731 155.9314 107.644331 154.769 111.558531 149.4209C 115.472731 144.0729 114.310331 136.5643 108.962231 132.6502C 107.072631 131.2671 104.913231 130.5179 102.738031 130.3632C 101.293431 130.2604 100.063031 128.3766 100.914331 127.205L 117.861231 103.8796C 118.348131 103.2094 118.196131 102.2712 117.538031 101.7679C 97.289431 86.2822 89.569031 60.2585 96.485531 37.0108Z"></path></g></g></g><g id="g-root-3.cu_sy_18itzlmpuihhh-stroke" data-item-order="-92909" transform="translate(230.92340087890625, 340.171875)"><g id="3.cu_sy_18itzlmpuihhh-stroke" fill="none" stroke-linecap="round" stroke-linejoin="round" stroke-miterlimit="4" stroke="#484848" stroke-width="2"><g><path d="M 60.0193 10.2858C 59.3371 9.8157 58.3989 9.9618 57.9119 10.6321L 40.984 33.9298C 40.1353 35.0979 41.3527 36.9697 42.7927 37.0752C 44.9594 37.234 47.1093 37.9828 48.9916 39.3604C 54.3397 43.2746 55.502 50.7831 51.5878 56.1312C 47.6737 61.4793 40.1651 62.6416 34.8171 58.7274C 32.9588 57.3674 31.6059 55.5734 30.7957 53.5869C 30.2504 52.2499 28.094 51.6702 27.2452 52.8384L 10.2858 76.1795C 9.7989 76.8496 9.9488 77.7896 10.6239 78.2695C 59.4886 113.0082 126.9724 114.6817 178.306 77.6588C 178.5311 77.4964 178.5809 77.182 178.4177 76.9574L 160.8922 52.8355C 160.0409 51.6639 161.2713 49.7801 162.7159 49.6773C 164.864 49.5245 166.9974 48.7917 168.8723 47.4395C 174.2476 43.5627 175.4623 36.0625 171.5856 30.6872C 167.7088 25.312 160.2086 24.0972 154.8333 27.974C 152.9341 29.3437 151.5542 31.1659 150.7348 33.1869C 150.1907 34.529 148.0189 35.117 147.1677 33.9453L 130.2209 10.62C 129.7339 9.9498 128.7946 9.8044 128.1126 10.2748C 107.1276 24.747 79.9919 24.0478 60.0193 10.2858Z"></path></g></g></g><g id="g-root-2.cu_sy_18itzlmpuihhi-stroke" data-item-order="-92905" transform="translate(350.904541015625, 238.294921875)"><g id="2.cu_sy_18itzlmpuihhi-stroke" fill="none" stroke-linecap="round" stroke-linejoin="round" stroke-miterlimit="4" stroke="#484848" stroke-width="2"><g><path d="M 10.6085 110.3791C 9.9505 110.8827 9.7996 111.8201 10.2866 112.4904L 27.2129 135.7891C 28.0616 136.9572 30.218 136.3778 30.7633 135.0409C 31.5838 133.0294 32.9603 131.2161 34.8522 129.8516C 40.2274 125.9749 47.7277 127.1897 51.6044 132.5649C 55.4812 137.9402 54.2664 145.4404 48.8911 149.3172C 47.0234 150.6642 44.8992 151.3965 42.7595 151.5532C 41.3195 151.6587 40.1019 153.5304 40.9506 154.6985L 57.9086 178.0408C 58.3954 178.7109 59.3357 178.8588 60.0008 178.3651C 108.1392 142.6268 130.5845 78.963 111.2365 18.7012C 111.1517 18.4369 110.868 18.2924 110.604 18.3782L 82.2471 27.5919C 80.8697 28.0394 79.4584 26.2871 79.807 24.8815C 80.3254 22.7913 80.2878 20.5359 79.5811 18.3349C 77.5552 12.0247 70.7974 8.5517 64.4872 10.5777C 58.1771 12.6036 54.704 19.3614 56.73 25.6716C 57.4459 27.9012 58.7524 29.7765 60.4213 31.1803C 61.5296 32.1126 61.4177 34.3597 60.0403 34.8073L 32.6197 43.7167C 31.8318 43.9727 31.4034 44.8211 31.6399 45.6151C 38.9191 70.0452 29.8687 95.6367 10.6085 110.3791Z"></path></g></g></g><g id="g-root-1.cu_sy_zn6zcqpuiia7-stroke" data-item-order="-92901" transform="translate(293.3560791015625, 146.97265625)"><g id="1.cu_sy_zn6zcqpuiia7-stroke" fill="none" stroke-linecap="round" stroke-linejoin="round" stroke-miterlimit="4" stroke="#484848" stroke-width="2"><g><path d="M 88.2674 134.033C 88.5431 134.8144 89.388 135.2476 90.176 134.9916L 117.5648 126.0934C 118.938 125.6472 119.0533 123.4173 117.9503 122.4855C 116.2908 121.0836 114.9916 119.2141 114.2786 116.9932C 112.2526 110.6831 115.7256 103.9253 122.0358 101.8993C 128.3459 99.8734 135.1037 103.3464 137.1297 109.6566C 137.8336 111.8491 137.8737 114.0957 137.3615 116.1791C 137.0168 117.5812 138.4206 119.3176 139.7939 118.8715L 167.2341 109.9566C 168.0219 109.7006 168.4531 108.8521 168.189 108.067C 149.0755 51.2408 95.4637 10.2209 32.1724 10C 31.8948 9.999 31.6697 10.2242 31.6697 10.5018L 31.6697 40.318C 31.6697 41.7663 29.567 42.5671 28.3379 41.8011C 26.5103 40.6622 24.3535 40.001 22.0419 39.9929C 15.4145 39.9698 10.0232 45.3236 10.0001 51.9509C 9.9769 58.5783 15.3307 63.9696 21.9581 63.9928C 24.2998 64.0009 26.4872 63.3378 28.3379 62.1844C 29.567 61.4185 31.6697 62.2193 31.6697 63.6675L 31.6696 92.4993C 31.6696 93.3277 32.3441 93.9974 33.1723 94.0177C 58.6561 94.6441 80.1984 111.1598 88.2674 134.033Z"></path></g></g></g><g id="g-root-tx_overview_1430hh6puii9s-stroke" data-item-order="0" transform="translate(171, 39)"></g><g id="g-root-tx_business_1q5qut6puig3v-stroke" data-item-order="0" transform="translate(99, 87)"></g><g id="g-root-tx_privacyr_1cuacfupuihov-stroke" data-item-order="0" transform="translate(411, 111)"></g><g id="g-root-sign_1hd84u2puh1qa-stroke" data-item-order="0" transform="translate(223.80694580078125, 190.259765625)"><g id="sign_1hd84u2puh1qa-stroke" fill="none" stroke-linecap="round" stroke-linejoin="round" stroke-miterlimit="4" stroke="#484848" stroke-width="2"><g><path d="M 51 51.299999L 43.139999 52.880001M 44 44L 40.299999 45.52C 39.710167 45.760117 39.049831 45.760117 38.459999 45.52C 37.595543 45.15625 37.022171 44.322277 36.992069 43.384888C 36.961971 42.447498 37.480659 41.578461 38.32 41.16L 42 39.360001C 42.456886 39.12188 42.964787 38.998337 43.48 39C 43.868889 38.998138 44.254971 39.065872 44.620003 39.200001L 51.380001 41.779999M 29 53L 31.799999 53L 36.459999 56.540001C 36.942337 57.094124 37.780907 57.15657 38.34 56.68L 45.34 51.080002C 45.905155 50.60265 45.993374 49.764565 45.540001 49.18L 41.700001 44.939999M 38 41.360001L 37.5 40.940002C 36.998703 40.56221 36.387711 40.358547 35.760002 40.360001C 35.389034 40.36158 35.022026 40.436344 34.68 40.580002L 29 43M 23 55L 27 55C 28.10457 55 29 54.104568 29 53L 29 43C 29 41.895432 28.10457 41 27 41L 23 41M 57 55L 53 55C 51.895432 55 51 54.104568 51 53L 51 43C 51 41.895432 51.895432 41 53 41L 57 41M 44 11L 17 11C 13.686292 11 11 13.686292 11 17L 11 56C 11 56.552284 11.447716 57 12 57L 18 57M 17 19L 33 19M 17 25L 33 25M 17 31L 24 31M 39 36L 39 16C 39 13.238576 41.238579 11 44 11C 46.759998 11 49 13.24 49 17L 39 17"></path></g></g></g><g id="g-root-view_1q5qut6puig3u-stroke" data-item-order="0" transform="translate(343.2205810546875, 179.380859375)"><g id="view_1q5qut6puig3u-stroke" fill="none" stroke-linecap="round" stroke-linejoin="round" stroke-miterlimit="4" stroke="#484848" stroke-width="2"><g><path d="M 34.115997 36.599998L 29.775999 32.293999C 27.024715 29.909632 22.939287 29.909632 20.188 32.293999L 11.5 40.93M 41.344002 31.511999C 40.560604 30.467823 39.331375 29.853333 38.026001 29.853333C 36.720619 29.853333 35.491394 30.467823 34.708 31.511999L 32.27 34.762001M 24 49.5L 13.5 49.5C 12.395431 49.5 11.5 48.604568 11.5 47.5L 11.5 13.5C 11.5 12.395431 12.395431 11.5 13.5 11.5L 43.5 11.5C 44.604568 11.5 45.5 12.395431 45.5 13.5L 45.5 34.309998M 11.5 41.5L 25.5 41.5M 30.129999 20.035999C 30.129463 22.237785 31.914213 24.02297 34.115997 24.02297C 36.317787 24.02297 38.102535 22.237785 38.101997 20.035999C 38.102535 17.834213 36.317787 16.04903 34.115997 16.04903C 31.914213 16.04903 30.129463 17.834213 30.129999 20.035999M 56.5 47.5C 56.5 47.5 52 56.5 43 56.5C 34 56.5 29.5 47.5 29.5 47.5C 29.5 47.5 34 38.5 43 38.5C 52 38.5 56.5 47.5 56.5 47.5ZM 38.5 47.5C 38.5 49.985283 40.514717 52 43 52C 45.485283 52 47.5 49.985283 47.5 47.5C 47.5 45.014717 45.485283 43 43 43C 40.514717 43 38.5 45.014717 38.5 47.5"></path></g></g></g><g id="g-root-pers_4kgjnepua2v9-stroke" data-item-order="0" transform="translate(279, 254.99609375)"><g id="pers_4kgjnepua2v9-stroke" fill="none" stroke-linecap="round" stroke-linejoin="round" stroke-miterlimit="4" stroke="#484848" stroke-width="2"><g><path d="M 24.142857 24.142857C 24.142857 30.533581 29.323563 35.714287 35.714287 35.714287C 42.105007 35.714287 47.285713 30.533581 47.285713 24.142857C 47.285713 17.752134 42.105007 12.571428 35.714287 12.571428C 29.323563 12.571428 24.142857 17.752134 24.142857 24.142857M 40.857143 43.994286C 33.986874 42.408165 26.768417 44.047913 21.257643 48.446514C 15.746866 52.845116 12.547751 59.520481 12.571428 66.571426L 12.571428 74.285713L 40.857143 74.285713M 64.874283 79.274284L 64.874283 79.274284C 64.309326 79.478539 63.690674 79.478539 63.125713 79.274284L 63.125713 79.274284C 54.349701 75.797668 48.582138 67.31955 48.571426 57.880001L 48.571426 51.142857C 48.525444 50.447792 48.781563 49.766678 49.27412 49.27412C 49.766678 48.781563 50.447792 48.525444 51.142857 48.571426L 76.85714 48.571426C 77.5522 48.525444 78.233315 48.781563 78.725876 49.27412C 79.218437 49.766678 79.474548 50.447792 79.428574 51.142857L 79.428574 57.880001C 79.417862 67.31955 73.650299 75.797668 64.874283 79.274284Z"></path></g></g></g><g id="g-root-1_qqxocapuh347-stroke" data-item-order="0" transform="translate(390.46728515625, 289.58984375)"><g id="1_qqxocapuh347-stroke" fill="none" stroke-linecap="round" stroke-linejoin="round" stroke-miterlimit="4" stroke="#484848" stroke-width="2"><g><path d="M 21.939999 35.059998C 16.265558 35.089859 11.545036 39.431252 11.041306 45.083374C 10.537575 50.735489 14.415966 55.843243 19.995697 56.876099C 25.575428 57.908955 31.025167 54.52792 32.578003 49.07L 35.003998 49.07L 37.003998 51.001999L 39.003998 49.080002L 41.003998 49.080002L 43.014 50.987999L 45.004002 49.080002L 48.004002 49.066002L 51 45.93L 47.976002 43.060001L 32.549999 43.060001C 31.196117 38.32357 26.866129 35.058735 21.939999 35.059998ZM 14.99 46.060001C 14.99 47.716854 16.333145 49.060001 17.99 49.060001C 19.646854 49.060001 20.99 47.716854 20.99 46.060001C 20.99 44.403149 19.646854 43.060001 17.99 43.060001C 16.333145 43.060001 14.99 44.403149 14.99 46.060001ZM 55 45.009998C 56.104568 45.009998 57 44.114571 57 43.009998L 57 27.059999C 56.994495 25.959339 56.100677 25.069986 55 25.07L 33 25.052C 31.89543 25.052 31 25.94743 31 27.052L 31 33.110001M 35.012001 25.060001L 35 20.1C 34.977909 15.129437 38.989437 11.082091 43.959999 11.06C 48.930561 11.037909 52.977909 15.049438 53 20.02L 53.021999 25.060001M 41 34.059998C 41 35.716854 42.343147 37.060001 44 37.060001C 45.656857 37.060001 47 35.716854 47 34.060001C 47 32.403145 45.656857 31.060001 44 31.060001C 42.343147 31.060001 41 32.403145 41 34.060001Z"></path></g></g></g><g id="g-root-tx_patientr_1lpxcoqpuigw4-stroke" data-item-order="0" transform="translate(15, 315)"></g><g id="g-root-hist_mfhenupuo35v-stroke" data-item-order="0" transform="translate(197.2518310546875, 307.19140625)"><g id="hist_mfhenupuo35v-stroke" fill="none" stroke-linecap="round" stroke-linejoin="round" stroke-miterlimit="4" stroke="#484848" stroke-width="2"><g><path d="M 28.396 30.612C 28.395821 33.70713 30.904871 36.216324 34 36.216324C 37.095131 36.216324 39.604179 33.70713 39.604 30.612C 39.604179 27.51687 37.095131 25.007675 34 25.007675C 30.904871 25.007675 28.395821 27.51687 28.396 30.612M 41.700001 43.82C 40.291733 40.842857 37.293411 38.944298 34 38.944298C 30.706587 38.944298 27.708261 40.842857 26.299999 43.82M 56.035999 43.655998C 57.320545 44.941422 57.320545 47.024574 56.035999 48.309998L 48.265999 56.076C 46.971539 57.304482 44.93396 57.277843 43.672058 56.015942C 42.410156 54.75404 42.383518 52.716461 43.612 51.422001L 51.372002 43.655998C 52.657654 42.370121 54.742348 42.370121 56.028 43.655998ZM 47.492001 47.534L 52.146 52.188M 12.534 26.332001L 21.734001 26.332001C 22.580425 26.332001 23.266895 25.646423 23.268 24.799999L 23.268 14.702C 23.267502 14.295717 23.106476 13.906091 22.82 13.618L 20.652 11.45C 20.365108 11.161486 19.974876 10.999489 19.568001 11L 12.534 11C 12.126995 10.999468 11.736507 11.160915 11.448711 11.448711C 11.160915 11.736507 10.999468 12.126995 11 12.534L 11 24.799999C 11 25.206657 11.161681 25.59663 11.449419 25.883995C 11.737158 26.171358 12.127342 26.332529 12.534 26.331999ZM 29.775999 18.161999C 34.968269 16.865635 40.468254 18.032459 44.686913 21.325356C 48.905567 24.618252 51.372879 29.670345 51.375999 35.022003C 51.376171 36.013947 51.292542 37.004135 51.125999 37.982002M 35.940002 52.290001C 31.025036 52.840279 26.108379 51.270809 22.421263 47.974625C 18.734146 44.678436 16.625729 39.967674 16.624001 35.021999C 16.623081 34.021233 16.708061 33.022232 16.878 32.035999M 15.454 16.676001L 18.813999 16.676001M 15.454 21.136L 18.813999 21.136"></path></g></g></g><g id="g-root-tx_security_1cuacfupuihou-stroke" data-item-order="0" transform="translate(483, 303)"></g><g id="g-root-1_1hdup2ypuctfy-stroke" data-item-order="0" transform="translate(300.2535400390625, 368.580078125)"><g id="1_1hdup2ypuctfy-stroke" fill="none" stroke-linecap="round" stroke-linejoin="round" stroke-miterlimit="4" stroke="#484848" stroke-width="2"><g><path d="M 39.112 17.133999L 28.888 17.133999M 16.112 57L 16.112 15.087999C 16.112 12.830259 17.942261 11 20.200001 11L 47.799999 11C 50.057739 11 51.888 12.830259 51.888 15.087999L 51.888 57M 23.266001 25.312L 44.734001 25.312C 44.734001 25.312 45.756001 25.312 45.756001 26.334L 45.756001 32.468002C 45.756001 32.468002 45.756001 33.490002 44.734001 33.490002L 23.266001 33.490002C 23.266001 33.490002 22.243999 33.490002 22.243999 32.468002L 22.243999 26.334C 22.243999 26.334 22.243999 25.312 23.266001 25.312M 23.218 39.622002L 44.686001 39.622002C 44.686001 39.622002 45.708 39.622002 45.708 40.643997L 45.708 46.778C 45.708 46.778 45.708 47.799999 44.686001 47.799999L 23.218 47.799999C 23.218 47.799999 22.195999 47.799999 22.195999 46.778L 22.195999 40.643997C 22.195999 40.643997 22.195999 39.622002 23.218 39.622002M 27.422001 29.4L 30.804001 29.4M 27.422001 43.712002L 32.959999 43.712002"></path></g></g></g><g id="g-root-tx_breachno_1lpxcoqpuigw5-stroke" data-item-order="0" transform="translate(237, 459)"></g></g></g></svg>