<?xml version="1.0" encoding="utf-8" standalone="yes"?>
<!DOCTYPE svg PUBLIC "-//W3C//DTD SVG 1.1//EN" "http://www.w3.org/Graphics/SVG/1.1/DTD/svg11.dtd">
<svg width="760" height="580" viewBox="0 0 760 580" style="fill:none;stroke:none;fill-rule:evenodd;clip-rule:evenodd;stroke-linecap:round;stroke-linejoin:round;stroke-miterlimit:1.5;" version="1.1" xmlns="http://www.w3.org/2000/svg" xmlns:xlink="http://www.w3.org/1999/xlink"><style id="fontImports">@import url("https://fonts.googleapis.com/css2?family=Shantell+Sans:wght@300..800&amp;display=block");</style><g id="items" style="isolation: isolate"><g id="blend" style="mix-blend-mode: normal"><g id="g-root-0.cu_sy_1hbbqu9kkotfo-fill" data-item-order="-150739" transform="translate(243.00885009765625, 208)"><g id="0.cu_sy_1hbbqu9kkotfo-fill" stroke="none" fill="#ebebeb"><g><path d="M 241.29115 77L 237.69115 73.4L 216.89115 80.8L 226.99115 91ZM 216.89115 80.8L 213.69115 114.3L 234.19115 110.3L 237.69115 73.4ZM 234.19115 110.3L 199.69115 45.6L 180.39115 51.8L 213.69115 114.3ZM 180.39115 51.8L 191.69115 135.1L 211.19115 130.3L 199.69115 45.6ZM 211.19115 130.3L 182.19115 50.5L 163.09115 56.7L 191.69115 135.1ZM 163.09115 56.7L 206.29115 206.8L 225.09115 199.7L 182.19115 50.5ZM 225.09115 199.7L 133.79115 5.5L 115.39115 13.3L 206.29115 206.8ZM 115.39115 13.3L 189.89115 209.8L 208.29115 201.8L 133.79115 5.5ZM 208.29115 201.8L 113.79115 9.9L 95.29115 17.5L 189.89115 209.8ZM 95.29115 17.5L 157.89115 208.3L 176.59115 200.9L 113.79115 9.9ZM 176.59115 200.9L 100.39115 35.5L 81.79115 43L 157.89115 208.3ZM 81.79115 43L 150.19115 242.7L 168.79115 235.2L 100.39115 35.5ZM 168.79115 235.2L 80.99115 47.8L 62.39115 55.3L 150.19115 242.7ZM 62.39115 55.3L 130.99115 252.4L 149.49115 244.9L 80.99115 47.8ZM 149.49115 244.9L 54.69115 41.1L 35.99115 48.3L 130.99115 252.4ZM 35.99115 48.3L 97.89115 245.7L 116.59115 238.6L 54.69115 41.1ZM 116.59115 238.6L 37.19115 61.2L 18.39115 68.1L 97.89115 245.7ZM 18.39115 68.1L 60.29115 213.7L 78.89115 206L 37.19115 61.2ZM 78.89115 206L 41.19115 137.7L 22.39115 145.1L 60.29115 213.7ZM 22.39115 145.1L 38.69115 211.2L 57.79115 205L 41.19115 137.7ZM 57.79115 205L 33.29115 145.3L 14.79115 152.9L 38.69115 211.2ZM 238.19115 175.9L 214.29115 125.6L 196.19115 134.2L 220.19115 184.5ZM 166.39115 20.3L 153.69115 4.7L 138.19115 17.4L 150.89115 33Z" fill-rule="nonzero"></path></g></g></g><g id="g-root-6.cu_sy_1hbbqu9kkotfp-fill" data-item-order="-150735" transform="translate(233.56106567382812, 146.5615234375)"><g id="6.cu_sy_1hbbqu9kkotfp-fill" stroke="none" fill="#e7e1ff"><g><path d="M 39.038934 12.838446L 32.038934 14.738446L 36.238934 34.338446L 44.238934 32.138446ZM 36.238934 34.338446L 85.638934 26.738446L 78.138934 7.638446L 32.038934 14.738446ZM 78.138934 7.638446L 12.938934 52.038446L 22.038934 69.938446L 85.638934 26.738446ZM 22.038934 69.938446L 103.138934 40.638446L 94.138934 22.638446L 12.938934 52.038446ZM 94.138934 22.638446L 16.638934 74.038446L 26.138934 91.738446L 103.138934 40.638446ZM 26.138934 91.738446L 104.238934 58.638446L 94.938934 40.838446L 16.638934 74.038446ZM 94.938934 40.838446L 28.438934 83.238446L 35.738934 102.338446L 104.238934 58.638446ZM 35.738934 102.338446L 101.338934 91.538446L 95.038934 72.238446L 28.438934 83.238446ZM 95.038934 72.238446L 50.438934 94.638446L 55.538934 114.438446L 101.338934 91.538446ZM 55.538934 114.438446L 95.638934 112.938446L 89.538934 93.138446L 50.438934 94.638446ZM 89.538934 93.138446L 78.038934 100.438446L 88.638934 117.338446L 95.638934 112.938446Z" fill-rule="nonzero"></path></g></g></g><g id="g-root-5.cu_sy_1hbbqu9kkotfq-fill" data-item-order="-150731" transform="translate(158, 280)"><g id="5.cu_sy_1hbbqu9kkotfq-fill" stroke="none" fill="#ffe4cb"><g><path d="M 7.2 51.9L 7.4 64.5L 27.4 67.2L 27.2 51.6ZM 27.4 67.2L 40.6 21.8L 20.4 19.5L 7.4 64.5ZM 20.4 19.5L 24.9 99.2L 45 101.2L 40.6 21.8ZM 45 101.2L 68.2 11.2L 48.2 8.6L 24.9 99.2ZM 48.2 8.6L 47.3 100.4L 67.2 102.4L 68.2 11.2ZM 67.2 102.4L 83 20.5L 62.9 19.2L 47.3 100.4ZM 62.9 19.2L 68.6 102.5L 88.8 104.6L 83 20.5ZM 88.8 104.6L 109.7 31.9L 89.9 28.5L 68.6 102.5ZM 89.9 28.5L 86.8 74.5L 106.3 82.9L 109.7 31.9ZM 106.3 82.9L 127.4 60.2L 111 48.5L 86.8 74.5ZM 111 48.5L 106.7 56.3L 124.3 65.8L 127.4 60.2Z" fill-rule="nonzero"></path></g></g></g><g id="g-root-4.cu_sy_18gb7ohkkor2n-fill" data-item-order="-150727" transform="translate(233.56106567382812, 403)"><g id="4.cu_sy_18gb7ohkkor2n-fill" stroke="none" fill="#fff8b6"><g><path d="M 27.438934 108.3L 36.738934 115.8L 51.038934 101.6L 39.938934 92.7ZM 51.038934 101.6L 15.538934 57.5L 2.538934 73.1L 36.738934 115.8ZM 2.538934 73.1L 73.438934 111.5L 84.938934 95L 15.538934 57.5ZM 84.938934 95L 21.938934 39.6L 10.338934 56L 73.438934 111.5ZM 10.338934 56L 93.038934 102.9L 104.638934 86.4L 21.938934 39.6ZM 104.638934 86.4L 37.638934 28.9L 26.338934 45.5L 93.038934 102.9ZM 26.338934 45.5L 99.738934 84L 111.938934 67.8L 37.638934 28.9ZM 111.938934 67.8L 60.338934 13.3L 47.238934 28.6L 99.738934 84ZM 47.238934 28.6L 87.138934 56.2L 104.838934 44.1L 60.338934 13.3ZM 104.838934 44.1L 97.138934 11.7L 77.638934 16.3L 87.138934 56.2ZM 77.638934 16.3L 78.338934 19.1L 97.838934 14.7L 97.138934 11.7Z" fill-rule="nonzero"></path></g></g></g><g id="g-root-3.cu_sy_1cw4psxkkor28-fill" data-item-order="-150723" transform="translate(387.50244140625, 403)"><g id="3.cu_sy_1cw4psxkkor28-fill" stroke="none" fill="#d1f4ff"><g><path d="M 33.597559 9.2L 22.097559 9.4L 20.597559 29.5L 34.097559 29.2ZM 20.597559 29.5L 66.097559 37.1L 62.997559 16.3L 22.097559 9.4ZM 62.997559 16.3L 9.097559 42.9L 16.697559 61.5L 66.097559 37.1ZM 16.697559 61.5L 86.697559 38.6L 78.297559 20.3L 9.097559 42.9ZM 78.297559 20.3L 8.697559 62L 16.697559 80.5L 86.697559 38.6ZM 16.697559 80.5L 101.297559 56.4L 93.597559 37.8L 8.697559 62ZM 93.597559 37.8L 10.797559 84.4L 18.797559 102.8L 101.297559 56.4ZM 18.797559 102.8L 111.397559 74.2L 103.297559 55.8L 10.797559 84.4ZM 103.297559 55.8L 28.797559 99.7L 35.097559 119.2L 111.397559 74.2ZM 35.097559 119.2L 86.697559 114.6L 85.697559 94.6L 28.797559 99.7ZM 85.697559 94.6L 72.797559 94.8L 73.097559 114.8L 86.697559 114.6Z" fill-rule="nonzero"></path></g></g></g><g id="g-root-2.cu_sy_140hpk1kkorux-fill" data-item-order="-150719" transform="translate(442.11767578125, 280)"><g id="2.cu_sy_140hpk1kkorux-fill" stroke="none" fill="#c8ffe5"><g><path d="M 8.082324 57.8L 9.382324 60.1L 32.382324 60.4L 25.582324 48.1ZM 32.382324 60.4L 47.082324 35.2L 27.182324 29.6L 9.382324 60.1ZM 27.182324 29.6L 26.182324 80.9L 46.182324 84.1L 47.082324 35.2ZM 46.182324 84.1L 66.382324 18.9L 46.382324 15.9L 26.182324 80.9ZM 46.382324 15.9L 46.682324 94.7L 66.682324 97.8L 66.382324 18.9ZM 66.682324 97.8L 94.182324 10.4L 74.282324 7L 46.682324 94.7ZM 74.282324 7L 71.382324 106.8L 91.282324 109.3L 94.182324 10.4ZM 91.282324 109.3L 112.582324 15.4L 92.782324 12.3L 71.382324 106.8ZM 92.782324 12.3L 85.182324 98.9L 104.882324 103.7L 112.582324 15.4ZM 104.882324 103.7L 127.882324 46.8L 107.982324 42.7L 85.182324 98.9ZM 107.982324 42.7L 107.482324 71.5L 127.482324 71.9L 127.882324 46.8Z" fill-rule="nonzero"></path></g></g></g><g id="g-root-1.cu_sy_140hpk1kkoruy-fill" data-item-order="-150715" transform="translate(387.50244140625, 146.5615234375)"><g id="1.cu_sy_140hpk1kkoruy-fill" stroke="none" fill="#e9ffb9"><g><path d="M 22.197528 119.138446L 29.097528 122.638446L 42.997528 107.338446L 31.397528 101.338446ZM 42.997528 107.338446L 20.097528 71.638446L 6.197528 87.038446L 29.097528 122.638446ZM 6.197528 87.038446L 56.997528 113.138446L 69.097528 96.938446L 20.097528 71.638446ZM 69.097528 96.938446L 18.697528 44.438446L 6.397528 60.538446L 56.997528 113.138446ZM 6.397528 60.538446L 80.797528 101.338446L 92.497528 84.938446L 18.697528 44.438446ZM 92.497528 84.938446L 27.597528 25.638446L 15.897528 42.138446L 80.797528 101.338446ZM 15.897528 42.138446L 94.897528 84.638446L 106.197528 68.038446L 27.597528 25.638446ZM 106.197528 68.038446L 40.397528 13.438446L 29.097528 30.038446L 94.897528 84.638446ZM 29.097528 30.038446L 92.697528 65.138446L 105.297528 49.238446L 40.397528 13.438446ZM 105.297528 49.238446L 71.197528 11.038446L 59.697528 28.138446L 92.697528 65.138446ZM 59.697528 28.138446L 82.697528 36.338446L 89.397528 17.538446L 71.197528 11.038446Z" fill-rule="nonzero"></path></g></g></g><g id="g-root-log_qs5km9kkudqk-fill" data-item-order="0" transform="translate(256, 172)"></g><g id="g-root-scal_13ymdghkkszr7-fill" data-item-order="0" transform="translate(412, 172)"></g><g id="g-root-tx_differen_8ydqxtkkszka-fill" data-item-order="0" transform="translate(502, 148)"><g id="tx_differen_8ydqxtkkszka-fill" stroke="none" fill="#484848"><g><text style="font: 15px &quot;Shantell Sans&quot;, cursive; white-space: pre;" font-size="15px" font-family="'Shantell Sans', cursive"><tspan x="12" y="32" dominant-baseline="ideographic">Different levels of log </tspan><tspan x="12" y="50" dominant-baseline="ideographic">messages for varying </tspan><tspan x="12" y="68" dominant-baseline="ideographic">severity</tspan></text></g></g></g><g id="g-root-tx_stacktra_1uo1ajlkkt0y5-fill" data-item-order="0" transform="translate(-8, 280)"><g id="tx_stacktra_1uo1ajlkkt0y5-fill" stroke="none" fill="#484848"><g><text style="font: bold 20px &quot;Shantell Sans&quot;, cursive; white-space: pre;" font-weight="bold" font-size="20px" font-family="'Shantell Sans', cursive"><tspan x="19.61" y="35" dominant-baseline="ideographic">Stack Traces</tspan></text></g></g></g><g id="g-root-chec_qp1achkkt0cs-fill" data-item-order="0" transform="translate(310, 280)"></g><g id="g-root-tx_managing_hu0r6pkksyrk-fill" data-item-order="0" transform="translate(502, 484)"><g id="tx_managing_hu0r6pkksyrk-fill" stroke="none" fill="#484848"><g><text style="font: 15px &quot;Shantell Sans&quot;, cursive; white-space: pre;" font-size="15px" font-family="'Shantell Sans', cursive"><tspan x="12" y="29" dominant-baseline="ideographic">Managing log file </tspan><tspan x="12" y="47" dominant-baseline="ideographic">sizes by rotating them</tspan></text></g></g></g><g id="g-root-tx_jsonlogg_4ik8tdkkt0cj-fill" data-item-order="0" transform="translate(580, 280)"><g id="tx_jsonlogg_4ik8tdkkt0cj-fill" stroke="none" fill="#484848"><g><text style="font: bold 20px &quot;Shantell Sans&quot;, cursive; white-space: pre;" font-weight="bold" font-size="20px" font-family="'Shantell Sans', cursive"><tspan x="12" y="35" dominant-baseline="ideographic">JSON Logging</tspan></text></g></g></g><g id="g-root-tx_detailed_m97s81kkt152-fill" data-item-order="0" transform="translate(16, 316)"><g id="tx_detailed_m97s81kkt152-fill" stroke="none" fill="#484848"><g><text style="font: 15px &quot;Shantell Sans&quot;, cursive; white-space: pre;" font-size="15px" font-family="'Shantell Sans', cursive"><tspan x="25.83" y="32" dominant-baseline="ideographic">Detailed error </tspan><tspan x="17.81" y="50" dominant-baseline="ideographic">information for </tspan><tspan x="52.28" y="68" dominant-baseline="ideographic">debugging</tspan></text></g></g></g><g id="g-root-1_924lghkkeww9-fill" data-item-order="0" transform="translate(178, 304)"></g><g id="g-root-tree_145hlepkkq6me-fill" data-item-order="0" transform="translate(485, 304)"></g><g id="g-root-tx_structur_8ydqxtkkszk9-fill" data-item-order="0" transform="translate(580, 316)"><g id="tx_structur_8ydqxtkkszk9-fill" stroke="none" fill="#484848"><g><text style="font: 15px &quot;Shantell Sans&quot;, cursive; white-space: pre;" font-size="15px" font-family="'Shantell Sans', cursive"><tspan x="12" y="32" dominant-baseline="ideographic">Structured logging </tspan><tspan x="12" y="50" dominant-baseline="ideographic">format for better </tspan><tspan x="12" y="68" dominant-baseline="ideographic">readability</tspan></text></g></g></g><g id="g-root-tx_loglevel_1q8u9i9kksyko-fill" data-item-order="0" transform="translate(502, 112)"><g id="tx_loglevel_1q8u9i9kksyko-fill" stroke="none" fill="#484848"><g><text style="font: bold 20px &quot;Shantell Sans&quot;, cursive; white-space: pre;" font-weight="bold" font-size="20px" font-family="'Shantell Sans', cursive"><tspan x="12" y="35" dominant-baseline="ideographic">Log Levels</tspan></text></g></g></g><g id="g-root-tx_fieldbas_1q8u9i9kksykm-fill" data-item-order="0" transform="translate(82, 88)"><g id="tx_fieldbas_1q8u9i9kksykm-fill" stroke="none" fill="#484848"><g><text style="font: bold 20px &quot;Shantell Sans&quot;, cursive; white-space: pre;" font-weight="bold" font-size="20px" font-family="'Shantell Sans', cursive"><tspan x="18.94" y="35" dominant-baseline="ideographic">Field-based </tspan><tspan x="58.03" y="59" dominant-baseline="ideographic">Logging</tspan></text></g></g></g><g id="g-root-tx_callerin_4ik8tdkkt0ck-fill" data-item-order="0" transform="translate(70, 424)"><g id="tx_callerin_4ik8tdkkt0ck-fill" stroke="none" fill="#484848"><g><text style="font: bold 20px &quot;Shantell Sans&quot;, cursive; white-space: pre;" font-weight="bold" font-size="20px" font-family="'Shantell Sans', cursive"><tspan x="90.38" y="35" dominant-baseline="ideographic">Caller </tspan><tspan x="23.47" y="59" dominant-baseline="ideographic">Information</tspan></text></g></g></g><g id="g-root-call_zlx8rlkkkjcy-fill" data-item-order="0" transform="translate(256, 436)"></g><g id="g-root-rota_1q7lbc1kkoqob-fill" data-item-order="0" transform="translate(412, 436)"></g><g id="g-root-tx_filerota_1q8u9i9kksykn-fill" data-item-order="0" transform="translate(502, 448)"><g id="tx_filerota_1q8u9i9kksykn-fill" stroke="none" fill="#484848"><g><text style="font: bold 20px &quot;Shantell Sans&quot;, cursive; white-space: pre;" font-weight="bold" font-size="20px" font-family="'Shantell Sans', cursive"><tspan x="12" y="35" dominant-baseline="ideographic">File Rotation</tspan></text></g></g></g><g id="g-root-tx_identify_de7929kksyrz-fill" data-item-order="0" transform="translate(46, 484)"><g id="tx_identify_de7929kksyrz-fill" stroke="none" fill="#484848"><g><text style="font: 15px &quot;Shantell Sans&quot;, cursive; white-space: pre;" font-size="15px" font-family="'Shantell Sans', cursive"><tspan x="14.2" y="29" dominant-baseline="ideographic">Identifying the source </tspan><tspan x="59.3" y="47" dominant-baseline="ideographic">of log messages</tspan></text></g></g></g><g id="g-root-tx_componen_zko7flkkosn7-fill" data-item-order="0" transform="translate(95, 28)"><g id="tx_componen_zko7flkkosn7-fill" stroke="none" fill="#484848"><g><text style="font: bold 25px &quot;Shantell Sans&quot;, cursive; white-space: pre;" font-weight="bold" font-size="25px" font-family="'Shantell Sans', cursive"><tspan x="16.06" y="45" dominant-baseline="ideographic">Components of Effective Logging Practice</tspan></text></g></g></g><g id="g-root-tx_loggings_m97s81kkt151-fill" data-item-order="0" transform="translate(46, 148)"><g id="tx_loggings_m97s81kkt151-fill" stroke="none" fill="#484848"><g><text style="font: 15px &quot;Shantell Sans&quot;, cursive; white-space: pre;" font-size="15px" font-family="'Shantell Sans', cursive"><tspan x="16.48" y="32" dominant-baseline="ideographic">Logging specific fields </tspan><tspan x="86.89" y="50" dominant-baseline="ideographic">for targeted </tspan><tspan x="91.84" y="68" dominant-baseline="ideographic">information</tspan></text></g></g></g><g id="g-root-0.cu_sy_1hbbqu9kkotfo-stroke" data-item-order="-150739" transform="translate(243.00885009765625, 208)"><g id="0.cu_sy_1hbbqu9kkotfo-stroke" fill="none" stroke-linecap="round" stroke-linejoin="round" stroke-miterlimit="4" stroke="#484848" stroke-width="4"><g><path d="M 41.79115 44.5C 28.09115 60.5 16.99115 78.5 9.99115 99.1M 9.99115 160.9C 15.69115 182 26.69115 201.1 42.09115 215.8M 93.39115 245.5C 103.69115 248.5 114.79115 248.4 125.99115 250C 136.79115 251.5 147.39115 248 157.59115 245.8M 209.69115 216C 216.79115 209.1 221.59115 200.1 228.29115 192.7C 235.69115 184.6 239.19115 173.4 241.59115 162.4M 241.59115 97.6C 235.29115 77.2 223.89115 59.6 209.99115 44.3M 157.49115 14.2C 147.69115 10.7 136.89115 9.8 125.99115 10C 114.69115 10.2 103.89115 12 93.49115 14.5"></path><path d="M 41.8313 44.4598C 26.76 59.2893 15.5897 78.0715 10 99.1266M 10 160.8734C 15.625 182.0616 26.9016 200.9481 42.1177 215.8211M 93.3555 245.5088C 103.7319 248.4347 114.6787 250 125.9911 250C 136.9428 250 147.5518 248.5329 157.6324 245.7846M 209.6662 216.0146C 224.6048 201.4798 235.7702 183.0868 241.5537 162.4445M 241.5536 97.5554C 235.8074 77.0458 224.748 58.7566 209.9536 44.266M 157.5289 14.1873C 147.4793 11.4571 136.9054 10 125.9911 10C 114.7164 10 103.8049 11.5549 93.4592 14.462"></path></g></g></g><g id="g-root-6.cu_sy_1hbbqu9kkotfp-stroke" data-item-order="-150735" transform="translate(233.56106567382812, 146.5615234375)"><g id="6.cu_sy_1hbbqu9kkotfp-stroke" fill="none" stroke-linecap="round" stroke-linejoin="round" stroke-miterlimit="4" stroke="#484848" stroke-width="4"><g><path d="M 45.538934 104.338446C 33.438934 102.438446 23.038934 93.538446 16.438934 82.038446C 9.738934 70.338446 8.238934 56.938446 11.838934 44.938446C 15.338934 33.438446 22.138934 21.638446 34.038934 16.438446C 45.738934 11.338446 57.638934 8.438446 69.138934 11.338446C 81.538934 14.438446 91.938934 22.538446 99.538934 34.038446C 106.938934 45.038446 108.938934 59.038446 104.338934 70.438446C 98.438934 85.338446 95.038934 101.038446 91.938934 116.838446C 76.338934 113.138446 60.638934 109.738446 45.638934 104.338446"></path><path d="M 45.585069 104.372569C 33.719169 101.193169 23.066269 93.487169 16.438769 82.007969C 3.183969 59.049969 11.049969 29.693569 34.007969 16.438769C 56.966069 3.183969 86.322369 11.049969 99.577169 34.007969C 106.204669 45.486969 107.551869 58.565569 104.372469 70.431269L 91.949469 116.795869L 45.595669 104.375369C 45.592169 104.374469 45.588569 104.373469 45.585069 104.372569Z"></path></g></g></g><g id="g-root-5.cu_sy_1hbbqu9kkotfq-stroke" data-item-order="-150731" transform="translate(158, 280)"><g id="5.cu_sy_1hbbqu9kkotfq-stroke" fill="none" stroke-linecap="round" stroke-linejoin="round" stroke-miterlimit="4" stroke="#484848" stroke-width="4"><g><path d="M 91.9 91.9C 84.5 101.7 71.1 104.2 58 106C 43.9 107.9 32.1 98.6 22.2 89.9C 13.6 82.4 8.7 70.2 10 58C 11.4 44.7 15.9 32.9 24.3 23.8C 32.5 14.9 44.9 9.7 58 10C 71.3 10.3 84.7 14.1 91.9 24.1C 101.4 37 114 47.3 125.9 58C 113.5 68.1 102.3 79.7 91.9 91.9"></path><path d="M 91.9414 91.9408C 83.2551 100.6273 71.255 106 58 106C 31.4903 106 10 84.5097 10 58C 10 31.4903 31.4903 10 58 10C 71.2548 9.999999 83.2548 15.3726 91.9411 24.0589L 125.8825 57.9997L 91.9492 91.9331C 91.9466 91.9356 91.944 91.9382 91.9414 91.9408Z"></path></g></g></g><g id="g-root-4.cu_sy_18gb7ohkkor2n-stroke" data-item-order="-150727" transform="translate(233.56106567382812, 403)"><g id="4.cu_sy_18gb7ohkkor2n-stroke" fill="none" stroke-linecap="round" stroke-linejoin="round" stroke-miterlimit="4" stroke="#484848" stroke-width="4"><g><path d="M 104.338934 56.4C 109.338934 67.6 107.338934 82 99.538934 92.8C 84.138934 114.3 56.538934 124.4 34.038934 110.4C 11.538934 96.3 4.038934 68.2 16.438934 44.8C 22.638934 33.1 33.538934 25 45.538934 22.4C 61.238934 19 76.538934 14.5 91.938934 10C 94.938934 25.7 99.638934 41.1 104.338934 56.4"></path><path d="M 104.372369 56.3644C 107.551869 68.2302 106.204669 81.309 99.577169 92.7881C 86.322369 115.7462 56.966069 123.6122 34.007969 110.3574C 11.049969 97.1025 3.183969 67.7462 16.438769 44.7881C 23.066169 33.3091 33.718969 25.6031 45.584669 22.4237L 91.948969 10L 104.369469 56.3538C 104.370369 56.3573 104.371369 56.3609 104.372369 56.3644Z"></path></g></g></g><g id="g-root-3.cu_sy_1cw4psxkkor28-stroke" data-item-order="-150723" transform="translate(387.50244140625, 403)"><g id="3.cu_sy_1cw4psxkkor28-stroke" fill="none" stroke-linecap="round" stroke-linejoin="round" stroke-miterlimit="4" stroke="#484848" stroke-width="4"><g><path d="M 11.597559 56.4C 8.197559 68.2 10.397559 81 16.397559 92.8C 28.597559 116.3 58.297559 122.2 81.997559 110.4C 93.997559 104.3 99.697559 92.2 104.497559 80.7C 109.197559 69.6 106.197559 56.1 99.597559 44.8C 92.897559 33.4 81.697559 27.3 70.397559 22.4C 55.697559 16.1 39.397559 14.4 24.097559 10C 19.997559 25.5 14.997559 40.7 11.597559 56.4"></path><path d="M 11.6437 56.3644C 8.4641 68.2302 9.8113 81.309 16.4388 92.7881C 29.6936 115.7462 59.05 123.6122 82.008 110.3574C 104.9661 97.1025 112.8321 67.7462 99.5772 44.7881C 92.9498 33.3091 82.297 25.6031 70.4313 22.4237L 24.067 10L 11.6465 56.3538C 11.6456 56.3573 11.6446 56.3609 11.6437 56.3644Z"></path></g></g></g><g id="g-root-2.cu_sy_140hpk1kkorux-stroke" data-item-order="-150719" transform="translate(442.11767578125, 280)"><g id="2.cu_sy_140hpk1kkorux-stroke" fill="none" stroke-linecap="round" stroke-linejoin="round" stroke-miterlimit="4" stroke="#484848" stroke-width="4"><g><path d="M 43.982324 91.9C 51.882324 101.3 64.682324 105.1 77.882324 106C 104.282324 107.9 126.982324 84.5 125.882324 58C 125.282324 44 119.682324 31.5 110.282324 22.6C 101.882324 14.6 90.282324 8.5 77.882324 10C 64.682324 11.6 52.682324 15.4 43.982324 24.1C 32.582324 35.3 20.982324 46.3 9.982324 58C 21.982324 68.6 32.582324 80.7 43.982324 91.9"></path><path d="M 43.9411 91.9408C 52.6274 100.6273 64.6276 106 77.8825 106C 104.3922 106 125.8825 84.5097 125.8825 58C 125.8825 31.4903 104.3922 10 77.8825 10C 64.6277 9.999999 52.6277 15.3726 43.9414 24.0589L 10 57.9997L 43.9333 91.9331C 43.9359 91.9356 43.9385 91.9382 43.9411 91.9408Z"></path></g></g></g><g id="g-root-1.cu_sy_140hpk1kkoruy-stroke" data-item-order="-150715" transform="translate(387.50244140625, 146.5615234375)"><g id="1.cu_sy_140hpk1kkoruy-stroke" fill="none" stroke-linecap="round" stroke-linejoin="round" stroke-miterlimit="4" stroke="#484848" stroke-width="4"><g><path d="M 70.397528 104.338446C 82.497528 102.138446 92.497528 93.238446 99.597528 82.038446C 113.797528 59.638446 105.497528 28.738446 81.997528 16.438446C 58.497528 4.138446 30.897528 11.838446 16.397528 34.038446C 9.197528 45.138446 9.997528 58.238446 11.597528 70.438446C 13.797528 86.238446 20.297528 101.238446 24.097528 116.838446C 39.597528 113.238446 54.897528 108.038446 70.397528 104.338446"></path><path d="M 70.430869 104.372569C 82.296769 101.193169 92.949669 93.487169 99.577169 82.007969C 112.832069 59.049969 104.966069 29.693569 82.007969 16.438769C 59.049969 3.183969 29.693569 11.049969 16.438769 34.007969C 9.811369 45.486969 8.464169 58.565569 11.643569 70.431269L 24.066469 116.795869L 70.420269 104.375369C 70.423769 104.374469 70.427369 104.373469 70.430869 104.372569Z"></path></g></g></g><g id="g-root-log_qs5km9kkudqk-stroke" data-item-order="0" transform="translate(256, 172)"><g id="log_qs5km9kkudqk-stroke" fill="none" stroke-linecap="round" stroke-linejoin="round" stroke-miterlimit="4" stroke="#484848" stroke-width="2"><g><path d="M 19 27C 18.4 30.799999 22.200001 33.200001 26 34C 29.799999 34.799999 32.799999 30.799999 33 27C 33.200001 23.200001 29.799999 20 26 20C 22.200001 20 20.200001 23.4 19 27M 23 27C 23.6 28.6 24.4 30.200001 26 30C 27.6 29.799999 28.6 28.6 29 27C 29.4 25.4 27.6 24 26 24C 24.4 24 22.6 25.4 23 27M 29 41C 28.799999 42.599998 30.4 43.799999 32 44C 33.599998 44.200001 35.200001 42.599998 35 41C 34.799999 39.400002 33.599998 38.400002 32 38C 30.4 37.599998 28.4 39.400002 29 41M 15 41C 14.6 42.599998 16.4 44.200001 18 44C 19.6 43.799999 21 42.599998 21 41C 21 39.400002 19.6 38.200001 18 38C 16.4 37.799999 15.2 39.400002 15 41M 26 20C 31.799999 21.6 38.200001 18.4 44 20C 47.799999 21 50.200001 23.200001 51 27C 51.799999 30.799999 47.799999 34 44 34M 25 41C 26 44.799999 28.200001 49 32 48C 35.799999 47.200001 39.799999 44.799999 39 41C 38.200001 37.200001 35.799999 34 32 34C 28.200001 34 24.6 37.200001 25 41M 32 34C 37.799999 35.200001 44 33.599998 50 34C 53.799999 34.200001 56.400002 37.200001 57 41C 57.599998 44.799999 53.799999 48.200001 50 48C 44 47.599998 38 47.799999 32 48M 11 41C 9.6 44.599998 14.4 46.799999 18 48C 21.6 49.200001 25.200001 44.799999 25 41C 24.799999 37.200001 21.6 32.799999 18 34C 14.4 35.200001 9.8 37.200001 11 41M 32 48C 27.4 48.200001 22.4 49.799999 18 48M 18 34C 22.6 34.599998 27.4 35 32 34M 37 24C 39 23.4 41 24.4 43 24M 43 28C 43.599998 27.799999 44.400002 28 45 28M 43 38C 43.599998 38 44.400002 38.200001 45 38M 49 38C 49.599998 37.799999 50.400002 37.799999 51 38M 47 42C 49 42.400002 51 42.200001 53 42M 42 44C 42.599998 44.200001 43.400002 44.200001 44 44M 37 30C 37.599998 30.200001 38.400002 30.200001 39 30"></path><path d="M 19 27C 19 30.865993 22.134007 34 26 34C 29.865993 34 33 30.865993 33 27C 33 23.134007 29.865993 20 26 20C 22.134007 20 19 23.134007 19 27ZM 23 27C 23 28.656855 24.343147 30 26 30C 27.656855 30 29 28.656855 29 27C 29 25.343147 27.656855 24 26 24C 24.343147 24 23 25.343147 23 27ZM 29 41C 29 42.656857 30.343147 44 32 44C 33.656853 44 35 42.656857 35 41C 35 39.343147 33.656853 38 32 38C 30.343147 38 29 39.343147 29 41ZM 15 41C 15 42.656857 16.343145 44 18 44C 19.656855 44 21 42.656857 21 41C 21 39.343147 19.656855 38 18 38C 16.343145 38 15 39.343147 15 41ZM 26 20L 44 20C 47.865993 20 51 23.134007 51 27C 51 30.865993 47.865993 34 44 34M 25 41C 25 44.865993 28.134008 48 32 48C 35.865993 48 39 44.865993 39 41C 39 37.13401 35.865993 34 32 34C 28.134008 34 25 37.13401 25 41ZM 32 34L 50 34C 53.865993 34 57 37.13401 57 41C 57 44.865993 53.865993 48 50 48L 32 48M 11 41C 11 44.865993 14.134007 48 18 48C 21.865993 48 25 44.865993 25 41C 25 37.13401 21.865993 34 18 34C 14.134007 34 11 37.13401 11 41ZM 32.003998 48L 18 48M 18 34L 32.003998 34M 37 24L 43 24M 43 28L 45 28M 43 38L 45 38M 49 38L 51 38M 47 42L 53 42M 42 44L 44 44M 37 30L 39 30"></path></g></g></g><g id="g-root-scal_13ymdghkkszr7-stroke" data-item-order="0" transform="translate(412, 172)"><g id="scal_13ymdghkkszr7-stroke" fill="none" stroke-linecap="round" stroke-linejoin="round" stroke-miterlimit="4" stroke="#484848" stroke-width="2"><g><path d="M 56.285713 11.714286C 56.971428 17.542858 46 19.942858 34 22C 22 24.057142 13.085714 17.199999 11.714286 11.714286C 26.457144 11.714286 41.542858 10.685715 56.285713 11.714286M 52.514286 34.685715C 51.828571 33.314285 50.457146 32.285713 49.085712 32.285713C 38.799999 32.285713 28.857143 33.314285 18.914286 32.285713C 17.542858 31.6 15.828571 33.314285 15.485714 34.685715C 14.457143 39.142857 11.714286 43.257141 12.057143 47.714287C 12.057143 49.771431 11.714286 52.171429 13.085714 53.542858C 14.457143 55.257141 16.514286 56.971428 18.571428 56.285713C 28.171429 52.857143 39.142857 57.657143 49.428574 56.285713C 51.485718 55.942856 53.542858 55.257141 54.914288 53.542858C 55.942856 51.828571 55.942856 49.771431 55.942856 47.714287C 55.942856 43.257141 52.171429 39.142857 52.514286 34.685715M 25.428572 32.285713C 26.457144 28.857143 25.771429 24.742859 25.428572 21.314285M 42.57143 32.285713C 42.57143 28.514286 42.57143 24.742859 42.57143 21.314285M 25.428572 44.285713C 24.4 47.028572 29.200001 49.085712 34 49.428574C 38.799999 49.428574 42.914288 47.028572 42.57143 44.285713C 42.228569 41.542858 38.457146 40.514286 34 39.142857C 29.542856 37.771431 24.742859 41.542858 25.428572 44.285713"></path><path d="M 56.285713 11.714286C 56.285713 17.405714 46.308571 22 34 22C 21.691429 22 11.714286 17.405714 11.714286 11.714286ZM 52.377144 34.78857C 51.950253 33.262043 50.532585 32.227146 48.94857 32.285713L 18.914286 32.285713C 17.330273 32.227146 15.912607 33.262043 15.485714 34.78857L 11.988571 47.714287C 11.460761 49.75819 11.903766 51.931282 13.189543 53.605473C 14.475319 55.279663 16.460546 56.268326 18.571428 56.285713L 49.428574 56.285713C 51.539455 56.268326 53.524681 55.279663 54.810455 53.605473C 56.096233 51.931282 56.539242 49.75819 56.011429 47.714287ZM 25.428572 32.285713L 25.428572 21.211428M 42.57143 32.285713L 42.57143 21.211428M 25.428572 44.285713C 25.428572 47.126038 29.266132 49.428574 34 49.428574C 38.733868 49.428574 42.57143 47.126038 42.57143 44.285713C 42.57143 41.445396 38.733868 39.142857 34 39.142857C 29.266132 39.142857 25.428572 41.445396 25.428572 44.285713"></path></g></g></g><g id="g-root-tx_differen_8ydqxtkkszka-stroke" data-item-order="0" transform="translate(502, 148)"></g><g id="g-root-tx_stacktra_1uo1ajlkkt0y5-stroke" data-item-order="0" transform="translate(-8, 280)"></g><g id="g-root-chec_qp1achkkt0cs-stroke" data-item-order="0" transform="translate(310, 280)"><g id="chec_qp1achkkt0cs-stroke" fill="none" stroke-linecap="round" stroke-linejoin="round" stroke-miterlimit="4" stroke="#484848" stroke-width="2"><g><path d="M 48.400002 92C 37.599998 93.599998 26.4 96 16.4 92C 14.4 91.199997 13.2 90 12.4 88C 4.4 68 15.6 45.200001 12.4 24C 12 22 14 19.6 16.4 20C 34.799999 23.200001 53.599998 19.6 72.400002 20C 74.400002 20 75.599998 22 76.400002 24C 78.400002 30.4 77.199997 37.200001 76.400002 44M 28.4 28C 29.200001 22.799999 26.4 17.200001 28.4 12M 44.400002 28C 43.599998 22.799999 45.200001 17.200001 44.400002 12M 60.400002 28C 60.799999 22.799999 60 17.200001 60.400002 12M 56.400002 80C 57.200001 93.199997 67.199997 105.199997 80.400002 104C 93.599998 102.800003 105.599998 93.199997 104.400002 80C 102.800003 66.800003 93.599998 58 80.400002 56C 67.199997 54 55.200001 66.800003 56.400002 80M 91.199997 73.199997C 87.199997 78 83.599998 83.599998 79.599998 88.400002C 78.800003 89.199997 78 89.199997 77.199997 89.599998C 76.400002 90 75.599998 89.599998 74.800003 88.800003C 73.199997 86.800003 71.599998 84 68.800003 82.800003"></path><path d="M 48.348 92L 16.348 92C 14.138861 92 12.348 90.209137 12.348 88L 12.348 24C 12.348 21.790861 14.138861 20 16.348 20L 72.348 20C 74.557137 20 76.348 21.790861 76.348 24L 76.348 44M 28.348 28.004L 28.348 12.004M 44.348 28.004L 44.348 12.004M 60.348 28.004L 60.348 12.004M 56.348 80.003998C 56.348003 93.258835 67.09317 104.004005 80.348 104.004005C 93.602837 104.004005 104.348 93.258835 104.348 80.004005C 104.348 66.749168 93.602837 56.004002 80.348 56.004002C 67.09317 56.004002 56.348003 66.749168 56.348003 80.004005ZM 91.043999 73.024002L 79.444 88.519997C 78.921204 89.215294 78.122681 89.649818 77.254936 89.711197C 76.387192 89.772575 75.535454 89.454781 74.919998 88.839996L 68.919998 82.839996"></path></g></g></g><g id="g-root-tx_managing_hu0r6pkksyrk-stroke" data-item-order="0" transform="translate(502, 484)"></g><g id="g-root-tx_jsonlogg_4ik8tdkkt0cj-stroke" data-item-order="0" transform="translate(580, 280)"></g><g id="g-root-tx_detailed_m97s81kkt152-stroke" data-item-order="0" transform="translate(16, 316)"></g><g id="g-root-1_924lghkkeww9-stroke" data-item-order="0" transform="translate(178, 304)"><g id="1_924lghkkeww9-stroke" fill="none" stroke-linecap="round" stroke-linejoin="round" stroke-miterlimit="4" stroke="#484848" stroke-width="2"><g><path d="M 56.285713 11.714286C 51.142857 11.371428 46 10.685715 40.857143 11.714286C 42.914288 16.514286 42.228569 22.342857 40.857143 27.142857C 36.399998 27.828571 31.6 27.142857 27.142857 27.142857C 27.142857 31.6 26.457144 36.399998 27.142857 40.857143C 22.342857 42.57143 16.857143 40.171429 11.714286 40.857143C 11.714286 46 11.371428 51.142857 11.714286 56.285713C 26.457144 59.028572 41.542858 57.314285 56.285713 56.285713C 58.342857 41.542858 58 26.457144 56.285713 11.714286"></path><path d="M 56.285713 11.714286L 40.857143 11.714286L 40.857143 27.142857L 27.142857 27.142857L 27.142857 40.857143L 11.714286 40.857143L 11.714286 56.285713L 56.285713 56.285713L 56.285713 11.714286Z"></path></g></g></g><g id="g-root-tree_145hlepkkq6me-stroke" data-item-order="0" transform="translate(485, 304)"><g id="tree_145hlepkkq6me-stroke" fill="none" stroke-linecap="round" stroke-linejoin="round" stroke-miterlimit="4" stroke="#484848" stroke-width="2"><g><path d="M 41.200001 27.200001C 40.200001 29 40 31.799999 41.599998 33.200001C 43.200001 35 44.799999 36.599998 45.799999 38.599998C 45.599998 40.200001 45.200001 41.599998 43.599998 42.200001C 43 42.599998 42.200001 42.200001 41.400002 42C 40.599998 41.799999 40 41 40 40.200001C 40 38.200001 41.200001 37.400002 39 36.200001C 37.599998 35.400002 35.799999 37 35.599998 39.200001C 35 40.599998 34.200001 42 34.599998 43.400002C 35.200001 44 35 45 35 46C 35.200001 47 34 47.599998 33.400002 48.200001C 32.799999 49 31.6 49 30.799999 48.599998C 30.200001 48 29.4 47.599998 29 46.799999C 28.4 46 28.6 45 28.799999 44.200001C 28.799999 43.200001 29.6 42.400002 30.6 42.200001C 31.6 38.799999 33.400002 35.400002 33.599998 32C 31.4 37.599998 28.200001 34.400002 27.4 38.799999C 27.4 39.200001 27 39.400002 26.6 39.799999C 26.200001 40.400002 25.200001 40.799999 24.6 40.400002C 23.799999 40.200001 22.799999 40 22.6 39.400002C 21.799999 37.799999 22 36.400002 23 35.200001C 23.200001 34.799999 23.799999 34.799999 24.200001 34.599998C 25.799999 33.599998 30.6 29.799999 32.400002 28.799999C 28.4 32.400002 26.4 30.6 26.4 30.6C 26.200001 30.6 26.200001 31 26 31C 25.200001 31.200001 24.6 31.6 24 31.6C 23.4 31.4 22.6 31 22.4 30.4C 21.6 29.200001 22 27.799999 23 26.6C 23.200001 26.200001 24 26.200001 24.6 26.200001C 26.6 26 33.400002 28 36 22.200001C 36 22.200001 37 20.4 38.200001 18.200001C 39.400002 16 39.400002 13.4 38 13C 37.200001 12.6 36.599998 11.8 35.599998 11.6C 34.200001 10.8 32.599998 10.6 31.4 11.6C 25.6 14.2 21.200001 19.799999 15.2 21C 13.6 21.200001 13.6 23.4 13 24.799999C 11.6 30.799999 14.6 37.200001 13 43.200001C 12.6 44.799999 13.8 46.200001 15.2 47C 20.799999 49.599998 26.799999 52 31.4 56.400002C 32.799999 56.799999 34.200001 56.799999 35.599998 56.400002C 41.799999 54.599998 46.400002 48.799999 52.599998 47C 54.200001 46.599998 55.200001 44.799999 55 43.200001C 52.799999 37.400002 54.799999 30.799999 55 24.799999C 55 23.200001 54.200001 21.4 52.599998 21C 52.599998 21 51.599998 19.6 50 19.4C 46.200001 18.799999 43 24.6 41.200001 27.200001"></path><path d="M 41.237999 27.143999C 40.285744 29.075129 40.431206 31.366779 41.620003 33.162003L 41.695999 33.274002C 43.128929 34.956985 44.468922 36.716942 45.709999 38.545998C 46.158466 40.139465 45.25666 41.800308 43.675999 42.292C 42.916332 42.50211 42.104023 42.396847 41.422997 42.000053C 40.74197 41.603256 40.249828 40.94849 40.057999 40.183998C 39.566002 38.363998 40.695999 38.195999 38.926003 36.152C 38.001999 35.084 36.113998 37.099998 35.5 39.174C 35.022781 40.513977 34.717674 41.909142 34.591999 43.326C 35.123314 44.132904 35.298111 45.123291 35.075123 46.063324C 34.852135 47.003353 34.251129 47.809711 33.414001 48.292C 32.636242 48.71608 31.719141 48.804516 30.87468 48.536869C 30.030216 48.269226 29.331488 47.668663 28.940001 46.874001C 28.506556 46.037193 28.430813 45.060432 28.73007 44.166805C 29.029327 43.273178 29.678024 42.539017 30.528002 42.132C 31.740059 38.79813 32.756454 35.396343 33.571999 31.944C 31 37.428001 29.450001 34.767998 27.4 38.846001C 27.216623 39.210007 26.961508 39.53315 26.650002 39.796001C 26.055096 40.299591 25.279686 40.537159 24.504784 40.453243C 23.729881 40.369328 23.023304 39.971272 22.549999 39.351997C 21.537601 38.048981 21.725918 36.180763 22.978001 35.106003C 23.32959 34.811745 23.746559 34.606003 24.194 34.506001C 26.087999 34.077999 30.832001 30.134001 32.424 28.879999C 27.812 31.459999 26.486 30.552 26.486 30.552C 26.334904 30.749416 26.15799 30.925657 25.959999 31.076C 25.401619 31.493084 24.696854 31.663443 24.009617 31.547455C 23.32238 31.431467 22.712566 31.039242 22.321999 30.462C 21.48159 29.24913 21.741222 27.590122 22.911999 26.691999C 23.372198 26.345938 23.936462 26.166784 24.512001 26.184C 26.511999 26.25 33.02 27.93 36.014 22.102001C 36.014 22.102001 36.975998 20.348 38.164001 18.188C 39.351997 16.028 39.265999 13.658 37.964001 12.902L 35.618 11.52C 34.26606 10.825134 32.661942 10.825134 31.309999 11.52L 15.153999 20.954C 13.872379 21.814198 13.073502 23.230219 13 24.771999L 13 43.220001C 13.073672 44.761234 13.871619 46.176922 15.152 47.038002L 31.318001 56.478001C 32.669243 57.172844 34.272758 57.172844 35.624001 56.478001L 52.664001 47.02C 53.989895 46.174847 54.851826 44.76535 55 43.200001L 55 24.75C 54.853607 23.18247 53.991463 21.770416 52.664001 20.924C 52.664001 20.924 51.464001 20.226 50 19.366001C 46.762001 17.468 42.669998 24.562 41.237999 27.143999Z"></path></g></g></g><g id="g-root-tx_structur_8ydqxtkkszk9-stroke" data-item-order="0" transform="translate(580, 316)"></g><g id="g-root-tx_loglevel_1q8u9i9kksyko-stroke" data-item-order="0" transform="translate(502, 112)"></g><g id="g-root-tx_fieldbas_1q8u9i9kksykm-stroke" data-item-order="0" transform="translate(82, 88)"></g><g id="g-root-tx_callerin_4ik8tdkkt0ck-stroke" data-item-order="0" transform="translate(70, 424)"></g><g id="g-root-call_zlx8rlkkkjcy-stroke" data-item-order="0" transform="translate(256, 436)"><g id="call_zlx8rlkkkjcy-stroke" fill="none" stroke-linecap="round" stroke-linejoin="round" stroke-miterlimit="4" stroke="#484848" stroke-width="2"><g><path d="M 25 27C 27 26 26.6 22.799999 25 21.4C 23.6 20 22.4 18.4 20.799999 17.200001C 19 15.8 17 16 15.2 17.200001C 14.2 17.6 13.6 18.799999 12.8 19.4C 10.6 21.200001 10.6 24.4 12 27C 17.799999 38 29.4 44.200001 38 53C 40 55 44.400002 54.799999 45.599998 52.200001C 46 51.200001 47 50.599998 48 50C 49.599998 48.599998 49.400002 45.799999 48 44.200001C 46.400002 42.799999 44.799999 41.599998 43.599998 40C 42.400002 38.200001 40 39.200001 38 40C 37.400002 40.200001 37.200001 41 36.599998 41.400002C 32 37.400002 28.6 32 23.6 28.4C 24.200001 28.200001 24.799999 27.6 25 27M 33 25C 33.799999 21.4 33.200001 17.6 33 14C 36.599998 13 40.400002 13.6 44 14M 33 14C 37.799999 17 41.599998 21.6 45 26C 49.400002 22.6 51.799999 16.4 57 14"></path><path d="M 25.01 27.028C 26.572861 25.465771 26.572861 22.932228 25.01 21.369999L 20.768 17.125999C 19.205772 15.563139 16.672228 15.563139 15.110001 17.125999L 12.784 19.454C 10.772782 21.471014 10.456889 24.624088 12.028 27C 18.877239 37.311234 27.716772 46.150764 38.028 53.000004C 40.403912 54.571114 43.556988 54.255219 45.574001 52.243999L 47.902 49.916C 49.463528 48.354 49.463528 45.821999 47.902 44.259998L 43.66 40.021999C 42.097771 38.459137 39.564228 38.459137 38.001999 40.021999L 36.59 41.436001C 31.846478 37.533249 27.492752 33.179523 23.59 28.436001ZM 33.028 25L 33.028 14L 44.028 14M 33.028 14L 44.972 26L 56.972 14"></path></g></g></g><g id="g-root-rota_1q7lbc1kkoqob-stroke" data-item-order="0" transform="translate(412, 436)"><g id="rota_1q7lbc1kkoqob-stroke" fill="none" stroke-linecap="round" stroke-linejoin="round" stroke-miterlimit="4" stroke="#484848" stroke-width="2"><g><path d="M 30 17.4C 34 23.4 40.200001 27.4 45.200001 32.599998C 45.200001 32.599998 47 34.599998 45.200001 35.400002C 38.799999 38.400002 34.200001 44.799999 30 50.599998C 30 50.599998 28.6 51.799999 27.200001 50.599998C 21.799999 46 15.2 41.799999 12 35.400002C 12 35.400002 10.8 34.200001 12 32.599998C 16.200001 26.799999 21 21 27.200001 17.4C 27.200001 17.4 28.4 16.200001 30 17.4M 56.599998 23C 54.599998 23.4 52.599998 22.799999 50.599998 23C 49.799999 24.799999 51 27 50.599998 29M 50.599998 37C 50 38.799999 50.400002 41 50.599998 43C 52.599998 43.400002 54.599998 43.200001 56.599998 43M 50.599998 23C 51.799999 24.200001 53.200001 25 54 26.6C 57.200001 30.200001 57.200001 35.599998 54 39.200001C 53.200001 40.799999 52 42 50.599998 43"></path><path d="M 29.998522 17.413538L 45.170204 32.58522C 45.170204 32.58522 46.584419 33.999435 45.170204 35.413651L 29.998522 50.585331C 29.998522 50.585331 28.584309 51.999546 27.170095 50.585331L 11.998412 35.413651C 11.998412 35.413651 10.584198 33.999435 11.998412 32.58522L 27.170095 17.413538C 27.170095 17.413538 28.584309 15.999324 29.998522 17.413538M 56.584 23L 50.584 23L 50.584 29M 50.584 37L 50.584 43L 56.584 43M 50.584 23L 53.948002 26.535999C 57.462772 30.050728 57.462772 35.749275 53.948002 39.264L 50.584 43"></path></g></g></g><g id="g-root-tx_filerota_1q8u9i9kksykn-stroke" data-item-order="0" transform="translate(502, 448)"></g><g id="g-root-tx_identify_de7929kksyrz-stroke" data-item-order="0" transform="translate(46, 484)"></g><g id="g-root-tx_componen_zko7flkkosn7-stroke" data-item-order="0" transform="translate(95, 28)"></g><g id="g-root-tx_loggings_m97s81kkt151-stroke" data-item-order="0" transform="translate(46, 148)"></g></g></g></svg>