<?xml version="1.0" encoding="utf-8" standalone="yes"?>
<!DOCTYPE svg PUBLIC "-//W3C//DTD SVG 1.1//EN" "http://www.w3.org/Graphics/SVG/1.1/DTD/svg11.dtd">
<svg width="260" height="410" viewBox="0 0 260 410" style="fill:none;stroke:none;fill-rule:evenodd;clip-rule:evenodd;stroke-linecap:round;stroke-linejoin:round;stroke-miterlimit:1.5;" version="1.1" xmlns="http://www.w3.org/2000/svg" xmlns:xlink="http://www.w3.org/1999/xlink"><style id="fontImports">@import url("https://fonts.googleapis.com/css2?family=Roboto:wght@400;700&amp;display=block");</style><g id="items" style="isolation: isolate"><g id="blend" style="mix-blend-mode: normal"><g id="g-root-1.cr-1_cr_4njooj1ruqex8-fill" data-item-order="-18716" transform="translate(15, 39)"><g id="1.cr-1_cr_4njooj1ruqex8-fill" stroke="none" fill="#fffbda"><g><path d="M 10 40C 10.000002 56.568544 23.431459 70.000002 40.000002 70.000002C 56.568544 70.000002 70.000002 56.568544 70.000002 40.000002C 70.000002 23.431459 56.568544 10.000002 40.000002 10.000002C 23.431459 10.000002 10.000002 23.431459 10.000002 40.000002"></path></g></g></g><g id="g-root-2.cr-2_cr_4njooj1ruqex9-fill" data-item-order="-18704" transform="translate(15, 123)"><g id="2.cr-2_cr_4njooj1ruqex9-fill" stroke="none" fill="#fff2e5"><g><path d="M 10 40C 10.000002 56.568544 23.431459 70.000002 40.000002 70.000002C 56.568544 70.000002 70.000002 56.568544 70.000002 40.000002C 70.000002 23.431459 56.568544 10.000002 40.000002 10.000002C 23.431459 10.000002 10.000002 23.431459 10.000002 40.000002"></path></g></g></g><g id="g-root-3.cr-3_cr_4njooj1ruqexa-fill" data-item-order="-18692" transform="translate(15, 207)"><g id="3.cr-3_cr_4njooj1ruqexa-fill" stroke="none" fill="#ffeceb"><g><path d="M 10 40C 10.000002 56.568544 23.431459 70.000002 40.000002 70.000002C 56.568544 70.000002 70.000002 56.568544 70.000002 40.000002C 70.000002 23.431459 56.568544 10.000002 40.000002 10.000002C 23.431459 10.000002 10.000002 23.431459 10.000002 40.000002"></path></g></g></g><g id="g-root-4.cr-4_cr_7q6k31ruqfpj-fill" data-item-order="-18680" transform="translate(15, 291)"><g id="4.cr-4_cr_7q6k31ruqfpj-fill" stroke="none" fill="#ffebf7"><g><path d="M 10 40C 10.000002 56.568544 23.431459 70.000002 40.000002 70.000002C 56.568544 70.000002 70.000002 56.568544 70.000002 40.000002C 70.000002 23.431459 56.568544 10.000002 40.000002 10.000002C 23.431459 10.000002 10.000002 23.431459 10.000002 40.000002"></path></g></g></g><g id="g-root-metr_18gxf3n1ruw1kz-fill" data-item-order="0" transform="translate(27, 51)"></g><g id="g-root-tx_performa_zlaeur1ruw2do-fill" data-item-order="0" transform="translate(93, 45)"><g id="tx_performa_zlaeur1ruw2do-fill" stroke="none" fill="#484848"><g><text style="font: 20px Roboto, sans-serif; white-space: pre;" font-size="20px" font-family="Roboto, sans-serif"><tspan x="12" y="33.5" dominant-baseline="ideographic">Performance </tspan><tspan x="12" y="57.5" dominant-baseline="ideographic">Metrics</tspan></text></g></g></g><g id="g-root-mous_zoesab1rv5vka-fill" data-item-order="0" transform="translate(27, 135)"></g><g id="g-root-tx_resource_v8la5v1rv5wcj-fill" data-item-order="0" transform="translate(93, 129)"><g id="tx_resource_v8la5v1rv5wcj-fill" stroke="none" fill="#484848"><g><text style="font: 20px Roboto, sans-serif; white-space: pre;" font-size="20px" font-family="Roboto, sans-serif"><tspan x="12" y="33.5" dominant-baseline="ideographic">Resource </tspan><tspan x="12" y="57.5" dominant-baseline="ideographic">Tracking</tspan></text></g></g></g><g id="g-root-char_qsrv771runkzl-fill" data-item-order="0" transform="translate(27, 219)"></g><g id="g-root-tx_usageana_qsrv771runkzm-fill" data-item-order="0" transform="translate(93, 213)"><g id="tx_usageana_qsrv771runkzm-fill" stroke="none" fill="#484848"><g><text style="font: 20px Roboto, sans-serif; white-space: pre;" font-size="20px" font-family="Roboto, sans-serif"><tspan x="12" y="33.5" dominant-baseline="ideographic">Usage </tspan><tspan x="12" y="57.5" dominant-baseline="ideographic">Analysis</tspan></text></g></g></g><g id="g-root-2_18fok371ruuner-fill" data-item-order="0" transform="translate(27, 303)"></g><g id="g-root-tx_errortra_18fok371ruunes-fill" data-item-order="0" transform="translate(93, 309)"><g id="tx_errortra_18fok371ruunes-fill" stroke="none" fill="#484848"><g><text style="font: 20px Roboto, sans-serif; white-space: pre;" font-size="20px" font-family="Roboto, sans-serif"><tspan x="12" y="33.5" dominant-baseline="ideographic">Error Tracking</tspan></text></g></g></g><g id="g-root-1.cr-1_cr_4njooj1ruqex8-stroke" data-item-order="-18716" transform="translate(15, 39)"><g id="1.cr-1_cr_4njooj1ruqex8-stroke" fill="none" stroke-linecap="round" stroke-linejoin="round" stroke-miterlimit="4" stroke="#e0cb15" stroke-width="2"><g><path d="M 10 40C 10.000002 56.568544 23.431459 70.000002 40.000002 70.000002C 56.568544 70.000002 70.000002 56.568544 70.000002 40.000002C 70.000002 23.431459 56.568544 10.000002 40.000002 10.000002C 23.431459 10.000002 10.000002 23.431459 10.000002 40.000002"></path></g></g></g><g id="g-root-2.cr-2_cr_4njooj1ruqex9-stroke" data-item-order="-18704" transform="translate(15, 123)"><g id="2.cr-2_cr_4njooj1ruqex9-stroke" fill="none" stroke-linecap="round" stroke-linejoin="round" stroke-miterlimit="4" stroke="#de8431" stroke-width="2"><g><path d="M 10 40C 10.000002 56.568544 23.431459 70.000002 40.000002 70.000002C 56.568544 70.000002 70.000002 56.568544 70.000002 40.000002C 70.000002 23.431459 56.568544 10.000002 40.000002 10.000002C 23.431459 10.000002 10.000002 23.431459 10.000002 40.000002"></path></g></g></g><g id="g-root-3.cr-3_cr_4njooj1ruqexa-stroke" data-item-order="-18692" transform="translate(15, 207)"><g id="3.cr-3_cr_4njooj1ruqexa-stroke" fill="none" stroke-linecap="round" stroke-linejoin="round" stroke-miterlimit="4" stroke="#e55753" stroke-width="2"><g><path d="M 10 40C 10.000002 56.568544 23.431459 70.000002 40.000002 70.000002C 56.568544 70.000002 70.000002 56.568544 70.000002 40.000002C 70.000002 23.431459 56.568544 10.000002 40.000002 10.000002C 23.431459 10.000002 10.000002 23.431459 10.000002 40.000002"></path></g></g></g><g id="g-root-4.cr-4_cr_7q6k31ruqfpj-stroke" data-item-order="-18680" transform="translate(15, 291)"><g id="4.cr-4_cr_7q6k31ruqfpj-stroke" fill="none" stroke-linecap="round" stroke-linejoin="round" stroke-miterlimit="4" stroke="#de58a9" stroke-width="2"><g><path d="M 10 40C 10.000002 56.568544 23.431459 70.000002 40.000002 70.000002C 56.568544 70.000002 70.000002 56.568544 70.000002 40.000002C 70.000002 23.431459 56.568544 10.000002 40.000002 10.000002C 23.431459 10.000002 10.000002 23.431459 10.000002 40.000002"></path></g></g></g><g id="g-root-metr_18gxf3n1ruw1kz-stroke" data-item-order="0" transform="translate(27, 51)"><g id="metr_18gxf3n1ruw1kz-stroke" fill="none" stroke-linecap="round" stroke-linejoin="round" stroke-miterlimit="4" stroke="#e0cb15" stroke-width="2"><g><path d="M 13.0495 13.0495L 42.9505 13.0495C 42.9505 13.0495 45.25 13.0495 45.25 15.349L 45.25 40.649502C 45.25 40.649502 45.25 42.949001 42.9505 42.949001L 13.0495 42.949001C 13.0495 42.949001 10.75 42.949001 10.75 40.649502L 10.75 15.349C 10.75 15.349 10.75 13.0495 13.0495 13.0495M 10.75 19.949499L 45.25 19.949499M 25.172501 33.455502C 24.147114 35.507217 21.935215 36.684868 19.660549 36.390137C 17.385883 36.095413 15.547158 34.392933 15.078534 32.147633C 14.609909 29.902336 15.614128 27.606493 17.580999 26.426498M 35.6665 36.432999C 33.162518 36.432156 30.992048 34.699455 30.43652 32.257877C 29.880991 29.816299 31.088129 27.3151 33.345249 26.230972C 35.602371 25.146843 38.309258 25.768076 39.86779 27.727898C 41.426319 29.687721 41.42205 32.464977 39.857498 34.419998M 22.056999 25.9345C 23.666748 26.473969 24.929073 27.739071 25.465 29.35M 14.0125 16.375C 14.012501 16.685661 14.26434 16.9375 14.575001 16.9375C 14.88566 16.9375 15.137501 16.685661 15.137501 16.375C 15.137501 16.064341 14.88566 15.8125 14.575001 15.8125C 14.26434 15.8125 14.012501 16.064341 14.012501 16.375M 18.320499 16.375C 18.320501 16.685661 18.57234 16.9375 18.883001 16.9375C 19.193661 16.9375 19.445501 16.685661 19.445501 16.375C 19.445501 16.064341 19.193661 15.8125 18.883001 15.8125C 18.57234 15.8125 18.320501 16.064341 18.320501 16.375M 22.630001 16.375C 22.630001 16.685661 22.88184 16.9375 23.192501 16.9375C 23.50316 16.9375 23.755001 16.685661 23.755001 16.375C 23.755001 16.064341 23.50316 15.8125 23.192501 15.8125C 22.88184 15.8125 22.630001 16.064341 22.630001 16.375"></path></g></g></g><g id="g-root-tx_performa_zlaeur1ruw2do-stroke" data-item-order="0" transform="translate(93, 45)"></g><g id="g-root-mous_zoesab1rv5vka-stroke" data-item-order="0" transform="translate(27, 135)"><g id="mous_zoesab1rv5vka-stroke" fill="none" stroke-linecap="round" stroke-linejoin="round" stroke-miterlimit="4" stroke="#de8431" stroke-width="2"><g><path d="M 44.633499 38.431C 44.94413 38.835217 44.94413 39.397785 44.633499 39.802002C 43.469498 41.327499 40.274502 44.865997 35.6665 44.865997C 31.058498 44.865997 27.866501 41.326 26.699501 39.802002C 26.388872 39.397785 26.388872 38.835217 26.699501 38.431C 27.863501 36.905502 31.058498 33.367001 35.6665 33.367001C 40.274502 33.367001 43.471001 36.906998 44.633499 38.431ZM 35.6665 36.147999C 37.305958 36.147999 38.635002 37.477043 38.635002 39.116501C 38.635002 40.755959 37.305958 42.084999 35.6665 42.084999C 34.027042 42.084999 32.697998 40.755959 32.697998 39.116501C 32.697998 37.477043 34.027042 36.147999 35.6665 36.147999M 24.849998 43.834C 23.382027 44.762081 21.680241 45.253212 19.943501 45.25L 19.943501 45.25C 14.865099 45.246689 10.749999 41.128899 10.75 36.050499L 10.75 26.849499C 10.75 21.768755 14.868756 17.65 19.949499 17.65L 19.949499 17.65C 25.030828 17.649172 29.150499 21.768169 29.150499 26.849499L 29.150501 30.977499M 10.75 29.150501L 29.150501 29.150501M 19.949499 29.150501L 19.949499 17.65L 19.949499 17.65C 19.949499 13.839235 23.038734 10.75 26.849499 10.75L 26.849499 10.75C 30.660263 10.75 33.7495 13.839235 33.7495 17.65L 33.7495 21.1C 33.750328 24.275604 36.324898 26.849501 39.5005 26.849501L 39.5005 26.849499C 42.675861 26.849499 45.249996 24.27536 45.249996 21.099998L 45.25 10.75"></path></g></g></g><g id="g-root-tx_resource_v8la5v1rv5wcj-stroke" data-item-order="0" transform="translate(93, 129)"></g><g id="g-root-char_qsrv771runkzl-stroke" data-item-order="0" transform="translate(27, 219)"><g id="char_qsrv771runkzl-stroke" fill="none" stroke-linecap="round" stroke-linejoin="round" stroke-miterlimit="4" stroke="#e55753" stroke-width="2"><g><path d="M 42.142857 44.714287L 13.857142 44.714287C 13.857142 44.714287 11.285714 44.714287 11.285714 42.142857L 11.285714 13.857142C 11.285714 13.857142 11.285714 11.285714 13.857142 11.285714L 42.142857 11.285714C 42.142857 11.285714 44.714287 11.285714 44.714287 13.857142L 44.714287 42.142857C 44.714287 42.142857 44.714287 44.714287 42.142857 44.714287M 17.714285 17.714285L 22.857143 17.714285M 17.714285 24.142857L 29.285713 24.142857M 39.571426 24.142857L 31.857143 37L 22.857143 31.857143L 17.714285 39.571426"></path></g></g></g><g id="g-root-tx_usageana_qsrv771runkzm-stroke" data-item-order="0" transform="translate(93, 213)"></g><g id="g-root-2_18fok371ruuner-stroke" data-item-order="0" transform="translate(27, 303)"><g id="2_18fok371ruuner-stroke" fill="none" stroke-linecap="round" stroke-linejoin="round" stroke-miterlimit="4" stroke="#de58a9" stroke-width="2"><g><path d="M 12.25 14.5L 43.75 14.5C 43.75 14.5 45.25 14.5 45.25 16L 45.25 40C 45.25 40 45.25 41.5 43.75 41.5L 12.25 41.5C 12.25 41.5 10.75 41.5 10.75 40L 10.75 16C 10.75 16 10.75 14.5 12.25 14.5M 10 10M 34 21.901001L 21.802 34.098999M 21.802 21.901001L 34 34.098999"></path></g></g></g><g id="g-root-tx_errortra_18fok371ruunes-stroke" data-item-order="0" transform="translate(93, 309)"></g></g></g></svg>