<?xml version="1.0" encoding="utf-8" standalone="yes"?>
<!DOCTYPE svg PUBLIC "-//W3C//DTD SVG 1.1//EN" "http://www.w3.org/Graphics/SVG/1.1/DTD/svg11.dtd">
<svg width="794" height="398" viewBox="0 0 794 398" style="fill:none;stroke:none;fill-rule:evenodd;clip-rule:evenodd;stroke-linecap:round;stroke-linejoin:round;stroke-miterlimit:1.5;" version="1.1" xmlns="http://www.w3.org/2000/svg" xmlns:xlink="http://www.w3.org/1999/xlink"><style id="fontImports">@import url("https://fonts.googleapis.com/css2?family=Roboto:wght@400;700&amp;display=block");</style><g id="items" style="isolation: isolate"><g id="blend" style="mix-blend-mode: normal"><g id="g-root-ro_deuonn1s4rg1y-fill" data-item-order="-24192" transform="translate(315, 51)"><g id="ro_deuonn1s4rg1y-fill" stroke="none" fill="#f5f5f5"><g><path d="M 34 10L 178 10C 178 10 202 10 202 34L 202 112C 202 112 202 136 178 136L 34 136C 34 136 10 136 10 112L 10 34C 10 34 10 10 34 10"></path></g></g></g><g id="g-root-ro_mg3yoj1s5416u-fill" data-item-order="-7776" transform="translate(339, 213)"><g id="ro_mg3yoj1s5416u-fill" stroke="none" fill="#fffbda"><g><path d="M 22 10L 142 10C 142 10 154 10 154 22L 154 52C 154 52 154 64 142 64L 22 64C 22 64 10 64 10 52L 10 22C 10 22 10 10 22 10"></path></g></g></g><g id="g-root-ro_1ur6mhf1s588p8-fill" data-item-order="-7128" transform="translate(135, 39)"><g id="ro_1ur6mhf1s588p8-fill" stroke="none" fill="#edf4ff"><g><path d="M 22 10L 130 10C 130 10 142 10 142 22L 142 52C 142 52 142 64 130 64L 22 64C 22 64 10 64 10 52L 10 22C 10 22 10 10 22 10"></path></g></g></g><g id="g-root-ro_zmkocz1s518n7-fill" data-item-order="-7128" transform="translate(555, 39)"><g id="ro_zmkocz1s518n7-fill" stroke="none" fill="#faf0ff"><g><path d="M 22 10L 130 10C 130 10 142 10 142 22L 142 52C 142 52 142 64 130 64L 22 64C 22 64 10 64 10 52L 10 22C 10 22 10 10 22 10"></path></g></g></g><g id="g-root-cu_1hfq4431s58b2e-fill" data-item-order="0" transform="translate(579, 93)"></g><g id="g-root-cu_1qbd4cz1s589hh-fill" data-item-order="0" transform="translate(267, 66)"></g><g id="g-root-cu_1hfq4431s58b2g-fill" data-item-order="0" transform="translate(363, 267)"></g><g id="g-root-tx_resource_i0agk31s541z5-fill" data-item-order="0" transform="translate(603, 105)"><g id="tx_resource_i0agk31s541z5-fill" stroke="none" fill="#484848"><g><text style="font: 20px Roboto, sans-serif; white-space: pre;" font-size="20px" font-family="Roboto, sans-serif"><tspan x="15.88" y="33.5" dominant-baseline="ideographic">Resource Usage</tspan></text></g></g></g><g id="g-root-cu_1qbd4cz1s589hk-fill" data-item-order="0" transform="translate(507, 66)"></g><g id="g-root-tx_performa_i0agk31s541z4-fill" data-item-order="0" transform="translate(15, 141)"><g id="tx_performa_i0agk31s541z4-fill" stroke="none" fill="#484848"><g><text style="font: 20px Roboto, sans-serif; white-space: pre;" font-size="20px" font-family="Roboto, sans-serif"><tspan x="14.33" y="33.5" dominant-baseline="ideographic">Performance Analysis</tspan></text></g></g></g><g id="g-root-cu_1lvjm8j1s58a9v-fill" data-item-order="0" transform="translate(411, 177)"></g><g id="g-root-tx_requestf_mg3yoj1s5416v-fill" data-item-order="0" transform="translate(87, 105)"><g id="tx_requestf_mg3yoj1s5416v-fill" stroke="none" fill="#484848"><g><text style="font: 20px Roboto, sans-serif; white-space: pre;" font-size="20px" font-family="Roboto, sans-serif"><tspan x="15.98" y="33.5" dominant-baseline="ideographic">Request Flow</tspan></text></g></g></g><g id="g-root-cu_1lvjm8j1s58a9y-fill" data-item-order="0" transform="translate(225, 93)"></g><g id="g-root-cu_1lvjm8j1s58aa1-fill" data-item-order="0" transform="translate(225, 93)"></g><g id="g-root-tx_structur_94ngb71s542rv-fill" data-item-order="0" transform="translate(387, 279)"><g id="tx_structur_94ngb71s542rv-fill" stroke="none" fill="#484848"><g><text style="font: 20px Roboto, sans-serif; white-space: pre;" font-size="20px" font-family="Roboto, sans-serif"><tspan x="17.34" y="33.5" dominant-baseline="ideographic">Structured Logs</tspan></text></g></g></g><g id="g-root-tx_unstruct_94ngb71s542rw-fill" data-item-order="0" transform="translate(387, 315)"><g id="tx_unstruct_94ngb71s542rw-fill" stroke="none" fill="#484848"><g><text style="font: 20px Roboto, sans-serif; white-space: pre;" font-size="20px" font-family="Roboto, sans-serif"><tspan x="12.11" y="33.5" dominant-baseline="ideographic">Unstructured Logs</tspan></text></g></g></g><g id="g-root-cu_1d0j32r1s588oz-fill" data-item-order="0" transform="translate(363, 267)"></g><g id="g-root-tx_systemhe_i0agk31s541z6-fill" data-item-order="0" transform="translate(603, 141)"><g id="tx_systemhe_i0agk31s541z6-fill" stroke="none" fill="#484848"><g><text style="font: 20px Roboto, sans-serif; white-space: pre;" font-size="20px" font-family="Roboto, sans-serif"><tspan x="17.3" y="33.5" dominant-baseline="ideographic">System Health</tspan></text></g></g></g><g id="g-root-cu_1hfq4431s58b2b-fill" data-item-order="0" transform="translate(579, 93)"></g><g id="g-root-stop_zmkocz1s518n6-fill" data-item-order="2000000000" transform="translate(567, 51)"></g><g id="g-root-tele_deuonn1s4rg1x-fill" data-item-order="2000000000" transform="translate(387, 75)"></g><g id="g-root-tx_metrics_142e6hf1s517ux-fill" data-item-order="2000000000" transform="translate(603, 54)"><g id="tx_metrics_142e6hf1s517ux-fill" stroke="none" fill="#ba5de5"><g><text style="font: 20px Roboto, sans-serif; white-space: pre;" font-size="20px" font-family="Roboto, sans-serif"><tspan x="12.5" y="33.5" dominant-baseline="ideographic">Metrics</tspan></text></g></g></g><g id="g-root-tx_opentele_huo6s31s4rf9o-fill" data-item-order="2000000000" transform="translate(339, 129)"><g id="tx_opentele_huo6s31s4rf9o-fill" stroke="none" fill="#484848"><g><text style="font: 20px Roboto, sans-serif; white-space: pre;" font-size="20px" font-family="Roboto, sans-serif"><tspan x="14.66" y="33.5" dominant-baseline="ideographic">OpenTelemetry</tspan></text></g></g></g><g id="g-root-down_1ur6mhf1s588p7-fill" data-item-order="2000000000" transform="translate(225, 51)"></g><g id="g-root-file_qvxgsz1s540el-fill" data-item-order="2000000000" transform="translate(351, 225)"></g><g id="g-root-tx_logging_zqxzyr1s542ro-fill" data-item-order="2000000000" transform="translate(387, 228)"><g id="tx_logging_zqxzyr1s542ro-fill" stroke="none" fill="#e0cb15"><g><text style="font: 20px Roboto, sans-serif; white-space: pre;" font-size="20px" font-family="Roboto, sans-serif"><tspan x="16.14" y="33.5" dominant-baseline="ideographic">Logging</tspan></text></g></g></g><g id="g-root-tx_tracing_4lpkr71s5883m-fill" data-item-order="2000000000" transform="translate(147, 54)"><g id="tx_tracing_4lpkr71s5883m-fill" stroke="none" fill="#4e88e7"><g><text style="font: 20px Roboto, sans-serif; white-space: pre;" font-size="20px" font-family="Roboto, sans-serif"><tspan x="12.98" y="33.5" dominant-baseline="ideographic">Tracing</tspan></text></g></g></g><g id="g-root-ro_deuonn1s4rg1y-stroke" data-item-order="-24192" transform="translate(315, 51)"><g id="ro_deuonn1s4rg1y-stroke" fill="none" stroke-linecap="round" stroke-linejoin="round" stroke-miterlimit="4" stroke="#484848" stroke-width="2"><g><path d="M 34 10L 178 10C 178 10 202 10 202 34L 202 112C 202 112 202 136 178 136L 34 136C 34 136 10 136 10 112L 10 34C 10 34 10 10 34 10"></path></g></g></g><g id="g-root-ro_mg3yoj1s5416u-stroke" data-item-order="-7776" transform="translate(339, 213)"><g id="ro_mg3yoj1s5416u-stroke" fill="none" stroke-linecap="round" stroke-linejoin="round" stroke-miterlimit="4" stroke="#e0cb15" stroke-width="2"><g><path d="M 22 10L 142 10C 142 10 154 10 154 22L 154 52C 154 52 154 64 142 64L 22 64C 22 64 10 64 10 52L 10 22C 10 22 10 10 22 10"></path></g></g></g><g id="g-root-ro_1ur6mhf1s588p8-stroke" data-item-order="-7128" transform="translate(135, 39)"><g id="ro_1ur6mhf1s588p8-stroke" fill="none" stroke-linecap="round" stroke-linejoin="round" stroke-miterlimit="4" stroke="#4e88e7" stroke-width="2"><g><path d="M 22 10L 130 10C 130 10 142 10 142 22L 142 52C 142 52 142 64 130 64L 22 64C 22 64 10 64 10 52L 10 22C 10 22 10 10 22 10"></path></g></g></g><g id="g-root-ro_zmkocz1s518n7-stroke" data-item-order="-7128" transform="translate(555, 39)"><g id="ro_zmkocz1s518n7-stroke" fill="none" stroke-linecap="round" stroke-linejoin="round" stroke-miterlimit="4" stroke="#ba5de5" stroke-width="2"><g><path d="M 22 10L 130 10C 130 10 142 10 142 22L 142 52C 142 52 142 64 130 64L 22 64C 22 64 10 64 10 52L 10 22C 10 22 10 10 22 10"></path></g></g></g><g id="g-root-cu_1hfq4431s58b2e-stroke" data-item-order="0" transform="translate(579, 93)"><g id="cu_1hfq4431s58b2e-stroke" fill="none" stroke-linecap="round" stroke-linejoin="round" stroke-miterlimit="4" stroke="#969696" stroke-width="2" stroke-dasharray="5.0, 7.0"><g><path d="M 10 10L 10 17.5L 10 58C 10.000002 64.627417 15.372585 70 22.000002 69.999999L 22.1 70L 28 70"></path></g></g></g><g id="g-root-cu_1qbd4cz1s589hh-stroke" data-item-order="0" transform="translate(267, 66)"><g id="cu_1qbd4cz1s589hh-stroke" fill="none" stroke-linecap="round" stroke-linejoin="round" stroke-miterlimit="4" stroke="#969696" stroke-width="2" stroke-dasharray="5.0, 7.0"><g><path d="M 58 37L 55 37L 54.9 37C 50.939934 36.982885 46.647411 35.702052 42.500002 33.3C 40.005522 31.898041 36.944719 28.369114 33.999999 23.499999C 31.05528 18.630885 27.994476 15.101958 25.499999 13.7C 21.352591 11.297948 17.060069 10.017115 13.1 10L 13 10L 10 10"></path></g></g></g><g id="g-root-cu_1hfq4431s58b2g-stroke" data-item-order="0" transform="translate(363, 267)"><g id="cu_1hfq4431s58b2g-stroke" fill="none" stroke-linecap="round" stroke-linejoin="round" stroke-miterlimit="4" stroke="#969696" stroke-width="2" stroke-dasharray="5.0, 7.0"><g><path d="M 10 10L 10 22L 10 34L 19 34L 28 34"></path></g></g></g><g id="g-root-tx_resource_i0agk31s541z5-stroke" data-item-order="0" transform="translate(603, 105)"></g><g id="g-root-cu_1qbd4cz1s589hk-stroke" data-item-order="0" transform="translate(507, 66)"><g id="cu_1qbd4cz1s589hk-stroke" fill="none" stroke-linecap="round" stroke-linejoin="round" stroke-miterlimit="4" stroke="#969696" stroke-width="2" stroke-dasharray="5.0, 7.0"><g><path d="M 10 37L 13 37L 13.1 37C 17.060069 36.982885 21.352592 35.702052 25.500001 33.3C 27.994475 31.898042 31.055279 28.369115 33.999998 23.5C 36.944718 18.630885 40.005521 15.101959 42.499998 13.700001C 46.647412 11.297949 50.939934 10.017115 54.900003 10L 55 10L 58 10"></path></g></g></g><g id="g-root-tx_performa_i0agk31s541z4-stroke" data-item-order="0" transform="translate(15, 141)"></g><g id="g-root-cu_1lvjm8j1s58a9v-stroke" data-item-order="0" transform="translate(411, 177)"><g id="cu_1lvjm8j1s58a9v-stroke" fill="none" stroke-linecap="round" stroke-linejoin="round" stroke-miterlimit="4" stroke="#969696" stroke-width="2" stroke-dasharray="5.0, 7.0"><g><path d="M 10 10L 10 28L 10 46"></path></g></g></g><g id="g-root-tx_requestf_mg3yoj1s5416v-stroke" data-item-order="0" transform="translate(87, 105)"></g><g id="g-root-cu_1lvjm8j1s58a9y-stroke" data-item-order="0" transform="translate(225, 93)"><g id="cu_1lvjm8j1s58a9y-stroke" fill="none" stroke-linecap="round" stroke-linejoin="round" stroke-miterlimit="4" stroke="#969696" stroke-width="2" stroke-dasharray="5.0, 7.0"><g><path d="M 28 10L 28 22L 28 34L 19 34L 10 34"></path></g></g></g><g id="g-root-cu_1lvjm8j1s58aa1-stroke" data-item-order="0" transform="translate(225, 93)"><g id="cu_1lvjm8j1s58aa1-stroke" fill="none" stroke-linecap="round" stroke-linejoin="round" stroke-miterlimit="4" stroke="#969696" stroke-width="2" stroke-dasharray="5.0, 7.0"><g><path d="M 28 10L 28 17.5L 28 58C 27.999999 64.627415 22.627416 69.999998 16 69.999998L 15.9 70L 10 70"></path></g></g></g><g id="g-root-tx_structur_94ngb71s542rv-stroke" data-item-order="0" transform="translate(387, 279)"></g><g id="g-root-tx_unstruct_94ngb71s542rw-stroke" data-item-order="0" transform="translate(387, 315)"></g><g id="g-root-cu_1d0j32r1s588oz-stroke" data-item-order="0" transform="translate(363, 267)"><g id="cu_1d0j32r1s588oz-stroke" fill="none" stroke-linecap="round" stroke-linejoin="round" stroke-miterlimit="4" stroke="#969696" stroke-width="2" stroke-dasharray="5.0, 7.0"><g><path d="M 10 10L 10 17.5L 10 58C 10.000002 64.627417 15.372585 70 22.000002 69.999999L 22.1 70L 28 70"></path></g></g></g><g id="g-root-tx_systemhe_i0agk31s541z6-stroke" data-item-order="0" transform="translate(603, 141)"></g><g id="g-root-cu_1hfq4431s58b2b-stroke" data-item-order="0" transform="translate(579, 93)"><g id="cu_1hfq4431s58b2b-stroke" fill="none" stroke-linecap="round" stroke-linejoin="round" stroke-miterlimit="4" stroke="#969696" stroke-width="2" stroke-dasharray="5.0, 7.0"><g><path d="M 10 10L 10 22L 10 34L 19 34L 28 34"></path></g></g></g><g id="g-root-stop_zmkocz1s518n6-stroke" data-item-order="2000000000" transform="translate(567, 51)"><g id="stop_zmkocz1s518n6-stroke" fill="none" stroke-linecap="round" stroke-linejoin="round" stroke-miterlimit="4" stroke="#ba5de5" stroke-width="2"><g><path d="M 10 10M 24.824999 18.5625L 21.825001 20.0625L 19.575001 21.3125C 18.325001 21.9375 16.700001 21.6875 15.7 20.5625L 14.325 18.8125C 13.7 18.0625 12.45 17.9375 11.7 18.5625C 10.95 19.1875 10.825 20.4375 11.45 21.1875L 12.825 22.9375C 14.2 24.5625 16.200001 25.4375 18.200001 25.4375C 19.325001 25.4375 20.325001 25.1875 21.325001 24.6875L 21.950001 24.3125L 23.825001 27.6875L 22.075001 28.0625C 20.575001 28.4375 19.450001 29.5625 18.950001 30.9375C 18.450001 32.4375 18.825001 33.9375 19.825001 35.1875L 22.700001 38.3125C 23.075001 38.6875 23.574999 38.9375 24.075001 38.9375C 24.575001 38.9375 24.950001 38.8125 25.325001 38.4375C 26.074999 37.6875 26.074999 36.5625 25.449999 35.8125L 22.575001 32.6875C 22.450001 32.5625 22.324999 32.3125 22.450001 32.0625C 22.575001 31.8125 22.700001 31.6875 22.825001 31.6875L 25.325001 31.1875C 25.575001 31.1875 25.825001 31.0625 25.950001 30.9375L 34.700001 38.5625C 35.075001 38.8125 35.450001 39.0625 35.950001 39.0625C 36.450001 39.0625 36.950001 38.8125 37.325001 38.4375C 37.950001 37.6875 37.950001 36.4375 37.075001 35.8125C 31.547501 31.022501 28.385 28.5725 25.075001 22.6875M 33.325001 23.4375C 36.086422 23.4375 38.325001 21.198923 38.325001 18.4375C 38.325001 15.676077 36.086422 13.4375 33.325001 13.4375C 30.563576 13.4375 28.325001 15.676077 28.325001 18.4375C 28.325001 21.198923 30.563576 23.4375 33.325001 23.4375ZM 33.325001 18.4375L 32.075001 17.1875M 33.325001 13.4375L 33.325001 10.9375M 31.450001 10.9375L 35.200001 10.9375M 27.700001 14.0625L 29.2575 15.56625M 37.4025 15.56625L 38.950001 14.0625M 19.575001 18.535C 21.646069 18.535 23.325001 16.856068 23.325001 14.785C 23.325001 12.713932 21.646069 11.035 19.575001 11.035C 17.503933 11.035 15.825001 12.713932 15.825001 14.785C 15.825001 16.856068 17.503933 18.535 19.575001 18.535Z"></path></g></g></g><g id="g-root-tele_deuonn1s4rg1x-stroke" data-item-order="2000000000" transform="translate(387, 75)"><g id="tele_deuonn1s4rg1x-stroke" fill="none" stroke-linecap="round" stroke-linejoin="round" stroke-miterlimit="4" stroke="#484848" stroke-width="2"><g><path d="M 23.714287 37.428574L 13.428572 47.714287M 20.285715 54.57143L 30.571428 44.285713M 22 35.714287L 32.285713 46L 56.285713 25.428572L 42.57143 11.714286L 22 35.714287ZM 11.714286 46L 22 56.285713"></path></g></g></g><g id="g-root-tx_metrics_142e6hf1s517ux-stroke" data-item-order="2000000000" transform="translate(603, 54)"></g><g id="g-root-tx_opentele_huo6s31s4rf9o-stroke" data-item-order="2000000000" transform="translate(339, 129)"></g><g id="g-root-down_1ur6mhf1s588p7-stroke" data-item-order="2000000000" transform="translate(225, 51)"><g id="down_1ur6mhf1s588p7-stroke" fill="none" stroke-linecap="round" stroke-linejoin="round" stroke-miterlimit="4" stroke="#4e88e7" stroke-width="2"><g><path d="M 24.15625 25.01125C 24.15556 25.946194 23.397444 26.703751 22.4625 26.703751L 12.3075 26.703751C 11.372758 26.703751 10.615 25.945992 10.615 25.01125L 10.615 12.3175C 10.615 11.382758 11.372758 10.625 12.3075 10.625L 18.94125 10.625C 19.390589 10.626136 19.821005 10.806038 20.137501 11.125L 23.66 14.64625C 23.979151 14.96313 24.159058 15.394006 24.16 15.84375ZM 22.1775 35.081249L 16.5525 35.081249C 15.862144 35.081249 15.3025 34.521606 15.3025 33.831249L 15.3025 30.543749M 24.15625 22.4725L 21.04875 18.922501C 20.836216 18.677683 20.528399 18.536455 20.204201 18.535017C 19.880003 18.533581 19.570946 18.672075 19.356251 18.915001L 15.6925 23.040001L 13.66125 21.415001C 13.213445 21.055731 12.566954 21.091288 12.16125 21.497499L 10.615 23.036249M 14.83375 15C 15.524106 15 16.08375 15.559644 16.08375 16.25C 16.08375 16.940355 15.524106 17.5 14.83375 17.5C 14.143394 17.5 13.58375 16.940355 13.58375 16.25C 13.58375 15.559644 14.143394 15 14.83375 15M 19.6775 37.581249L 22.1775 35.081249L 19.6775 32.581249M 33.759998 28.574999C 36.866249 28.574999 39.384998 27.768749 39.384998 26.775C 39.384998 25.78125 36.866249 24.974998 33.759998 24.974998C 30.653751 24.974998 28.135 25.78125 28.135 26.775C 28.135 27.768749 30.6525 28.574999 33.759998 28.574999ZM 28.135 32.174999L 28.135 26.775M 39.384998 26.775L 39.384998 32.174999M 39.384998 32.174999L 39.384998 37.575001C 39.384998 38.575001 36.866249 39.375 33.759998 39.375C 30.653751 39.375 28.135 38.568748 28.135 37.575001L 28.135 32.174999M 39.384998 30.299999C 39.384998 31.300001 36.866249 32.099998 33.759998 32.099998C 30.653751 32.099998 28.135 31.293751 28.135 30.299999M 39.384998 34.049999C 39.384998 35.050003 36.866249 35.849998 33.759998 35.849998C 30.653751 35.849998 28.135 35.043751 28.135 34.049999"></path></g></g></g><g id="g-root-file_qvxgsz1s540el-stroke" data-item-order="2000000000" transform="translate(351, 225)"><g id="file_qvxgsz1s540el-stroke" fill="none" stroke-linecap="round" stroke-linejoin="round" stroke-miterlimit="4" stroke="#e0cb15" stroke-width="2"><g><path d="M 23.125 39.375L 11.875 39.375C 11.184644 39.375 10.625 38.815353 10.625 38.125L 10.625 11.875C 10.625 11.184644 11.184644 10.625 11.875 10.625L 28.491251 10.625C 28.822744 10.625071 29.140635 10.756813 29.375 10.99125L 34.008751 15.625C 34.243187 15.859366 34.374928 16.177258 34.375 16.508749L 34.375 20.625M 24.375 31.875C 24.375002 36.017136 27.732864 39.375 31.875 39.375C 36.017136 39.375 39.375 36.017136 39.375 31.875C 39.375 27.732864 36.017136 24.375002 31.875 24.375002C 27.732864 24.375002 24.375002 27.732864 24.375002 31.875ZM 34.375 31.875L 31.875 31.875L 31.875 28.125"></path></g></g></g><g id="g-root-tx_logging_zqxzyr1s542ro-stroke" data-item-order="2000000000" transform="translate(387, 228)"></g><g id="g-root-tx_tracing_4lpkr71s5883m-stroke" data-item-order="2000000000" transform="translate(147, 54)"></g></g></g></svg>