<?xml version="1.0" encoding="utf-8" standalone="yes"?>
<!DOCTYPE svg PUBLIC "-//W3C//DTD SVG 1.1//EN" "http://www.w3.org/Graphics/SVG/1.1/DTD/svg11.dtd">
<svg width="616" height="485" viewBox="0 0 616 485" style="fill:none;stroke:none;fill-rule:evenodd;clip-rule:evenodd;stroke-linecap:round;stroke-linejoin:round;stroke-miterlimit:1.5;" version="1.1" xmlns="http://www.w3.org/2000/svg" xmlns:xlink="http://www.w3.org/1999/xlink"><style id="fontImports">@import url("https://fonts.googleapis.com/css2?family=Shantell+Sans:wght@300..800&amp;display=block");</style><g id="items" style="isolation: isolate"><g id="blend" style="mix-blend-mode: normal"><g id="g-root-3.cu_sy_1czvqij1n5cqh4-fill" data-item-order="-104970" transform="translate(256, 100)"><g id="3.cu_sy_1czvqij1n5cqh4-fill" stroke="none" fill="#ebebeb"><g><path d="M 179.9 349.5L 195.2 348L 193.3 328.1L 178 329.6ZM 116.9 335.4L 139 330.1L 138.6 309.6L 112.2 315.9ZM 138.6 309.6L 83.9 298.6L 87.8 319.8L 139 330.1ZM 87.8 319.8L 99.4 312.5L 97.4 290.2L 83.9 298.6ZM 97.4 290.2L 65.8 277.8L 60.3 297.1L 99.4 312.5ZM 60.3 297.1L 67.8 298.5L 76.4 279.8L 65.8 277.8ZM 76.4 279.8L 44.1 254L 41.6 277.6L 67.8 298.5ZM 41.6 277.6L 59.3 268.7L 57.6 247.3L 44.1 254ZM 57.6 247.3L 28.7 238.3L 28.7 259.3L 59.3 268.7ZM 28.7 259.3L 49.3 252.9L 53.4 230.8L 28.7 238.3ZM 53.4 230.8L 27.4 210.7L 21.5 231.4L 49.3 252.9ZM 21.5 231.4L 48 228.8L 51.3 208.3L 27.4 210.7ZM 51.3 208.3L 18.4 193.7L 15.8 214.5L 48 228.8ZM 15.8 214.5L 46.6 209.1L 48.8 188.4L 18.4 193.7ZM 48.8 188.4L 17.5 176L 15.2 196.6L 46.6 209.1ZM 15.2 196.6L 49 191.3L 53.5 170.3L 17.5 176ZM 53.5 170.3L 15.8 145.6L 10.3 165.9L 49 191.3ZM 10.3 165.9L 67.9 163.1L 69.1 143L 15.8 145.6ZM 69.1 143L 12.6 133.6L 12 153.7L 67.9 163.1ZM 12 153.7L 73.8 147.5L 75.8 127.2L 12.6 133.6ZM 75.8 127.2L 20.9 110.5L 18.9 130.8L 73.8 147.5ZM 18.9 130.8L 102.5 122.6L 104.7 102.3L 20.9 110.5ZM 104.7 102.3L 35.6 79.5L 33.4 99.8L 102.5 122.6ZM 33.4 99.8L 293.1 74.4L 291.8 54.4L 35.6 79.5ZM 291.8 54.4L 50.1 61.5L 51.5 81.5L 293.1 74.4ZM 51.5 81.5L 275.6 55.4L 274.5 35.4L 50.1 61.5ZM 274.5 35.4L 80 35.7L 81.3 55.7L 275.6 55.4ZM 81.3 55.7L 233.7 36.6L 233.6 16.4L 80 35.7ZM 233.6 16.4L 151.8 7.2L 148.1 26.9L 233.7 36.6ZM 148.1 26.9L 160.3 30.2L 165.5 10.8L 151.8 7.2ZM 230.8 322.2L 252 320.4L 250.3 300.5L 229.1 302.3ZM 270.3 299L 271 296.7L 285.2 285.1L 291.4 272.4L 292.2 272.3L 304.7 250.5L 291.5 252.2L 271.5 269.1L 268.5 279.1L 268.6 279.1ZM 304.7 250.5L 295.9 229.7L 283.4 251.5L 292.2 272.3ZM 283.4 251.5L 308.9 248.2L 317.6 226.9L 295.9 229.7ZM 317.6 226.9L 302.4 207.4L 291.9 226.4L 308.9 248.2ZM 291.9 226.4L 323.7 229.8L 329.3 210.3L 302.4 207.4ZM 329.3 210.3L 293.8 192.8L 290.3 213.4L 323.7 229.8ZM 290.3 213.4L 330.2 208.3L 332.2 187.9L 293.8 192.8ZM 332.2 187.9L 285.8 172.6L 284.3 193.2L 330.2 208.3ZM 284.3 193.2L 329.5 185.1L 330.6 164.5L 285.8 172.6ZM 330.6 164.5L 283.1 150.2L 281.5 170.6L 329.5 185.1ZM 281.5 170.6L 330.2 164.4L 331.8 144L 283.1 150.2ZM 331.8 144L 263.7 124.3L 261 144.4L 330.2 164.4ZM 261 144.4L 324.5 143.9L 326.2 123.9L 263.7 124.3ZM 326.2 123.9L 246.8 110L 246.1 130.2L 324.5 143.9ZM 246.1 130.2L 318.4 122.8L 318.6 102.7L 246.8 110ZM 318.6 102.7L 217.9 90.4L 217.2 110.5L 318.4 122.8ZM 217.2 110.5L 314.3 105L 313.2 85L 217.9 90.4Z" fill-rule="nonzero"></path></g></g></g><g id="g-root-2.cu_sy_1czvqij1n5cqh5-fill" data-item-order="-104966" transform="translate(298, 184)"><g id="2.cu_sy_1czvqij1n5cqh5-fill" stroke="none" fill="#c8ffe5"><g><path d="M 140.1 260.6L 164.8 259.1L 163.5 239.2L 138.9 240.7ZM 76 251.1L 99.6 244.6L 100 223.7L 70.7 231.8ZM 100 223.7L 56.9 210L 53.2 229.8L 99.6 244.6ZM 53.2 229.8L 65.8 230.5L 71.6 210.8L 56.9 210ZM 71.6 210.8L 38.2 191.7L 31.9 211.1L 65.8 230.5ZM 31.9 211.1L 51.5 213.3L 57.4 193.8L 38.2 191.7ZM 57.4 193.8L 23.7 176.3L 21.9 197.9L 51.5 213.3ZM 21.9 197.9L 49.2 189.3L 51.8 167.5L 23.7 176.3ZM 51.8 167.5L 22.3 149.4L 18.5 170.5L 49.2 189.3ZM 18.5 170.5L 53.9 163.8L 54.3 143.3L 22.3 149.4ZM 54.3 143.3L 9.6 132.9L 9.3 153.3L 53.9 163.8ZM 9.3 153.3L 57.3 143.9L 59.3 123.1L 9.6 132.9ZM 59.3 123.1L 17.1 106L 13.4 126.1L 57.3 143.9ZM 13.4 126.1L 75.6 124.4L 78.3 104.3L 17.1 106ZM 78.3 104.3L 19.8 86.8L 18.2 107.2L 75.6 124.4ZM 18.2 107.2L 227.8 77.5L 226.1 57.6L 19.8 86.8ZM 226.1 57.6L 28.9 64.1L 30.3 84.1L 227.8 77.5ZM 30.3 84.1L 217.5 63.8L 216.8 43.8L 28.9 64.1ZM 216.8 43.8L 49.5 37.1L 50.7 57.1L 217.5 63.8ZM 50.7 57.1L 183.9 35.8L 183.8 15.5L 49.5 37.1ZM 183.8 15.5L 113.1 4.9L 107.6 24.3L 183.9 35.8ZM 107.6 24.3L 117.4 28.4L 125.1 10L 113.1 4.9ZM 185.6 231.4L 189.9 230L 208.2 216.6L 212 208.5L 223.8 207.2L 230.8 186.2L 212.1 188.4L 192 205.9L 190.5 211.6L 186.7 211.4ZM 230.8 186.2L 215.3 171.5L 207.6 191.8L 223.8 207.2ZM 207.6 191.8L 235.4 190.8L 240.5 170.6L 215.3 171.5ZM 240.5 170.6L 208.5 151.5L 205.3 172.9L 235.4 190.8ZM 205.3 172.9L 249.4 162.1L 249.4 141.5L 208.5 151.5ZM 249.4 141.5L 200.8 129.3L 200.1 149.7L 249.4 162.1ZM 200.1 149.7L 246 141.5L 246 121.2L 200.8 129.3ZM 246 121.2L 185.1 110.5L 184.4 130.7L 246 141.5ZM 184.4 130.7L 248.8 123.7L 249.9 103.5L 185.1 110.5ZM 249.9 103.5L 169.9 86.1L 168.2 106.2L 248.8 123.7ZM 168.2 106.2L 241.2 103.4L 240.4 83.4L 169.9 86.1Z" fill-rule="nonzero"></path></g></g></g><g id="g-root-1.cu_sy_1czvqij1n5cqh6-fill" data-item-order="-104962" transform="translate(340, 268)"><g id="1.cu_sy_1czvqij1n5cqh6-fill" stroke="none" fill="#dce9ff"><g><path d="M 159.1 125.8L 163.9 123L 151.5 107.1L 149 108.6ZM 151.5 107.1L 103.3 156.9L 120.4 167.9L 163.9 123ZM 120.4 167.9L 161.9 61.4L 143.9 52.4L 103.3 156.9ZM 143.9 52.4L 78.1 157.8L 95.7 167.4L 161.9 61.4ZM 95.7 167.4L 155.9 42.4L 138.4 32.6L 78.1 157.8ZM 138.4 32.6L 59.8 154.6L 77.5 164L 155.9 42.4ZM 77.5 164L 134 31.9L 116.3 22.5L 59.8 154.6ZM 116.3 22.5L 36.4 147.6L 54.2 156.8L 134 31.9ZM 54.2 156.8L 112.2 14.8L 94.1 6.3L 36.4 147.6ZM 94.1 6.3L 24.2 138.1L 42.3 146.9L 112.2 14.8ZM 42.3 146.9L 98.5 18.3L 81 8.4L 24.2 138.1ZM 81 8.4L 7.1 114.2L 24.4 124.5L 98.5 18.3ZM 24.4 124.5L 74.6 23.4L 57.8 12.4L 7.1 114.2ZM 57.8 12.4L 13.1 66.5L 34.9 71.5L 74.6 23.4ZM 34.9 71.5L 30.9 55.3L 11.5 60L 13.1 66.5Z" fill-rule="nonzero"></path></g></g></g><g id="g-root-tx_apirelea_18k28e31n5cr9f-fill" data-item-order="0" transform="translate(106, 28)"><g id="tx_apirelea_18k28e31n5cr9f-fill" stroke="none" fill="#484848"><g><text style="font: bold 25px &quot;Shantell Sans&quot;, cursive; white-space: pre;" font-weight="bold" font-size="25px" font-family="'Shantell Sans', cursive"><tspan x="13.41" y="44.5" dominant-baseline="ideographic">API Release Policy Hierarchy</tspan></text></g></g></g><g id="g-root-tx_internal_zof8571n5cs26-fill" data-item-order="0" transform="translate(40, 136)"><g id="tx_internal_zof8571n5cs26-fill" stroke="none" fill="#484848"><g><text style="font: 20px &quot;Shantell Sans&quot;, cursive; white-space: pre;" font-size="20px" font-family="'Shantell Sans', cursive"><tspan x="19.63" y="35.5" dominant-baseline="ideographic">Internal use only</tspan></text></g></g></g><g id="g-root-tx_privatea_qteozf1n5cqgx-fill" data-item-order="0" transform="translate(352, 136)"><g id="tx_privatea_qteozf1n5cqgx-fill" stroke="none" fill="#484848"><g><text style="font: 20px &quot;Shantell Sans&quot;, cursive; white-space: pre;" font-size="20px" font-family="'Shantell Sans', cursive"><tspan x="15.77" y="35.5" dominant-baseline="ideographic">Private APIs</tspan></text></g></g></g><g id="g-root-tx_specific_zof8571n5cs25-fill" data-item-order="0" transform="translate(52, 208)"><g id="tx_specific_zof8571n5cs25-fill" stroke="none" fill="#484848"><g><text style="font: 20px &quot;Shantell Sans&quot;, cursive; white-space: pre;" font-size="20px" font-family="'Shantell Sans', cursive"><tspan x="17.41" y="35.5" dominant-baseline="ideographic">Specific business </tspan><tspan x="93.77" y="59.5" dominant-baseline="ideographic">partners</tspan></text></g></g></g><g id="g-root-tx_partnera_qteozf1n5cqgw-fill" data-item-order="0" transform="translate(352, 220)"><g id="tx_partnera_qteozf1n5cqgw-fill" stroke="none" fill="#484848"><g><text style="font: 20px &quot;Shantell Sans&quot;, cursive; white-space: pre;" font-size="20px" font-family="'Shantell Sans', cursive"><tspan x="13.3" y="35.5" dominant-baseline="ideographic">Partner APIs</tspan></text></g></g></g><g id="g-root-tx_opentoal_zof8571n5cs24-fill" data-item-order="0" transform="translate(100, 322)"><g id="tx_opentoal_zof8571n5cs24-fill" stroke="none" fill="#484848"><g><text style="font: 20px &quot;Shantell Sans&quot;, cursive; white-space: pre;" font-size="20px" font-family="'Shantell Sans', cursive"><tspan x="20.76" y="35.5" dominant-baseline="ideographic">Open to all </tspan><tspan x="24.37" y="59.5" dominant-baseline="ideographic">developers</tspan></text></g></g></g><g id="g-root-tx_publicap_v8lq0r1n5csuf-fill" data-item-order="0" transform="translate(358, 334)"><g id="tx_publicap_v8lq0r1n5csuf-fill" stroke="none" fill="#484848"><g><text style="font: 20px &quot;Shantell Sans&quot;, cursive; white-space: pre;" font-size="20px" font-family="'Shantell Sans', cursive"><tspan x="15.63" y="35.5" dominant-baseline="ideographic">Public APIs</tspan></text></g></g></g><g id="g-root-3.cu_sy_1czvqij1n5cqh4-stroke" data-item-order="-104970" transform="translate(256, 100)"><g id="3.cu_sy_1czvqij1n5cqh4-stroke" fill="none" stroke-linecap="round" stroke-linejoin="round" stroke-miterlimit="4" stroke="#484848" stroke-width="4"><g><path d="M 172 334C 188.6 332.5 205.2 332.8 219.8 326.8C 235.7 320.3 251 313.2 265.3 304.4C 278.7 296.3 290.5 285.2 299.3 272.2C 310.1 256.3 319.9 239.6 326.4 221C 331.9 205.7 334.6 189.1 334 172C 333.2 149.7 328.2 129 321.4 109.2C 314.9 90.3 302.7 74.1 289 59.9C 274.6 45.1 257.5 32.8 238.4 24.2C 218.1 15 195.6 9.8 172 10C 151.5 10.2 131.7 13.6 113.7 20.8C 95.5 28.1 78.5 37.8 64.4 50.9C 47.3 66.8 34.2 86.3 23.4 107.4C 13.5 126.6 8.6 149.1 10 172C 12.1 204.7 19.7 235.2 36.5 260.7C 51 282.6 71.1 299.7 93.5 313.6C 116.2 327.6 143.6 333.2 172 334C 158.9 332.1 146.2 330.9 134 327.7C 121.5 324.6 110.4 317.5 100.2 310C 90.4 302.8 83.4 292.9 74.9 284.3C 65.7 275 62.7 261.4 57.3 249.2C 52.6 238.5 52.4 226.2 52 214C 51.3 193.9 57.1 175 65.7 158.3C 74.8 140.5 87.7 124.3 104.9 114.5C 125 103 147.2 94 172 94C 207.7 94 238.3 110.9 261.7 134.2C 281.8 154.3 291.1 183.4 292 214C 292.6 234.5 288 254.5 277.8 270.7C 266.5 288.6 253.1 305.2 235 316.1C 216.6 327.2 195.1 334.9 172 334M 172 334C 171.9 334 172.1 334 172 334"></path><path d="M 172 334C 261.4701 334 334 261.4701 334 172C 334 82.5299 261.4701 10 172 10C 82.5299 10 10 82.5299 10 172C 10 261.3368 82.7137 333.7843 172 334C 105.9097 333.7844 52 280.1408 52 214C 52 147.7258 105.7258 94 172 94C 238.2742 94 292 147.7258 292 214C 292 280.2742 238.2742 334 172 334ZM 172 334C 171.8666 334 172.1332 334.0007 172 334Z"></path></g></g></g><g id="g-root-2.cu_sy_1czvqij1n5cqh5-stroke" data-item-order="-104966" transform="translate(298, 184)"><g id="2.cu_sy_1czvqij1n5cqh5-stroke" fill="none" stroke-linecap="round" stroke-linejoin="round" stroke-miterlimit="4" stroke="#484848" stroke-width="4"><g><path d="M 130 250C 166.3 248.5 197.5 232.6 220.9 208.4C 240.2 188.4 250.5 159.9 250 130C 249.5 99.3 238.9 71 219.6 50.2C 197.2 25.9 165.6 8.6 130 10C 117.1 10.5 104.6 12.2 92.9 15.9C 81.2 19.5 69.6 24.2 60.6 32.1C 51.4 40.1 41.4 47.4 34.5 57.4C 27.6 67.2 22.1 77.9 17.2 89C 11.7 101.4 8.8 115.6 10 130C 11.4 147.7 13.7 164.8 20.9 179.9C 27.5 193.7 36.7 205.7 47.2 216.6C 57.6 227.5 70.8 235.6 85.1 241.2C 99 246.6 114.1 249.3 130 250C 115.1 251.1 100.5 246.7 89.3 238.3C 79 230.7 70.1 221.8 62.8 211.4C 55 200.4 53.9 186.3 52 172C 50.1 157.2 55.7 142.7 63.5 131.2C 71.2 119.7 81.3 110.3 93.2 103.2C 103.8 96.8 116.8 95.3 130 94C 143.8 92.6 157.9 96.2 168.2 104C 179 112.1 189.8 120.2 196.8 131.7C 203.9 143.4 207.3 157.3 208 172C 209.1 194.2 198.7 214.3 183.7 228.5C 169.8 241.9 150.7 252 130 250M 130 250C 129.9 250 130.1 250 130 250"></path><path d="M 130 250C 196.2742 250 250 196.2742 250 130C 250 63.7258 196.2742 10 130 10C 63.7258 10 10 63.7258 10 130C 10 196.1408 63.9097 249.7844 130 250C 87.1057 249.7847 52 214.9449 52 172C 52 128.9218 86.9218 94 130 94C 173.0782 94 208 128.9218 208 172C 208 215.0782 173.0782 250 130 250ZM 130 250C 129.8666 250 130.1332 250.0007 130 250Z"></path></g></g></g><g id="g-root-1.cu_sy_1czvqij1n5cqh6-stroke" data-item-order="-104962" transform="translate(340, 268)"><g id="1.cu_sy_1czvqij1n5cqh6-stroke" fill="none" stroke-linecap="round" stroke-linejoin="round" stroke-miterlimit="4" stroke="#484848" stroke-width="4"><g><path d="M 166 88C 167.3 110.3 157.1 130.9 141.6 144.6C 127.2 157.4 108.8 165.4 88 166C 74.7 167.7 60.9 164.1 50.9 156.5C 39.4 147.6 25.9 140 20.3 126.7C 15.3 114.5 8.3 102 10 88C 12.5 67 18.3 47.7 32 33.7C 46.2 19.2 66 10.5 88 10C 131.1 9.1 166.1 44.9 166 88M 88 166C 87.9 166 88.1 166 88 166"></path><path d="M 166 88C 166 131.0782 131.0782 166 88 166C 45.1057 165.7847 10 130.9449 10 88C 10 44.9218 44.9218 10 88 10C 131.0782 10 166 44.9218 166 88ZM 88 166C 87.8666 166 88.1332 166.0007 88 166Z"></path></g></g></g><g id="g-root-tx_apirelea_18k28e31n5cr9f-stroke" data-item-order="0" transform="translate(106, 28)"></g><g id="g-root-tx_internal_zof8571n5cs26-stroke" data-item-order="0" transform="translate(40, 136)"></g><g id="g-root-tx_privatea_qteozf1n5cqgx-stroke" data-item-order="0" transform="translate(352, 136)"></g><g id="g-root-tx_specific_zof8571n5cs25-stroke" data-item-order="0" transform="translate(52, 208)"></g><g id="g-root-tx_partnera_qteozf1n5cqgw-stroke" data-item-order="0" transform="translate(352, 220)"></g><g id="g-root-tx_opentoal_zof8571n5cs24-stroke" data-item-order="0" transform="translate(100, 322)"></g><g id="g-root-tx_publicap_v8lq0r1n5csuf-stroke" data-item-order="0" transform="translate(358, 334)"></g></g></g></svg>