<?xml version="1.0" encoding="utf-8" standalone="yes"?>
<!DOCTYPE svg PUBLIC "-//W3C//DTD SVG 1.1//EN" "http://www.w3.org/Graphics/SVG/1.1/DTD/svg11.dtd">
<svg width="830" height="524" viewBox="0 0 830 524" style="fill:none;stroke:none;fill-rule:evenodd;clip-rule:evenodd;stroke-linecap:round;stroke-linejoin:round;stroke-miterlimit:1.5;" version="1.1" xmlns="http://www.w3.org/2000/svg" xmlns:xlink="http://www.w3.org/1999/xlink"><style id="fontImports">@import url("https://fonts.googleapis.com/css2?family=Roboto:wght@400;700&amp;display=block");</style><g id="items" style="isolation: isolate"><g id="blend" style="mix-blend-mode: normal"><g id="g-root-ro_1lyn78b1hv97us-fill" data-item-order="-31320" transform="translate(303, 90)"><g id="ro_1lyn78b1hv97us-fill" stroke="none" fill="#f5f5f5"><g><path d="M 34 10L 166 10C 166 10 190 10 190 34L 190 160C 190 160 190 184 166 184L 34 184C 34 184 10 184 10 160L 10 34C 10 34 10 10 34 10"></path></g></g></g><g id="g-root-ro_142de1n1hvg83z-fill" data-item-order="-11016" transform="translate(51, 39)"><g id="ro_142de1n1hvg83z-fill" stroke="none" fill="#f4ffdc"><g><path d="M 22 10L 202 10C 202 10 214 10 214 22L 214 52C 214 52 214 64 202 64L 22 64C 22 64 10 64 10 52L 10 22C 10 22 10 10 22 10"></path></g></g></g><g id="g-root-ro_1hbyh5n1hvdfym-fill" data-item-order="-9072" transform="translate(531, 39)"><g id="ro_1hbyh5n1hvdfym-fill" stroke="none" fill="#faf0ff"><g><path d="M 22 10L 166 10C 166 10 178 10 178 22L 178 52C 178 52 178 64 166 64L 22 64C 22 64 10 64 10 52L 10 22C 10 22 10 10 22 10"></path></g></g></g><g id="g-root-ro_1d306zf1hvdf64-fill" data-item-order="-8424" transform="translate(531, 189)"><g id="ro_1d306zf1hvdf64-fill" stroke="none" fill="#fffbda"><g><path d="M 22 10L 154 10C 154 10 166 10 166 22L 166 52C 166 52 166 64 154 64L 22 64C 22 64 10 64 10 52L 10 22C 10 22 10 10 22 10"></path></g></g></g><g id="g-root-ro_1utnqe31hveu4i-fill" data-item-order="-8424" transform="translate(315, 339)"><g id="ro_1utnqe31hveu4i-fill" stroke="none" fill="#ffeceb"><g><path d="M 22 10L 154 10C 154 10 166 10 166 22L 166 52C 166 52 166 64 154 64L 22 64C 22 64 10 64 10 52L 10 22C 10 22 10 10 22 10"></path></g></g></g><g id="g-root-ro_1d2dpwb1hvg9vu-fill" data-item-order="-7776" transform="translate(111, 189)"><g id="ro_1d2dpwb1hvg9vu-fill" stroke="none" fill="#ffebf7"><g><path d="M 22 10L 142 10C 142 10 154 10 154 22L 154 52C 154 52 154 64 142 64L 22 64C 22 64 10 64 10 52L 10 22C 10 22 10 10 22 10"></path></g></g></g><g id="g-root-cu_18mk7rv1hvgao6-fill" data-item-order="0" transform="translate(483, 66)"></g><g id="g-root-tx_resource_1hi780r1hvevpk-fill" data-item-order="0" transform="translate(579, 291)"><g id="tx_resource_1hi780r1hvevpk-fill" stroke="none" fill="#484848"><g><text style="font: 20px Roboto, sans-serif; white-space: pre;" font-size="20px" font-family="Roboto, sans-serif"><tspan x="17.19" y="33.5" dominant-baseline="ideographic">Resource Optimization</tspan></text></g></g></g><g id="g-root-tx_dataprot_1d2dpwb1hvewhu-fill" data-item-order="0" transform="translate(63, 291)"><g id="tx_dataprot_1d2dpwb1hvewhu-fill" stroke="none" fill="#484848"><g><text style="font: 20px Roboto, sans-serif; white-space: pre;" font-size="20px" font-family="Roboto, sans-serif"><tspan x="12.81" y="33.5" dominant-baseline="ideographic">Data Protection</tspan></text></g></g></g><g id="g-root-tx_systemco_1ly0q571hveux7-fill" data-item-order="0" transform="translate(15, 105)"><g id="tx_systemco_1ly0q571hveux7-fill" stroke="none" fill="#484848"><g><text style="font: 20px Roboto, sans-serif; white-space: pre;" font-size="20px" font-family="Roboto, sans-serif"><tspan x="11.77" y="33.5" dominant-baseline="ideographic">System Compatibility</tspan></text></g></g></g><g id="g-root-cu_147d6qj1hvg8ay-fill" data-item-order="0" transform="translate(213, 93)"></g><g id="g-root-cu_zrjom31hvg939-fill" data-item-order="0" transform="translate(213, 93)"></g><g id="g-root-tx_fastdeve_1hi780r1hvevpj-fill" data-item-order="0" transform="translate(579, 255)"><g id="tx_fastdeve_1hi780r1hvevpj-fill" stroke="none" fill="#484848"><g><text style="font: 20px Roboto, sans-serif; white-space: pre;" font-size="20px" font-family="Roboto, sans-serif"><tspan x="13.84" y="33.5" dominant-baseline="ideographic">Fast Development</tspan></text></g></g></g><g id="g-root-cu_1d2dpwb1hvg9vv-fill" data-item-order="0" transform="translate(255, 66)"></g><g id="g-root-cu_18mk7rv1hvgaof-fill" data-item-order="0" transform="translate(393, 264)"></g><g id="g-root-cu_zrjom31hvg93b-fill" data-item-order="0" transform="translate(555, 93)"></g><g id="g-root-cu_vbq6hn1hvg9vm-fill" data-item-order="0" transform="translate(555, 93)"></g><g id="g-root-cu_vbq6hn1hvg9vr-fill" data-item-order="0" transform="translate(555, 243)"></g><g id="g-root-cu_vbq6hn1hvg9vo-fill" data-item-order="0" transform="translate(555, 243)"></g><g id="g-root-cu_qvwod71hvgao4-fill" data-item-order="0" transform="translate(213, 243)"></g><g id="g-root-cu_qvwod71hvgao6-fill" data-item-order="0" transform="translate(339, 393)"></g><g id="g-root-tx_dataexch_1ly0q571hveux8-fill" data-item-order="0" transform="translate(63, 141)"><g id="tx_dataexch_1ly0q571hveux8-fill" stroke="none" fill="#484848"><g><text style="font: 20px Roboto, sans-serif; white-space: pre;" font-size="20px" font-family="Roboto, sans-serif"><tspan x="15.67" y="33.5" dominant-baseline="ideographic">Data Exchange</tspan></text></g></g></g><g id="g-root-cu_vbq6hn1hvg9vt-fill" data-item-order="0" transform="translate(213, 243)"></g><g id="g-root-tx_accessco_1d2dpwb1hvewht-fill" data-item-order="0" transform="translate(63, 255)"><g id="tx_accessco_1d2dpwb1hvewht-fill" stroke="none" fill="#484848"><g><text style="font: 20px Roboto, sans-serif; white-space: pre;" font-size="20px" font-family="Roboto, sans-serif"><tspan x="14.51" y="33.5" dominant-baseline="ideographic">Access Control</tspan></text></g></g></g><g id="g-root-tx_futureex_147d6qj1hveu4s-fill" data-item-order="0" transform="translate(363, 441)"><g id="tx_futureex_147d6qj1hveu4s-fill" stroke="none" fill="#484848"><g><text style="font: 20px Roboto, sans-serif; white-space: pre;" font-size="20px" font-family="Roboto, sans-serif"><tspan x="17.21" y="33.5" dominant-baseline="ideographic">Future Expansion</tspan></text></g></g></g><g id="g-root-cu_18mk7rv1hvgao9-fill" data-item-order="0" transform="translate(483, 206)"></g><g id="g-root-tx_easymain_1hi780r1hvevpi-fill" data-item-order="0" transform="translate(579, 141)"><g id="tx_easymain_1hi780r1hvevpi-fill" stroke="none" fill="#484848"><g><text style="font: 20px Roboto, sans-serif; white-space: pre;" font-size="20px" font-family="Roboto, sans-serif"><tspan x="12.83" y="33.5" dominant-baseline="ideographic">Easy Maintenance</tspan></text></g></g></g><g id="g-root-cu_18mk7rv1hvgaoc-fill" data-item-order="0" transform="translate(255, 206)"></g><g id="g-root-cu_qvwod71hvgao9-fill" data-item-order="0" transform="translate(339, 393)"></g><g id="g-root-tx_loadhand_1d2dpwb1hvewhv-fill" data-item-order="0" transform="translate(363, 405)"><g id="tx_loadhand_1d2dpwb1hvewhv-fill" stroke="none" fill="#484848"><g><text style="font: 20px Roboto, sans-serif; white-space: pre;" font-size="20px" font-family="Roboto, sans-serif"><tspan x="17.65" y="33.5" dominant-baseline="ideographic">Load Handling</tspan></text></g></g></g><g id="g-root-tx_componen_1ly0q571hveux9-fill" data-item-order="0" transform="translate(579, 105)"><g id="tx_componen_1ly0q571hveux9-fill" stroke="none" fill="#484848"><g><text style="font: 20px Roboto, sans-serif; white-space: pre;" font-size="20px" font-family="Roboto, sans-serif"><tspan x="15.18" y="33.5" dominant-baseline="ideographic">Component Reusability</tspan></text></g></g></g><g id="g-root-chec_1qdu89n1hvg8ax-fill" data-item-order="1000000000" transform="translate(213, 201)"></g><g id="g-root-tx_security_1qdu89n1hvg8aw-fill" data-item-order="1000000000" transform="translate(123, 204)"><g id="tx_security_1qdu89n1hvg8aw-fill" stroke="none" fill="#de58a9"><g><text style="font: 20px Roboto, sans-serif; white-space: pre;" font-size="20px" font-family="Roboto, sans-serif"><tspan x="16.21" y="33.5" dominant-baseline="ideographic">Security</tspan></text></g></g></g><g id="g-root-tx_keyobjec_8d6jf1hv99mq-fill" data-item-order="1000000000" transform="translate(327, 168)"><g id="tx_keyobjec_8d6jf1hv99mq-fill" stroke="none" fill="#484848"><g><text style="font: 20px Roboto, sans-serif; white-space: pre;" font-size="20px" font-family="Roboto, sans-serif"><tspan x="58.63" y="33.5" dominant-baseline="ideographic">Key </tspan><tspan x="16.76" y="57.5" dominant-baseline="ideographic">Objectives of </tspan><tspan x="54.03" y="81.5" dominant-baseline="ideographic">APIs</tspan></text></g></g></g><g id="g-root-tx_efficien_1ly0q571hvdhj6-fill" data-item-order="1000000000" transform="translate(579, 204)"><g id="tx_efficien_1ly0q571hvdhj6-fill" stroke="none" fill="#e0cb15"><g><text style="font: 20px Roboto, sans-serif; white-space: pre;" font-size="20px" font-family="Roboto, sans-serif"><tspan x="15.34" y="33.5" dominant-baseline="ideographic">Efficiency</tspan></text></g></g></g><g id="g-root-unlo_1qdu89n1hv9a8b-fill" data-item-order="1000000000" transform="translate(369, 114)"></g><g id="g-root-tx_modulari_1q7lhej1hvdf5w-fill" data-item-order="1000000000" transform="translate(579, 54)"><g id="tx_modulari_1q7lhej1hvdf5w-fill" stroke="none" fill="#ba5de5"><g><text style="font: 20px Roboto, sans-serif; white-space: pre;" font-size="20px" font-family="Roboto, sans-serif"><tspan x="16.74" y="33.5" dominant-baseline="ideographic">Modularity</tspan></text></g></g></g><g id="g-root-1_8d6jf1hvetjd-fill" data-item-order="1000000000" transform="translate(327, 351)"></g><g id="g-root-tx_scalabil_8d6jf1hvetjc-fill" data-item-order="1000000000" transform="translate(363, 354)"><g id="tx_scalabil_8d6jf1hvetjc-fill" stroke="none" fill="#e55753"><g><text style="font: 20px Roboto, sans-serif; white-space: pre;" font-size="20px" font-family="Roboto, sans-serif"><tspan x="12.64" y="33.5" dominant-baseline="ideographic">Scalability</tspan></text></g></g></g><g id="g-root-thre_1hbyh5n1hvdfyl-fill" data-item-order="1000000000" transform="translate(543, 51)"></g><g id="g-root-hier_1cxdx7f1hvgah2-fill" data-item-order="1000000000" transform="translate(213, 51)"></g><g id="g-root-tx_interope_1cxdx7f1hvgah1-fill" data-item-order="1000000000" transform="translate(63, 54)"><g id="tx_interope_1cxdx7f1hvgah1-fill" stroke="none" fill="#92bd39"><g><text style="font: 20px Roboto, sans-serif; white-space: pre;" font-size="20px" font-family="Roboto, sans-serif"><tspan x="15.78" y="33.5" dominant-baseline="ideographic">Interoperability</tspan></text></g></g></g><g id="g-root-incr_1d306zf1hvdf63-fill" data-item-order="1000000000" transform="translate(543, 201)"></g><g id="g-root-ro_1lyn78b1hv97us-stroke" data-item-order="-31320" transform="translate(303, 90)"><g id="ro_1lyn78b1hv97us-stroke" fill="none" stroke-linecap="round" stroke-linejoin="round" stroke-miterlimit="4" stroke="#484848" stroke-width="2"><g><path d="M 34 10L 166 10C 166 10 190 10 190 34L 190 160C 190 160 190 184 166 184L 34 184C 34 184 10 184 10 160L 10 34C 10 34 10 10 34 10"></path></g></g></g><g id="g-root-ro_142de1n1hvg83z-stroke" data-item-order="-11016" transform="translate(51, 39)"><g id="ro_142de1n1hvg83z-stroke" fill="none" stroke-linecap="round" stroke-linejoin="round" stroke-miterlimit="4" stroke="#92bd39" stroke-width="2"><g><path d="M 22 10L 202 10C 202 10 214 10 214 22L 214 52C 214 52 214 64 202 64L 22 64C 22 64 10 64 10 52L 10 22C 10 22 10 10 22 10"></path></g></g></g><g id="g-root-ro_1hbyh5n1hvdfym-stroke" data-item-order="-9072" transform="translate(531, 39)"><g id="ro_1hbyh5n1hvdfym-stroke" fill="none" stroke-linecap="round" stroke-linejoin="round" stroke-miterlimit="4" stroke="#ba5de5" stroke-width="2"><g><path d="M 22 10L 166 10C 166 10 178 10 178 22L 178 52C 178 52 178 64 166 64L 22 64C 22 64 10 64 10 52L 10 22C 10 22 10 10 22 10"></path></g></g></g><g id="g-root-ro_1d306zf1hvdf64-stroke" data-item-order="-8424" transform="translate(531, 189)"><g id="ro_1d306zf1hvdf64-stroke" fill="none" stroke-linecap="round" stroke-linejoin="round" stroke-miterlimit="4" stroke="#e0cb15" stroke-width="2"><g><path d="M 22 10L 154 10C 154 10 166 10 166 22L 166 52C 166 52 166 64 154 64L 22 64C 22 64 10 64 10 52L 10 22C 10 22 10 10 22 10"></path></g></g></g><g id="g-root-ro_1utnqe31hveu4i-stroke" data-item-order="-8424" transform="translate(315, 339)"><g id="ro_1utnqe31hveu4i-stroke" fill="none" stroke-linecap="round" stroke-linejoin="round" stroke-miterlimit="4" stroke="#e55753" stroke-width="2"><g><path d="M 22 10L 154 10C 154 10 166 10 166 22L 166 52C 166 52 166 64 154 64L 22 64C 22 64 10 64 10 52L 10 22C 10 22 10 10 22 10"></path></g></g></g><g id="g-root-ro_1d2dpwb1hvg9vu-stroke" data-item-order="-7776" transform="translate(111, 189)"><g id="ro_1d2dpwb1hvg9vu-stroke" fill="none" stroke-linecap="round" stroke-linejoin="round" stroke-miterlimit="4" stroke="#de58a9" stroke-width="2"><g><path d="M 22 10L 142 10C 142 10 154 10 154 22L 154 52C 154 52 154 64 142 64L 22 64C 22 64 10 64 10 52L 10 22C 10 22 10 10 22 10"></path></g></g></g><g id="g-root-cu_18mk7rv1hvgao6-stroke" data-item-order="0" transform="translate(483, 66)"><g id="cu_18mk7rv1hvgao6-stroke" fill="none" stroke-linecap="round" stroke-linejoin="round" stroke-miterlimit="4" stroke="#969696" stroke-width="2" stroke-dasharray="5.0, 7.0"><g><path d="M 10 92L 13 92L 13.1 92C 24.642748 92.000003 33.999998 82.642755 33.999998 71.100003L 34 71L 34 30.9C 33.999999 19.357249 43.357248 10.000001 54.899999 10.000002L 55 10L 58 10"></path></g></g></g><g id="g-root-tx_resource_1hi780r1hvevpk-stroke" data-item-order="0" transform="translate(579, 291)"></g><g id="g-root-tx_dataprot_1d2dpwb1hvewhu-stroke" data-item-order="0" transform="translate(63, 291)"></g><g id="g-root-tx_systemco_1ly0q571hveux7-stroke" data-item-order="0" transform="translate(15, 105)"></g><g id="g-root-cu_147d6qj1hvg8ay-stroke" data-item-order="0" transform="translate(213, 93)"><g id="cu_147d6qj1hvg8ay-stroke" fill="none" stroke-linecap="round" stroke-linejoin="round" stroke-miterlimit="4" stroke="#969696" stroke-width="2" stroke-dasharray="5.0, 7.0"><g><path d="M 28 10L 28 22L 28 34L 19 34L 10 34"></path></g></g></g><g id="g-root-cu_zrjom31hvg939-stroke" data-item-order="0" transform="translate(213, 93)"><g id="cu_zrjom31hvg939-stroke" fill="none" stroke-linecap="round" stroke-linejoin="round" stroke-miterlimit="4" stroke="#969696" stroke-width="2" stroke-dasharray="5.0, 7.0"><g><path d="M 28 10L 28 17.5L 28 58C 27.999999 64.627415 22.627416 69.999998 16 69.999998L 15.9 70L 10 70"></path></g></g></g><g id="g-root-tx_fastdeve_1hi780r1hvevpj-stroke" data-item-order="0" transform="translate(579, 255)"></g><g id="g-root-cu_1d2dpwb1hvg9vv-stroke" data-item-order="0" transform="translate(255, 66)"><g id="cu_1d2dpwb1hvg9vv-stroke" fill="none" stroke-linecap="round" stroke-linejoin="round" stroke-miterlimit="4" stroke="#969696" stroke-width="2" stroke-dasharray="5.0, 7.0"><g><path d="M 58 92L 55 92L 54.9 92C 43.357247 92 33.999998 82.642751 33.999998 71.1L 34 71L 34 30.9C 33.999998 19.357248 24.64275 10 13.1 10L 13 10L 10 10"></path></g></g></g><g id="g-root-cu_18mk7rv1hvgaof-stroke" data-item-order="0" transform="translate(393, 264)"><g id="cu_18mk7rv1hvgaof-stroke" fill="none" stroke-linecap="round" stroke-linejoin="round" stroke-miterlimit="4" stroke="#969696" stroke-width="2" stroke-dasharray="5.0, 7.0"><g><path d="M 10 10L 10 47.5L 10 85"></path></g></g></g><g id="g-root-cu_zrjom31hvg93b-stroke" data-item-order="0" transform="translate(555, 93)"><g id="cu_zrjom31hvg93b-stroke" fill="none" stroke-linecap="round" stroke-linejoin="round" stroke-miterlimit="4" stroke="#969696" stroke-width="2" stroke-dasharray="5.0, 7.0"><g><path d="M 10 10L 10 22L 10 34L 19 34L 28 34"></path></g></g></g><g id="g-root-cu_vbq6hn1hvg9vm-stroke" data-item-order="0" transform="translate(555, 93)"><g id="cu_vbq6hn1hvg9vm-stroke" fill="none" stroke-linecap="round" stroke-linejoin="round" stroke-miterlimit="4" stroke="#969696" stroke-width="2" stroke-dasharray="5.0, 7.0"><g><path d="M 10 10L 10 17.5L 10 58C 10.000002 64.627417 15.372585 70 22.000002 69.999999L 22.1 70L 28 70"></path></g></g></g><g id="g-root-cu_vbq6hn1hvg9vr-stroke" data-item-order="0" transform="translate(555, 243)"><g id="cu_vbq6hn1hvg9vr-stroke" fill="none" stroke-linecap="round" stroke-linejoin="round" stroke-miterlimit="4" stroke="#969696" stroke-width="2" stroke-dasharray="5.0, 7.0"><g><path d="M 10 10L 10 17.5L 10 58C 10.000002 64.627417 15.372585 70 22.000002 69.999999L 22.1 70L 28 70"></path></g></g></g><g id="g-root-cu_vbq6hn1hvg9vo-stroke" data-item-order="0" transform="translate(555, 243)"><g id="cu_vbq6hn1hvg9vo-stroke" fill="none" stroke-linecap="round" stroke-linejoin="round" stroke-miterlimit="4" stroke="#969696" stroke-width="2" stroke-dasharray="5.0, 7.0"><g><path d="M 10 10L 10 22L 10 34L 19 34L 28 34"></path></g></g></g><g id="g-root-cu_qvwod71hvgao4-stroke" data-item-order="0" transform="translate(213, 243)"><g id="cu_qvwod71hvgao4-stroke" fill="none" stroke-linecap="round" stroke-linejoin="round" stroke-miterlimit="4" stroke="#969696" stroke-width="2" stroke-dasharray="5.0, 7.0"><g><path d="M 28 10L 28 17.5L 28 58C 27.999999 64.627415 22.627416 69.999998 16 69.999998L 15.9 70L 10 70"></path></g></g></g><g id="g-root-cu_qvwod71hvgao6-stroke" data-item-order="0" transform="translate(339, 393)"><g id="cu_qvwod71hvgao6-stroke" fill="none" stroke-linecap="round" stroke-linejoin="round" stroke-miterlimit="4" stroke="#969696" stroke-width="2" stroke-dasharray="5.0, 7.0"><g><path d="M 10 10L 10 22L 10 34L 19 34L 28 34"></path></g></g></g><g id="g-root-tx_dataexch_1ly0q571hveux8-stroke" data-item-order="0" transform="translate(63, 141)"></g><g id="g-root-cu_vbq6hn1hvg9vt-stroke" data-item-order="0" transform="translate(213, 243)"><g id="cu_vbq6hn1hvg9vt-stroke" fill="none" stroke-linecap="round" stroke-linejoin="round" stroke-miterlimit="4" stroke="#969696" stroke-width="2" stroke-dasharray="5.0, 7.0"><g><path d="M 28 10L 28 22L 28 34L 19 34L 10 34"></path></g></g></g><g id="g-root-tx_accessco_1d2dpwb1hvewht-stroke" data-item-order="0" transform="translate(63, 255)"></g><g id="g-root-tx_futureex_147d6qj1hveu4s-stroke" data-item-order="0" transform="translate(363, 441)"></g><g id="g-root-cu_18mk7rv1hvgao9-stroke" data-item-order="0" transform="translate(483, 206)"><g id="cu_18mk7rv1hvgao9-stroke" fill="none" stroke-linecap="round" stroke-linejoin="round" stroke-miterlimit="4" stroke="#969696" stroke-width="2" stroke-dasharray="5.0, 7.0"><g><path d="M 10 10L 13 10L 13.1 10C 16.360602 10.01615 19.962923 10.453815 23.800001 11.3C 26.03452 11.745014 29.638043 13.052174 34 15.000001C 38.361958 16.947827 41.965481 18.254987 44.200001 18.700001C 48.03708 19.546186 51.639401 19.983851 54.900002 20.000001L 55 20L 58 20"></path></g></g></g><g id="g-root-tx_easymain_1hi780r1hvevpi-stroke" data-item-order="0" transform="translate(579, 141)"></g><g id="g-root-cu_18mk7rv1hvgaoc-stroke" data-item-order="0" transform="translate(255, 206)"><g id="cu_18mk7rv1hvgaoc-stroke" fill="none" stroke-linecap="round" stroke-linejoin="round" stroke-miterlimit="4" stroke="#969696" stroke-width="2" stroke-dasharray="5.0, 7.0"><g><path d="M 58 10L 55 10L 54.9 10C 51.639401 10.016148 48.03708 10.453814 44.200002 11.299999C 41.965481 11.745013 38.361958 13.052173 34 14.999999C 29.638043 16.947825 26.03452 18.254985 23.8 18.699999C 19.962923 19.546185 16.360601 19.98385 13.1 20L 13 20L 10 20"></path></g></g></g><g id="g-root-cu_qvwod71hvgao9-stroke" data-item-order="0" transform="translate(339, 393)"><g id="cu_qvwod71hvgao9-stroke" fill="none" stroke-linecap="round" stroke-linejoin="round" stroke-miterlimit="4" stroke="#969696" stroke-width="2" stroke-dasharray="5.0, 7.0"><g><path d="M 10 10L 10 17.5L 10 58C 10.000002 64.627417 15.372585 70 22.000002 69.999999L 22.1 70L 28 70"></path></g></g></g><g id="g-root-tx_loadhand_1d2dpwb1hvewhv-stroke" data-item-order="0" transform="translate(363, 405)"></g><g id="g-root-tx_componen_1ly0q571hveux9-stroke" data-item-order="0" transform="translate(579, 105)"></g><g id="g-root-chec_1qdu89n1hvg8ax-stroke" data-item-order="1000000000" transform="translate(213, 201)"><g id="chec_1qdu89n1hvg8ax-stroke" fill="none" stroke-linecap="round" stroke-linejoin="round" stroke-miterlimit="4" stroke="#de58a9" stroke-width="2"><g><path d="M 31.875 18.75L 24.331249 29.665001L 18.608749 23.940001M 12.5 14.71875L 12.5 24.264999C 12.489674 30.605133 16.376829 36.299805 22.285 38.599998L 23.618752 39.1175C 24.5075 39.461273 25.4925 39.461273 26.38125 39.1175L 27.715 38.599998C 33.623169 36.299805 37.510326 30.605133 37.5 24.264999L 37.5 14.71875C 37.506096 13.965388 37.07103 13.27808 36.387501 12.96125C 32.799839 11.385195 28.918413 10.588885 24.999998 10.625C 21.081585 10.588885 17.200163 11.385195 13.6125 12.96125C 12.928972 13.27808 12.493905 13.965388 12.5 14.71875Z"></path></g></g></g><g id="g-root-tx_security_1qdu89n1hvg8aw-stroke" data-item-order="1000000000" transform="translate(123, 204)"></g><g id="g-root-tx_keyobjec_8d6jf1hv99mq-stroke" data-item-order="1000000000" transform="translate(327, 168)"></g><g id="g-root-tx_efficien_1ly0q571hvdhj6-stroke" data-item-order="1000000000" transform="translate(579, 204)"></g><g id="g-root-unlo_1qdu89n1hv9a8b-stroke" data-item-order="1000000000" transform="translate(369, 114)"><g id="unlo_1qdu89n1hv9a8b-stroke" fill="none" stroke-linecap="round" stroke-linejoin="round" stroke-miterlimit="4" stroke="#484848" stroke-width="2"><g><path d="M 13 17.540001L 13 32.82C 13.118423 43.160465 19.686085 52.324833 29.440001 55.760002L 31.68 56.580002C 33.176018 57.139786 34.823982 57.139786 36.32 56.580002L 38.559998 55.759998C 48.313915 52.324833 54.88158 43.160465 55 32.82L 55 17.540001C 54.994053 16.319199 54.263035 15.218737 53.139999 14.74C 47.079685 12.208112 40.567623 10.935639 34 11C 27.432373 10.935639 20.920311 12.208112 14.86 14.74C 13.736967 15.218737 13.005946 16.319199 13 17.540001ZM 27 27L 41 27C 41 27 43 27 43 29L 43 41C 43 41 43 43 41 43L 27 43C 27 43 25 43 25 41L 25 29C 25 29 25 27 27 27M 31.5 35C 31.5 36.380714 32.619289 37.5 34 37.5C 35.380714 37.5 36.5 36.380714 36.5 35C 36.5 33.619289 35.380714 32.5 34 32.5C 32.619289 32.5 31.5 33.619289 31.5 35M 39 27L 39 23C 39 20.238577 36.761425 18 34 18C 31.238577 18 29 20.238577 29 23"></path></g></g></g><g id="g-root-tx_modulari_1q7lhej1hvdf5w-stroke" data-item-order="1000000000" transform="translate(579, 54)"></g><g id="g-root-1_8d6jf1hvetjd-stroke" data-item-order="1000000000" transform="translate(327, 351)"><g id="1_8d6jf1hvetjd-stroke" fill="none" stroke-linecap="round" stroke-linejoin="round" stroke-miterlimit="4" stroke="#e55753" stroke-width="2"><g><path d="M 16.876249 36.25L 33.126251 36.25M 25.626251 28.75L 25.626251 36.25M 39.375 18.75C 39.375 20.130713 38.255714 21.25 36.875 21.25L 13.125 21.25C 11.744288 21.25 10.625 20.130713 10.625 18.75L 10.625 16.25C 10.625 14.869288 11.744288 13.75 13.125 13.75L 36.875 13.75C 38.255714 13.75 39.375 14.869288 39.375 16.25ZM 15.9375 17.1875C 15.764912 17.1875 15.625 17.327412 15.625 17.5C 15.625 17.672588 15.764912 17.8125 15.9375 17.8125C 16.110088 17.8125 16.25 17.672588 16.25 17.5C 16.25 17.327412 16.110088 17.1875 15.9375 17.1875L 15.9375 17.1875M 20.3125 17.1875C 20.139912 17.1875 20 17.327412 20 17.5C 20 17.672588 20.139912 17.8125 20.3125 17.8125C 20.485088 17.8125 20.625 17.672588 20.625 17.5C 20.625 17.327412 20.485088 17.1875 20.3125 17.1875L 20.3125 17.1875M 39.375 26.25C 39.375 27.630713 38.255714 28.75 36.875 28.75L 13.125 28.75C 11.744288 28.75 10.625 27.630713 10.625 26.25L 10.625 23.75C 10.625 22.369287 11.744288 21.25 13.125 21.25L 36.875 21.25C 38.255714 21.25 39.375 22.369287 39.375 23.75ZM 15.9375 24.6875C 15.764912 24.6875 15.625 24.827412 15.625 25C 15.625 25.172588 15.764912 25.3125 15.9375 25.3125C 16.110088 25.3125 16.25 25.172588 16.25 25C 16.25 24.827412 16.110088 24.6875 15.9375 24.6875L 15.9375 24.6875M 20.3125 24.6875C 20.139912 24.6875 20 24.827412 20 25C 20 25.172588 20.139912 25.3125 20.3125 25.3125C 20.485088 25.3125 20.625 25.172588 20.625 25C 20.625 24.827412 20.485088 24.6875 20.3125 24.6875L 20.3125 24.6875M 14.0625 35.625C 13.889911 35.625 13.75 35.764912 13.75 35.9375C 13.75 36.110088 13.889911 36.25 14.0625 36.25C 14.235089 36.25 14.375 36.110088 14.375 35.9375C 14.375 35.764912 14.235089 35.625 14.0625 35.625L 14.0625 35.625M 10.9375 35.625C 10.764911 35.625 10.625 35.764912 10.625 35.9375C 10.625 36.110088 10.764911 36.25 10.9375 36.25C 11.110089 36.25 11.25 36.110088 11.25 35.9375C 11.25 35.764912 11.110089 35.625 10.9375 35.625L 10.9375 35.625M 39.0625 35.625C 38.889912 35.625 38.75 35.764912 38.75 35.9375C 38.75 36.110088 38.889912 36.25 39.0625 36.25C 39.235088 36.25 39.375 36.110088 39.375 35.9375C 39.375 35.764912 39.235088 35.625 39.0625 35.625L 39.0625 35.625M 35.9375 35.625C 35.764912 35.625 35.625 35.764912 35.625 35.9375C 35.625 36.110088 35.764912 36.25 35.9375 36.25C 36.110088 36.25 36.25 36.110088 36.25 35.9375C 36.25 35.764912 36.110088 35.625 35.9375 35.625L 35.9375 35.625"></path></g></g></g><g id="g-root-tx_scalabil_8d6jf1hvetjc-stroke" data-item-order="1000000000" transform="translate(363, 354)"></g><g id="g-root-thre_1hbyh5n1hvdfyl-stroke" data-item-order="1000000000" transform="translate(543, 51)"><g id="thre_1hbyh5n1hvdfyl-stroke" fill="none" stroke-linecap="round" stroke-linejoin="round" stroke-miterlimit="4" stroke="#ba5de5" stroke-width="2"><g><path d="M 12.142857 27.678572L 21.25 27.678572C 21.25 27.678572 22.321428 27.678572 22.321428 28.75L 22.321428 37.857143C 22.321428 37.857143 22.321428 38.92857 21.25 38.92857L 12.142857 38.92857C 12.142857 38.92857 11.071428 38.92857 11.071428 37.857143L 11.071428 28.75C 11.071428 28.75 11.071428 27.678572 12.142857 27.678572M 28.75 27.678572L 37.857143 27.678572C 37.857143 27.678572 38.92857 27.678572 38.92857 28.75L 38.92857 37.857143C 38.92857 37.857143 38.92857 38.92857 37.857143 38.92857L 28.75 38.92857C 28.75 38.92857 27.678572 38.92857 27.678572 37.857143L 27.678572 28.75C 27.678572 28.75 27.678572 27.678572 28.75 27.678572M 20.457142 11.071428L 29.564285 11.071428C 29.564285 11.071428 30.635714 11.071428 30.635714 12.142857L 30.635714 21.25C 30.635714 21.25 30.635714 22.321428 29.564285 22.321428L 20.457142 22.321428C 20.457142 22.321428 19.385714 22.321428 19.385714 21.25L 19.385714 12.142857C 19.385714 12.142857 19.385714 11.071428 20.457142 11.071428"></path></g></g></g><g id="g-root-hier_1cxdx7f1hvgah2-stroke" data-item-order="1000000000" transform="translate(213, 51)"><g id="hier_1cxdx7f1hvgah2-stroke" fill="none" stroke-linecap="round" stroke-linejoin="round" stroke-miterlimit="4" stroke="#92bd39" stroke-width="2"><g><path d="M 15 31.875L 15 28.75C 15 28.404823 15.279821 28.125 15.625 28.125L 34.375 28.125C 34.720177 28.125 35 28.404823 35 28.75L 35 31.875M 25 24.375L 25 31.875M 11.25 35.625C 11.25 37.696068 12.928932 39.375 15 39.375C 17.071068 39.375 18.75 37.696068 18.75 35.625C 18.75 33.553932 17.071068 31.875 15 31.875C 12.928932 31.875 11.25 33.553932 11.25 35.625ZM 21.25 35.625C 21.25 37.696068 22.928932 39.375 25 39.375C 27.071068 39.375 28.75 37.696068 28.75 35.625C 28.75 33.553932 27.071068 31.875 25 31.875C 22.928932 31.875 21.25 33.553932 21.25 35.625ZM 31.25 35.625C 31.25 37.696068 32.928932 39.375 35 39.375C 37.071068 39.375 38.75 37.696068 38.75 35.625C 38.75 33.553932 37.071068 31.875 35 31.875C 32.928932 31.875 31.25 33.553932 31.25 35.625ZM 31.25 23.125C 31.25 23.815357 30.690355 24.375 30 24.375L 20 24.375C 19.309645 24.375 18.75 23.815357 18.75 23.125L 18.75 16.875C 18.75 16.184645 19.309645 15.625 20 15.625L 30 15.625C 30.690355 15.625 31.25 16.184645 31.25 16.875ZM 23.75 20C 23.75 20.690357 24.309643 21.25 25 21.25C 25.690357 21.25 26.25 20.690357 26.25 20C 26.25 19.309645 25.690357 18.75 25 18.75C 24.309643 18.75 23.75 19.309645 23.75 20ZM 28.75 15.625L 28.75 14.375C 28.75 12.303932 27.071068 10.625 25 10.625C 22.928932 10.625 21.25 12.303932 21.25 14.375L 21.25 15.625"></path></g></g></g><g id="g-root-tx_interope_1cxdx7f1hvgah1-stroke" data-item-order="1000000000" transform="translate(63, 54)"></g><g id="g-root-incr_1d306zf1hvdf63-stroke" data-item-order="1000000000" transform="translate(543, 201)"><g id="incr_1d306zf1hvdf63-stroke" fill="none" stroke-linecap="round" stroke-linejoin="round" stroke-miterlimit="4" stroke="#e0cb15" stroke-width="2"><g><path d="M 10.63 39.0625L 39.380001 39.0625M 15.625 39.0625L 15.625 35.9375C 15.625 35.592323 15.345179 35.3125 15 35.3125L 12.5 35.3125C 12.154822 35.3125 11.875 35.592323 11.875 35.9375L 11.875 39.0625M 23.125 39.0625L 23.125 30.9375C 23.125 30.592323 22.845177 30.3125 22.5 30.3125L 20 30.3125C 19.654821 30.3125 19.375 30.592323 19.375 30.9375L 19.375 39.0625M 30.625 39.0625L 30.625 25.9375C 30.625 25.592323 30.345177 25.3125 30 25.3125L 27.5 25.3125C 27.154823 25.3125 26.875 25.592323 26.875 25.9375L 26.875 39.0625M 38.125 39.0625L 38.125 20.9375C 38.125 20.592323 37.845177 20.3125 37.5 20.3125L 35 20.3125C 34.654823 20.3125 34.375 20.592323 34.375 20.9375L 34.375 39.0625M 13.755 26.5625L 36.255001 11.5625M 35.630001 16.5625L 36.255001 11.5625L 31.254999 10.9375"></path></g></g></g></g></g></svg>