<?xml version="1.0" encoding="utf-8" standalone="yes"?>
<!DOCTYPE svg PUBLIC "-//W3C//DTD SVG 1.1//EN" "http://www.w3.org/Graphics/SVG/1.1/DTD/svg11.dtd">
<svg width="802" height="508" viewBox="0 0 802 508" style="fill:none;stroke:none;fill-rule:evenodd;clip-rule:evenodd;stroke-linecap:round;stroke-linejoin:round;stroke-miterlimit:1.5;" version="1.1" xmlns="http://www.w3.org/2000/svg" xmlns:xlink="http://www.w3.org/1999/xlink"><style id="fontImports">@import url("https://fonts.googleapis.com/css2?family=Shantell+Sans:wght@300..800&amp;display=block");</style><g id="items" style="isolation: isolate"><g id="blend" style="mix-blend-mode: normal"><g id="g-root-3.cu_sy_18k33to1pcwwst-fill" data-item-order="-71512" transform="translate(431.24462890625, 266.7158203125)"><g id="3.cu_sy_18k33to1pcwwst-fill" stroke="none" fill="#e9ffb9"><g><path d="M 64.855371 2.48418L 59.755371 7.88418L 65.655371 30.48418L 79.255371 16.48418ZM 65.655371 30.48418L 89.055371 37.48418L 85.055371 15.38418L 59.755371 7.88418ZM 85.055371 15.38418L 44.155371 46.28418L 52.655371 64.88418L 89.055371 37.48418ZM 52.655371 64.88418L 112.455371 52.08418L 104.855371 33.18418L 44.155371 46.28418ZM 104.855371 33.18418L 21.855371 84.68418L 30.355371 102.98418L 112.455371 52.08418ZM 30.355371 102.98418L 122.955371 72.18418L 114.455371 53.88418L 21.855371 84.68418ZM 114.455371 53.88418L 21.555371 111.48418L 30.455371 129.48418L 122.955371 72.18418ZM 30.455371 129.48418L 131.955371 90.08418L 123.655371 71.88418L 21.555371 111.48418ZM 123.655371 71.88418L 27.255371 122.98418L 35.055371 141.48418L 131.955371 90.08418ZM 35.055371 141.48418L 146.355371 106.08418L 138.455371 87.58418L 27.255371 122.98418ZM 138.455371 87.58418L 35.255371 143.48418L 42.955371 161.98418L 146.355371 106.08418ZM 42.955371 161.98418L 154.255371 128.78418L 146.455371 110.18418L 35.255371 143.48418ZM 146.455371 110.18418L 69.155371 153.58418L 77.155371 172.08418L 154.255371 128.78418ZM 77.155371 172.08418L 160.955371 145.18418L 152.355371 126.98418L 69.155371 153.58418ZM 152.355371 126.98418L 108.155371 155.88418L 114.755371 175.38418L 160.955371 145.18418ZM 114.755371 175.38418L 161.155371 172.08418L 157.555371 152.28418L 108.155371 155.88418ZM 157.555371 152.28418L 141.355371 157.18418L 147.155371 176.38418L 161.155371 172.08418Z" fill-rule="nonzero"></path></g></g></g><g id="g-root-2.cu_sy_144w2sc1pcwufa-fill" data-item-order="-71508" transform="translate(297.0224609375, 238)"><g id="2.cu_sy_144w2sc1pcwufa-fill" stroke="none" fill="#c8ffe5"><g><path d="M 4.977539 35.7L 3.477539 29.4L 27.177539 42.4L 24.377539 30.9ZM 27.177539 42.4L 48.577539 35.2L 30.977539 20L 3.477539 29.4ZM 30.977539 20L 23.377539 62.8L 42.477539 69.3L 48.577539 35.2ZM 42.477539 69.3L 70.377539 15.6L 50.177539 11.1L 23.377539 62.8ZM 50.177539 11.1L 54.177539 110L 74.177539 110.9L 70.377539 15.6ZM 74.177539 110.9L 86.077539 18.2L 66.077539 17L 54.177539 110ZM 66.077539 17L 66.877539 123L 86.977539 125.1L 86.077539 18.2ZM 86.977539 125.1L 111.477539 14.1L 91.577539 11.5L 66.877539 123ZM 91.577539 11.5L 87.477539 124.2L 107.377539 126.9L 111.477539 14.1ZM 107.377539 126.9L 133.477539 16.5L 113.477539 14.3L 87.477539 124.2ZM 113.477539 14.3L 114.877539 123.6L 134.977539 125.3L 133.477539 16.5ZM 134.977539 125.3L 155.177539 15.5L 135.177539 13.6L 114.877539 123.6ZM 135.177539 13.6L 135.277539 113.7L 155.277539 115.8L 155.177539 15.5ZM 155.277539 115.8L 174.577539 25.5L 154.477539 23.7L 135.277539 113.7ZM 154.477539 23.7L 155.977539 68.3L 176.177539 73.7L 174.577539 25.5ZM 176.177539 73.7L 200.577539 34.9L 179.377539 31L 155.977539 68.3ZM 179.377539 31L 180.677539 37.5L 200.277539 33.5L 200.577539 34.9Z" fill-rule="nonzero"></path></g></g></g><g id="g-root-1.cu_sy_144w2sc1pcwufb-fill" data-item-order="-71504" transform="translate(196, 266.6083984375)"><g id="1.cu_sy_144w2sc1pcwufb-fill" stroke="none" fill="#d1f4ff"><g><path d="M 3.3 165.091602L 3.9 165.791602L 24.5 158.891602L 18.3 151.891602ZM 24.5 158.891602L 26.7 130.591602L 5.9 140.591602L 3.9 165.791602ZM 5.9 140.591602L 48.2 169.291602L 61.8 154.391602L 26.7 130.591602ZM 61.8 154.391602L 23.1 108.091602L 9.9 123.391602L 48.2 169.291602ZM 9.9 123.391602L 94.6 174.791602L 106.7 158.691602L 23.1 108.091602ZM 106.7 158.691602L 31 89.591602L 19 105.791602L 94.6 174.791602ZM 19 105.791602L 117.3 164.091602L 129.2 147.891602L 31 89.591602ZM 129.2 147.891602L 47.2 73.891602L 35.3 90.091602L 117.3 164.091602ZM 35.3 90.091602L 124 141.491602L 135.8 125.291602L 47.2 73.891602ZM 135.8 125.291602L 55.4 53.491602L 43.9 69.991602L 124 141.491602ZM 43.9 69.991602L 139.8 121.291602L 150.8 104.491602L 55.4 53.491602ZM 150.8 104.491602L 66.2 37.491602L 55.1 54.191602L 139.8 121.291602ZM 55.1 54.191602L 135.9 99.191602L 147.7 82.891602L 66.2 37.491602ZM 147.7 82.891602L 80.2 20.191602L 67.9 36.091602L 135.9 99.191602ZM 67.9 36.091602L 111.7 64.291602L 126.6 49.991602L 80.2 20.191602ZM 126.6 49.991602L 101.8 7.791602L 87.8 23.491602L 111.7 64.291602ZM 87.8 23.491602L 95.8 27.091602L 103.9 8.791602L 101.8 7.791602Z" fill-rule="nonzero"></path></g></g></g><g id="g-root-tx_otherapi_qpopwc1pd6pz4-fill" data-item-order="0" transform="translate(274, 28)"><g id="tx_otherapi_qpopwc1pd6pz4-fill" stroke="none" fill="#484848"><g><text style="font: bold 25px &quot;Shantell Sans&quot;, cursive; white-space: pre;" font-weight="bold" font-size="25px" font-family="'Shantell Sans', cursive"><tspan x="17.48" y="44.5" dominant-baseline="ideographic">Other API Types</tspan></text></g></g></g><g id="g-root-tx_database_v5i80s1pd6p6u-fill" data-item-order="0" transform="translate(304, 112)"><g id="tx_database_v5i80s1pd6p6u-fill" stroke="none" fill="#484848"><g><text style="font: bold 20px &quot;Shantell Sans&quot;, cursive; white-space: pre;" font-weight="bold" font-size="20px" font-family="'Shantell Sans', cursive"><tspan x="16.62" y="35.5" dominant-baseline="ideographic">Database APIs</tspan></text></g></g></g><g id="g-root-tx_toolstha_zlbq581pd6oej-fill" data-item-order="0" transform="translate(304, 148)"><g id="tx_toolstha_zlbq581pd6oej-fill" stroke="none" fill="#484848"><g><text style="font: 15px &quot;Shantell Sans&quot;, cursive; white-space: pre;" font-size="15px" font-family="'Shantell Sans', cursive"><tspan x="34.51" y="32" dominant-baseline="ideographic">Tools that allow </tspan><tspan x="40.47" y="50" dominant-baseline="ideographic">applications to </tspan><tspan x="27.72" y="68" dominant-baseline="ideographic">communicate with </tspan><tspan x="60.05" y="86" dominant-baseline="ideographic">database </tspan><tspan x="13.62" y="104" dominant-baseline="ideographic">management systems.</tspan></text></g></g></g><g id="g-root-tx_operatin_v5i80s1pd6p6v-fill" data-item-order="0" transform="translate(28, 220)"><g id="tx_operatin_v5i80s1pd6p6v-fill" stroke="none" fill="#484848"><g><text style="font: bold 20px &quot;Shantell Sans&quot;, cursive; white-space: pre;" font-weight="bold" font-size="20px" font-family="'Shantell Sans', cursive"><tspan x="30.03" y="35.5" dominant-baseline="ideographic">Operating </tspan><tspan x="17.29" y="59.5" dominant-baseline="ideographic">System APIs</tspan></text></g></g></g><g id="g-root-tx_hardware_v5i80s1pd6p6t-fill" data-item-order="0" transform="translate(592.076171875, 244)"><g id="tx_hardware_v5i80s1pd6p6t-fill" stroke="none" fill="#484848"><g><text style="font: bold 20px &quot;Shantell Sans&quot;, cursive; white-space: pre;" font-weight="bold" font-size="20px" font-family="'Shantell Sans', cursive"><tspan x="13.56" y="35.5" dominant-baseline="ideographic">Hardware APIs</tspan></text></g></g></g><g id="g-root-tx_interfac_zlbq581pd6oek-fill" data-item-order="0" transform="translate(22, 280)"><g id="tx_interfac_zlbq581pd6oek-fill" stroke="none" fill="#484848"><g><text style="font: 15px &quot;Shantell Sans&quot;, cursive; white-space: pre;" font-size="15px" font-family="'Shantell Sans', cursive"><tspan x="29.86" y="32" dominant-baseline="ideographic">Interfaces that </tspan><tspan x="11.93" y="50" dominant-baseline="ideographic">facilitate interaction </tspan><tspan x="19.4" y="68" dominant-baseline="ideographic">between software </tspan><tspan x="34.11" y="86" dominant-baseline="ideographic">and operating </tspan><tspan x="54.99" y="104" dominant-baseline="ideographic">systems.</tspan></text></g></g></g><g id="g-root-sync_8dyxo1pd3x1r-fill" data-item-order="0" transform="translate(364, 274)"></g><g id="g-root-tx_mechanis_18gc9b01pd6qrm-fill" data-item-order="0" transform="translate(586, 280)"><g id="tx_mechanis_18gc9b01pd6qrm-fill" stroke="none" fill="#484848"><g><text style="font: 15px &quot;Shantell Sans&quot;, cursive; white-space: pre;" font-size="15px" font-family="'Shantell Sans', cursive"><tspan x="35.95" y="29" dominant-baseline="ideographic">Mechanisms that </tspan><tspan x="29.33" y="47" dominant-baseline="ideographic">enable software to </tspan><tspan x="13.45" y="65" dominant-baseline="ideographic">interact with hardware </tspan><tspan x="53.2" y="83" dominant-baseline="ideographic">components.</tspan></text></g></g></g><g id="g-root-text_1qbd4bg1pd2gp2-fill" data-item-order="0" transform="translate(244, 335)"></g><g id="g-root-diam_18gc9b01pd6qrl-fill" data-item-order="0" transform="translate(484, 335)"></g><g id="g-root-docu_w9wc1pd12is-fill" data-item-order="0" transform="translate(352, 376)"></g><g id="g-root-3.cu_sy_18k33to1pcwwst-stroke" data-item-order="-71512" transform="translate(431.24462890625, 266.7158203125)"><g id="3.cu_sy_18k33to1pcwwst-stroke" fill="none" stroke-linecap="round" stroke-linejoin="round" stroke-miterlimit="4" stroke="#484848" stroke-width="4"><g><path d="M 43.455371 167.58418C 56.655371 168.38418 69.855371 167.28418 83.055371 167.58418C 95.455371 167.88418 107.955371 168.78418 120.355371 167.58418C 133.055371 166.38418 145.855371 167.48418 158.555371 167.58418C 157.755371 145.98418 154.155371 125.08418 146.555371 105.98418C 139.155371 87.28418 130.555371 68.98418 117.355371 54.28418C 102.455371 37.68418 86.055371 22.78418 67.755371 9.98418C 57.355371 26.38418 49.655371 44.28418 38.655371 60.18418C 27.855371 75.88418 19.055371 92.98418 9.955371 109.88418C 19.855371 114.98418 28.555371 123.58418 32.655371 133.98418C 36.955371 144.78418 41.155371 155.48418 43.455371 167.58418"></path><path d="M 43.4205 167.5521L 158.5852 167.6114C 156.6529 101.0174 120.8107 42.9252 67.7238 10L 10 109.8618C 28.7255 122.7267 41.5151 143.6063 43.4205 167.5521Z"></path></g></g></g><g id="g-root-2.cu_sy_144w2sc1pcwufa-stroke" data-item-order="-71508" transform="translate(297.0224609375, 238)"><g id="2.cu_sy_144w2sc1pcwufa-stroke" fill="none" stroke-linecap="round" stroke-linejoin="round" stroke-miterlimit="4" stroke="#484848" stroke-width="4"><g><path d="M 134.277539 132.8C 142.077539 116.8 153.377539 102.6 160.977539 86.5C 169.777539 67.8 180.777539 50.3 191.977539 32.9C 164.577539 18.8 133.877539 11 100.877539 10C 85.677539 9.5 70.877539 11.5 56.777539 15.1C 40.277539 19.2 24.977539 25.8 9.977539 32.8C 28.977539 66.1 47.277539 99.8 67.377539 132.4C 77.177539 127.2 88.577539 124.3 100.377539 125C 112.477539 125.7 123.777539 128.3 134.277539 132.8"></path><path d="M 134.248 132.7676L 191.9581 32.9296C 164.8595 18.3024 133.8441 10 100.8897 10C 68.0077 10 37.0563 18.2659 10 32.8333L 67.3912 132.356C 77.403 127.6378 88.5883 125 100.3897 125C 112.5301 125 124.0184 127.7915 134.248 132.7676Z"></path></g></g></g><g id="g-root-1.cu_sy_144w2sc1pcwufb-stroke" data-item-order="-71504" transform="translate(196, 266.6083984375)"><g id="1.cu_sy_144w2sc1pcwufb-stroke" fill="none" stroke-linecap="round" stroke-linejoin="round" stroke-miterlimit="4" stroke="#484848" stroke-width="4"><g><path d="M 124.2 167.591602C 123.8 155.591602 129 144.491602 134.6 134.491602C 140.4 124.391602 147.8 114.391602 158.4 109.391602C 149.6 93.991602 141.8 77.791602 131.7 63.191602C 120.1 46.291602 112.6 26.891602 101 9.991602C 82 22.391602 65.2 37.491602 50.8 54.891602C 37.2 71.391602 25.4 90.391602 20.1 111.591602C 15.5 129.591602 9.7 147.991602 10 167.491602C 23.6 166.891602 37.3 168.391602 51 167.591602C 63.2 166.691602 75.6 165.891602 87.7 167.591602C 99.8 169.291602 112.1 169.291602 124.2 167.591602"></path><path d="M 124.1653 167.5795C 126.1196 143.3324 139.2345 122.2365 158.368 109.4339L 101.0281 10C 47.8989 42.8738 11.9995 100.9373 10 167.5207L 124.1653 167.5795Z"></path></g></g></g><g id="g-root-tx_otherapi_qpopwc1pd6pz4-stroke" data-item-order="0" transform="translate(274, 28)"></g><g id="g-root-tx_database_v5i80s1pd6p6u-stroke" data-item-order="0" transform="translate(304, 112)"></g><g id="g-root-tx_toolstha_zlbq581pd6oej-stroke" data-item-order="0" transform="translate(304, 148)"></g><g id="g-root-tx_operatin_v5i80s1pd6p6v-stroke" data-item-order="0" transform="translate(28, 220)"></g><g id="g-root-tx_hardware_v5i80s1pd6p6t-stroke" data-item-order="0" transform="translate(592.076171875, 244)"></g><g id="g-root-tx_interfac_zlbq581pd6oek-stroke" data-item-order="0" transform="translate(22, 280)"></g><g id="g-root-sync_8dyxo1pd3x1r-stroke" data-item-order="0" transform="translate(364, 274)"><g id="sync_8dyxo1pd3x1r-stroke" fill="none" stroke-linecap="round" stroke-linejoin="round" stroke-miterlimit="4" stroke="#484848" stroke-width="2"><g><path d="M 11 19C 10.8 23.4 19.6 26.200001 30 27C 40.400002 27.799999 47.599998 23.200001 49 19C 50.400002 14.8 40.400002 9.2 30 11C 19.6 12.8 11 14.6 11 19M 30 35C 19.6 34.799999 9.8 31.200001 11 27M 28 44C 18.799999 41.400002 11 40.200001 11 36M 26 52.799999C 17.4 52.599998 10 48.799999 11 45C 13.2 36.599998 9.4 27.6 11 19M 49 19C 49.799999 22.200001 49 25.6 49 29M 48.200001 40.200001C 50.200001 41 52.200001 42.200001 54.200001 43C 54.799999 40.799999 56 38.799999 57 36.799999M 32.599998 40.599998C 32.599998 35.200001 39.200001 32.200001 44.400002 33C 49.599998 34 53.799999 37.799999 54.200001 43M 38.799999 49.799999C 36.799999 49 34.200001 48.599998 32.599998 47C 32.400002 49.200001 31 51.200001 30 53.200001M 54.400002 49.400002C 53 54.599998 47.799999 57.200001 42.599998 57C 37.200001 56.599998 32.599998 52.200001 32.599998 47"></path><path d="M 11 19C 11 23.418278 19.50659 27 30 27C 40.493408 27 49 23.418278 49 19C 49 14.581722 40.493408 11 30 11C 19.50659 11 11 14.581722 11 19M 30 35C 19.5 35 11 31.42 11 27M 28 44C 18.439999 43.540001 11 40.139999 11 36M 26 52.82C 17.42 52 11 48.84 11 45L 11 19M 49 19L 49 29M 48.18 40.279999L 54.259998 43L 57 36.860001M 32.639999 40.52C 34.336945 35.570831 39.24939 32.469467 44.447311 33.065716C 49.645233 33.661964 53.72781 37.795128 54.260002 43M 38.760002 49.720001L 32.68 47L 29.940001 53.139999M 54.299999 49.459999C 52.605865 54.408039 47.697712 57.511337 42.501217 56.920063C 37.304718 56.328785 33.219208 52.202156 32.68 47"></path></g></g></g><g id="g-root-tx_mechanis_18gc9b01pd6qrm-stroke" data-item-order="0" transform="translate(586, 280)"></g><g id="g-root-text_1qbd4bg1pd2gp2-stroke" data-item-order="0" transform="translate(244, 335)"><g id="text_1qbd4bg1pd2gp2-stroke" fill="none" stroke-linecap="round" stroke-linejoin="round" stroke-miterlimit="4" stroke="#484848" stroke-width="2"><g><path d="M 15 14C 27.200001 17.4 40.400002 13.4 53 14C 53 14 58.200001 14.2 57 18C 53.599998 28.200001 55 39.599998 57 50C 57 50 56.799999 52.799999 53 54C 41 57.799999 27.6 53.599998 15 54C 15 54 11.6 54 11 50C 9.2 39.400002 9.8 28.6 11 18C 11 18 11 13.8 15 14M 11 24C 26.200001 25.200001 41.799999 22.6 57 24M 18 18.6C 18.200001 18.4 18.6 18.799999 18.6 19C 18.4 19.200001 18.200001 19.6 18 19.6C 17.799999 19.4 17.6 19.200001 17.6 19C 17.4 18.799999 17.799999 18.4 18 18.6M 24 18.6C 24.200001 18.6 24.6 18.799999 24.6 19C 24.4 19.200001 24.200001 19.4 24 19.6C 23.799999 19.6 23.6 19.200001 23.6 19C 23.4 18.799999 23.799999 18.4 24 18.6M 30 18.6C 30.200001 18.6 30.4 18.799999 30.6 19C 30.6 19.200001 30.200001 19.4 30 19.6C 29.799999 19.6 29.6 19.200001 29.6 19C 29.4 18.799999 29.799999 18.6 30 18.6M 47 32C 40.400002 30.6 33.599998 32.599998 27 32M 19 32C 19.6 32.200001 20.4 31.799999 21 32M 47 38C 40.400002 36.599998 33.400002 39.599998 27 38M 19 38C 19.6 38 20.4 38 21 38M 47 44C 40.400002 44.799999 33.599998 43 27 44M 19 44C 19.6 44 20.4 43.799999 21 44"></path><path d="M 15 14.007999L 53 14.007999C 53 14.007999 57 14.007999 57 18.007999L 57 50.007999C 57 50.007999 57 54.007999 53 54.007999L 15 54.007999C 15 54.007999 11 54.007999 11 50.007999L 11 18.007999C 11 18.007999 11 14.007999 15 14.007999M 11 24.007999L 57 24.007999M 18 18.507999C 18.276142 18.507999 18.5 18.731857 18.5 19.007999C 18.5 19.284142 18.276142 19.507999 18 19.507999C 17.723858 19.507999 17.5 19.284142 17.5 19.007999C 17.5 18.731857 17.723858 18.507999 18 18.507999M 24 18.507999C 24.276142 18.507999 24.5 18.731857 24.5 19.007999C 24.5 19.284142 24.276142 19.507999 24 19.507999C 23.723858 19.507999 23.5 19.284142 23.5 19.007999C 23.5 18.731857 23.723858 18.507999 24 18.507999M 30 18.507999C 30.276142 18.507999 30.5 18.731857 30.5 19.007999C 30.5 19.284142 30.276142 19.507999 30 19.507999C 29.723858 19.507999 29.5 19.284142 29.5 19.007999C 29.5 18.731857 29.723858 18.507999 30 18.507999M 47 32.007999L 27 32.007999M 19 32.007999L 21 32.007999M 47 38.007999L 27 38.007999M 19 38.007999L 21 38.007999M 47 44.007999L 27 44.007999M 19 44.007999L 21 44.007999"></path></g></g></g><g id="g-root-diam_18gc9b01pd6qrl-stroke" data-item-order="0" transform="translate(484, 335)"><g id="diam_18gc9b01pd6qrl-stroke" fill="none" stroke-linecap="round" stroke-linejoin="round" stroke-miterlimit="4" stroke="#484848" stroke-width="2"><g><path d="M 12.742857 31.257143C 18.914286 25.085714 25.085714 18.914286 31.257143 12.742857C 31.257143 12.742857 34.685715 9.657143 36.742859 12.742857C 41.200001 20.285715 48.742859 25.771429 55.257141 31.257143C 55.257141 31.257143 56.628574 33.314285 55.257141 36.742859C 51.485718 44.628574 41.200001 47.714287 36.742859 55.257141C 36.742859 55.257141 33.657143 58.342857 31.257143 55.257141C 26.457144 48.057144 20.628571 40.514286 12.742857 36.742859C 12.742857 36.742859 9.657143 33.657143 12.742857 31.257143M 28.857143 28.857143C 30.571428 27.142857 32.971428 25.771429 34 23.714287C 36.057144 24.742859 37.771431 26.800001 39.142857 28.857143M 28.857143 39.142857C 30.571428 40.857143 32.971428 42.228569 34 44.285713C 35.371429 42.228569 37.771431 40.857143 39.142857 39.142857"></path><path d="M 12.785063 31.40593L 31.404194 12.786798C 31.404194 12.786798 33.998268 10.192727 36.592339 12.786798L 55.211468 31.405926C 55.211468 31.405926 57.805542 34 55.211468 36.594074L 36.592339 55.213203C 36.592339 55.213203 33.998268 57.807274 31.404194 55.2132L 12.785063 36.59407C 12.785063 36.59407 10.190992 34 12.785063 31.40593M 28.857143 28.857143L 34 23.714287L 39.142857 28.857143M 28.857143 39.142857L 34 44.285713L 39.142857 39.142857"></path></g></g></g><g id="g-root-docu_w9wc1pd12is-stroke" data-item-order="0" transform="translate(352, 376)"><g id="docu_w9wc1pd12is-stroke" fill="none" stroke-linecap="round" stroke-linejoin="round" stroke-miterlimit="4" stroke="#484848" stroke-width="2"><g><path d="M 10 10M 72.399994 63.699997C 61.600002 58.899998 48.699997 54.699997 42.400002 63.699997C 42.099998 64 41.199997 64.300003 40.900002 64.600006C 34.300003 73.300003 19 72.100006 12.1 63.699997C 13.9 52.599998 13.3 41.199997 12.4 30.400002C 32.200001 29.5 52.599998 26.799999 72.399994 30.400002C 69.699997 41.199997 71.5 52.599998 72.399994 63.699997M 24.400002 22.900002C 42.699997 23.799999 61.600002 25.900002 79.899994 22.900002C 79.600006 34.900002 77.800003 46.900002 79.899994 58.899998"></path><path d="M 10 10M 72.25 63.715004L 71.839005 63.394001C 63.112541 56.574276 50.826462 56.707561 42.25 63.715004L 41.001999 64.653999C 32.382366 71.118111 20.429499 70.727745 12.25 63.714996L 12.25 30.25L 72.25 30.25ZM 24.25 22.75L 79.75 22.75L 79.75 58.75"></path></g></g></g></g></g></svg>