<?xml version="1.0" encoding="utf-8" standalone="yes"?>
<!DOCTYPE svg PUBLIC "-//W3C//DTD SVG 1.1//EN" "http://www.w3.org/Graphics/SVG/1.1/DTD/svg11.dtd">
<svg width="710" height="686" viewBox="0 0 710 686" style="fill:none;stroke:none;fill-rule:evenodd;clip-rule:evenodd;stroke-linecap:round;stroke-linejoin:round;stroke-miterlimit:1.5;" version="1.1" xmlns="http://www.w3.org/2000/svg" xmlns:xlink="http://www.w3.org/1999/xlink"><style id="fontImports">@import url("https://fonts.googleapis.com/css2?family=Shantell+Sans:wght@300..800&amp;display=block");</style><g id="items" style="isolation: isolate"><g id="blend" style="mix-blend-mode: normal"><g id="g-root-5.cu_sy_1lw5qqy1hvewat-fill" data-item-order="-110246" transform="translate(193, 167)"><g id="5.cu_sy_1lw5qqy1hvewat-fill" stroke="none" fill="#ffe4cb"><g><path d="M 180.239 10L 10 133.686L 94.6439 161.188L 180.239 99L 180.239 10Z"></path></g></g></g><g id="g-root-4.cu_sy_1d157l61hvetxq-fill" data-item-order="-110242" transform="translate(193, 290.68597412109375)"><g id="4.cu_sy_1d157l61hvetxq-fill" stroke="none" fill="#fff8b6"><g><path d="M 10 10L 75.0256 210.128L 127.338 138.126L 94.6439 37.5025L 10 10Z"></path></g></g></g><g id="g-root-3.cu_sy_1d157l61hvetxr-fill" data-item-order="-110238" transform="translate(258.025390625, 418.8115234375)"><g id="3.cu_sy_1d157l61hvetxr-fill" stroke="none" fill="#e9ffb9"><g><path d="M 10 82.0025L 220.427 82.0025L 168.114 10L 62.3128 10L 10 82.0025Z"></path></g></g></g><g id="g-root-2.cu_sy_1hgyppm1hvetxc-fill" data-item-order="-110234" transform="translate(416.1396484375, 290.68597412109375)"><g id="2.cu_sy_1hgyppm1hvetxc-fill" stroke="none" fill="#c8ffe5"><g><path d="M 62.313 210.128L 127.339 10L 42.6944 37.5025L 10 138.126L 62.313 210.128Z"></path></g></g></g><g id="g-root-1.cu_sy_18lbpgq1hveuq1-fill" data-item-order="-110230" transform="translate(363.2392578125, 167)"><g id="1.cu_sy_18lbpgq1hveuq1-fill" stroke="none" fill="#d1f4ff"><g><path d="M 180.239 133.686L 10.0001 10L 10 99L 95.5951 161.188L 180.239 133.686Z"></path></g></g></g><g id="g-root-tx_api_18lbpgq1hveuq2-fill" data-item-order="0" transform="translate(333, 27)"><g id="tx_api_18lbpgq1hveuq2-fill" stroke="none" fill="#484848"><g><text style="font: bold 25px &quot;Shantell Sans&quot;, cursive; white-space: pre;" font-weight="bold" font-size="25px" font-family="'Shantell Sans', cursive"><tspan x="15.89" y="44.5" dominant-baseline="ideographic">API</tspan></text></g></g></g><g id="g-root-tx_dataform_dhysoa1hv50jo-fill" data-item-order="0" transform="translate(99, 99)"><g id="tx_dataform_dhysoa1hv50jo-fill" stroke="none" fill="#484848"><g><text style="font: bold 20px &quot;Shantell Sans&quot;, cursive; white-space: pre;" font-weight="bold" font-size="20px" font-family="'Shantell Sans', cursive"><tspan x="19.69" y="35.5" dominant-baseline="ideographic">Data Formats</tspan></text></g></g></g><g id="g-root-tx_rules_4mbsfe1hv51cd-fill" data-item-order="0" transform="translate(471, 99)"><g id="tx_rules_4mbsfe1hv51cd-fill" stroke="none" fill="#484848"><g><text style="font: bold 20px &quot;Shantell Sans&quot;, cursive; white-space: pre;" font-weight="bold" font-size="20px" font-family="'Shantell Sans', cursive"><tspan x="12" y="35.5" dominant-baseline="ideographic">Rules</tspan></text></g></g></g><g id="g-root-tx_thestruc_v8mc2y1hv51c4-fill" data-item-order="0" transform="translate(111, 135)"><g id="tx_thestruc_v8mc2y1hv51c4-fill" stroke="none" fill="#484848"><g><text style="font: 15px &quot;Shantell Sans&quot;, cursive; white-space: pre;" font-size="15px" font-family="'Shantell Sans', cursive"><tspan x="14.8" y="32" dominant-baseline="ideographic">The structures and </tspan><tspan x="54.07" y="50" dominant-baseline="ideographic">types of data </tspan><tspan x="70.37" y="68" dominant-baseline="ideographic">exchanged.</tspan></text></g></g></g><g id="g-root-tx_theguide_hxsasq1hv4zrc-fill" data-item-order="0" transform="translate(471, 135)"><g id="tx_theguide_hxsasq1hv4zrc-fill" stroke="none" fill="#484848"><g><text style="font: 15px &quot;Shantell Sans&quot;, cursive; white-space: pre;" font-size="15px" font-family="'Shantell Sans', cursive"><tspan x="12" y="29" dominant-baseline="ideographic">The guidelines that </tspan><tspan x="12" y="47" dominant-baseline="ideographic">govern API </tspan><tspan x="12" y="65" dominant-baseline="ideographic">interactions and </tspan><tspan x="12" y="83" dominant-baseline="ideographic">operations.</tspan></text></g></g></g><g id="g-root-add_4hydnu1hvlude-fill" data-item-order="0" transform="translate(273, 237)"></g><g id="g-root-land_4my6cq1hvhn9r-fill" data-item-order="0" transform="translate(406, 237)"></g><g id="g-root-comp_4j7ezu1hv6ebu-fill" data-item-order="0" transform="translate(327, 309)"></g><g id="g-root-tx_methods_hxsasq1hv4zrd-fill" data-item-order="0" transform="translate(75, 333)"><g id="tx_methods_hxsasq1hv4zrd-fill" stroke="none" fill="#484848"><g><text style="font: bold 20px &quot;Shantell Sans&quot;, cursive; white-space: pre;" font-weight="bold" font-size="20px" font-family="'Shantell Sans', cursive"><tspan x="23.35" y="35.5" dominant-baseline="ideographic">Methods</tspan></text></g></g></g><g id="g-root-tx_protocol_dhysoa1hv50jn-fill" data-item-order="0" transform="translate(543.076171875, 333)"><g id="tx_protocol_dhysoa1hv50jn-fill" stroke="none" fill="#484848"><g><text style="font: bold 20px &quot;Shantell Sans&quot;, cursive; white-space: pre;" font-weight="bold" font-size="20px" font-family="'Shantell Sans', cursive"><tspan x="12" y="35.5" dominant-baseline="ideographic">Protocols</tspan></text></g></g></g><g id="g-root-tx_thespeci_mczbu21hv524t-fill" data-item-order="0" transform="translate(27, 369)"><g id="tx_thespeci_mczbu21hv524t-fill" stroke="none" fill="#484848"><g><text style="font: 15px &quot;Shantell Sans&quot;, cursive; white-space: pre;" font-size="15px" font-family="'Shantell Sans', cursive"><tspan x="79.96" y="29" dominant-baseline="ideographic">The specific </tspan><tspan x="21.7" y="47" dominant-baseline="ideographic">techniques for data </tspan><tspan x="67.12" y="65" dominant-baseline="ideographic">handling and </tspan><tspan x="84.7" y="83" dominant-baseline="ideographic">processing.</tspan></text></g></g></g><g id="g-root-2_8x5huy1hv3myu-fill" data-item-order="0" transform="translate(237, 357)"></g><g id="g-root-hand_v8mc2y1hv51c3-fill" data-item-order="0" transform="translate(441, 357)"></g><g id="g-root-tx_theestab_mczbu21hv524v-fill" data-item-order="0" transform="translate(543, 369)"><g id="tx_theestab_mczbu21hv524v-fill" stroke="none" fill="#484848"><g><text style="font: 15px &quot;Shantell Sans&quot;, cursive; white-space: pre;" font-size="15px" font-family="'Shantell Sans', cursive"><tspan x="12" y="29" dominant-baseline="ideographic">The established </tspan><tspan x="12" y="47" dominant-baseline="ideographic">methods for data </tspan><tspan x="12" y="65" dominant-baseline="ideographic">exchange between </tspan><tspan x="12" y="83" dominant-baseline="ideographic">systems.</tspan></text></g></g></g><g id="g-root-2_v7daqy1hvj37v-fill" data-item-order="0" transform="translate(339, 431)"></g><g id="g-root-tx_tools_dhysoa1hv50jm-fill" data-item-order="0" transform="translate(333, 531)"><g id="tx_tools_dhysoa1hv50jm-fill" stroke="none" fill="#484848"><g><text style="font: bold 20px &quot;Shantell Sans&quot;, cursive; white-space: pre;" font-weight="bold" font-size="20px" font-family="'Shantell Sans', cursive"><tspan x="13.09" y="35.5" dominant-baseline="ideographic">Tools</tspan></text></g></g></g><g id="g-root-tx_thesoftw_mczbu21hv524u-fill" data-item-order="0" transform="translate(291, 567)"><g id="tx_thesoftw_mczbu21hv524u-fill" stroke="none" fill="#484848"><g><text style="font: 15px &quot;Shantell Sans&quot;, cursive; white-space: pre;" font-size="15px" font-family="'Shantell Sans', cursive"><tspan x="14.86" y="32" dominant-baseline="ideographic">The software and </tspan><tspan x="15.65" y="50" dominant-baseline="ideographic">resources used to </tspan><tspan x="20.43" y="68" dominant-baseline="ideographic">implement APIs.</tspan></text></g></g></g><g id="g-root-5.cu_sy_1lw5qqy1hvewat-stroke" data-item-order="-110246" transform="translate(193, 167)"><g id="5.cu_sy_1lw5qqy1hvewat-stroke" fill="none" stroke-linecap="round" stroke-linejoin="round" stroke-miterlimit="4" stroke="#ffffff" stroke-width="2"><g><path d="M 180.2391 10L 10 133.686L 94.6439 161.1885L 180.239 99L 180.2391 10Z"></path></g></g></g><g id="g-root-4.cu_sy_1d157l61hvetxq-stroke" data-item-order="-110242" transform="translate(193, 290.68597412109375)"><g id="4.cu_sy_1d157l61hvetxq-stroke" fill="none" stroke-linecap="round" stroke-linejoin="round" stroke-miterlimit="4" stroke="#ffffff" stroke-width="2"><g><path d="M 10 10L 75.0256 210.1281L 127.3383 138.1256L 94.6439 37.5025L 10 10Z"></path></g></g></g><g id="g-root-3.cu_sy_1d157l61hvetxr-stroke" data-item-order="-110238" transform="translate(258.025390625, 418.8115234375)"><g id="3.cu_sy_1d157l61hvetxr-stroke" fill="none" stroke-linecap="round" stroke-linejoin="round" stroke-miterlimit="4" stroke="#ffffff" stroke-width="2"><g><path d="M 10 82.0025L 220.4271 82.0025L 168.1141 10L 62.3128 10L 10 82.0025Z"></path></g></g></g><g id="g-root-2.cu_sy_1hgyppm1hvetxc-stroke" data-item-order="-110234" transform="translate(416.1396484375, 290.68597412109375)"><g id="2.cu_sy_1hgyppm1hvetxc-stroke" fill="none" stroke-linecap="round" stroke-linejoin="round" stroke-miterlimit="4" stroke="#ffffff" stroke-width="2"><g><path d="M 127.3386 10L 62.313 210.1281L 10 138.1256L 42.6944 37.5025L 127.3386 10Z"></path></g></g></g><g id="g-root-1.cu_sy_18lbpgq1hveuq1-stroke" data-item-order="-110230" transform="translate(363.2392578125, 167)"><g id="1.cu_sy_18lbpgq1hveuq1-stroke" fill="none" stroke-linecap="round" stroke-linejoin="round" stroke-miterlimit="4" stroke="#ffffff" stroke-width="2"><g><path d="M 10.0001 10L 180.2393 133.686L 95.5951 161.1885L 10 99L 10.0001 10Z"></path></g></g></g><g id="g-root-tx_api_18lbpgq1hveuq2-stroke" data-item-order="0" transform="translate(333, 27)"></g><g id="g-root-tx_dataform_dhysoa1hv50jo-stroke" data-item-order="0" transform="translate(99, 99)"></g><g id="g-root-tx_rules_4mbsfe1hv51cd-stroke" data-item-order="0" transform="translate(471, 99)"></g><g id="g-root-tx_thestruc_v8mc2y1hv51c4-stroke" data-item-order="0" transform="translate(111, 135)"></g><g id="g-root-tx_theguide_hxsasq1hv4zrc-stroke" data-item-order="0" transform="translate(471, 135)"></g><g id="g-root-add_4hydnu1hvlude-stroke" data-item-order="0" transform="translate(273, 237)"><g id="add_4hydnu1hvlude-stroke" fill="none" stroke-linecap="round" stroke-linejoin="round" stroke-miterlimit="4" stroke="#de8431" stroke-width="2"><g><path d="M 33 44.992001C 33 51.619419 38.372581 56.992001 45 56.992001C 51.627419 56.992001 57 51.619419 57 44.992001C 57 38.364586 51.627419 32.992001 45 32.992001C 38.372581 32.992001 33 38.364586 33 44.992001ZM 45 38.992001L 45 50.992001M 51 44.992001L 39 44.992001M 29 47L 15 47C 12.790861 47 11 45.209141 11 43L 11 15C 11 12.790861 12.790861 11 15 11L 43 11C 45.209141 11 47 12.790861 47 15L 47 29M 11 23.007999L 47 23.007999M 11 34.992001L 31 34.992001M 35 11.008L 35 31.007999M 23 11.008L 23 46.992001"></path></g></g></g><g id="g-root-land_4my6cq1hvhn9r-stroke" data-item-order="0" transform="translate(406, 237)"><g id="land_4my6cq1hvhn9r-stroke" fill="none" stroke-linecap="round" stroke-linejoin="round" stroke-miterlimit="4" stroke="#1eabda" stroke-width="2"><g><path d="M 53 38L 53 13C 53 11.895431 52.104568 11 51 11L 17 11C 15.895431 11 15 11.895431 15 13L 15 38M 51.001999 48.995998L 17.001999 48.995998M 24.001999 55.995998L 17.001999 48.995998L 24.001999 41.996002M 30.002001 23.996C 30.002001 26.205139 31.792862 27.996 34.001999 27.996C 36.21114 27.996 38.001999 26.205139 38.001999 23.996C 38.001999 21.786861 36.21114 19.996 34.001999 19.996C 31.792862 19.996 30.002001 21.786861 30.002001 23.996ZM 41 35L 27 35C 27.000002 31.134008 30.134008 28.000002 34 28.000002C 37.865993 28.000002 41 31.134008 41 35Z"></path></g></g></g><g id="g-root-comp_4j7ezu1hv6ebu-stroke" data-item-order="0" transform="translate(327, 309)"><g id="comp_4j7ezu1hv6ebu-stroke" fill="none" stroke-linecap="round" stroke-linejoin="round" stroke-miterlimit="4" stroke="#484848" stroke-width="2"><g><path d="M 39.864998 44.467003C 39.864464 47.855648 42.611351 50.602978 46 50.602978C 49.388649 50.602978 52.13554 47.855648 52.135002 44.467003C 52.13554 41.078354 49.388649 38.331024 46 38.331024C 42.611351 38.331024 39.864464 41.078354 39.864998 44.467003M 11.5 44.467003C 11.49946 47.855648 14.246351 50.602978 17.635 50.602978C 21.023649 50.602978 23.77054 47.855648 23.77 44.467003C 23.77054 41.078354 21.023649 38.331024 17.635 38.331024C 14.246351 38.331024 11.49946 41.078354 11.5 44.467003M 39.864998 17.635C 39.864464 21.023649 42.611351 23.770977 46 23.770977C 49.388649 23.770977 52.13554 21.023649 52.135002 17.635C 52.13554 14.246351 49.388649 11.499023 46 11.499023C 42.611351 11.499023 39.864464 14.246351 39.864998 17.635M 39.864998 74.364998C 39.864464 77.753654 42.611351 80.500977 46 80.500977C 49.388649 80.500977 52.13554 77.753654 52.135002 74.364998C 52.13554 70.976349 49.388649 68.229027 46 68.229027C 42.611351 68.229027 39.864464 70.976349 39.864998 74.364998M 68.229996 74.364998C 68.229462 77.753654 70.976349 80.500977 74.364998 80.500977C 77.753654 80.500977 80.500542 77.753654 80.5 74.364998C 80.500542 70.976349 77.753654 68.229027 74.364998 68.229027C 70.976349 68.229027 68.229462 70.976349 68.229996 74.364998M 68.229996 44.467003C 68.229462 47.855648 70.976349 50.602978 74.364998 50.602978C 77.753654 50.602978 80.500542 47.855648 80.5 44.467003C 80.500542 41.078354 77.753654 38.331024 74.364998 38.331024C 70.976349 38.331024 68.229462 41.078354 68.229996 44.467003M 11.5 17.635C 11.49946 21.023649 14.246351 23.770977 17.635 23.770977C 21.023649 23.770977 23.77054 21.023649 23.77 17.635C 23.77054 14.246351 21.023649 11.499023 17.635 11.499023C 14.246351 11.499023 11.49946 14.246351 11.5 17.635M 68.229996 17.635C 68.229462 21.023649 70.976349 23.770977 74.364998 23.770977C 77.753654 23.770977 80.500542 21.023649 80.5 17.635C 80.500542 14.246351 77.753654 11.499023 74.364998 11.499023C 70.976349 11.499023 68.229462 14.246351 68.229996 17.635M 11.5 74.364998C 11.49946 77.753654 14.246351 80.500977 17.635 80.500977C 21.023649 80.500977 23.77054 77.753654 23.77 74.364998C 23.77054 70.976349 21.023649 68.229027 17.635 68.229027C 14.246351 68.229027 11.49946 70.976349 11.5 74.364998M 21.855999 69.909996L 41.778999 48.922001M 74.364998 23.773001L 74.364998 38.328999M 52.135002 44.467003L 68.227005 44.467003M 50.461002 40.251999L 69.901001 21.85M 22.098999 21.85L 41.538998 40.251999"></path></g></g></g><g id="g-root-tx_methods_hxsasq1hv4zrd-stroke" data-item-order="0" transform="translate(75, 333)"></g><g id="g-root-tx_protocol_dhysoa1hv50jn-stroke" data-item-order="0" transform="translate(543.076171875, 333)"></g><g id="g-root-tx_thespeci_mczbu21hv524t-stroke" data-item-order="0" transform="translate(27, 369)"></g><g id="g-root-2_8x5huy1hv3myu-stroke" data-item-order="0" transform="translate(237, 357)"><g id="2_8x5huy1hv3myu-stroke" fill="none" stroke-linecap="round" stroke-linejoin="round" stroke-miterlimit="4" stroke="#e0cb15" stroke-width="2"><g><path d="M 17 41.431999L 17 13.334C 17 12.22943 17.895432 11.334 19 11.334L 49 11.334C 50.104568 11.334 51 12.22943 51 13.334L 51 41.431999C 50.99971 42.005127 50.753559 42.550591 50.324001 42.93L 35.323997 56.166C 34.567715 56.833988 33.432285 56.833988 32.676003 56.166L 17.676001 42.93C 17.246439 42.550591 17.00029 42.005127 17 41.431999Z"></path></g></g></g><g id="g-root-hand_v8mc2y1hv51c3-stroke" data-item-order="0" transform="translate(441, 357)"><g id="hand_v8mc2y1hv51c3-stroke" fill="none" stroke-linecap="round" stroke-linejoin="round" stroke-miterlimit="4" stroke="#3cc583" stroke-width="2"><g><path d="M 30.351999 31.312L 39.928001 26.664C 41.733963 25.778008 43.916218 26.523933 44.801998 28.33L 44.773998 31.93L 47.438 33.708L 47.265999 37.007999L 50.150002 39.234001C 51.035988 41.039963 50.290066 43.222218 48.483997 44.107998L 34.858002 50.754002L 30.695999 56.068001M 31.892 37.152C 32.935661 34.769951 31.918289 31.988497 29.584 30.841999L 22.383999 27.312L 19.482 29.280001L 19.917999 32.279999L 16.700001 34.771999L 16.662001 38.818001L 13.842 40.618L 14.15 43.872002L 21.658001 47.556C 22.846699 48.139103 24.221951 48.211544 25.465332 47.756557C 26.708714 47.301571 27.7124 46.358608 28.243999 45.146ZM 19.633999 46.554001L 12.156 56.063999M 33.987999 51.860001L 37.278 56.063999M 47.034 44.812L 55.844002 56.063999M 36.757999 28.129999L 28.705999 24.116001C 27.731159 23.638096 26.553444 24.039913 26.073999 25.014L 25.754 25.666C 25.03772 27.128489 25.641991 28.894747 27.104 29.612001L 28.952 30.52M 30.424 24.972L 34.676003 22.925999C 35.651302 22.447182 36.830078 22.85026 37.307999 23.826L 37.627998 24.478001C 38.344284 25.940487 37.740013 27.706747 36.278 28.424L 34.43 29.33M 33.987999 11.936L 33.987999 15.936M 53.080002 19.844L 50.25 22.672001M 14.896 19.844L 17.723999 22.672001"></path></g></g></g><g id="g-root-tx_theestab_mczbu21hv524v-stroke" data-item-order="0" transform="translate(543, 369)"></g><g id="g-root-2_v7daqy1hvj37v-stroke" data-item-order="0" transform="translate(339, 431)"><g id="2_v7daqy1hvj37v-stroke" fill="none" stroke-linecap="round" stroke-linejoin="round" stroke-miterlimit="4" stroke="#92bd39" stroke-width="2"><g><path d="M 29.059999 25.307999C 28.356613 26.903687 27.183916 28.247301 25.697998 29.159998L 27.677999 39.48L 21.49 39.48L 19.734001 30.302C 16.215942 29.690422 13.443654 26.96526 12.771853 23.458204C 12.100054 19.951149 13.668999 16.394394 16.712 14.526L 17.938 20.92L 21.49 23.33L 23.9 19.779999L 22.674 13.384C 25.276871 13.835477 27.526892 15.460291 28.774094 17.78908C 30.021297 20.11787 30.126753 22.891222 29.059999 25.307999ZM 43.051998 14.592C 42.453999 17.282 39.290001 19.076 34.954002 18.112L 34.108002 21.914L 54.388 26.422001L 56.360001 17.549999L 43.051998 14.592ZM 39.015999 39.48L 42.504002 23.788L 48.278 25.071999L 44.911999 39.482002L 39.015999 39.482002ZM 56.5 52.66L 56.5 39.48L 11.5 39.48L 11.5 52.66C 11.5 53.740002 12.375999 54.618 13.456 54.618L 54.543999 54.618C 55.624001 54.618 56.5 53.740002 56.5 52.66ZM 36.933998 42.416C 36.933998 44.036404 35.620403 45.350002 34 45.350002C 32.379597 45.350002 31.066 44.036404 31.066 42.416L 31.066 39.482002L 36.933998 39.482002L 36.933998 42.416Z"></path></g></g></g><g id="g-root-tx_tools_dhysoa1hv50jm-stroke" data-item-order="0" transform="translate(333, 531)"></g><g id="g-root-tx_thesoftw_mczbu21hv524u-stroke" data-item-order="0" transform="translate(291, 567)"></g></g></g></svg>